<svg width="160" height="72" viewBox="0 0 160 72" fill="none" xmlns="http://www.w3.org/2000/svg">
<g clip-path="url(#clip0)">
<path d="M50.673 43.1432C49.5451 41.0728 48.5073 40.0351 46.4168 38.8771L46.3517 38.842C45.2588 38.2404 44.0256 37.5536 44.0256 35.9794C44.0306 34.4053 45.2638 33.7436 46.3467 33.1621L46.4168 33.127C48.5023 32.009 49.54 30.9763 50.673 28.8858C52.8738 21.321 48.8532 12.8086 43.8852 7.72027C39.0926 2.81238 32.4702 0 25.7125 0C18.9447 0 12.5179 2.76726 7.60998 7.79045C2.70209 12.8136 0 19.3959 0 26.3241V45.6298C0 52.558 2.70209 59.1402 7.60998 64.1634C12.5179 69.1866 18.9447 71.9539 25.7125 71.9539C32.4702 71.9539 39.0926 69.1415 43.8852 64.2336C48.8532 59.1453 52.8788 50.653 50.673 43.1432ZM42.1105 62.4239C37.7842 66.8505 31.8085 69.3922 25.7125 69.3922C19.6616 69.3922 13.6709 66.8004 9.27936 62.2735C4.87279 57.7366 2.46647 51.826 2.50658 45.6298V26.3241C2.47149 20.1278 4.8778 14.2173 9.27936 9.68041C13.6709 5.15854 19.6566 2.56674 25.7075 2.56674C31.8035 2.56674 37.7792 5.10841 42.1055 9.53503C46.5923 14.1321 50.2018 21.7571 48.1464 28.4296L48.1313 28.4647C46.9232 30.7307 45.5596 31.8586 43.7649 33.2022C42.7372 33.9692 41.89 34.7111 41.8849 35.9794C41.8849 37.4333 43.0079 38.2454 44.0907 39.0274L44.191 39.1026C45.9907 40.4061 47.1337 41.6945 48.1263 43.5493L48.1414 43.5844C50.2118 50.2118 46.6023 57.8218 42.1105 62.4239Z" fill="white"/>
<path d="M44.6774 44.3513C43.6948 42.3962 42.4716 41.0376 41.2935 39.8645C40.336 38.907 39.1479 37.7189 39.1479 35.9793C39.1479 34.4804 40.0202 33.4427 40.9075 32.5102L41.0579 32.3548C42.5368 30.8058 43.7098 29.5826 44.6774 27.6475C46.2866 22.2132 43.2687 15.9468 39.559 12.1518C35.9094 8.41199 30.8611 6.26636 25.7126 6.26636H25.7076C20.6293 6.26636 15.581 8.46713 11.8512 12.3122C8.11642 16.1623 6.08108 21.1404 6.11617 26.329V45.6347C6.08108 50.8133 8.19162 55.9618 11.9064 59.7668C15.6211 63.5718 20.6543 65.7224 25.7076 65.6974H25.7126C25.7527 65.6974 25.7928 65.6974 25.8279 65.6974C30.9012 65.6974 35.8993 63.5567 39.559 59.8119C43.2737 56.0069 46.2916 49.7555 44.6774 44.3513ZM37.7893 57.9971C34.631 61.2306 30.2295 63.1005 25.7126 63.1306C25.6775 63.1306 25.6474 63.1306 25.6123 63.1306C21.2208 63.1306 17.0248 61.3309 13.7963 58.0573C10.5277 54.7436 8.6428 50.2167 8.62275 45.6347V26.324C8.6428 21.7219 10.5328 17.185 13.8114 13.8663C17.0298 10.6128 21.2058 8.82307 25.5773 8.82307C25.6224 8.82307 25.6675 8.82307 25.7126 8.82307C30.2194 8.84312 34.621 10.713 37.7893 13.9565C42.4766 18.7591 43.1283 24.0781 42.261 27.1762L42.251 27.2063C41.7597 28.2741 40.9877 29.2918 40.1655 30.3696C38.827 32.1292 37.4384 33.949 37.4384 35.9743C37.4384 37.9997 38.832 39.8345 40.1806 41.6141C40.9977 42.692 41.7647 43.7046 42.251 44.7624L42.261 44.7925C43.1283 47.8806 42.4816 53.1945 37.7893 57.9971Z" fill="white"/>
<path d="M38.7216 45.5545C38.2854 44.5619 37.6688 43.5693 37.0171 42.5216C35.7338 40.4561 34.4053 38.3205 34.4053 35.9794C34.4053 33.6332 35.7338 31.4976 37.0171 29.4372C37.6688 28.3895 38.2854 27.3969 38.7216 26.3992C39.5438 24.2336 38.8068 20.228 35.2375 16.5735C32.7259 14.0017 29.2517 12.5278 25.7074 12.5278C22.1581 12.5278 18.7893 13.9766 16.2175 16.6136C13.6458 19.2505 12.2271 22.6995 12.2271 26.3341V45.6398C12.2271 49.2743 13.6458 52.7233 16.2175 55.3603C18.7893 57.9972 22.1631 59.446 25.7074 59.446C29.2517 59.446 32.7208 57.9721 35.2324 55.4004C37.739 52.8236 39.8947 48.6577 38.7216 45.5545ZM33.4678 53.5756C31.4375 55.641 28.5649 56.8692 25.7676 56.8692C25.7475 56.8692 25.7275 56.8692 25.7074 56.8692C22.8148 56.8492 19.9573 55.5859 17.8568 53.3951C15.8064 51.2545 14.6935 48.4922 14.7286 45.6247V26.324C14.6935 23.4264 15.8115 20.6492 17.8869 18.4985C19.9774 16.3278 22.8299 15.0845 25.7024 15.0845C28.5399 15.0495 31.3673 16.2476 33.4628 18.3782C36.4958 21.4663 36.8166 24.6246 36.1699 26.3892C35.7638 27.3918 35.2124 28.3945 34.6258 29.4523C33.4578 31.5678 32.2546 33.7536 32.2546 35.9744C32.2546 38.2052 33.4578 40.3809 34.6208 42.4815C35.2074 43.5443 35.7638 44.5469 36.1699 45.5545C36.8216 47.3292 36.5008 50.4875 33.4678 53.5756Z" fill="white"/>
<path d="M32.7561 45.675C32.4754 44.6523 32.0843 43.5946 31.7083 42.5719C30.9263 40.4413 30.1142 38.2405 30.1142 35.9746C30.1142 33.7086 30.9263 31.5078 31.7083 29.3772C32.0843 28.3546 32.4754 27.2968 32.7561 26.2691C33.2273 24.3791 32.4603 22.8401 31.7384 21.8876C30.3448 20.0578 27.8683 18.7744 25.7126 18.7744C23.7725 18.7744 21.9327 19.5665 20.524 21.0053C19.1203 22.444 18.3433 24.329 18.3433 26.3192V45.6249C18.3433 47.6101 19.1153 49.5001 20.524 50.9388C21.9277 52.3776 23.7725 53.1697 25.7126 53.1697C27.8683 53.1697 30.3448 51.8913 31.7384 50.0615C32.4653 49.109 33.2273 47.575 32.7561 45.675ZM29.5477 48.6929C28.6253 49.8209 27.1213 50.5729 25.7126 50.608C25.6775 50.608 25.6424 50.608 25.6073 50.608C24.4393 50.608 23.3063 50.1267 22.4139 49.2494C21.4364 48.2919 20.8649 46.9684 20.8448 45.6299V26.3242C20.8649 24.9707 21.4414 23.6472 22.424 22.6847C23.3414 21.7873 24.5094 21.3061 25.7126 21.3462C27.1363 21.3762 28.6002 22.1032 29.5376 23.2411C30.2996 24.1686 30.6155 25.2464 30.45 26.3543C30.3047 27.4372 30.1041 28.535 29.9136 29.5928C29.5376 31.6733 29.1466 33.8239 29.1466 35.9796C29.1466 38.1302 29.5376 40.2859 29.9136 42.3663C30.1041 43.4241 30.3047 44.522 30.45 45.6099C30.6205 46.7027 30.3047 47.7705 29.5477 48.6929Z" fill="white"/>
<path d="M26.7751 45.6348C26.6598 39.1378 26.6598 32.8212 26.7751 26.3241C26.7801 25.9682 26.6497 25.6373 26.4141 25.3917C26.1985 25.1661 25.9078 25.0408 25.607 25.0408C24.9703 25.0408 24.459 25.6173 24.459 26.3241V45.6298C24.459 46.3367 24.9753 46.9132 25.607 46.9132C25.9078 46.9132 26.1985 46.7879 26.4141 46.5623C26.6497 46.3216 26.7801 45.9908 26.7751 45.6348Z" fill="white"/>
<path d="M71.1567 47.8105C69.2166 47.8105 67.4971 47.3894 66.0032 46.5472C64.5093 45.705 63.3462 44.5018 62.514 42.9327C61.6818 41.3636 61.2607 39.5087 61.2607 37.3681V20.4136H65.557V30.7958H65.5971C65.9932 30.109 66.5195 29.5074 67.1662 29.0011C67.8129 28.4898 68.5348 28.0937 69.3319 27.818C70.129 27.5373 70.9762 27.3969 71.8736 27.3969C73.6884 27.3969 75.2926 27.813 76.6712 28.6402C78.0548 29.4673 79.1377 30.6254 79.9197 32.0992C80.7018 33.5731 81.0978 35.3127 81.0978 37.2979C81.0978 38.852 80.8672 40.2757 80.406 41.5591C79.9448 42.8475 79.2881 43.9604 78.4258 44.9029C77.5686 45.8453 76.5258 46.5672 75.3076 47.0635C74.0794 47.5598 72.7008 47.8105 71.1567 47.8105ZM71.1567 44.0606C72.2546 44.0606 73.2221 43.7849 74.0694 43.2385C74.9166 42.6921 75.5733 41.9351 76.0496 40.9625C76.5208 39.995 76.7614 38.872 76.7614 37.5987C76.7614 36.3504 76.5258 35.2425 76.0496 34.2699C75.5783 33.3024 74.9216 32.5354 74.0894 31.9739C73.2572 31.4124 72.2897 31.1317 71.1968 31.1317C70.0989 31.1317 69.1314 31.4074 68.2842 31.9539C67.437 32.5003 66.7752 33.2623 66.304 34.2298C65.8327 35.1974 65.5971 36.3203 65.5971 37.5937C65.5971 38.867 65.8327 39.99 66.304 40.9575C66.7752 41.925 67.437 42.687 68.2842 43.2335C69.1264 43.7899 70.0839 44.0606 71.1567 44.0606Z" fill="white"/>
<path d="M94.1971 47.8106C92.257 47.8106 90.5225 47.3594 89.0085 46.452C87.4895 45.5496 86.2864 44.3264 85.404 42.7824C84.5217 41.2383 84.0806 39.5138 84.0806 37.6038C84.0806 35.6938 84.5217 33.9642 85.404 32.4252C86.2864 30.8811 87.4895 29.6579 89.0085 28.7555C90.5275 27.8482 92.257 27.397 94.1971 27.397C96.1623 27.397 97.9069 27.8482 99.4258 28.7555C100.945 29.6629 102.143 30.8861 103.03 32.4252C103.913 33.9692 104.354 35.6938 104.354 37.6038C104.354 39.5138 103.913 41.2433 103.03 42.7824C102.148 44.3264 100.945 45.5496 99.4258 46.452C97.9069 47.3544 96.1623 47.8106 94.1971 47.8106ZM94.1971 44.0607C95.3902 44.0607 96.423 43.775 97.2953 43.1985C98.1675 42.6269 98.8393 41.8499 99.3105 40.8673C99.7818 39.8848 100.022 38.7969 100.022 37.5988C100.022 36.4006 99.7868 35.3128 99.3105 34.3302C98.8393 33.3476 98.1625 32.5706 97.2953 31.9991C96.423 31.4276 95.3902 31.1418 94.1971 31.1418C93.0291 31.1418 92.0114 31.4276 91.1541 31.9991C90.2969 32.5706 89.6251 33.3426 89.1388 34.3151C88.6526 35.2827 88.4119 36.3806 88.4119 37.6038C88.4119 38.8019 88.6526 39.8898 89.1388 40.8723C89.6251 41.8549 90.2969 42.632 91.1541 43.2035C92.0114 43.775 93.024 44.0607 94.1971 44.0607Z" fill="white"/>
<path d="M115.142 47.8104C113.899 47.8104 112.766 47.5598 111.743 47.0635C110.72 46.5672 109.913 45.8002 109.317 44.7675C108.72 43.7347 108.419 42.4163 108.419 40.8121V27.8531H112.716V41.5039C112.716 42.0152 112.831 42.4664 113.052 42.8625C113.277 43.2585 113.568 43.5593 113.929 43.7598C114.29 43.9654 114.696 44.0656 115.142 44.0656C115.568 44.0656 115.964 43.9654 116.335 43.7598C116.711 43.5543 117.007 43.2585 117.233 42.8625C117.458 42.4664 117.568 42.0152 117.568 41.5039V34.31C117.568 32.8061 117.849 31.5377 118.406 30.505C118.967 29.4723 119.749 28.6953 120.757 28.1739C121.764 27.6525 122.917 27.3918 124.211 27.3918C125.529 27.3918 126.687 27.6525 127.685 28.1739C128.678 28.6953 129.465 29.4723 130.036 30.505C130.608 31.5377 130.893 32.8061 130.893 34.31V41.4989C130.893 42.0102 131.004 42.4614 131.229 42.8574C131.455 43.2535 131.751 43.5543 132.127 43.7548C132.503 43.9603 132.909 44.0606 133.36 44.0606C133.781 44.0606 134.177 43.9603 134.538 43.7548C134.899 43.5493 135.19 43.2535 135.415 42.8574C135.641 42.4614 135.751 42.0102 135.751 41.4989V27.8531H140.047V40.8121C140.047 42.4163 139.752 43.7398 139.15 44.7675C138.554 45.8002 137.741 46.5622 136.724 47.0635C135.701 47.5598 134.583 47.8104 133.36 47.8104C132.137 47.8104 131.019 47.5598 129.996 47.0635C128.978 46.5672 128.156 45.8002 127.53 44.7675C126.908 43.7347 126.597 42.4163 126.597 40.8121V33.6984C126.597 33.1369 126.492 32.6707 126.281 32.3047C126.071 31.9338 125.785 31.648 125.424 31.4475C125.063 31.242 124.657 31.1417 124.211 31.1417C123.815 31.1417 123.424 31.242 123.053 31.4475C122.677 31.653 122.381 31.9388 122.155 32.3047C121.93 32.6757 121.82 33.1419 121.82 33.6984V40.8121C121.82 42.4163 121.514 43.7398 120.902 44.7675C120.291 45.8002 119.483 46.5622 118.476 47.0635C117.478 47.5598 116.365 47.8104 115.142 47.8104Z" fill="white"/>
<path d="M152.495 47.3492C150.355 47.3492 148.48 46.9382 146.876 46.106C145.272 45.2788 144.018 44.1308 143.121 42.6669C142.224 41.2031 141.777 39.5137 141.777 37.5986C141.777 35.5833 142.173 33.8137 142.97 32.2847C143.768 30.7557 144.86 29.5575 146.259 28.6903C147.653 27.823 149.257 27.3918 151.077 27.3918C153.117 27.3918 154.797 27.838 156.12 28.7304C157.438 29.6227 158.416 30.8208 159.053 32.3248C159.689 33.8287 160.005 35.5132 160.005 37.373C160.005 37.6287 159.995 37.9195 159.97 38.2504C159.945 38.5812 159.91 38.8369 159.86 39.0174H146.339C146.49 40.035 146.851 40.8823 147.422 41.559C147.994 42.2358 148.716 42.7421 149.588 43.088C150.46 43.434 151.433 43.6044 152.501 43.6044H157.614V47.3492H152.495ZM146.294 36.0345H155.704C155.679 35.5483 155.609 35.067 155.498 34.5807C155.388 34.0944 155.213 33.6382 154.977 33.2021C154.741 32.771 154.441 32.395 154.08 32.0741C153.719 31.7583 153.288 31.5026 152.791 31.3071C152.295 31.1166 151.723 31.0214 151.072 31.0214C150.325 31.0214 149.663 31.1668 149.092 31.4625C148.52 31.7583 148.034 32.1393 147.633 32.6105C147.237 33.0818 146.931 33.6182 146.72 34.2148C146.51 34.8163 146.369 35.4229 146.294 36.0345Z" fill="white"/>
<path d="M64.4189 64.028C63.7672 64.028 63.2107 63.8676 62.7345 63.5517C62.2632 63.2309 61.8973 62.7998 61.6466 62.2483C61.391 61.7019 61.2656 61.0953 61.2656 60.4335C61.2656 59.7568 61.406 59.1502 61.6867 58.6088C61.9675 58.0623 62.3735 57.6362 62.8949 57.3154C63.4213 56.9945 64.0529 56.8391 64.7899 56.8391C65.5017 56.8391 66.1083 56.9945 66.6147 57.3103C67.126 57.6212 67.517 58.0523 67.7928 58.5887C68.0685 59.1301 68.2088 59.7317 68.2088 60.3934V63.8676H66.9856V62.4689H66.9606C66.8302 62.7296 66.6548 62.9752 66.4292 63.2158C66.2036 63.4515 65.9279 63.652 65.592 63.8024C65.2561 63.9478 64.8651 64.028 64.4189 64.028ZM64.7347 62.9652C65.1759 62.9652 65.5619 62.8549 65.8978 62.6343C66.2337 62.4137 66.4994 62.113 66.6899 61.7219C66.8753 61.3309 66.9706 60.8948 66.9706 60.4085C66.9706 59.9322 66.8804 59.5061 66.6999 59.1301C66.5194 58.7541 66.2637 58.4534 65.9329 58.2328C65.602 58.0122 65.211 57.9019 64.7648 57.9019C64.2936 57.9019 63.8875 58.0122 63.5466 58.2378C63.2107 58.4634 62.95 58.7642 62.7696 59.1452C62.5891 59.5262 62.4989 59.9623 62.4989 60.4486C62.4989 60.9148 62.5891 61.3359 62.7646 61.7219C62.94 62.1029 63.1957 62.4037 63.5266 62.6293C63.8574 62.8499 64.2635 62.9652 64.7347 62.9652Z" fill="white"/>
<path d="M73.3723 63.8675C72.6805 63.8675 72.0639 63.7121 71.5174 63.4113C70.971 63.1055 70.5449 62.6945 70.2291 62.1781C69.9132 61.6618 69.7578 61.0802 69.7578 60.4335C69.7578 59.7868 69.9182 59.2053 70.2291 58.6889C70.5449 58.1726 70.971 57.7615 71.5174 57.4557C72.0589 57.1499 72.6805 56.9995 73.3723 56.9995H74.1594V58.0623H73.3322C72.886 58.0623 72.485 58.1676 72.129 58.3781C71.7731 58.5887 71.4924 58.8744 71.2868 59.2354C71.0813 59.5963 70.976 59.9924 70.976 60.4335C70.976 60.8747 71.0813 61.2707 71.2868 61.6317C71.4924 61.9926 71.7731 62.2734 72.129 62.4889C72.485 62.6995 72.886 62.8048 73.3322 62.8048H74.1594V63.8675H73.3723Z" fill="white"/>
<path d="M78.3305 64.028C77.6788 64.028 77.1223 63.8676 76.6461 63.5517C76.1749 63.2309 75.8089 62.7998 75.5582 62.2483C75.3026 61.7019 75.1772 61.0953 75.1772 60.4335C75.1772 59.7568 75.3176 59.1502 75.5983 58.6088C75.8791 58.0623 76.2852 57.6362 76.8065 57.3154C77.3329 56.9945 77.9646 56.8391 78.7015 56.8391C79.4134 56.8391 80.02 56.9945 80.5263 57.3103C81.0376 57.6212 81.4287 58.0523 81.7044 58.5887C81.9801 59.1301 82.1205 59.7317 82.1205 60.3934V63.8676H80.8973V62.4689H80.8722C80.7419 62.7296 80.5664 62.9752 80.3408 63.2158C80.1152 63.4515 79.8395 63.652 79.5036 63.8024C79.1677 63.9478 78.7767 64.028 78.3305 64.028ZM78.6464 62.9652C79.0875 62.9652 79.4735 62.8549 79.8094 62.6343C80.1453 62.4137 80.411 62.113 80.6015 61.7219C80.787 61.3309 80.8822 60.8948 80.8822 60.4085C80.8822 59.9322 80.792 59.5061 80.6115 59.1301C80.431 58.7541 80.1754 58.4534 79.8445 58.2328C79.5136 58.0122 79.1226 57.9019 78.6764 57.9019C78.2052 57.9019 77.7991 58.0122 77.4582 58.2378C77.1223 58.4634 76.8617 58.7642 76.6812 59.1452C76.5007 59.5262 76.4105 59.9623 76.4105 60.4486C76.4105 60.9148 76.5007 61.3359 76.6762 61.7219C76.8516 62.1029 77.1073 62.4037 77.4382 62.6293C77.769 62.8499 78.1701 62.9652 78.6464 62.9652Z" fill="white"/>
<path d="M85.7298 63.7773C85.3087 63.6119 84.9478 63.3662 84.642 63.0454C84.3362 62.7245 84.0956 62.3335 83.9251 61.8823C83.7547 61.4261 83.6694 60.9198 83.6694 60.3533C83.6694 59.6364 83.8148 59.0148 84.0956 58.4884C84.3813 57.962 84.7673 57.556 85.2586 57.2702C85.7499 56.9845 86.3063 56.8391 86.928 56.8391C87.2689 56.8391 87.5947 56.8942 87.9106 57.0146C88.2214 57.1299 88.4971 57.2953 88.7377 57.5008C88.9784 57.7064 89.1739 57.947 89.3243 58.2277H89.3493V54.0417H90.5575V60.3934C90.5575 61.1554 90.4071 61.8071 90.1063 62.3536C89.8055 62.895 89.3944 63.3111 88.8781 63.5968C88.3617 63.8826 87.7802 64.028 87.1285 64.028C86.6172 64.028 86.1509 63.9427 85.7298 63.7773ZM88.2364 62.6544C88.5723 62.4488 88.843 62.1581 89.0385 61.7771C89.234 61.4011 89.3343 60.9549 89.3343 60.4486C89.3343 59.9272 89.234 59.476 89.0385 59.095C88.843 58.714 88.5723 58.4182 88.2364 58.2127C87.9005 58.0072 87.5246 57.9019 87.1135 57.9019C86.6924 57.9019 86.3164 58.0072 85.9805 58.2227C85.6496 58.4383 85.3839 58.7341 85.1834 59.1101C84.9879 59.486 84.8876 59.9272 84.8876 60.4285C84.8876 60.9499 84.9879 61.3961 85.1934 61.772C85.394 62.148 85.6647 62.4438 86.0006 62.6493C86.3364 62.8549 86.7124 62.9602 87.1235 62.9602C87.5296 62.9652 87.9005 62.8599 88.2364 62.6544Z" fill="white"/>
<path d="M95.8413 63.8674C95.1044 63.8674 94.4527 63.7271 93.8812 63.4463C93.3097 63.1606 92.8685 62.7645 92.5477 62.2482C92.2268 61.7318 92.0664 61.1302 92.0664 60.4384C92.0664 59.7566 92.2018 59.145 92.4725 58.5986C92.7432 58.0572 93.1242 57.626 93.6054 57.3152C94.0867 56.9994 94.6482 56.844 95.2849 56.844C95.9767 56.844 96.5532 56.9944 97.0144 57.3002C97.4756 57.606 97.8165 58.0171 98.0471 58.5334C98.2727 59.0498 98.388 59.6263 98.388 60.263C98.388 60.3632 98.388 60.4635 98.383 60.5738C98.378 60.6791 98.3679 60.7743 98.3479 60.8545H93.3548C93.3999 61.2756 93.5353 61.6366 93.7609 61.9223C93.9864 62.2131 94.2822 62.4337 94.6382 62.5841C94.9941 62.7294 95.3851 62.8046 95.8163 62.8046H97.5658V63.8674H95.8413ZM93.3448 59.9722H97.1698C97.1698 59.8018 97.1497 59.6213 97.1197 59.4258C97.0846 59.2353 97.0244 59.0448 96.9342 58.8593C96.849 58.6738 96.7286 58.5084 96.5883 58.363C96.4429 58.2126 96.2624 58.0973 96.0519 58.007C95.8363 57.9168 95.5856 57.8717 95.2949 57.8717C94.9891 57.8717 94.7184 57.9319 94.4878 58.0522C94.2572 58.1725 94.0566 58.3379 93.8912 58.5384C93.7258 58.744 93.6004 58.9696 93.5102 59.2202C93.4149 59.4709 93.3598 59.7266 93.3448 59.9722Z" fill="white"/>
<path d="M99.9321 63.8674V59.7316C99.9321 59.2052 100.052 58.7189 100.288 58.2778C100.524 57.8366 100.865 57.4857 101.311 57.225C101.757 56.9643 102.298 56.834 102.925 56.834C103.231 56.834 103.537 56.8741 103.847 56.9643C104.153 57.0495 104.439 57.1949 104.705 57.3955C104.97 57.596 105.176 57.8667 105.336 58.2076H105.351C105.527 57.8667 105.742 57.596 106.008 57.3955C106.274 57.1949 106.555 57.0495 106.865 56.9643C107.171 56.8791 107.482 56.834 107.798 56.834C108.419 56.834 108.956 56.9643 109.402 57.225C109.848 57.4857 110.189 57.8366 110.425 58.2778C110.66 58.7189 110.781 59.2002 110.781 59.7316V63.8674H109.572V59.7316C109.572 59.3907 109.492 59.0799 109.337 58.8042C109.181 58.5284 108.971 58.3079 108.7 58.1474C108.434 57.987 108.129 57.9068 107.788 57.9068C107.457 57.9068 107.146 57.987 106.865 58.1575C106.585 58.3229 106.364 58.5435 106.199 58.8142C106.038 59.0899 105.953 59.3957 105.953 59.7366V63.8725H104.745V59.7366C104.745 59.3957 104.665 59.0899 104.499 58.8142C104.334 58.5435 104.118 58.3179 103.842 58.1575C103.567 57.992 103.256 57.9068 102.915 57.9068C102.584 57.9068 102.283 57.987 102.013 58.1474C101.747 58.3079 101.531 58.5284 101.376 58.8042C101.221 59.0849 101.14 59.3907 101.14 59.7316V63.8674H99.9321Z" fill="white"/>
<path d="M115.232 66.5997V63.9728C114.741 63.9026 114.305 63.7322 113.924 63.4665C113.543 63.2058 113.242 62.8549 113.022 62.4288C112.801 62.0026 112.696 61.5164 112.696 60.9699V56.9995H113.919V60.9549C113.919 61.371 114.009 61.7269 114.185 62.0227C114.36 62.3235 114.596 62.5541 114.887 62.7195C115.182 62.8799 115.493 62.9602 115.829 62.9602C116.17 62.9602 116.486 62.8799 116.782 62.7195C117.072 62.5591 117.313 62.3285 117.493 62.0227C117.674 61.7219 117.764 61.366 117.764 60.9549V56.9995H118.972V60.9699C118.972 61.5164 118.867 62.0026 118.651 62.4237C118.436 62.8449 118.14 63.1908 117.759 63.4514C117.378 63.7171 116.942 63.8926 116.451 63.9728V66.5997H115.232Z" fill="white"/>
</g>
<defs>
<clipPath id="clip0">
<rect width="160" height="71.9539" fill="white"/>
</clipPath>
</defs>
</svg>
