<svg width="75" height="395" viewBox="0 0 75 395" fill="none" xmlns="http://www.w3.org/2000/svg">
<g clip-path="url(#clip0)">
<path d="M-96.5162 394.969C-75.8531 394.5 -58.6859 375.17 -43.3914 362.929C-28.2531 350.844 -11.1483 342.194 2.67914 328.36C29.6473 301.379 41.3834 262.782 57.7079 229.087C64.9493 214.129 76.1861 195.236 74.8751 177.686C73.2208 155.733 50.7162 139.807 35.8587 126.285C16.3193 108.548 3.20978 93.9956 -7.34027 70.0439C-14.3944 53.9928 -24.4139 39.4406 -36.8055 27.0432C-48.0734 15.77 -63.2742 2.06101 -79.786 0.187342C-99.1069 -1.9986 -117.054 11.0858 -136.001 11.1795C-172.395 11.4606 -209.164 26.4187 -235.196 52.4626C-248.368 65.6407 -258.856 81.3171 -265.91 98.5548C-275.399 121.695 -261.571 135.966 -244.935 151.704C-230.108 165.226 -207.604 181.152 -205.918 203.105C-204.576 220.655 -215.844 239.517 -223.085 254.506C-258.668 328.11 -160.909 396.405 -96.5162 394.969ZM-230.67 151.704C-246.058 137.09 -260.448 123.131 -251.583 101.178C-245.746 86.7507 -236.07 73.4789 -225.114 62.5492C-201.58 39.0035 -168.962 25.8253 -135.97 25.5131C-119.208 25.3569 -103.758 15.8637 -86.9026 15.5826C-70.6093 15.3016 -57.7495 26.1688 -46.7937 37.1298C-35.0263 48.9027 -26.9733 62.3618 -19.7319 77.2575C-9.80612 97.6492 4.89529 111.171 21.6567 126.348C36.483 139.869 58.9876 155.795 60.6732 177.748C62.0153 195.298 50.7474 214.16 43.5059 229.149C28.867 259.159 16.6314 294.384 -7.34027 318.336C-19.5134 330.515 -34.4333 339.696 -47.4491 350.938C-61.1517 362.773 -77.1953 380.51 -96.5162 380.729C-155.134 381.353 -241.782 321.427 -208.821 254.538C-201.58 239.579 -190.343 220.687 -191.654 203.137C-193.308 181.152 -215.813 165.226 -230.67 151.704Z" fill="#F41F45"/>
<path d="M-96.516 361.649C-79.5673 361.461 -65.1156 346.659 -53.4419 335.667C-42.5797 325.425 -31.3742 315.369 -20.8554 304.814C-0.785309 284.704 12.0745 254.413 24.4037 229.118C31.6451 214.16 42.8819 195.267 41.5709 177.717C39.9166 155.764 17.4119 139.838 2.55449 126.316C-11.6475 113.513 -27.0356 101.147 -37.1486 84.6584C-44.5773 72.5421 -49.9148 60.8004 -60.3088 50.589C-84.7487 26.606 -107.378 44.3122 -136.001 44.562C-164.03 44.8118 -191.654 56.0538 -211.692 75.9771C-220.651 84.877 -231.169 97.618 -234.228 110.047C-238.505 127.316 -222.773 141.025 -211.63 151.673C-196.804 165.195 -174.299 181.121 -172.614 203.074C-171.271 220.624 -182.539 239.486 -189.781 254.475C-218.029 311.903 -147.924 362.242 -96.516 361.649ZM-197.334 151.704C-206.979 142.43 -220.869 130.47 -219.714 115.605C-218.872 104.488 -209.133 93.652 -201.579 86.0637C-184.381 68.7635 -160.347 58.8331 -135.969 58.8331C-113.371 58.8331 -90.4607 44.1873 -70.4218 61.1127C-61.4637 68.6698 -56.7193 79.3497 -49.9772 88.6556C-39.552 103.052 -24.8194 114.543 -11.7099 126.316C3.11633 139.838 25.621 155.764 27.3065 177.717C28.6487 195.267 17.3807 214.129 10.1393 229.118C-0.941376 251.821 -14.3006 275.991 -30.9372 295.071C-46.7311 313.183 -70.1097 347.065 -96.5472 347.378C-141.744 347.877 -201.236 304.533 -175.516 254.506C-168.275 239.548 -157.038 220.655 -158.349 203.105C-160.004 181.152 -182.508 165.226 -197.334 151.704Z" fill="#F41F45"/>
<path d="M-96.5163 328.297C-74.8232 328.266 -55.5647 301.317 -44.3904 285.453C-31.8115 267.653 -18.4834 248.729 -8.901 229.118C-1.65956 214.16 9.57716 195.267 8.2662 177.717C6.61191 155.764 -15.8927 139.838 -30.7502 126.316C-42.4551 115.886 -54.5346 105.831 -65.8338 94.9636C-71.5458 89.4675 -76.8832 82.3164 -83.8438 78.3192C-99.7312 69.1383 -119.396 77.8508 -135.97 77.882C-154.947 77.9445 -174.487 86.0012 -188.064 99.5853C-207.51 119.04 -195.025 135.435 -178.295 151.704C-163.468 165.226 -140.964 181.152 -139.278 203.105C-137.936 220.655 -149.204 239.517 -156.446 254.506C-175.766 294.603 -135.096 328.36 -96.5163 328.297ZM-164.03 151.049C-175.454 140.181 -190.468 125.223 -177.92 109.641C-168.463 97.899 -150.328 92.278 -136.001 92.1843C-121.768 92.0907 -107.566 87.8437 -93.7695 93.3398C-75.822 100.46 -59.5911 115.012 -45.0458 127.253C-30.0323 140.431 -7.62128 155.795 -6.0294 177.717C-4.74966 195.455 -16.08 214.785 -23.1966 230.024C-31.4057 247.73 -43.2979 264.187 -54.441 280.144C-64.0858 293.947 -78.163 313.652 -96.5475 314.026C-129.165 314.651 -158.193 287.014 -142.212 253.819C-135.096 238.549 -123.765 219.25 -125.045 201.513C-126.606 179.591 -148.986 164.227 -164.03 151.049Z" fill="#F41F45"/>
</g>
<defs>
<clipPath id="clip0">
<rect width="344" height="395" fill="white" transform="translate(-269)"/>
</clipPath>
</defs>
</svg>
