<svg width="487" height="602" viewBox="0 0 487 602" fill="none" xmlns="http://www.w3.org/2000/svg">
<g clip-path="url(#clip0)">
<path d="M273.074 27.5962C223.346 0.43039 163.768 -1.76966 108.254 0.860833C77.4608 2.29565 41.0255 4.01742 13.4838 19.5134C-30.1717 44.0966 44.5638 109.859 62.5424 130.042C87.8846 158.164 115.044 185.952 136.513 217.279C144.116 228.422 155.83 244.253 150.618 258.506C142.442 280.793 108.636 294.711 89.7494 304.898C66.1286 317.333 45.3767 335.412 46.5721 364.156C47.9109 395.865 66.1764 427.814 81.4295 454.692C108.828 502.998 142.299 552.355 192.074 579.76C228.271 599.704 282.971 615.2 318.259 585.26C334.134 571.821 342.263 552.021 355.46 536.285C373.821 514.381 400.215 502.759 424.888 489.606C443.775 479.419 477.58 465.501 485.757 443.214C490.969 428.961 479.302 413.131 471.651 401.987C450.182 370.66 423.023 342.873 397.681 314.75C373.821 288.111 344.94 260.132 327.918 228.087C319.789 212.735 318.977 201.974 324.81 185.713C331.313 167.538 342.358 150.703 345.132 131.333C351.634 85.8018 309.031 47.2531 273.074 27.5962ZM407.818 480.232C384.627 492.524 359.62 503.237 340.733 521.985C327.966 534.612 318.785 550.586 305.11 562.351C274.269 588.895 231.092 579.043 198.482 561.203C152.435 535.999 117.96 490.037 92.3792 445.127C79.23 422.026 63.2597 393.235 64.8854 365.686C66.3198 340.768 86.4979 325.416 106.772 314.368C125.659 304.18 159.464 290.263 167.641 267.975C172.853 253.723 161.186 237.892 153.535 226.748C132.066 195.422 104.907 167.634 79.5647 139.512C64.2638 122.294 -8.98943 56.0533 26.9678 32.7137C49.1063 18.3656 80.4732 16.5003 105.959 15.3525C157.839 13.0089 214.548 17.5525 260.737 43.0922C293.156 61.0274 324.762 92.4019 318.737 132.625C316.108 149.986 307.835 165.912 303.867 182.939C300.042 199.343 305.301 211.157 314.147 225.074C332.699 254.201 357.659 279.836 380.611 305.424C405.953 333.546 433.112 361.334 454.581 392.661C462.184 403.804 473.898 419.635 468.687 433.888C460.51 456.127 426.705 470.045 407.818 480.232Z" fill="#4A45D8"/>
<path d="M237.547 59.8795C197.669 38.1182 148.323 31.8529 103.425 34.866C87.2632 35.966 53.4577 37.7356 42.8905 52.8968C35.0009 64.2318 45.7116 80.2061 51.7841 89.7715C66.081 112.25 84.6811 132.146 102.325 151.995C127.667 180.117 154.826 207.904 176.295 239.231C183.898 250.375 195.613 266.206 190.401 280.458C182.225 302.746 148.419 316.663 129.532 326.851C82.9598 351.864 84.3943 389.6 107.585 432.501C128.958 472.006 160.66 510.554 200.347 532.555C228.988 548.434 260.881 552.403 288.136 532.029C300.807 522.559 311.278 510.554 324.141 501.276C342.932 487.741 364.688 478.463 385.105 467.701C403.993 457.514 437.798 443.597 445.974 421.309C451.186 407.057 439.519 391.226 431.869 380.082C410.4 348.755 383.241 320.968 357.898 292.845C339.203 271.993 320.076 251.332 303.006 229.044C293.348 216.466 279.529 200.252 277.521 183.752C275.56 167.538 282.733 150.464 284.071 134.394C286.845 100.485 266.093 75.4712 237.547 59.8795ZM368.083 458.327C336.621 474.78 307.023 491.806 276.66 510.028C251.557 525.142 224.541 523.946 199.151 509.646C165.824 490.85 136.991 458.088 120.065 423.7C101.656 386.3 109.163 356.216 146.506 336.177C165.394 325.99 199.199 312.072 207.376 289.785C212.587 275.532 200.92 259.701 193.27 248.558C171.801 217.231 144.642 189.443 119.3 161.321C104.333 144.438 89.0324 127.603 75.8831 109.189C69.2846 99.9587 57.6654 85.3714 58.287 73.1277C59.1955 54.762 88.8889 51.6055 102.755 50.1706C141.056 46.1053 183.659 52.6098 217.608 71.0711C243.428 85.1801 258.825 106.798 259.303 136.403C259.542 150.895 256.339 165.482 260.546 179.591C265.376 195.852 278.907 211.109 289.188 224.022C305.541 244.54 323.328 263.91 340.828 283.424C366.171 311.546 393.33 339.333 414.799 370.66C422.401 381.804 434.116 397.635 428.904 411.887C420.776 434.222 386.97 448.14 368.083 458.327Z" fill="#4A45D8"/>
<path d="M191.214 86.1845C166.111 72.4103 133.022 66.3362 104.811 72.2668C87.4542 75.9016 79.7081 82.3105 86.4501 100.246C96.7304 127.651 123.172 152.569 142.059 173.899C167.402 202.022 194.561 229.809 216.03 261.136C223.633 272.28 235.347 288.111 230.135 302.363C221.959 324.65 188.153 338.568 169.266 348.755C104.716 381.995 151.24 453.736 197.812 479.276C219.664 491.232 241.324 491.232 264.276 482.193C291.626 471.384 319.216 459.284 345.323 445.797C364.21 435.609 398.015 421.692 406.192 399.404C411.404 385.152 399.737 369.321 392.086 358.177C370.617 326.851 343.458 299.063 318.116 270.941C283.497 232.392 239.364 193.413 229.179 140.803C224.493 116.65 213.209 98.2369 191.214 86.1845ZM328.3 436.422C292.774 455.553 238.599 479.754 199.534 458.04C159.177 435.609 137.182 384.1 186.289 358.129C205.176 347.942 238.981 334.025 247.158 311.737C252.37 297.485 240.703 281.654 233.052 270.51C211.583 239.136 184.424 211.396 159.082 183.274C147.941 170.695 82.9596 108.998 109.688 90.6324C125.563 79.7278 159.512 90.9672 174.144 99.0021C194.035 109.907 201.303 126.359 210.149 146.016C229.849 189.969 269.44 226.366 301.094 261.567C326.436 289.689 353.595 317.476 375.064 348.803C382.667 359.947 394.381 375.778 389.169 390.03C380.993 412.318 347.188 426.187 328.3 436.422Z" fill="#4A45D8"/>
<path d="M159.56 120.572C150.379 115.407 135.27 110.72 132.688 124.207C131.397 130.951 138.521 140.66 141.964 146.16C153.201 164.143 167.88 179.926 181.842 195.804C207.184 223.927 234.343 251.714 255.812 283.041C263.415 294.185 275.13 310.015 269.918 324.268C261.742 346.555 227.936 360.473 209.049 370.66C181.077 386.013 180.312 418.009 209.145 433.648C237.164 448.905 278.955 438.192 305.588 423.844C324.475 413.657 358.281 399.739 366.457 377.452C371.669 363.199 360.002 347.368 352.352 336.225C330.883 304.898 303.723 277.11 278.381 248.988C252.37 220.148 226.071 191.595 201.016 161.895C188.632 147.212 176.582 130.185 159.56 120.572ZM288.566 414.47C269.679 424.561 242.615 429.344 222.915 419.061C201.781 408.013 211.583 390.174 226.071 380.034C244.958 369.847 278.764 355.929 286.94 333.642C292.152 319.39 280.485 303.559 272.835 292.415C251.366 261.088 224.206 233.301 198.864 205.178C187.771 192.552 165.585 173.565 161.712 155.916C160.325 149.555 161.329 142.668 170.127 148.599C201.781 169.978 234.295 209.77 261.359 239.614C286.701 267.736 313.86 295.524 335.329 326.851C342.932 337.994 354.647 353.825 349.435 368.077C341.259 390.365 307.453 404.283 288.566 414.47Z" fill="#4A45D8"/>
<path d="M210.77 200.635C206.371 197.956 210.675 205.561 221.577 217.661C246.919 245.784 274.078 273.571 295.547 304.898C303.15 316.042 314.864 331.872 309.653 346.125C301.476 368.412 267.671 382.33 248.784 392.517C243.189 395.578 242.568 400.217 247.253 402.8C251.939 405.383 260.211 404.952 265.806 401.939C284.693 391.752 318.498 377.834 326.675 355.547C331.887 341.294 320.22 325.464 312.569 314.32C291.1 282.993 263.941 255.206 238.599 227.083C230.327 217.805 221.051 206.852 210.77 200.635Z" fill="#4A45D8"/>
</g>
<defs>
<clipPath id="clip0">
<rect width="487" height="602" fill="white"/>
</clipPath>
</defs>
</svg>
