<svg width="259" height="347" viewBox="0 0 259 347" fill="none" xmlns="http://www.w3.org/2000/svg">
<path d="M30.9525 140.94C10.8646 172.111 6.60543 210.894 5.69183 247.254C5.16919 267.421 4.5665 291.284 13.3759 309.995C27.353 339.655 73.8183 293.99 87.844 283.211C107.401 268.003 126.825 251.592 148.29 239.064C155.924 234.629 166.812 227.733 175.868 231.81C190.027 238.203 197.51 260.928 203.264 273.739C210.261 289.746 221.078 304.147 239.897 304.729C260.657 305.358 282.376 294.95 300.643 286.267C333.471 270.673 367.273 251.165 387.519 219.974C402.252 197.294 414.959 162.324 397.089 137.872C389.069 126.874 376.53 120.63 366.885 111.27C353.457 98.2479 347.122 80.4694 339.707 63.7419C333.952 50.9313 326.47 28.2066 312.31 21.8136C303.254 17.7363 292.368 24.6014 284.732 29.0669C263.268 41.5956 243.843 58.006 224.286 73.2146C205.768 87.526 186.137 105.051 164.415 114.643C154.009 119.221 146.946 119.242 136.609 114.664C125.054 109.558 114.589 101.551 102.078 98.8228C72.6667 92.4207 45.4867 118.402 30.9525 140.94ZM332.779 74.4396C339.703 90.1588 345.511 106.989 356.853 120.205C364.49 129.137 374.481 135.886 381.513 145.37C397.377 166.758 388.9 194.473 375.711 214.913C357.077 243.774 325.444 264.098 294.918 278.667C279.217 286.155 259.667 295.215 241.763 292.848C225.567 290.731 216.502 276.833 210.252 263.077C204.497 250.266 197.015 227.541 182.855 221.148C173.799 217.071 162.914 223.936 155.277 228.402C133.813 240.93 114.388 257.341 94.8317 272.549C82.8684 281.721 36.1611 326.395 22.6308 301.82C14.3146 286.689 14.5835 266.127 15.042 249.438C15.9707 215.465 21.6235 178.665 40.4824 149.727C53.7251 129.416 75.7014 110.273 101.67 116.112C112.877 118.651 122.88 124.805 133.806 128.202C144.332 131.476 152.292 128.603 161.796 123.489C181.686 112.76 199.601 97.6828 217.39 83.9146C236.947 68.706 256.371 52.2956 277.836 39.7668C285.47 35.3325 296.358 28.4363 305.414 32.5135C319.542 38.9042 327.025 61.6291 332.779 74.4396Z" fill="#4944CC"/>
<path d="M50.3403 165.659C34.2467 190.657 27.8189 222.568 27.6581 252.017C27.6102 262.618 27.1634 284.767 36.5586 292.383C43.5832 298.07 54.5174 291.836 61.0486 288.325C76.3983 280.059 90.2661 268.861 104.057 258.285C123.614 243.076 143.038 226.666 164.503 214.137C172.137 209.703 183.025 202.807 192.081 206.884C206.241 213.277 213.723 236.002 219.478 248.812C233.597 280.396 258.296 281.248 287.397 268.144C314.195 256.065 340.859 237.2 357.099 212.338C368.821 194.396 372.923 173.767 360.916 155.012C355.335 146.293 347.996 138.889 342.549 130.054C334.605 117.147 329.58 102.507 323.523 88.6703C317.769 75.8597 310.287 53.1349 296.127 46.7419C287.071 42.6647 276.185 49.5297 268.549 53.9952C247.084 66.524 227.66 82.9344 208.103 98.143C193.607 109.358 179.214 120.863 163.858 130.949C155.19 136.657 143.953 144.908 133.088 145.437C122.412 145.948 111.607 140.458 101.182 138.823C79.1799 135.406 61.8698 147.765 50.3403 165.659ZM316.598 99.3368C325.846 120.652 335.557 140.778 346.012 161.46C354.687 178.561 352.627 196.138 342.089 212.033C328.242 232.895 305.492 250.162 282.244 259.581C256.96 269.825 237.68 263.499 226.369 238.175C220.615 225.364 213.133 202.639 198.973 196.246C189.917 192.169 179.031 199.034 171.395 203.5C149.93 216.028 130.506 232.439 110.949 247.647C99.2202 256.616 87.5066 265.805 74.8648 273.516C68.5272 277.385 58.4553 284.278 50.4931 283.292C38.5487 281.829 37.8954 262.298 37.6159 253.179C36.7773 227.987 43.0417 200.488 56.7003 179.204C67.133 163.019 81.9728 153.994 101.319 155.084C110.789 155.615 120.159 158.397 129.567 156.319C140.41 153.938 151.01 145.828 159.925 139.73C174.093 130.029 187.579 119.337 201.145 108.838C220.701 93.6298 240.126 77.2194 261.59 64.6907C269.224 60.2564 280.112 53.3601 289.168 57.4374C303.361 63.8014 310.844 86.5262 316.598 99.3368Z" fill="#4944CC"/>
<path d="M65.3138 197.148C55.1336 212.88 49.6011 234.189 52.1352 252.884C53.6853 264.386 57.5014 269.745 69.5274 266.195C87.9021 260.783 105.419 244.705 120.237 233.388C139.794 218.179 159.218 201.769 180.683 189.24C188.317 184.806 199.205 177.909 208.261 181.987C222.421 188.38 229.903 211.104 235.657 223.915C254.295 267.623 303.325 240.656 322.202 211.468C331.042 197.771 332.069 183.633 327.256 168.224C321.497 149.86 314.906 131.279 307.34 113.599C301.586 100.788 294.103 78.0636 279.944 71.6706C270.888 67.5933 260.002 74.4584 252.366 78.9239C230.901 91.4526 211.477 107.863 191.92 123.072C165.118 143.841 137.585 170.8 102.763 174.955C86.7762 176.869 74.2228 183.362 65.3138 197.148ZM300.415 124.265C311.218 148.361 324.447 184.868 308.423 209.338C291.87 234.616 257.207 246.532 242.583 213.249C236.828 200.438 229.346 177.713 215.186 171.32C206.13 167.243 195.244 174.108 187.608 178.573C166.112 191.1 146.719 207.513 127.163 222.721C118.424 229.397 75.0748 268.888 64.3538 250.571C57.9885 239.693 66.9333 218.066 72.8712 208.897C80.9313 196.43 92.0145 192.466 105.264 187.624C134.886 176.848 160.519 152.731 184.995 133.738C204.552 118.53 223.976 102.119 245.441 89.5904C253.074 85.1561 263.963 78.2598 273.018 82.3371C287.178 88.73 294.629 111.453 300.415 124.265Z" fill="#4944CC"/>
<path d="M86.2593 219.438C82.4528 225.185 78.6775 234.826 87.3584 237.15C91.6989 238.312 98.3737 234.122 102.127 232.136C114.397 225.653 125.394 216.82 136.42 208.459C155.977 193.25 175.401 176.84 196.866 164.311C204.5 159.877 215.388 152.981 224.444 157.058C238.604 163.451 246.086 186.176 251.84 198.986C260.536 217.972 281.384 219.987 292.958 201.909C304.244 184.343 299.232 156.558 291.129 138.494C285.374 125.683 277.892 102.959 263.732 96.5655C254.676 92.4883 243.79 99.3533 236.154 103.819C214.689 116.348 195.265 132.758 175.708 147.967C155.652 163.578 135.769 179.391 115.196 194.337C105.025 201.725 93.3406 208.783 86.2593 219.438ZM284.203 149.16C289.895 161.966 291.735 179.858 284.089 192.229C275.877 205.5 264.697 198.257 258.765 188.32C253.011 175.509 245.529 152.784 231.369 146.391C222.313 142.314 211.427 149.179 203.791 153.645C182.326 166.174 162.902 182.584 143.345 197.793C134.578 204.435 121.134 218.017 109.431 219.708C105.213 220.312 100.766 219.33 105.053 213.869C120.508 194.221 148.021 174.884 168.783 158.633C188.34 143.425 207.764 127.014 229.229 114.485C236.863 110.051 247.751 103.155 256.807 107.232C270.967 113.625 278.449 136.35 284.203 149.16Z" fill="#4944CC"/>
<path d="M140.944 189.806C138.987 192.55 144.155 190.102 152.569 183.56C172.126 168.351 191.55 151.94 213.015 139.412C220.649 134.977 231.537 128.081 240.593 132.158C254.753 138.551 262.235 161.276 267.989 174.087C269.722 177.883 272.721 178.509 274.629 175.573C276.536 172.637 276.647 167.217 274.946 163.423C269.191 150.612 261.709 127.887 247.549 121.494C238.493 117.417 227.608 124.282 219.971 128.748C198.507 141.276 179.082 157.687 159.526 172.895C153.078 177.855 145.489 183.391 140.944 189.806Z" fill="#4944CC"/>
</svg>
