<svg width="434" height="704" viewBox="0 0 434 704" fill="none" xmlns="http://www.w3.org/2000/svg">
<path d="M363.351 -60.2816C297.183 -96.4274 217.909 -99.3547 144.043 -95.8547C103.069 -93.9456 54.5887 -91.6546 17.9419 -71.0362C-40.1459 -38.3268 59.2968 49.1742 83.2191 76.0291C116.939 113.448 153.077 150.421 181.644 192.103C191.76 206.931 207.347 227.994 200.413 246.958C189.533 276.613 144.552 295.132 119.421 308.686C87.9908 325.232 60.3784 349.287 61.969 387.533C63.7504 429.724 88.0544 472.234 108.35 507.998C144.806 572.271 189.342 637.945 255.574 674.409C303.736 700.945 376.521 721.564 423.475 681.727C444.598 663.845 455.413 637.499 472.973 616.562C497.405 587.417 532.525 571.953 565.354 554.453C590.485 540.898 635.466 522.38 646.346 492.725C653.281 473.761 637.757 452.697 627.577 437.87C599.011 396.187 562.873 359.214 529.152 321.795C497.405 286.35 458.976 249.122 436.327 206.485C425.511 186.058 424.429 171.739 432.191 150.103C440.844 125.921 455.541 103.52 459.231 77.7473C467.884 17.1648 411.196 -34.1267 363.351 -60.2816ZM542.641 541.98C511.783 558.335 478.509 572.589 453.378 597.535C436.39 614.335 424.175 635.59 405.978 651.245C364.942 686.563 307.49 673.454 264.099 649.717C202.83 616.181 156.958 555.025 122.92 495.27C105.423 464.533 84.1734 426.224 86.3366 389.569C88.2453 356.414 115.094 335.987 142.07 321.286C167.201 307.732 212.183 289.213 223.062 259.558C229.997 240.595 214.473 219.531 204.294 204.703C175.727 163.021 139.589 126.048 105.869 88.6292C85.5095 65.7199 -11.9609 -22.4175 35.8836 -53.4724C65.341 -72.5635 107.078 -75.0454 140.989 -76.5726C210.02 -79.6909 285.477 -73.6453 346.936 -39.6631C390.073 -15.7992 432.128 25.9467 424.111 79.4655C420.612 102.566 409.605 123.757 404.324 146.412C399.234 168.239 406.233 183.958 418.003 202.476C442.689 241.231 475.9 275.34 506.439 309.386C540.159 346.805 576.297 383.778 604.864 425.46C614.98 440.288 630.568 461.352 623.633 480.315C612.753 509.907 567.772 528.425 542.641 541.98Z" fill="#E81D42"/>
<path d="M316.079 -17.3264C263.017 -46.2813 197.359 -54.6177 137.617 -50.6086C116.112 -49.1449 71.1306 -46.7904 57.0699 -26.6174C46.5721 -11.5354 60.8236 9.71936 68.9037 22.4468C87.927 52.3562 112.676 78.8292 136.153 105.239C169.873 142.657 206.011 179.63 234.578 221.313C244.694 236.14 260.282 257.204 253.347 276.168C242.467 305.823 197.486 324.341 172.355 337.896C110.386 371.178 112.295 421.388 143.152 478.47C171.591 531.034 213.773 582.326 266.58 611.599C304.691 632.726 347.127 638.008 383.392 610.899C400.252 598.299 414.186 582.326 431.3 569.98C456.304 551.971 485.253 539.625 512.42 525.307C537.551 511.752 582.532 493.234 593.412 463.579C600.346 444.615 584.823 423.551 574.643 408.724C546.076 367.042 509.938 330.068 476.218 292.65C451.341 264.904 425.892 237.413 403.179 207.758C390.327 191.021 371.94 169.448 369.268 147.494C366.659 125.921 376.203 103.202 377.984 81.8202C381.674 36.7015 354.062 3.41928 316.079 -17.3264ZM489.77 512.834C447.906 534.725 408.523 557.38 368.123 581.626C334.721 601.735 298.774 600.144 264.99 581.117C220.645 556.107 182.28 512.516 159.757 466.761C135.263 416.997 145.251 376.969 194.941 350.305C220.072 336.75 265.053 318.232 275.933 288.577C282.868 269.613 267.344 248.549 257.164 233.722C228.597 192.04 192.46 155.066 158.739 117.648C138.825 95.1839 118.466 72.7837 100.97 48.2834C92.1898 36.0015 76.7294 16.5922 77.5565 0.301067C78.7653 -24.1356 118.275 -28.3356 136.726 -30.2447C187.688 -35.6539 244.376 -26.9992 289.548 -2.43533C323.905 16.3376 344.391 45.1016 345.027 84.4929C345.346 103.775 341.083 123.184 346.682 141.957C353.108 163.594 371.113 183.894 384.792 201.076C406.551 228.376 430.219 254.149 453.505 280.113C487.225 317.532 523.363 354.505 551.929 396.187C562.045 411.015 577.633 432.079 570.698 451.043C559.882 480.761 514.901 499.279 489.77 512.834Z" fill="#E81D42"/>
<path d="M254.428 17.674C221.026 -0.653487 176.999 -8.7354 139.462 -0.844403C116.366 3.99201 106.06 12.5194 115.03 36.3833C128.709 72.8473 163.893 106.002 189.024 134.384C222.744 171.803 258.882 208.776 287.449 250.458C297.565 265.286 313.152 286.35 306.217 305.314C295.338 334.968 250.356 353.487 225.225 367.042C139.334 411.269 201.239 506.725 263.208 540.707C292.284 556.616 321.105 556.616 351.644 544.589C388.037 530.207 424.747 514.107 459.485 496.161C484.616 482.607 529.598 464.088 540.477 434.433C547.412 415.469 531.888 394.406 521.708 379.578C493.142 337.896 457.004 300.923 423.284 263.504C377.221 212.213 318.497 160.348 304.945 90.3475C298.71 58.2108 283.695 33.7105 254.428 17.674ZM436.835 483.688C389.564 509.143 317.479 541.344 265.499 512.452C211.801 482.606 182.534 414.069 247.875 379.514C273.006 365.96 317.988 347.441 328.867 317.786C335.802 298.823 320.278 277.759 310.098 262.931C281.532 221.185 245.394 184.276 211.674 146.857C196.85 130.121 110.386 48.0289 145.951 23.5922C167.074 9.08299 212.246 24.0377 231.715 34.7287C258.182 49.238 267.853 71.1291 279.623 97.284C305.836 155.766 358.516 204.194 400.634 251.031C434.354 288.45 470.492 325.423 499.059 367.105C509.175 381.933 524.762 402.997 517.827 421.96C506.948 451.615 461.966 470.07 436.835 483.688Z" fill="#E81D42"/>
<path d="M212.31 63.4291C200.094 56.5563 179.99 50.3198 176.554 68.2655C174.836 77.2383 184.316 90.1566 188.897 97.4749C203.848 121.402 223.38 142.403 241.958 163.53C275.679 200.949 311.816 237.922 340.383 279.604C350.499 294.432 366.087 315.496 359.152 334.459C348.272 364.114 303.291 382.633 278.16 396.187C240.94 416.615 239.922 459.188 278.287 479.997C315.57 500.298 371.177 486.043 406.615 466.952C431.746 453.397 476.727 434.879 487.607 405.224C494.542 386.26 479.018 365.196 468.838 350.369C440.271 308.686 404.133 271.713 370.413 234.295C335.802 195.921 300.81 157.93 267.471 118.412C250.993 98.8749 234.96 76.2201 212.31 63.4291ZM383.965 454.479C358.834 467.906 322.823 474.27 296.611 460.588C268.489 445.888 281.532 422.151 300.81 408.66C325.941 395.106 370.922 376.587 381.802 346.932C388.737 327.968 373.213 306.905 363.033 292.077C334.466 250.395 298.328 213.422 264.608 176.003C249.848 159.203 220.327 133.939 215.173 110.457C213.328 101.993 214.664 92.8294 226.371 100.72C268.489 129.166 311.753 182.112 347.763 221.822C381.484 259.24 417.621 296.213 446.188 337.896C456.304 352.723 471.892 373.787 464.957 392.751C454.077 422.406 409.096 440.924 383.965 454.479Z" fill="#E81D42"/>
<path d="M280.45 169.957C274.597 166.394 280.323 176.512 294.829 192.612C328.549 230.031 364.687 267.004 393.254 308.686C403.37 323.514 418.957 344.578 412.022 363.542C401.143 393.196 356.161 411.715 331.03 425.27C323.586 429.342 322.759 435.515 328.994 438.951C335.229 442.388 346.236 441.815 353.68 437.806C378.811 424.251 423.793 405.733 434.672 376.078C441.607 357.114 426.083 336.05 415.903 321.223C387.337 279.541 351.199 242.567 317.479 205.149C306.472 192.803 294.129 178.23 280.45 169.957Z" fill="#E81D42"/>
</svg>
