<svg width="593" height="607" viewBox="0 0 593 607" fill="none" xmlns="http://www.w3.org/2000/svg">
<path d="M-56.6008 367.359C-46.8881 394.818 -11.2825 411.587 13.1989 428.117C37.3851 444.487 57.437 464.581 83.5926 478.642C134.605 506.066 195.847 509.431 251.968 520.492C276.879 525.394 309.257 534.38 334.198 527.029C365.391 517.814 378.707 482.664 391.871 458.499C409.117 426.733 424.543 404.574 454.752 382.837C475.004 368.29 491.78 350.26 504.387 329.748C515.851 311.096 529.137 286.413 524.644 263.753C519.377 237.241 492.51 217.436 484.092 192.152C467.776 143.615 429.958 99.2603 380.717 72.7889C355.802 59.3944 328.427 50.3837 300.284 46.4585C262.496 41.1635 247.793 64.1916 232.183 91.4414C219.006 115.565 205.689 150.715 174.511 159.971C149.583 167.364 117.237 158.327 92.2806 153.434C-30.2775 129.376 -86.8347 281.783 -56.6008 367.359ZM238.418 110.5C252.939 85.2771 266.943 61.5979 302.733 66.4375C326.258 69.6329 349.782 78.3266 370.46 89.4774C414.978 113.41 448.393 152.786 463.268 196.767C470.821 219.112 491.376 236.727 499.152 259.157C506.682 280.837 496.504 301.486 485.358 319.621C473.386 339.1 457.339 354.154 438.849 368.582C413.542 388.35 400.31 412.306 385.572 439.544C372.395 463.667 359.079 498.817 327.9 508.074C302.972 515.466 270.626 506.429 245.67 501.536C195.643 491.552 139.085 486.443 93.7862 462.057C70.7598 449.678 50.8912 432.673 28.8585 418.869C5.66302 404.337 -27.136 388.561 -35.8989 362.816C-62.4285 284.695 -13.1813 149.805 98.47 172.503C123.381 177.406 155.759 186.391 180.7 179.04C211.938 169.815 225.255 134.665 238.418 110.5Z" fill="black" fill-opacity="0.03"/>
<path d="M-8.33266 356.805C-0.64952 379.399 27.1956 393.991 48.2856 406.085C67.9308 417.334 87.4537 429.102 107.403 439.793C145.425 460.199 195.1 467.72 237.276 476.125C262.195 481.03 294.584 490.019 319.534 482.665C350.736 473.447 364.058 438.284 377.226 414.109C389.636 391.041 400.891 366.526 420.448 347.746C434.821 333.949 449.563 323.068 459.869 305.916C484.06 265.595 448.416 240.999 435.538 202.822C422.919 165.438 394.492 132.105 356.756 111.68C339.896 102.547 316.768 92.5543 297.355 92.4327C270.372 92.2291 257.313 117.631 246.699 135.924C233.518 160.057 220.196 195.22 189.007 204.479C164.071 211.875 131.714 202.834 106.749 197.94C10.8817 178.514 -31.6732 288.283 -8.33266 356.805ZM252.904 155.041C262.175 139.19 273.496 116.807 295.618 113.606C312.154 111.185 332.17 120.742 346.509 128.416C379.188 145.882 404.138 174.836 414.797 207.419C424.678 237.624 455.995 263.572 440.142 295.758C433.069 310.143 419.612 319.893 409.026 331.875C392.649 350.404 382.378 373.764 370.989 395.044C357.807 419.176 344.486 454.339 313.297 463.599C288.361 470.995 256.004 461.954 231.039 457.06C193.178 449.495 152.186 439.354 117.164 423.208C83.918 407.879 24.4216 387.445 12.4079 352.208C-8.08048 291.958 28.9419 198.606 112.941 217.016C137.861 221.92 170.249 230.909 195.199 223.555C226.402 214.337 239.723 179.174 252.904 155.041Z" fill="black" fill-opacity="0.03"/>
<path d="M39.8816 346.177C49.4209 375.193 97.0778 392.351 125.06 402.233C156.475 413.377 189.854 425.163 222.594 431.719C247.537 436.629 279.955 445.627 304.928 438.265C336.159 429.037 349.493 393.837 362.673 369.637C372.733 350.643 382.083 331.267 392.957 312.676C398.457 303.278 406.531 293.851 409.303 283.26C415.714 259.069 394.425 235.542 387.126 213.375C378.73 188.003 358.451 164.433 332.736 150.606C295.906 130.803 277.506 152.747 261.145 180.331C247.951 204.489 234.618 239.69 203.4 248.959C178.441 256.363 146.054 247.313 121.066 242.413C54.2452 229.373 22.9066 294.577 39.8816 346.177ZM268.343 199.208C279.162 180.45 294.364 155.582 322.538 167.392C343.769 176.295 359.888 198.763 366.294 217.903C372.659 236.918 385.057 254.563 383.094 274.779C380.585 301.068 366.506 327.435 355.053 350.808C342.441 375.107 329.885 410.003 298.671 419.137C273.412 426.517 240.316 417.533 215.019 412.88C185.653 407.554 156.493 396.9 128.389 387.089C104.076 378.594 69.2327 366.055 60.6413 341.576C45.4573 298.132 72.9818 250.461 128.295 261.238C153.638 265.881 186.688 274.875 211.947 267.495C243.174 258.402 255.744 223.548 268.343 199.208Z" fill="black" fill-opacity="0.03"/>
<path d="M88.2574 335.719C99.9457 368.186 167.883 384.174 199.862 388.993C226.972 392.953 263.544 401.968 290.257 393.814C320.302 384.659 329.811 350.902 340.131 326.79C354.092 290.081 350.274 260.641 338.911 224.244C335.723 214.044 326.329 197.85 312.854 196.189C295.671 194.086 287.784 212.057 281.957 223.34C271.637 247.451 262.115 281.167 232.083 290.364C205.37 298.518 168.753 289.513 141.688 285.543C106.822 280.55 76.0902 301.788 88.2574 335.719ZM293.264 241.356C296.817 234.161 299.585 223.371 309.857 222.55C317.321 221.943 322.881 231.039 324.278 236.654C329.644 258.442 335.924 285.413 327.836 309.035C319.624 332.729 312.86 365.479 284.017 374.729C255.998 383.663 216.157 374.649 187.521 371.248C163.052 368.503 121.957 355.951 113.621 334.187C105.409 312.799 131.099 300.473 152.95 303.57C181.586 306.97 221.427 315.985 249.446 307.051C278.335 297.791 285.098 265.04 293.264 241.356Z" fill="black" fill-opacity="0.03"/>
<path d="M153.203 335.874C154.91 341.115 164.239 345.945 173.003 346.776C203.343 349.646 246.407 358.726 275.935 348.999C304.13 339.702 308.112 307.608 314.151 283.941C315.87 277.31 315.091 267.832 313.384 262.59C311.677 257.349 308.512 258.182 306.807 264.856C300.754 288.481 296.786 320.616 268.591 329.914C239.109 339.631 195.999 330.561 165.659 327.691C156.85 326.87 151.51 330.675 153.203 335.874Z" fill="black" fill-opacity="0.03"/>
</svg>
