<svg width="346" height="602" viewBox="0 0 346 602" fill="none" xmlns="http://www.w3.org/2000/svg">
<path d="M132.074 27.5961C82.3457 0.430298 22.7677 -1.76975 -32.746 0.860742C-63.5392 2.29556 -99.9745 4.01733 -127.516 19.5133C-171.172 44.0965 -96.4362 109.859 -78.4576 130.042C-53.1154 158.164 -25.9563 185.952 -4.48714 217.278C3.11552 228.422 14.8303 244.253 9.61842 258.505C1.44199 280.793 -32.3635 294.711 -51.2506 304.898C-74.8714 317.333 -95.6233 335.411 -94.4279 364.156C-93.0891 395.865 -74.8236 427.813 -59.5705 454.692C-32.1722 502.998 1.29852 552.355 51.0744 579.76C87.2706 599.704 141.971 615.2 177.259 585.26C193.134 571.821 201.263 552.021 214.46 536.285C232.821 514.381 259.215 502.759 283.888 489.606C302.775 479.419 336.58 465.501 344.757 443.214C349.969 428.961 338.302 413.131 330.651 401.987C309.182 370.66 282.023 342.872 256.681 314.75C232.821 288.11 203.94 260.132 186.918 228.087C178.789 212.735 177.977 201.974 183.81 185.713C190.313 167.538 201.358 150.703 204.132 131.333C210.634 85.8017 168.031 47.2531 132.074 27.5961ZM266.818 480.232C243.627 492.524 218.62 503.237 199.733 521.985C186.966 534.611 177.785 550.586 164.11 562.351C133.269 588.895 90.0918 579.043 57.4816 561.203C11.4354 535.998 -23.0395 490.037 -48.6208 445.127C-61.77 422.026 -77.7403 393.234 -76.1146 365.686C-74.6802 340.768 -54.5021 325.416 -34.2283 314.368C-15.3412 304.18 18.4643 290.263 26.6407 267.975C31.8526 253.723 20.1856 237.892 12.5352 226.748C-8.93396 195.421 -36.0931 167.634 -61.4353 139.512C-76.7362 122.294 -149.989 56.0532 -114.032 32.7136C-91.8937 18.3655 -60.5268 16.5002 -35.0412 15.3524C16.8385 13.0088 73.5476 17.5524 119.737 43.0921C152.156 61.0273 183.762 92.4019 177.737 132.624C175.108 149.986 166.835 165.912 162.867 182.939C159.042 199.343 164.301 211.157 173.147 225.074C191.699 254.201 216.659 279.836 239.611 305.424C264.953 333.546 292.112 361.334 313.581 392.661C321.184 403.804 332.898 419.635 327.687 433.888C319.51 456.127 285.705 470.045 266.818 480.232Z" fill="black" fill-opacity="0.1"/>
<path d="M96.547 59.8795C56.669 38.1182 7.32347 31.8528 -37.5752 34.8659C-53.7368 35.966 -87.5423 37.7356 -98.1095 52.8968C-105.999 64.2318 -95.2884 80.2061 -89.2159 89.7715C-74.919 112.25 -56.3189 132.146 -38.675 151.995C-13.3328 180.117 13.8264 207.904 35.2955 239.231C42.8981 250.375 54.6129 266.206 49.401 280.458C41.2246 302.746 7.41911 316.663 -11.468 326.85C-58.0402 351.864 -56.6057 389.6 -33.4153 432.501C-12.0418 472.006 19.6599 510.554 59.3466 532.555C87.9881 548.434 119.881 552.403 147.136 532.029C159.807 522.559 170.278 510.554 183.141 501.276C201.932 487.741 223.688 478.462 244.105 467.701C262.993 457.514 296.798 443.596 304.974 421.309C310.186 407.057 298.519 391.226 290.869 380.082C269.4 348.755 242.241 320.968 216.898 292.845C198.203 271.993 179.076 251.331 162.006 229.044C152.348 216.466 138.529 200.252 136.521 183.752C134.56 167.538 141.733 150.464 143.071 134.394C145.845 100.485 125.093 75.4712 96.547 59.8795ZM227.083 458.327C195.621 474.78 166.023 491.806 135.66 510.028C110.557 525.142 83.5412 523.946 58.1513 509.646C24.8239 490.85 -4.00877 458.088 -20.9354 423.7C-39.3444 386.3 -31.8374 356.216 5.50648 336.177C24.3936 325.99 58.1991 312.072 66.3755 289.785C71.5874 275.532 59.9204 259.701 52.27 248.558C30.8008 217.231 3.64169 189.443 -21.7005 161.321C-36.6667 144.438 -51.9676 127.603 -65.1169 109.189C-71.7154 99.9587 -83.3346 85.3714 -82.713 73.1276C-81.8045 54.762 -52.1111 51.6054 -38.2446 50.1706C0.0555267 46.1053 42.6591 52.6098 76.608 71.0711C102.428 85.1801 117.825 106.798 118.303 136.403C118.542 150.895 115.339 165.482 119.546 179.591C124.376 195.852 137.907 211.109 148.188 224.022C164.541 244.54 182.328 263.91 199.828 283.423C225.171 311.546 252.33 339.333 273.799 370.66C281.401 381.804 293.116 397.635 287.904 411.887C279.776 434.222 245.97 448.14 227.083 458.327Z" fill="black" fill-opacity="0.1"/>
<path d="M50.2137 86.1844C25.1106 72.4102 -7.97768 66.3362 -36.1888 72.2667C-53.5458 75.9016 -61.2919 82.3104 -54.5499 100.246C-44.2696 127.651 -17.8277 152.568 1.05943 173.899C26.4016 202.022 53.5608 229.809 75.0299 261.136C82.6325 272.28 94.3473 288.111 89.1354 302.363C80.959 324.65 47.1535 338.568 28.2664 348.755C-36.2844 381.995 10.24 453.736 56.8122 479.276C78.6638 491.232 100.324 491.232 123.276 482.193C150.626 471.384 178.216 459.284 204.323 445.797C223.21 435.609 257.015 421.692 265.192 399.404C270.404 385.152 258.737 369.321 251.086 358.177C229.617 326.85 202.458 299.063 177.116 270.941C142.497 232.392 98.3638 193.413 88.1791 140.803C83.4932 116.65 72.2088 98.2369 50.2137 86.1844ZM187.3 436.422C151.774 455.553 97.5988 479.754 58.5336 458.04C18.1774 435.609 -3.81775 384.1 45.2887 358.129C64.1758 347.942 97.9813 334.025 106.158 311.737C111.37 297.485 99.7026 281.654 92.0522 270.51C70.5831 239.136 43.4239 211.396 18.0817 183.273C6.94073 170.695 -58.0404 108.998 -31.3116 90.6324C-15.4369 79.7278 18.512 90.9672 33.1436 99.0021C53.0348 109.907 60.3027 126.359 69.1486 146.016C88.8485 189.969 128.44 226.366 160.094 261.566C185.436 289.689 212.595 317.476 234.064 348.803C241.667 359.947 253.381 375.778 248.169 390.03C239.993 412.318 206.188 426.187 187.3 436.422Z" fill="black" fill-opacity="0.1"/>
<path d="M18.56 120.572C9.37941 115.407 -5.73026 110.72 -8.31229 124.207C-9.6033 130.95 -2.47881 140.659 0.963904 146.159C12.2005 164.142 26.8798 179.925 40.8419 195.804C66.1841 223.926 93.3433 251.714 114.812 283.041C122.415 294.184 134.13 310.015 128.918 324.268C120.742 346.555 86.936 360.473 68.0489 370.66C40.0769 386.012 39.3119 418.009 68.1446 433.648C96.1644 448.905 137.955 438.192 164.588 423.844C183.475 413.657 217.281 399.739 225.457 377.451C230.669 363.199 219.002 347.368 211.352 336.224C189.883 304.898 162.723 277.11 137.381 248.988C111.37 220.148 85.0712 191.595 60.0159 161.895C47.6317 147.212 35.5823 130.185 18.56 120.572ZM147.566 414.47C128.679 424.561 101.615 429.344 81.9154 419.061C60.781 408.013 70.5831 390.173 85.0712 380.034C103.958 369.847 137.764 355.929 145.94 333.642C151.152 319.389 139.485 303.559 131.835 292.415C110.366 261.088 83.2064 233.3 57.8642 205.178C46.7711 192.552 24.5847 173.564 20.7117 155.916C19.325 149.555 20.3292 142.668 29.1272 148.599C60.781 169.977 93.2955 209.77 120.359 239.614C145.701 267.736 172.86 295.524 194.329 326.85C201.932 337.994 213.647 353.825 208.435 368.077C200.259 390.365 166.453 404.282 147.566 414.47Z" fill="black" fill-opacity="0.1"/>
<path d="M69.7703 200.635C65.3713 197.956 69.6746 205.561 80.5766 217.661C105.919 245.783 133.078 273.571 154.547 304.898C162.15 316.042 173.864 331.872 168.653 346.125C160.476 368.412 126.671 382.33 107.784 392.517C102.189 395.578 101.568 400.217 106.253 402.8C110.939 405.383 119.211 404.952 124.806 401.939C143.693 391.752 177.498 377.834 185.675 355.547C190.887 341.294 179.22 325.463 171.569 314.32C150.1 282.993 122.941 255.205 97.5989 227.083C89.3268 217.805 80.0506 206.852 69.7703 200.635Z" fill="black" fill-opacity="0.1"/>
</svg>
