<svg xmlns="http://www.w3.org/2000/svg" width="45.078" height="61" viewBox="0 0 45.078 61">
  <g id="Icon" transform="translate(-81 -166)">
    <path id="Caminho_15" data-name="Caminho 15" d="M103.5,114.5v16.26" transform="translate(0 73.76)" fill="none" stroke="#222137" stroke-linecap="round" stroke-width="2"/>
    <g id="Caminho_14" data-name="Caminho 14" transform="translate(97 182)" fill="none" stroke-linecap="round" stroke-linejoin="round">
      <path d="M5.857,0H7.141C9.9,0,13,3.322,13,6.083V7.4s-2.234,5.977-2.234,7.36S13,21.479,13,21.479v1.549C13,25.789,9.9,29,7.141,29H5.857C3.1,29,0,25.789,0,23.028V6.083C0,3.322,3.1,0,5.857,0Z" stroke="none"/>
      <path d="M 5.856540203094482 2 C 5.129459857940674 2 4.142239570617676 2.543649673461914 3.341469764709473 3.385019302368164 C 2.526559829711914 4.241249084472656 2 5.300439834594727 2 6.083450317382813 L 2 23.02750968933105 C 2 23.79689025878906 2.520059585571289 24.82756996154785 3.324910163879395 25.65327072143555 C 4.122360229492188 26.47138023376465 5.116079807281494 27 5.856540203094482 27 L 7.140629768371582 27 C 7.881440162658691 27 8.875889778137207 26.47119903564453 9.674110412597656 25.6528205871582 C 10.47955989837646 24.82703018188477 11 23.79652976989746 11 23.02750968933105 L 11 21.87562370300293 C 10.79123115539551 21.365478515625 10.40157890319824 20.39743423461914 10.00765037536621 19.33539962768555 C 8.913179397583008 16.38471984863281 8.765620231628418 15.36851978302002 8.765620231628418 14.76362991333008 C 8.765620231628418 14.17494964599609 8.910659790039063 13.14029979705811 9.98643970489502 9.929759979248047 C 10.39608764648438 8.707195281982422 10.80087375640869 7.588817596435547 11 7.046176910400391 L 11 6.083450317382813 C 11 5.300800323486328 10.47305965423584 4.241790771484375 9.657549858093262 3.385480880737305 C 8.856010437011719 2.543830871582031 7.868060111999512 2 7.140629768371582 2 L 5.856540203094482 2 M 5.856540203094482 0 L 7.140629768371582 0 C 9.902059555053711 0 13 3.322029113769531 13 6.083450317382813 L 13 7.403900146484375 C 13 7.403900146484375 10.76562023162842 13.38074970245361 10.76562023162842 14.76362991333008 C 10.76562023162842 16.14649963378906 13 21.47895050048828 13 21.47895050048828 L 13 23.02750968933105 C 13 25.7889289855957 9.902059555053711 29 7.140629768371582 29 L 5.856540203094482 29 C 3.095109939575195 29 0 25.7889289855957 0 23.02750968933105 L 0 6.083450317382813 C 0 3.322029113769531 3.095109939575195 0 5.856540203094482 0 Z" stroke="none" fill="#222137"/>
    </g>
    <g id="Caminho_13" data-name="Caminho 13" transform="translate(91.56 176.715)" fill="none" stroke-linecap="round" stroke-linejoin="round">
      <path d="M10.655,0h2.568C18.3,0,23.88,5.654,23.88,9.422h0s.119.119-.909,2.568-3.208,6.876-3.2,7.908c0,.963,2.193,5.286,3.221,7.638s.892,2.7.892,2.7h0c0,3.768-5.585,9.328-10.658,9.328H10.655C5.582,39.569,0,34.009,0,30.241V10.1C0,6.334,5.582,0,10.655,0Z" stroke="none"/>
      <path d="M 10.65452480316162 1.999996185302734 C 8.901265144348145 1.999996185302734 6.730564117431641 3.137836456298828 4.847894668579102 5.043716430664063 C 2.891195297241211 7.024555206298828 1.999994277954102 9.054475784301758 1.999994277954102 10.10227584838867 L 1.999994277954102 30.24082565307617 C 1.999994277954102 31.26457595825195 2.85859489440918 33.08490753173828 4.776754379272461 34.84386444091797 C 6.637714385986328 36.55035781860352 8.835004806518555 37.56915664672852 10.65452480316162 37.56915664672852 L 13.22273445129395 37.56915664672852 C 15.04250431060791 37.56915664672852 17.24046516418457 36.55026626586914 19.10228538513184 34.8436164855957 C 21.01134872436523 33.09365081787109 21.8713436126709 31.28326416015625 21.88021469116211 30.25683403015137 C 21.83717346191406 30.0793571472168 21.68059921264648 29.5371208190918 21.15615463256836 28.33729553222656 C 20.8765754699707 27.69766616821289 20.50288391113281 26.89583587646484 20.10725402832031 26.04692649841309 C 18.32683563232422 22.22671699523926 17.77182388305664 20.88129615783691 17.76773452758789 19.90658569335938 C 17.76326370239258 18.84002685546875 18.42948532104492 17.25302696228027 20.06635475158691 13.6168270111084 C 20.4663143157959 12.72833633422852 20.84409523010254 11.88911628723145 21.12686538696289 11.21556663513184 C 21.619140625 10.04299545288086 21.80675506591797 9.501607894897461 21.87526512145996 9.281122207641602 C 21.8023796081543 8.229146957397461 20.93374824523926 6.472217559814453 19.0931453704834 4.763828277587891 C 17.22857475280762 3.033206939697266 15.03403472900391 1.999996185302734 13.22273445129395 1.999996185302734 L 10.65452480316162 1.999996185302734 M 10.65452480316162 -3.814697265625e-06 L 13.22273445129395 -3.814697265625e-06 C 18.29531478881836 -3.814697265625e-06 23.88028526306152 5.653938293457031 23.88028526306152 9.42176628112793 C 23.88028526306152 9.42176628112793 23.99908447265625 9.540786743164063 22.97094535827637 11.98975563049316 C 21.94280433654785 14.43873596191406 19.76338577270508 18.86541557312012 19.76771545410156 19.89819717407227 C 19.77175521850586 20.86086654663086 21.96060562133789 25.18406677246094 22.98874473571777 27.53627777099609 C 24.01688385009766 29.88848686218262 23.88028526306152 30.24082565307617 23.88028526306152 30.24082565307617 C 23.88028526306152 34.0086555480957 18.29531478881836 39.56915664672852 13.22273445129395 39.56915664672852 L 10.65452480316162 39.56915664672852 C 5.581945419311523 39.56915664672852 -5.7220458984375e-06 34.0086555480957 -5.7220458984375e-06 30.24082565307617 L -5.7220458984375e-06 10.10227584838867 C -5.7220458984375e-06 6.334445953369141 5.581945419311523 -3.814697265625e-06 10.65452480316162 -3.814697265625e-06 Z" stroke="none" fill="#222137"/>
    </g>
    <g id="Caminho_12" data-name="Caminho 12" transform="translate(86.188 171.433)" fill="none" stroke-linecap="round" stroke-linejoin="round">
      <path d="M15.513,0H18.98c7.355,0,15.644,9.7,15.644,14.469v1.808s.159.152-1.226,2.226-4.1,5.524-4.093,6.659,2.9,4.606,4.281,6.509a4.2,4.2,0,0,1,1.038,3.252V35.8c0,4.774-8.289,14.335-15.644,14.335H15.513C8.158,50.135,0,40.282,0,35.509V14.469C0,9.7,8.158,0,15.513,0Z" stroke="none"/>
      <path d="M 15.51284599304199 2 C 14.11396598815918 2 12.57729721069336 2.452312469482422 10.94552612304688 3.3443603515625 C 9.40983772277832 4.183879852294922 7.847396850585938 5.394001007080078 6.427106857299805 6.843891143798828 C 3.52067756652832 9.810901641845703 1.999996185302734 12.92570114135742 1.999996185302734 14.46908950805664 L 1.999996185302734 35.50852966308594 C 1.999996185302734 37.06172180175781 3.523767471313477 40.20980072021484 6.436107635498047 43.22146224975586 C 7.858667373657227 44.69253158569336 9.421796798706055 45.92021179199219 10.95651626586914 46.77175140380859 C 12.58632659912109 47.67605972290039 14.11929702758789 48.13458251953125 15.51284599304199 48.13458251953125 L 18.97991561889648 48.13458251953125 C 21.71434783935547 48.13458251953125 25.14129638671875 46.34299087524414 28.14699745178223 43.34207153320313 C 31.0862865447998 40.40746307373047 32.62416839599609 37.32652282714844 32.62416839599609 35.79983139038086 L 32.62416839599609 34.92192077636719 C 32.62416839599609 34.79135894775391 32.6369514465332 34.66119384765625 32.66228485107422 34.53329467773438 C 32.66827774047852 34.42854690551758 32.66932678222656 33.80809020996094 31.96967697143555 32.84699249267578 C 31.68077659606934 32.45013046264648 31.31161689758301 31.96639060974121 30.9207763671875 31.4542407989502 C 28.4699764251709 28.2427921295166 27.31439590454102 26.57630157470703 27.3056468963623 25.17379188537598 C 27.29718780517578 23.81612205505371 28.29139709472656 22.2723503112793 30.56197738647461 19.07345199584961 C 30.99788665771484 18.45931053161621 31.40962600708008 17.87924194335938 31.73507690429688 17.39197158813477 C 32.25667953491211 16.61103439331055 32.50862121582031 16.17460632324219 32.62416839599609 15.95724487304688 L 32.62416839599609 14.46908950805664 C 32.62416839599609 12.93402099609375 31.08357620239258 9.824600219726563 28.13910675048828 6.851749420166016 C 25.13007736206055 3.813739776611328 21.70607757568359 2 18.97991561889648 2 L 15.51284599304199 2 M 15.51284599304199 0 L 18.97991561889648 0 C 26.33468627929688 0 34.62416839599609 9.695201873779297 34.62416839599609 14.46908950805664 L 34.62416839599609 16.27701950073242 C 34.62416839599609 16.27701950073242 34.78307723999023 16.42940139770508 33.39821624755859 18.50281143188477 C 32.01336669921875 20.57621192932129 29.29853630065918 24.02676200866699 29.30560684204102 25.16133117675781 C 29.31268692016602 26.29590034484863 32.20175552368164 29.76755142211914 33.58661651611328 31.6699104309082 C 34.97147750854492 33.57227325439453 34.62416839599609 34.92192077636719 34.62416839599609 34.92192077636719 L 34.62416839599609 35.79983139038086 C 34.62416839599609 40.57372283935547 26.33468627929688 50.13458251953125 18.97991561889648 50.13458251953125 L 15.51284599304199 50.13458251953125 C 8.158077239990234 50.13458251953125 -3.814697265625e-06 40.28242111206055 -3.814697265625e-06 35.50852966308594 L -3.814697265625e-06 14.46908950805664 C -3.814697265625e-06 9.695201873779297 8.158077239990234 0 15.51284599304199 0 Z" stroke="none" fill="#222137"/>
    </g>
    <g id="Caminho_16" data-name="Caminho 16" transform="translate(81 166)" fill="none" stroke-linecap="round" stroke-linejoin="round">
      <path d="M22.5,0C34.926,0,45.015,9.6,45.015,22.023c0,0,.465.8-1.13,2.628s-5.669,5.487-5.669,5.867,4.077,4.237,5.669,5.92,1.13,2.465,1.13,2.465A22.172,22.172,0,0,1,22.5,61,22.5,22.5,0,0,1,0,38.5v-16A22.5,22.5,0,0,1,22.5,0Z" stroke="none"/>
      <path d="M 22.49999618530273 2 C 19.73163604736328 2 17.04714584350586 2.541740417480469 14.52108573913574 3.61016845703125 C 12.08019638061523 4.642578125 9.88763427734375 6.120979309082031 8.004306793212891 8.004310607910156 C 6.120975494384766 9.887641906738281 4.642574310302734 12.0802001953125 3.610164642333984 14.52109146118164 C 2.541736602783203 17.04713821411133 1.999996185302734 19.73163986206055 1.999996185302734 22.5 L 1.999996185302734 38.5 C 1.999996185302734 41.26836013793945 2.541736602783203 43.95285797119141 3.610164642333984 46.47891235351563 C 4.642574310302734 48.9197998046875 6.120975494384766 51.11235809326172 8.004306793212891 52.99568939208984 C 9.88763427734375 54.87902069091797 12.08019638061523 56.357421875 14.52108573913574 57.38983154296875 C 17.04714584350586 58.45825958251953 19.73163604736328 59 22.49999618530273 59 C 28.01189613342285 59 33.16914367675781 56.93270874023438 37.0217170715332 53.17893981933594 C 40.8865966796875 49.41318130493164 43.01508712768555 44.34323120117188 43.01508712768555 38.90300750732422 C 43.01508712768555 38.80119323730469 43.02286148071289 38.69989776611328 43.03817367553711 38.59998321533203 C 42.96463775634766 38.46092224121094 42.79679489135742 38.19819641113281 42.43209457397461 37.81253814697266 C 41.91209411621094 37.26267242431641 41.10371398925781 36.45903778076172 40.24788665771484 35.60823059082031 C 36.55817413330078 31.94018936157227 36.21674346923828 31.57064056396484 36.2166862487793 30.51820945739746 C 36.21660614013672 29.46998023986816 36.69724655151367 29.00053024291992 39.36468505859375 26.39516830444336 C 40.45911407470703 25.32621002197266 41.69956588745117 24.11463928222656 42.377685546875 23.33679962158203 C 42.80599594116211 22.84550094604492 42.9793586730957 22.52670669555664 43.04619216918945 22.37407302856445 C 43.02557754516602 22.2585563659668 43.01508712768555 22.14097595214844 43.01508712768555 22.02272033691406 C 43.01508712768555 16.58884048461914 40.88779449462891 11.53322982788086 37.02507781982422 7.787189483642578 C 33.17692565917969 4.055259704589844 28.01848602294922 2 22.49999618530273 2 M 22.49999618530273 0 C 34.92640686035156 0 45.01508712768555 9.596309661865234 45.01508712768555 22.02272033691406 C 45.01508712768555 22.02272033691406 45.48032760620117 22.8213996887207 43.88522720336914 24.65106964111328 C 42.29012680053711 26.48073959350586 38.21665573120117 30.13809013366699 38.2166862487793 30.5180492401123 C 38.21670532226563 30.89801025390625 42.29328536987305 34.75495910644531 43.88522720336914 36.43835067749023 C 45.47716522216797 38.12174987792969 45.01508712768555 38.90300750732422 45.01508712768555 38.90300750732422 C 45.01508712768555 51.32941055297852 34.92640686035156 61 22.49999618530273 61 C 10.0735969543457 61 -3.814697265625e-06 50.92641067504883 -3.814697265625e-06 38.5 L -3.814697265625e-06 22.5 C -3.814697265625e-06 10.07358932495117 10.0735969543457 0 22.49999618530273 0 Z" stroke="none" fill="#222137"/>
    </g>
  </g>
</svg>
