<svg width="157" height="70" viewBox="0 0 157 70" fill="none" xmlns="http://www.w3.org/2000/svg">
<path d="M50.2163 41.6572C49.1018 39.6654 48.0647 38.6618 45.9904 37.5347L45.9284 37.5038C44.8449 36.9171 43.622 36.2532 43.622 34.7401C43.622 33.227 44.8449 32.5785 45.9284 32.0226L45.9904 31.9918C48.0647 30.9109 49.0863 29.9073 50.2009 27.9001C52.3835 20.597 48.3897 12.3675 43.4672 7.45754C38.7458 2.71745 32.1824 0 25.4797 0C18.7769 0 12.3993 2.67113 7.53864 7.5193C2.678 12.3675 0 18.7288 0 25.4143V44.0504C0 50.736 2.678 57.0972 7.53864 61.9454C12.3993 66.809 18.7769 69.4802 25.4797 69.4802C32.1824 69.4802 38.7458 66.7627 43.4981 62.0226C48.4207 57.1127 52.4145 48.914 50.2163 41.6572ZM41.7334 60.2779C37.4455 64.5548 31.5168 67.0098 25.4797 67.0098C19.4735 67.0098 13.5448 64.5085 9.19498 60.1389C4.82968 55.754 2.4458 50.0566 2.47676 44.0659V25.4143C2.4458 19.439 4.82968 13.7262 9.19498 9.34122C13.5448 4.97169 19.489 2.47041 25.4797 2.47041C31.5168 2.47041 37.4455 4.92537 41.7334 9.20226C46.1761 13.6336 49.7519 20.9984 47.7241 27.4524L47.7086 27.4833C46.5167 29.6757 45.1545 30.7565 43.3898 32.0535C42.3681 32.7946 41.5322 33.5049 41.5322 34.7401C41.5322 36.1451 42.6467 36.9326 43.7148 37.6891L43.8232 37.7663C45.6034 39.0324 46.7334 40.2676 47.7241 42.0587L47.7396 42.0895C49.7674 48.4817 46.1916 55.8312 41.7334 60.2779Z" fill="white"/>
<path d="M44.2723 42.8306C43.297 40.9469 42.0896 39.6345 40.9132 38.492C39.9689 37.5656 38.7924 36.423 38.7924 34.74C38.7924 33.2887 39.6593 32.2851 40.5416 31.3895L40.6964 31.2351C42.167 29.7375 43.328 28.564 44.2878 26.6958C45.8822 21.4462 42.8946 15.3937 39.2104 11.7344C35.5881 8.12141 30.5882 6.05244 25.4798 6.05244C20.4489 6.05244 15.4335 8.18317 11.7493 11.8888C8.04963 15.6098 6.03726 20.4117 6.06822 25.4297V44.0658C6.03726 49.0684 8.12703 54.0401 11.8112 57.7148C15.4954 61.3895 20.4799 63.4585 25.4953 63.4431C25.5263 63.4431 25.5727 63.4431 25.6037 63.4431C30.6346 63.4431 35.5881 61.3741 39.2104 57.7611C42.8791 54.0864 45.8822 48.0493 44.2723 42.8306ZM37.4457 56.001C34.3188 59.1198 29.9535 60.9263 25.4798 60.9572C25.4489 60.9572 25.4179 60.9572 25.387 60.9572C21.0372 60.9572 16.8731 59.2125 13.6688 56.0627C10.4335 52.8666 8.56046 48.4971 8.54499 44.0658V25.4142C8.56046 20.9675 10.4335 16.5825 13.6843 13.3865C16.8731 10.2367 21.0062 8.52285 25.3405 8.52285C25.387 8.52285 25.4334 8.52285 25.4798 8.52285C29.938 8.53829 34.3033 10.3448 37.4457 13.4791C42.0896 18.1111 42.7398 23.2526 41.8729 26.248L41.8574 26.2789C41.3776 27.3134 40.6036 28.3015 39.7831 29.336C38.4519 31.0344 37.0742 32.7946 37.0742 34.74C37.0742 36.7009 38.4519 38.4765 39.7986 40.1904C40.6036 41.2248 41.3776 42.213 41.8574 43.2321L41.8729 43.2629C42.7398 46.2274 42.1051 51.3689 37.4457 56.001Z" fill="white"/>
<path d="M38.3744 43.9887C37.941 43.0314 37.3373 42.0742 36.6871 41.0551C35.4178 39.0634 34.102 36.9944 34.102 34.7401C34.102 32.4705 35.4178 30.4169 36.6871 28.4252C37.3373 27.4061 37.941 26.4488 38.3744 25.4916C39.1948 23.4072 38.4518 19.5317 34.9224 16.0114C32.4302 13.5255 28.9937 12.1051 25.4798 12.1051C21.9659 12.1051 18.6222 13.5101 16.0681 16.0577C13.5139 18.6053 12.1053 21.9404 12.1207 25.4452V44.0814C12.1207 47.5863 13.5294 50.9213 16.0681 53.4689C18.6222 56.0165 21.9659 57.4216 25.4798 57.4216C28.9937 57.4216 32.4302 56.0011 34.9224 53.5152C37.3992 51.0139 39.5354 46.9841 38.3744 43.9887ZM33.1732 51.7242C31.1608 53.716 28.3126 54.9048 25.5417 54.9048C25.5262 54.9048 25.4952 54.9048 25.4798 54.9048C22.616 54.8894 19.7832 53.6696 17.6934 51.5543C15.6656 49.4854 14.5511 46.8297 14.5975 44.0505V25.4144C14.5665 22.6197 15.6656 19.9332 17.7244 17.8642C19.7987 15.7643 22.616 14.5755 25.4798 14.5755C28.2971 14.5446 31.0989 15.7026 33.1732 17.7561C36.1763 20.736 36.5014 23.7932 35.8512 25.4916C35.4487 26.4643 34.9069 27.4216 34.3187 28.4561C33.1577 30.4941 31.9658 32.6094 31.9658 34.7556C31.9658 36.9018 33.1577 39.017 34.3032 41.0397C34.8915 42.0587 35.4332 43.0314 35.8357 44.0042C36.5014 45.7026 36.1763 48.7443 33.1732 51.7242Z" fill="white"/>
<path d="M32.4612 44.1122C32.1825 43.124 31.7955 42.105 31.424 41.1168C30.65 39.0633 29.8451 36.9325 29.8451 34.7401C29.8451 32.5476 30.65 30.4323 31.424 28.3633C31.7955 27.3752 32.1825 26.3561 32.4612 25.368C32.9255 23.546 32.167 22.0638 31.455 21.1374C30.0773 19.3618 27.616 18.1266 25.4798 18.1266C23.5603 18.1266 21.7337 18.8986 20.3405 20.2882C18.9473 21.6778 18.1733 23.4997 18.1733 25.4143V44.0504C18.1733 45.965 18.9473 47.7869 20.3405 49.1765C21.7337 50.5661 23.5603 51.3381 25.4798 51.3381C27.616 51.3381 30.0773 50.1029 31.455 48.3427C32.167 47.4163 32.9255 45.9341 32.4612 44.1122ZM29.2878 47.0149C28.3745 48.1111 26.8884 48.8368 25.4953 48.8677C25.4643 48.8677 25.4333 48.8677 25.3869 48.8677C24.2259 48.8677 23.1114 48.4045 22.229 47.5553C21.2693 46.6289 20.6965 45.3628 20.6811 44.0658V25.4143C20.6965 24.1019 21.2693 22.8358 22.2445 21.894C23.1578 21.0293 24.3188 20.5661 25.5107 20.597C26.9194 20.6279 28.3745 21.3227 29.3033 22.4344C30.0618 23.3299 30.3714 24.3644 30.2011 25.4452C30.0618 26.4951 29.8606 27.545 29.6748 28.5795C29.3033 30.5867 28.9163 32.6711 28.9163 34.7401C28.9163 36.8245 29.3033 38.8934 29.6748 40.9006C29.8606 41.9197 30.0618 42.985 30.2011 44.035C30.3404 45.1003 30.0308 46.1194 29.2878 47.0149Z" fill="white"/>
<path d="M26.5326 44.0658C26.4242 37.7971 26.4242 31.6983 26.5326 25.4142C26.5326 25.0745 26.4087 24.7503 26.1765 24.5187C25.9598 24.3025 25.6812 24.179 25.3716 24.179C24.7369 24.179 24.2261 24.7349 24.2261 25.4142V44.0503C24.2261 44.7297 24.7369 45.2855 25.3716 45.2855C25.6657 45.2855 25.9598 45.162 26.1765 44.9459C26.4087 44.7297 26.548 44.4055 26.5326 44.0658Z" fill="white"/>
<path d="M66.751 60.3285C66.0385 60.3285 65.3889 60.1822 64.8231 59.8687C64.2573 59.5552 63.8173 59.1371 63.482 58.6146C63.1676 58.0921 63 57.5068 63 56.8589C63 56.2109 63.1676 55.6257 63.482 55.1031C63.8173 54.5806 64.2573 54.1626 64.8231 53.849C65.3889 53.5355 66.0385 53.3892 66.751 53.3892H67.5683V54.4761H66.7091C66.2481 54.4761 65.829 54.5806 65.4518 54.7896C65.0746 54.9986 64.8022 55.2913 64.5717 55.6466C64.3411 56.0019 64.2573 56.4199 64.2573 56.8589C64.2573 57.2978 64.3621 57.7158 64.5717 58.0712C64.7812 58.4265 65.0746 58.7191 65.4518 58.9281C65.829 59.1371 66.2271 59.2417 66.7091 59.2417H67.5683V60.3076H66.751V60.3285Z" fill="white"/>
<path d="M72.1367 60.4959C71.4242 60.4959 70.7956 60.3287 70.2507 60.0151C69.7268 59.6807 69.2868 59.2418 68.9725 58.6983C68.6581 58.1549 68.4905 57.5278 68.4905 56.859C68.4905 56.1901 68.6581 55.5631 68.9725 55.0196C69.2868 54.4762 69.7268 54.0373 70.2717 53.7028C70.8165 53.3893 71.4452 53.2221 72.1577 53.2221C72.8701 53.2221 73.4988 53.3893 74.0436 53.7028C74.5885 54.0164 75.0285 54.4553 75.3429 55.0196C75.6572 55.5631 75.8039 56.1901 75.8039 56.859C75.8039 57.5278 75.6363 58.1549 75.3429 58.6983C75.0285 59.2418 74.5885 59.6807 74.0436 60.0151C73.4779 60.3287 72.8492 60.4959 72.1367 60.4959ZM72.1577 59.409C72.6396 59.409 73.0378 59.3045 73.394 59.0746C73.7503 58.8446 74.0227 58.5311 74.2322 58.1549C74.4418 57.7786 74.5256 57.3397 74.5256 56.859C74.5256 56.3783 74.4208 55.9393 74.2322 55.5631C74.0227 55.1869 73.7503 54.8733 73.394 54.6434C73.0378 54.4135 72.6187 54.309 72.1577 54.309C71.6757 54.309 71.2566 54.4135 70.9003 54.6434C70.5441 54.8733 70.2717 55.1869 70.0621 55.5631C69.8526 55.9602 69.7688 56.3783 69.7688 56.859C69.7688 57.3397 69.8735 57.7786 70.0621 58.1549C70.2507 58.5311 70.5441 58.8446 70.9003 59.0746C71.2566 59.3045 71.6757 59.409 72.1577 59.409Z" fill="white"/>
<path d="M77.2705 60.3286V50.3794H78.5278V60.3286H77.2705Z" fill="white"/>
<path d="M83.2849 60.4959C82.6143 60.4959 82.0276 60.3287 81.5456 60.0151C81.0636 59.7016 80.6864 59.2627 80.414 58.6983C80.1416 58.134 80.0159 57.5278 80.0159 56.859C80.0159 56.1692 80.1626 55.5631 80.4559 55.0196C80.7493 54.4762 81.1684 54.0373 81.7133 53.7028C82.2581 53.3893 82.9077 53.2221 83.6831 53.2221C84.4165 53.2221 85.0452 53.3893 85.59 53.7028C86.1139 54.0164 86.533 54.4553 86.8054 54.9987C87.0988 55.5422 87.2455 56.1483 87.2455 56.8172V60.3286H85.9672V58.9073H85.9462C85.7995 59.1791 85.6319 59.4299 85.4014 59.6598C85.1709 59.9106 84.8775 60.0987 84.5422 60.245C84.165 60.4122 83.7459 60.4959 83.2849 60.4959ZM83.6202 59.409C84.0812 59.409 84.4794 59.3045 84.8356 59.0746C85.1918 58.8446 85.4643 58.552 85.6529 58.1549C85.8415 57.7577 85.9462 57.3188 85.9462 56.8381C85.9462 56.3573 85.8624 55.9184 85.6738 55.5422C85.4852 55.166 85.2128 54.8524 84.8775 54.6434C84.5422 54.4135 84.1231 54.309 83.6621 54.309C83.1801 54.309 82.7401 54.4135 82.4048 54.6434C82.0485 54.8733 81.7761 55.1869 81.6085 55.5631C81.4199 55.9602 81.3361 56.3783 81.3361 56.8799C81.3361 57.3606 81.4199 57.7787 81.6085 58.1758C81.7971 58.5729 82.0485 58.8655 82.4048 59.0955C82.6982 59.3045 83.1173 59.409 83.6202 59.409Z" fill="white"/>
<path d="M92.5888 60.4958C91.9182 60.4958 91.3105 60.3495 90.7657 60.0569C90.2208 59.7642 89.8017 59.3462 89.4874 58.8028C89.1731 58.2593 89.0264 57.5905 89.0264 56.8171V50.3794H90.2837V54.6224H90.3046C90.4513 54.3298 90.6609 54.0999 90.9123 53.8909C91.1638 53.6819 91.4572 53.5147 91.7715 53.4102C92.0858 53.2847 92.4421 53.2429 92.7983 53.2429C93.4479 53.2429 94.0137 53.3893 94.5376 53.6819C95.0406 53.9745 95.4597 54.3925 95.753 54.9151C96.0464 55.4376 96.1931 56.0647 96.1931 56.7962C96.1931 57.3606 96.1093 57.8831 95.9207 58.3429C95.753 58.8028 95.5016 59.1999 95.1663 59.5134C94.852 59.8478 94.4748 60.0778 94.0347 60.2659C93.6156 60.4122 93.1336 60.4958 92.5888 60.4958ZM92.5888 59.4089C93.0079 59.4089 93.406 59.3044 93.7623 59.0954C94.1185 58.8864 94.3909 58.5937 94.6005 58.2175C94.81 57.8413 94.9148 57.3815 94.9148 56.8589C94.9148 56.3573 94.81 55.8974 94.6005 55.5212C94.3909 55.145 94.1185 54.8315 93.7832 54.6224C93.4479 54.4134 93.0498 54.288 92.6097 54.288C92.1906 54.288 91.7925 54.3925 91.4362 54.6015C91.08 54.8106 90.8076 55.1032 90.598 55.5003C90.3885 55.8974 90.2837 56.3364 90.2837 56.8798C90.2837 57.4024 90.3885 57.8413 90.598 58.2175C90.8076 58.5937 91.08 58.8864 91.4362 59.0954C91.7925 59.3044 92.1906 59.4089 92.5888 59.4089Z" fill="white"/>
<path d="M104.073 60.4957C103.758 60.4957 103.486 60.4121 103.235 60.224C102.983 60.0568 102.794 59.806 102.69 59.4716L100.427 53.3892H101.81L103.821 59.0117C103.863 59.0953 103.905 59.158 103.947 59.1998C103.989 59.2416 104.052 59.2626 104.094 59.2626C104.157 59.2626 104.219 59.2416 104.24 59.1998C104.282 59.158 104.324 59.0953 104.366 59.0117L106.399 53.3892H107.74L105.477 59.4716C105.351 59.806 105.162 60.0568 104.911 60.224C104.68 60.4121 104.408 60.4957 104.073 60.4957Z" fill="white"/>
<path d="M112.14 60.3286C111.386 60.3286 110.694 60.1823 110.108 59.8897C109.521 59.5971 109.06 59.1999 108.725 58.6774C108.389 58.1549 108.222 57.5487 108.222 56.8381C108.222 56.1483 108.368 55.5213 108.641 54.9778C108.913 54.4344 109.311 53.9955 109.814 53.6819C110.317 53.3684 110.904 53.2012 111.554 53.2012C112.266 53.2012 112.874 53.3475 113.356 53.661C113.838 53.9746 114.194 54.3926 114.424 54.9151C114.655 55.4377 114.781 56.0229 114.781 56.6709C114.781 56.7754 114.781 56.8799 114.781 56.9844C114.781 57.0889 114.76 57.1934 114.739 57.277H109.542C109.584 57.695 109.73 58.0713 109.961 58.3639C110.191 58.6565 110.506 58.8864 110.862 59.0327C111.239 59.1791 111.637 59.2627 112.077 59.2627H113.901V60.3286H112.14V60.3286ZM109.563 56.3991H113.544C113.544 56.2319 113.523 56.0438 113.481 55.8557C113.44 55.6676 113.377 55.4795 113.293 55.2914C113.209 55.1032 113.083 54.936 112.937 54.7897C112.79 54.6434 112.601 54.518 112.371 54.4344C112.14 54.3508 111.889 54.2881 111.595 54.2881C111.281 54.2881 110.988 54.3508 110.757 54.4762C110.506 54.6016 110.317 54.7688 110.129 54.9569C109.961 55.1659 109.814 55.3959 109.73 55.6467C109.626 55.8766 109.584 56.1274 109.563 56.3991Z" fill="white"/>
<path d="M116.269 60.3286V56.3155C116.269 55.6885 116.415 55.1659 116.688 54.6852C116.96 54.2254 117.358 53.87 117.84 53.5983C118.322 53.3475 118.888 53.2012 119.517 53.2012C120.146 53.2012 120.711 53.3266 121.193 53.5983C121.675 53.8491 122.052 54.2254 122.346 54.6852C122.618 55.145 122.765 55.6885 122.765 56.3155V60.3286H121.508V56.3155C121.508 55.8975 121.424 55.5422 121.235 55.2286C121.047 54.9151 120.795 54.6852 120.502 54.518C120.187 54.3508 119.873 54.2672 119.517 54.2672C119.182 54.2672 118.846 54.3508 118.532 54.518C118.218 54.6852 117.987 54.9151 117.799 55.2286C117.61 55.5422 117.526 55.8975 117.526 56.3155V60.3286H116.269Z" fill="white"/>
<path d="M123.812 54.4553V53.3684H128.653V54.4553H123.812ZM126.997 60.3286C126.369 60.3286 125.887 60.1614 125.552 59.8061C125.195 59.4508 125.028 58.9701 125.028 58.3639V51.6336H126.285V58.2594C126.285 58.552 126.369 58.8028 126.536 58.9701C126.704 59.1373 126.935 59.2418 127.249 59.2418H128.653V60.3078H126.997V60.3286Z" fill="white"/>
<path d="M133.305 60.4958C132.677 60.4958 132.111 60.3703 131.629 60.0986C131.126 59.8478 130.749 59.4716 130.476 59.0117C130.204 58.5519 130.057 58.0085 130.057 57.3814V53.3683H131.336V57.3814C131.336 57.7995 131.419 58.1548 131.608 58.4683C131.797 58.7818 132.027 59.0118 132.342 59.179C132.656 59.3462 132.97 59.4298 133.326 59.4298C133.683 59.4298 134.018 59.3462 134.311 59.179C134.605 59.0118 134.856 58.7818 135.045 58.4683C135.233 58.1548 135.317 57.7995 135.317 57.3814V53.3683H136.595V57.3814C136.595 58.0085 136.449 58.531 136.176 59.0117C135.904 59.4716 135.506 59.8269 135.024 60.0986C134.479 60.3703 133.934 60.4958 133.305 60.4958Z" fill="white"/>
<path d="M138.376 60.3285V55.354C138.376 54.7269 138.544 54.2462 138.9 53.9118C139.256 53.5564 139.738 53.3892 140.346 53.3892H141.771V54.4761H140.577C140.283 54.4761 140.032 54.5597 139.864 54.7269C139.696 54.8941 139.613 55.1449 139.613 55.4585V60.3494H138.376V60.3285Z" fill="white"/>
<path d="M146.361 60.3286C145.607 60.3286 144.915 60.1823 144.328 59.8897C143.742 59.5971 143.281 59.1999 142.945 58.6774C142.61 58.1549 142.442 57.5487 142.442 56.8381C142.442 56.1483 142.589 55.5213 142.861 54.9778C143.155 54.4344 143.532 53.9955 144.035 53.6819C144.538 53.3684 145.125 53.2012 145.774 53.2012C146.487 53.2012 147.094 53.3475 147.576 53.661C148.058 53.9746 148.415 54.3926 148.645 54.9151C148.876 55.4377 149.001 56.0229 149.001 56.6709C149.001 56.7754 149.001 56.8799 149.001 56.9844C149.001 57.0889 148.98 57.1934 148.959 57.277H143.763C143.804 57.695 143.951 58.0713 144.182 58.3639C144.412 58.6565 144.727 58.8864 145.083 59.0327C145.46 59.1791 145.858 59.2627 146.298 59.2627H148.121V60.3286H146.361V60.3286ZM143.763 56.3991H147.744C147.744 56.2319 147.723 56.0438 147.681 55.8557C147.639 55.6676 147.576 55.4795 147.493 55.2914C147.409 55.1032 147.283 54.936 147.136 54.7897C146.99 54.6434 146.801 54.518 146.571 54.4344C146.34 54.3508 146.089 54.2881 145.774 54.2881C145.46 54.2881 145.167 54.3508 144.936 54.4762C144.706 54.6016 144.496 54.7688 144.307 54.9569C144.14 55.1659 143.993 55.3959 143.909 55.6467C143.825 55.8975 143.784 56.1274 143.763 56.3991Z" fill="white"/>
<path d="M150.363 60.3285V59.2626H153.695C153.904 59.2626 154.093 59.2208 154.261 59.1162C154.428 59.0117 154.533 58.8863 154.617 58.74C154.701 58.5937 154.742 58.4265 154.742 58.2593C154.742 58.0921 154.701 57.9458 154.638 57.7994C154.575 57.6531 154.449 57.5486 154.302 57.465C154.156 57.3814 153.967 57.3396 153.758 57.3396H152.354C151.914 57.3396 151.515 57.256 151.18 57.1097C150.845 56.9634 150.593 56.7335 150.405 56.4408C150.216 56.1482 150.132 55.7929 150.132 55.3749C150.132 55.0195 150.216 54.6851 150.384 54.3925C150.551 54.0999 150.803 53.849 151.117 53.6609C151.432 53.4728 151.788 53.3892 152.186 53.3892H155.392V54.4761H152.312C152.018 54.4761 151.809 54.5597 151.641 54.7269C151.473 54.8941 151.39 55.1031 151.39 55.3331C151.39 55.563 151.473 55.7511 151.641 55.9183C151.809 56.0855 152.039 56.1691 152.354 56.1691H153.695C154.198 56.1691 154.617 56.2527 154.952 56.399C155.287 56.5663 155.56 56.7962 155.727 57.0888C155.895 57.3814 156 57.7576 156 58.1966C156 58.5728 155.916 58.9072 155.727 59.2417C155.539 59.5552 155.287 59.8269 154.973 60.015C154.659 60.224 154.281 60.3076 153.841 60.3076H150.363V60.3285Z" fill="white"/>
<path d="M71.7021 44.2628C69.9024 44.2628 68.3078 43.8765 66.9181 43.1267C65.5285 42.3769 64.4578 41.2862 63.6833 39.8547C62.9088 38.4459 62.5215 36.7645 62.5215 34.8331V19.4957H66.5081V28.8799H66.5309C66.8954 28.2664 67.3737 27.7211 67.9888 27.2667C68.5811 26.8122 69.2645 26.4487 69.9935 26.1987C70.7225 25.9488 71.5198 25.8124 72.3399 25.8124C74.0257 25.8124 75.5064 26.176 76.7821 26.9258C78.0578 27.6757 79.0602 28.7209 79.7892 30.0615C80.5181 31.4021 80.8826 32.9699 80.8826 34.765C80.8826 36.1737 80.6776 37.4462 80.2448 38.6277C79.8119 39.8093 79.1969 40.809 78.3995 41.6498C77.6022 42.5132 76.6454 43.1494 75.5064 43.6039C74.4129 44.0356 73.1372 44.2628 71.7021 44.2628ZM71.7021 40.8772C72.7272 40.8772 73.6156 40.6273 74.4129 40.1274C75.1875 39.6275 75.8026 38.9458 76.2582 38.0824C76.691 37.1962 76.9188 36.1965 76.9188 35.0376C76.9188 33.9015 76.691 32.9018 76.2582 32.0383C75.8253 31.1521 75.2103 30.4705 74.4357 29.9706C73.6612 29.4707 72.7727 29.2208 71.7476 29.2208C70.7225 29.2208 69.834 29.4707 69.0367 29.9706C68.2622 30.4705 67.6471 31.1521 67.1915 32.0383C66.7587 32.879 66.5309 33.8788 66.5309 35.0376C66.5309 36.1965 66.7587 37.1962 67.1915 38.0824C67.6243 38.9686 68.2394 39.6502 69.0367 40.1274C69.8113 40.6273 70.6997 40.8772 71.7021 40.8772Z" fill="white"/>
<path d="M93.0702 44.2629C91.2705 44.2629 89.6531 43.8539 88.2635 43.0359C86.8511 42.2179 85.7348 41.1045 84.9147 39.7184C84.0946 38.3324 83.6846 36.7646 83.6846 35.0377C83.6846 33.3108 84.0946 31.743 84.9147 30.3569C85.7348 28.9709 86.8511 27.8575 88.2635 27.0395C89.6759 26.2215 91.2705 25.8125 93.0702 25.8125C94.8926 25.8125 96.51 26.2215 97.9224 27.0395C99.3348 27.8575 100.451 28.9709 101.271 30.3569C102.091 31.743 102.501 33.3108 102.501 35.0377C102.501 36.7646 102.091 38.3324 101.271 39.7184C100.451 41.1045 99.3348 42.2179 97.9224 43.0359C96.51 43.8539 94.8926 44.2629 93.0702 44.2629ZM93.0702 40.8773C94.1864 40.8773 95.1432 40.6273 95.9405 40.1047C96.7378 39.5821 97.3757 38.8777 97.8085 37.9916C98.2414 37.1054 98.4692 36.1283 98.4692 35.0377C98.4692 33.947 98.2414 32.97 97.8085 32.0838C97.3757 31.1976 96.7378 30.4933 95.9405 29.9707C95.1432 29.448 94.1636 29.1981 93.0702 29.1981C91.9767 29.1981 91.0427 29.448 90.2454 29.9707C89.4481 30.4933 88.833 31.1976 88.3774 32.0611C87.9218 32.9472 87.6939 33.9243 87.6939 35.0377C87.6939 36.1283 87.9218 37.1054 88.3774 37.9916C88.833 38.8777 89.4481 39.5821 90.2454 40.1047C91.0427 40.6273 91.9995 40.8773 93.0702 40.8773Z" fill="white"/>
<path d="M112.525 44.2629C111.363 44.2629 110.315 44.0356 109.381 43.5812C108.424 43.1268 107.673 42.4451 107.126 41.5135C106.579 40.5819 106.283 39.3776 106.283 37.9461V26.2215H110.27V38.5596C110.27 39.0141 110.383 39.4231 110.588 39.7866C110.794 40.1502 111.067 40.4228 111.409 40.6046C111.75 40.7864 112.115 40.8773 112.525 40.8773C112.912 40.8773 113.299 40.7864 113.641 40.6046C113.983 40.4228 114.256 40.1502 114.484 39.7866C114.689 39.4231 114.803 39.0141 114.803 38.5596V32.0611C114.803 30.6978 115.053 29.5617 115.577 28.63C116.101 27.6984 116.83 26.9941 117.764 26.5169C118.698 26.0397 119.769 25.8125 120.976 25.8125C122.207 25.8125 123.277 26.0397 124.188 26.5169C125.1 26.9941 125.829 27.6984 126.375 28.63C126.899 29.5617 127.173 30.7205 127.173 32.0611V38.5596C127.173 39.0141 127.287 39.4231 127.492 39.7866C127.697 40.1502 127.97 40.4228 128.312 40.6046C128.653 40.7864 129.041 40.8773 129.451 40.8773C129.838 40.8773 130.203 40.7864 130.544 40.6046C130.886 40.4228 131.159 40.1502 131.364 39.7866C131.569 39.4231 131.683 39.0141 131.683 38.5596V26.2215H135.67V37.9461C135.67 39.4003 135.397 40.5819 134.85 41.5135C134.303 42.4451 133.551 43.1268 132.595 43.5812C131.638 44.0356 130.613 44.2629 129.474 44.2629C128.335 44.2629 127.309 44.0356 126.353 43.5812C125.396 43.1268 124.644 42.4451 124.075 41.5135C123.505 40.5819 123.209 39.3776 123.209 37.9461V31.5158C123.209 31.0159 123.118 30.5841 122.913 30.2433C122.708 29.9025 122.457 29.6525 122.115 29.4708C121.774 29.289 121.409 29.1981 120.999 29.1981C120.635 29.1981 120.27 29.289 119.929 29.4708C119.587 29.6525 119.313 29.9252 119.086 30.2433C118.881 30.5841 118.767 30.9931 118.767 31.5158V37.9461C118.767 39.4003 118.493 40.5819 117.924 41.5135C117.354 42.4451 116.603 43.1268 115.669 43.5812C114.689 44.0356 113.641 44.2629 112.525 44.2629Z" fill="white"/>
<path d="M149.338 43.8539C147.356 43.8539 145.625 43.4903 144.122 42.7405C142.641 41.9907 141.479 40.9454 140.636 39.6276C139.793 38.3097 139.383 36.7646 139.383 35.0377C139.383 33.2199 139.748 31.6066 140.5 30.2433C141.251 28.88 142.254 27.7893 143.552 26.9941C144.851 26.2215 146.331 25.8125 148.017 25.8125C149.908 25.8125 151.48 26.2215 152.687 27.0168C153.917 27.8121 154.829 28.9027 155.398 30.266C155.99 31.6294 156.286 33.1517 156.286 34.8332C156.286 35.0604 156.286 35.3331 156.241 35.6285C156.218 35.9239 156.173 36.1511 156.127 36.3101H143.575C143.712 37.2417 144.053 37.9916 144.577 38.6051C145.101 39.2186 145.785 39.673 146.582 39.9911C147.379 40.3092 148.291 40.4683 149.293 40.4683H154.031V43.8539H149.338V43.8539ZM143.598 33.6289H152.323C152.3 33.1972 152.232 32.7427 152.14 32.311C152.027 31.8793 151.867 31.4703 151.662 31.0613C151.434 30.675 151.161 30.3342 150.819 30.0388C150.477 29.7434 150.09 29.5162 149.635 29.3572C149.179 29.1754 148.632 29.1072 148.04 29.1072C147.357 29.1072 146.741 29.2435 146.195 29.5162C145.671 29.7889 145.215 30.1297 144.851 30.5614C144.486 30.9931 144.19 31.4703 144.008 32.0156C143.803 32.5155 143.666 33.0609 143.598 33.6289Z" fill="white"/>
</svg>
