<svg width="24" height="24" viewBox="0 0 24 24" fill="none" xmlns="http://www.w3.org/2000/svg">
<path d="M24 12.0005C24.0001 9.70722 23.3431 7.46198 22.1067 5.53055C20.8704 3.59912 19.1065 2.06239 17.0239 1.1023C14.9414 0.142211 12.6273 -0.201036 10.3557 0.113199C8.08407 0.427435 5.95007 1.38599 4.20633 2.87539C2.46259 4.36478 1.18212 6.32264 0.516542 8.51716C-0.14904 10.7117 -0.171869 13.051 0.450757 15.2581C1.07338 17.4652 2.31539 19.4476 4.02973 20.9708C5.74408 22.4939 7.85896 23.4939 10.124 23.8525V15.4685H7.078V12.0005H10.125V9.35646C10.125 6.34946 11.916 4.68846 14.657 4.68846C15.5568 4.70086 16.4546 4.77907 17.343 4.92246V7.87446H15.829C15.5712 7.84027 15.309 7.86451 15.0618 7.94538C14.8147 8.02625 14.5889 8.16167 14.4011 8.34163C14.2134 8.52159 14.0685 8.74147 13.9773 8.98499C13.8861 9.22852 13.8507 9.48944 13.874 9.74846V12.0005H17.2L16.668 15.4695H13.868V23.8545C16.692 23.4094 19.2644 21.9708 21.1219 19.7976C22.9795 17.6243 24.0001 14.8594 24 12.0005Z" fill="white"/>
</svg>
