<svg width="36" height="23" viewBox="0 0 36 23" fill="none" xmlns="http://www.w3.org/2000/svg">
<path d="M33.7634 9.98009C32.4342 8.61396 30.6405 7.84674 28.7707 7.8446C27.7712 7.83809 26.7827 8.06122 25.8759 8.49801C24.9632 8.92582 24.1481 9.54961 23.4843 10.3283C23.3914 10.44 23.278 10.5313 23.1508 10.5969C23.0236 10.6626 22.8851 10.7013 22.7433 10.7107C22.6015 10.7202 22.4594 10.7002 22.3251 10.652C22.1908 10.6038 22.0672 10.5283 21.9613 10.4299C21.8554 10.3315 21.7695 10.2122 21.7085 10.0789C21.6474 9.94563 21.6126 9.80107 21.6059 9.65366C21.5992 9.50625 21.6209 9.35893 21.6696 9.2203C21.7183 9.08167 21.7931 8.95451 21.8896 8.84623C22.7512 7.82839 23.8104 7.01154 24.9976 6.44939C25.2419 6.32805 25.4944 6.22529 25.7531 6.1419C25.0503 4.71827 24.0109 3.50339 22.7325 2.6112C21.4064 1.64481 19.8644 1.04668 18.2531 0.873624C16.6418 0.700569 15.0147 0.95834 13.5263 1.62244C12.0379 2.28655 10.7377 3.33493 9.74912 4.66801C8.76055 6.00109 8.11649 7.57459 7.8781 9.23905C7.8571 9.39578 7.80527 9.54635 7.72583 9.68138C7.64639 9.8164 7.54105 9.933 7.41636 10.0239H7.37344C7.23484 10.1127 7.07451 10.1581 6.91169 10.1546C5.34115 10.1532 3.83349 10.7955 2.716 11.9418C2.16519 12.5132 1.72944 13.1929 1.43418 13.9411C1.13892 14.6893 0.990056 15.4911 0.996281 16.2997C0.994593 17.9317 1.61284 19.4986 2.71674 20.6598C3.22921 21.2501 3.85786 21.719 4.56006 22.0348C5.26226 22.3506 6.02161 22.5059 6.78663 22.4901H28.7715C29.6981 22.4929 30.616 22.3054 31.4727 21.9385C32.3294 21.5717 33.1078 21.0326 33.7634 20.3523C35.0784 18.9716 35.817 17.1082 35.819 15.1658C35.822 14.2034 35.6419 13.2499 35.2891 12.36C34.9363 11.47 34.4178 10.6613 33.7634 9.98009Z" fill="#F41F45"/>
</svg>
