<svg width="29" height="30" viewBox="0 0 29 30" fill="none" xmlns="http://www.w3.org/2000/svg">
<path d="M24.1376 4.75683C21.5117 2.02904 17.9504 0.496582 14.2369 0.496582C10.5235 0.496582 6.96213 2.02904 4.33632 4.75683C1.71051 7.48463 0.235352 11.1843 0.235352 15.042C0.235352 18.8997 1.71051 22.5994 4.33632 25.3272C6.96213 28.0549 10.5235 29.5874 14.2369 29.5874C17.9504 29.5874 21.5117 28.0549 24.1376 25.3272C26.7634 22.5994 28.2385 18.8997 28.2385 15.042C28.2385 11.1843 26.7634 7.48463 24.1376 4.75683ZM15.1172 21.369H15.0587V23.2516C15.0523 23.4732 14.9631 23.6834 14.8099 23.8378C14.6568 23.9922 14.4518 24.0785 14.2384 24.0785C14.025 24.0785 13.82 23.9922 13.6669 23.8378C13.5138 23.6834 13.4246 23.4732 13.4181 23.2516V21.369H11.6C11.4902 21.3724 11.3809 21.3529 11.2785 21.3116C11.1761 21.2703 11.0827 21.2081 11.0039 21.1287C10.925 21.0492 10.8624 20.9541 10.8196 20.849C10.7768 20.7439 10.7547 20.631 10.7547 20.5169C10.7547 20.4027 10.7768 20.2898 10.8196 20.1847C10.8624 20.0796 10.925 19.9845 11.0039 19.9051C11.0827 19.8256 11.1761 19.7634 11.2785 19.7221C11.3809 19.6808 11.4902 19.6613 11.6 19.6647H15.1142C15.5957 19.6647 16.0575 19.466 16.398 19.1123C16.7385 18.7586 16.9297 18.2789 16.9297 17.7787C16.9297 17.2784 16.7385 16.7987 16.398 16.445C16.0575 16.0913 15.5957 15.8926 15.1142 15.8926H13.3567C12.4401 15.8926 11.561 15.5143 10.9129 14.841C10.2648 14.1677 9.90063 13.2545 9.90063 12.3023C9.90063 11.35 10.2648 10.4368 10.9129 9.76351C11.561 9.09019 12.4401 8.71193 13.3567 8.71193H13.4152V6.82624C13.4216 6.60467 13.5108 6.39441 13.664 6.24004C13.8171 6.08566 14.0221 5.99932 14.2355 5.99932C14.4488 5.99932 14.6538 6.08566 14.807 6.24004C14.9601 6.39441 15.0493 6.60467 15.0557 6.82624V8.71193H16.8717C17.0849 8.71858 17.2873 8.81128 17.4359 8.97036C17.5845 9.12944 17.6677 9.34239 17.6677 9.56406C17.6677 9.78573 17.5845 9.99868 17.4359 10.1578C17.2873 10.3168 17.0849 10.4095 16.8717 10.4162H13.3567C12.8752 10.4162 12.4134 10.6149 12.0729 10.9686C11.7325 11.3223 11.5412 11.802 11.5412 12.3023C11.5412 12.8025 11.7325 13.2822 12.0729 13.6359C12.4134 13.9896 12.8752 14.1883 13.3567 14.1883H15.1142C16.0308 14.1883 16.9099 14.5666 17.558 15.2399C18.2062 15.9132 18.5703 16.8264 18.5703 17.7787C18.5703 18.7309 18.2062 19.6441 17.558 20.3174C16.9099 20.9907 16.0308 21.369 15.1142 21.369H15.1172Z" fill="#F41F45"/>
</svg>
