<svg width="30" height="31" viewBox="0 0 30 31" fill="none" xmlns="http://www.w3.org/2000/svg">
<path d="M29.9112 12.0057C29.7627 11.6211 29.5136 11.2891 29.1931 11.0484C28.8726 10.8078 28.4939 10.6685 28.1012 10.6468L20.5253 9.48343L17.1377 2.23183C16.997 1.84371 16.7546 1.50592 16.439 1.25796C16.1233 1.00999 15.7473 0.862089 15.3551 0.831543C14.9628 0.862089 14.5868 1.00999 14.2711 1.25796C13.9555 1.50592 13.7131 1.84371 13.5724 2.23183L10.1855 9.48343L2.61035 10.6468C2.21695 10.6677 1.83731 10.8065 1.51595 11.0472C1.19459 11.2879 0.944822 11.6204 0.795916 12.0057C0.702276 12.4092 0.719281 12.8326 0.844944 13.2264C0.970607 13.6201 1.19974 13.968 1.50556 14.2292L6.9866 19.8741L5.69238 27.8489C5.61202 28.1855 5.6047 28.5369 5.67095 28.8768C5.73719 29.2168 5.8753 29.5365 6.07495 29.8122C6.23263 30.0069 6.42924 30.1623 6.65061 30.267C6.87198 30.3718 7.1126 30.4234 7.35511 30.4181C7.78357 30.4062 8.20286 30.2844 8.57682 30.0631L15.3514 26.3001L22.1266 30.0631C22.5006 30.2845 22.9199 30.4063 23.3483 30.4181C23.5909 30.4234 23.8315 30.3718 24.0528 30.267C24.2742 30.1623 24.4708 30.0069 24.6285 29.8122C24.828 29.5365 24.966 29.2167 25.0321 28.8767C25.0982 28.5368 25.0908 28.1854 25.0103 27.8489L23.7161 19.8741L29.1972 14.2292C29.5038 13.9685 29.7338 13.6209 29.8602 13.2272C29.9867 12.8334 30.0044 12.4097 29.9112 12.0057Z" fill="#F41F45"/>
</svg>
