<svg width="34" height="34" viewBox="0 0 34 34" fill="none" xmlns="http://www.w3.org/2000/svg">
<path fill-rule="evenodd" clip-rule="evenodd" d="M21.5603 16.2477C21.659 16.1487 21.7762 16.0702 21.9053 16.0167C22.0344 15.9631 22.1728 15.9355 22.3125 15.9355C22.4523 15.9355 22.5906 15.9631 22.7197 16.0167C22.8488 16.0702 22.9661 16.1487 23.0648 16.2477L29.4398 22.6227C29.5387 22.7214 29.6172 22.8386 29.6708 22.9677C29.7243 23.0968 29.7519 23.2352 29.7519 23.3749C29.7519 23.5147 29.7243 23.6531 29.6708 23.7822C29.6172 23.9112 29.5387 24.0285 29.4398 24.1272L23.0648 30.5022C22.8652 30.7017 22.5947 30.8138 22.3125 30.8138C22.0304 30.8138 21.7598 30.7017 21.5603 30.5022C21.3607 30.3027 21.2487 30.0321 21.2487 29.7499C21.2487 29.4678 21.3607 29.1972 21.5603 28.9977L27.1851 23.3749L21.5603 17.7522C21.4613 17.6535 21.3828 17.5362 21.3292 17.4072C21.2757 17.2781 21.2481 17.1397 21.2481 16.9999C21.2481 16.8602 21.2757 16.7218 21.3292 16.5927C21.3828 16.4636 21.4613 16.3464 21.5603 16.2477Z" fill="#4A45D8"/>
<path fill-rule="evenodd" clip-rule="evenodd" d="M4.25001 23.3749C4.25001 23.0932 4.36195 22.8229 4.56121 22.6236C4.76046 22.4244 5.03071 22.3124 5.31251 22.3124H27.625C27.9068 22.3124 28.1771 22.4244 28.3763 22.6236C28.5756 22.8229 28.6875 23.0932 28.6875 23.3749C28.6875 23.6567 28.5756 23.927 28.3763 24.1262C28.1771 24.3255 27.9068 24.4374 27.625 24.4374H5.31251C5.03071 24.4374 4.76046 24.3255 4.56121 24.1262C4.36195 23.927 4.25001 23.6567 4.25001 23.3749ZM12.4398 3.4977C12.5387 3.59639 12.6172 3.71364 12.6708 3.84272C12.7243 3.97181 12.7519 4.11019 12.7519 4.24995C12.7519 4.3897 12.7243 4.52808 12.6708 4.65717C12.6172 4.78625 12.5387 4.9035 12.4398 5.0022L6.81488 10.6249L12.4398 16.2477C12.5385 16.3465 12.6169 16.4638 12.6704 16.5928C12.7238 16.7219 12.7514 16.8602 12.7514 16.9999C12.7514 17.1397 12.7238 17.278 12.6704 17.4071C12.6169 17.5361 12.5385 17.6534 12.4398 17.7522C12.341 17.851 12.2237 17.9293 12.0946 17.9828C11.9656 18.0363 11.8272 18.0638 11.6875 18.0638C11.5478 18.0638 11.4095 18.0363 11.2804 17.9828C11.1513 17.9293 11.034 17.851 10.9353 17.7522L4.56026 11.3772C4.46131 11.2785 4.38281 11.1613 4.32924 11.0322C4.27568 10.9031 4.24811 10.7647 4.24811 10.6249C4.24811 10.4852 4.27568 10.3468 4.32924 10.2177C4.38281 10.0886 4.46131 9.97139 4.56026 9.8727L10.9353 3.4977C11.034 3.39875 11.1512 3.32025 11.2803 3.26668C11.4094 3.21312 11.5478 3.18555 11.6875 3.18555C11.8273 3.18555 11.9656 3.21312 12.0947 3.26668C12.2238 3.32025 12.3411 3.39875 12.4398 3.4977Z" fill="#4A45D8"/>
<path fill-rule="evenodd" clip-rule="evenodd" d="M5.3125 10.625C5.3125 10.3432 5.42444 10.073 5.6237 9.8737C5.82296 9.67444 6.09321 9.5625 6.375 9.5625H28.6875C28.9693 9.5625 29.2395 9.67444 29.4388 9.8737C29.6381 10.073 29.75 10.3432 29.75 10.625C29.75 10.9068 29.6381 11.177 29.4388 11.3763C29.2395 11.5756 28.9693 11.6875 28.6875 11.6875H6.375C6.09321 11.6875 5.82296 11.5756 5.6237 11.3763C5.42444 11.177 5.3125 10.9068 5.3125 10.625Z" fill="#4A45D8"/>
</svg>
