<svg width="30" height="30" viewBox="0 0 30 30" fill="none" xmlns="http://www.w3.org/2000/svg">
<path fill-rule="evenodd" clip-rule="evenodd" d="M10.25 15H6.65896C6.31041 15.6037 5.7724 16.0755 5.12838 16.3423C4.48435 16.6091 3.77029 16.6559 3.09695 16.4754C2.42361 16.295 1.82862 15.8975 1.40426 15.3444C0.979897 14.7914 0.749878 14.1138 0.749878 13.4167C0.749878 12.7196 0.979897 12.042 1.40426 11.4889C1.82862 10.9359 2.42361 10.5383 3.09695 10.3579C3.77029 10.1775 4.48435 10.2243 5.12838 10.491C5.7724 10.7578 6.31041 11.2296 6.65896 11.8333H10.25V3.91667C10.25 3.07681 10.5836 2.27136 11.1775 1.6775C11.7713 1.08363 12.5768 0.75 13.4166 0.75H26.0833C26.9231 0.75 27.7286 1.08363 28.3225 1.6775C28.9163 2.27136 29.25 3.07681 29.25 3.91667V26.0833C29.25 26.9232 28.9163 27.7286 28.3225 28.3225C27.7286 28.9164 26.9231 29.25 26.0833 29.25H13.4166C12.5768 29.25 11.7713 28.9164 11.1775 28.3225C10.5836 27.7286 10.25 26.9232 10.25 26.0833V15ZM13.4166 15V26.0833H26.0833V3.91667H13.4166V11.8333H17.0076C17.3562 11.2296 17.8942 10.7578 18.5382 10.491C19.1822 10.2243 19.8963 10.1775 20.5696 10.3579C21.243 10.5383 21.838 10.9359 22.2623 11.4889C22.6867 12.042 22.9167 12.7196 22.9167 13.4167C22.9167 14.1138 22.6867 14.7914 22.2623 15.3444C21.838 15.8975 21.243 16.295 20.5696 16.4754C19.8963 16.6559 19.1822 16.6091 18.5382 16.3423C17.8942 16.0755 17.3562 15.6037 17.0076 15H13.4166Z" fill="#4A45D8"/>
</svg>
