<svg width="69" height="69" viewBox="0 0 69 69" fill="none" xmlns="http://www.w3.org/2000/svg">
<rect width="69" height="69" rx="34.5" fill="#4A45D8" fill-opacity="0.1"/>
<path d="M33 26.3672C32.6335 26.3672 32.3359 26.6647 32.3359 27.0312C32.3359 27.3978 32.6335 27.6953 33 27.6953C33.3665 27.6953 33.6641 27.3978 33.6641 27.0312C33.6641 26.6647 33.3665 26.3672 33 26.3672Z" fill="#4A45D8"/>
<path d="M21.9766 38.3203C22.3431 38.3203 22.6406 38.0228 22.6406 37.6562C22.6406 37.2897 22.3431 36.9922 21.9766 36.9922C21.61 36.9922 21.3125 37.2897 21.3125 37.6562C21.3125 38.0228 21.61 38.3203 21.9766 38.3203Z" fill="#4A45D8"/>
<path d="M38.3125 19.7266C32.3341 19.7266 27.4273 23.8484 27.0478 29.0403C21.3543 29.3259 16 33.4314 16 38.9844C16 41.305 16.9183 43.5534 18.5898 45.335C18.9206 46.6984 18.519 48.1435 17.5227 49.1399C17.3328 49.3297 17.276 49.6153 17.3787 49.8636C17.4814 50.1116 17.7234 50.2734 17.9922 50.2734C19.8861 50.2734 21.7112 49.5308 23.0673 48.2221C24.3885 48.6724 26.1122 48.9453 27.6875 48.9453C33.6651 48.9453 38.5714 44.8245 38.9519 39.6337C40.3423 39.5719 41.7885 39.3151 42.9327 38.9252C44.2888 40.2339 46.1139 40.9766 48.0078 40.9766C48.2766 40.9766 48.5186 40.8147 48.6213 40.5667C48.724 40.3185 48.6672 40.0329 48.4773 39.843C47.481 38.8466 47.0794 37.4015 47.4102 36.0381C49.0817 34.2566 50 32.0081 50 29.6875C50 23.9177 44.2333 19.7266 38.3125 19.7266ZM27.6875 47.6172C26.1202 47.6172 24.3342 47.3095 23.1379 46.8335C22.8816 46.7313 22.5887 46.7985 22.4022 47.0022C21.6004 47.8787 20.5579 48.4898 19.422 48.7707C20.0479 47.5715 20.2077 46.1578 19.8269 44.8183C19.7968 44.7127 19.7411 44.6162 19.6645 44.5376C18.1579 42.9859 17.3281 41.0137 17.3281 38.9844C17.3281 34.3048 22.072 30.3516 27.6875 30.3516C32.9901 30.3516 37.6484 34.0389 37.6484 38.9844C37.6484 43.7446 33.18 47.6172 27.6875 47.6172ZM46.3355 35.2407C46.2589 35.3196 46.2032 35.4161 46.1731 35.5214C45.7923 36.8609 45.9521 38.2747 46.578 39.4739C45.4421 39.1932 44.3996 38.5818 43.5978 37.7053C43.4113 37.5019 43.1184 37.4345 42.8621 37.5367C41.8253 37.9491 40.3462 38.2347 38.9498 38.3037C38.7558 35.7925 37.5032 33.4322 35.3616 31.6797H44.0234C44.3902 31.6797 44.6875 31.3824 44.6875 31.0156C44.6875 30.6488 44.3902 30.3516 44.0234 30.3516H33.3214C31.814 29.5843 30.1214 29.1368 28.3793 29.0429C28.7609 24.5828 33.0703 21.0547 38.3125 21.0547C43.928 21.0547 48.6719 25.0079 48.6719 29.6875C48.6719 31.7168 47.8421 33.689 46.3355 35.2407Z" fill="#4A45D8"/>
<path d="M33 36.9922H24.6328C24.266 36.9922 23.9688 37.2895 23.9688 37.6562C23.9688 38.023 24.266 38.3203 24.6328 38.3203H33C33.3668 38.3203 33.6641 38.023 33.6641 37.6562C33.6641 37.2895 33.3668 36.9922 33 36.9922Z" fill="#4A45D8"/>
<path d="M33 40.9766H21.9766C21.6098 40.9766 21.3125 41.2738 21.3125 41.6406C21.3125 42.0074 21.6098 42.3047 21.9766 42.3047H33C33.3668 42.3047 33.6641 42.0074 33.6641 41.6406C33.6641 41.2738 33.3668 40.9766 33 40.9766Z" fill="#4A45D8"/>
<path d="M44.0234 26.3672H35.6562C35.2895 26.3672 34.9922 26.6645 34.9922 27.0312C34.9922 27.398 35.2895 27.6953 35.6562 27.6953H44.0234C44.3902 27.6953 44.6875 27.398 44.6875 27.0312C44.6875 26.6645 44.3902 26.3672 44.0234 26.3672Z" fill="#4A45D8"/>
</svg>
