<svg width="69" height="69" viewBox="0 0 69 69" fill="none" xmlns="http://www.w3.org/2000/svg">
<rect width="69" height="69" rx="34.5" fill="#F41F45" fill-opacity="0.1"/>
<g clip-path="url(#clip0)">
<path d="M46.6699 40.0849C45.1486 40.0849 43.8632 41.1107 43.4668 42.5067H40.252V38.9614H43.5344C47.0996 38.9614 50 36.061 50 32.4958C50 29.6373 48.1042 27.1262 45.4127 26.3083C44.5992 23.0507 41.6585 20.7142 38.2528 20.7142C36.9326 20.7142 35.6679 21.0547 34.5518 21.7051C33.3697 20.6241 31.8198 20.0168 30.1912 20.0168C26.6981 20.0168 23.8431 22.8015 23.7291 26.2673C20.9645 27.04 19 29.5713 19 32.4958C19 36.061 21.9004 38.9614 25.4656 38.9614H28.748V42.5067H25.5332C25.1368 41.1107 23.8514 40.0849 22.3301 40.0849C20.4939 40.0849 19 41.5787 19 43.4149C19 45.2511 20.4939 46.745 22.3301 46.745C23.8514 46.745 25.1368 45.7192 25.5332 44.3231H29.6562C30.1578 44.3231 30.5645 43.9165 30.5645 43.4149V38.9614H33.5918V44.4501C32.1958 44.8465 31.1699 46.1319 31.1699 47.6532C31.1699 49.4894 32.6638 50.9833 34.5 50.9833C36.3362 50.9833 37.8301 49.4894 37.8301 47.6532C37.8301 46.1319 36.8042 44.8465 35.4082 44.4501V38.9614H38.4355V43.4149C38.4355 43.9165 38.8422 44.3231 39.3438 44.3231H43.4668C43.8632 45.7192 45.1486 46.745 46.6699 46.745C48.5061 46.745 50 45.2511 50 43.4149C50 41.5787 48.5061 40.0849 46.6699 40.0849ZM22.3301 44.9286C21.4954 44.9286 20.8164 44.2496 20.8164 43.4149C20.8164 42.5803 21.4954 41.9013 22.3301 41.9013C23.1647 41.9013 23.8438 42.5803 23.8438 43.4149C23.8438 44.2496 23.1647 44.9286 22.3301 44.9286ZM36.0137 47.6532C36.0137 48.4879 35.3346 49.1669 34.5 49.1669C33.6654 49.1669 32.9863 48.4879 32.9863 47.6532C32.9863 46.8186 33.6654 46.1396 34.5 46.1396C35.3346 46.1396 36.0137 46.8186 36.0137 47.6532ZM25.4656 37.145C22.9021 37.145 20.8164 35.0594 20.8164 32.4958C20.8164 30.2045 22.5243 28.2269 24.7889 27.8957C25.2668 27.8258 25.6063 27.3941 25.5618 26.9133C25.5486 26.7714 25.542 26.6264 25.542 26.4824C25.542 23.9189 27.6276 21.8333 30.1912 21.8333C31.5589 21.8333 32.8488 22.4279 33.7298 23.4646C34.0392 23.8285 34.5775 23.8906 34.9617 23.6068C35.9142 22.9028 37.0522 22.5306 38.2528 22.5306C41.0154 22.5306 43.3128 24.5577 43.7423 27.1946C43.803 27.5674 44.0883 27.8637 44.4585 27.9387C46.6169 28.3756 48.1835 30.2921 48.1835 32.4958C48.1835 35.0594 46.0979 37.145 43.5343 37.145H25.4656ZM46.6699 44.9286C45.8353 44.9286 45.1562 44.2496 45.1562 43.4149C45.1562 42.5803 45.8353 41.9013 46.6699 41.9013C47.5046 41.9013 48.1836 42.5803 48.1836 43.4149C48.1836 44.2496 47.5046 44.9286 46.6699 44.9286Z" fill="#F41F45"/>
</g>
<defs>
<clipPath id="clip0">
<rect width="31" height="31" fill="white" transform="translate(19 20)"/>
</clipPath>
</defs>
</svg>
