<svg width="69" height="69" viewBox="0 0 69 69" fill="none" xmlns="http://www.w3.org/2000/svg">
<rect width="69" height="69" rx="34.5" fill="#4A45D8" fill-opacity="0.1"/>
<g clip-path="url(#clip0)">
<path d="M26.7499 48H20.9166C20.5946 48 20.3333 47.7387 20.3333 47.4167V41.5833C20.3333 41.2613 20.5946 41 20.9166 41H26.7499C27.0719 41 27.3333 41.2613 27.3333 41.5833V47.4167C27.3333 47.7387 27.0719 48 26.7499 48ZM21.4999 46.8333H26.1666V42.1667H21.4999V46.8333Z" fill="#4A45D8"/>
<path d="M36.0834 48H30.2501C30.0949 48 29.9456 47.9381 29.8371 47.8285C29.7286 47.7188 29.6656 47.5683 29.6668 47.4131L29.7368 35.7465C29.7391 35.4256 29.9993 35.1666 30.3201 35.1666H36.0834C36.4054 35.1666 36.6668 35.428 36.6668 35.75V47.4166C36.6668 47.7386 36.4054 48 36.0834 48ZM30.8369 46.8333H35.5001V36.3333H30.8999L30.8369 46.8333Z" fill="#4A45D8"/>
<path d="M45.4167 48H39.5833C39.2613 48 39 47.7387 39 47.4167V29.9167C39 29.5947 39.2613 29.3334 39.5833 29.3334H45.4167C45.7387 29.3334 46 29.5947 46 29.9167V47.4167C46 47.7387 45.7387 48 45.4167 48ZM40.1667 46.8334H44.8333V30.5H40.1667V46.8334Z" fill="#4A45D8"/>
<path d="M26.4676 33.8111C26.3183 33.8111 26.169 33.7539 26.0546 33.6407L21.8593 29.4442C21.64 29.2249 21.6306 28.8714 21.8383 28.6416L25.2753 24.8254C27.7171 22.0056 31.5905 20.0619 34.9061 20.0001C35.0496 19.9814 35.2176 20.0596 35.3296 20.1704C35.4416 20.2836 35.5023 20.4364 35.5 20.5939C35.4381 23.9096 33.4945 27.7829 30.6653 30.2317L26.8573 33.6617C26.7476 33.7621 26.6076 33.8111 26.4676 33.8111ZM23.0761 29.0114L26.4898 32.4251L29.8941 29.3579C32.3161 27.2614 34.0265 24.0589 34.2971 21.2029C31.4411 21.4736 28.2398 23.1839 26.1503 25.5977L23.0761 29.0114Z" fill="#4A45D8"/>
<path d="M28.0379 36.5783C27.9854 36.5783 27.9318 36.5713 27.8793 36.5561C27.6763 36.4978 27.5199 36.3368 27.4697 36.1303L26.6449 32.6886C26.5702 32.376 26.7639 32.061 27.0766 31.9851C27.3939 31.9116 27.7054 32.1041 27.7801 32.4168L28.3273 34.7023C29.3411 33.1168 29.5429 31.088 29.5639 29.9015C29.5697 29.5795 29.8322 29.3275 30.1577 29.3286C30.4797 29.3333 30.7364 29.6005 30.7306 29.9213C30.6816 32.6816 29.8719 34.9846 28.4497 36.4068C28.3389 36.5176 28.1896 36.5783 28.0379 36.5783Z" fill="#4A45D8"/>
<path d="M22.9479 28.8701C22.9024 28.8701 22.8569 28.8655 22.8114 28.8538L19.3698 28.029C19.1644 27.98 19.0011 27.8248 18.9439 27.6206C18.8868 27.4176 18.9439 27.1995 19.0921 27.0501C20.5143 25.628 22.8173 24.8183 25.5788 24.7693C25.8879 24.7401 26.1668 25.0201 26.1714 25.3421C26.1761 25.6641 25.9218 25.9301 25.5986 25.936C24.4109 25.957 22.3833 26.1588 20.7978 27.1726L23.0833 27.7198C23.3959 27.7945 23.5896 28.1095 23.5149 28.4233C23.4496 28.6905 23.2116 28.8701 22.9479 28.8701Z" fill="#4A45D8"/>
<path d="M18.5833 37.5C18.4305 37.5 18.2823 37.4393 18.1703 37.3297C18.0187 37.178 17.9627 36.9552 18.0245 36.7498C18.217 36.1058 19.218 32.8555 20.002 32.0715C20.9458 31.1265 22.4823 31.1253 23.4297 32.0715C24.3747 33.0165 24.3747 34.5542 23.4297 35.4992C22.6468 36.2832 19.3953 37.283 18.7513 37.4755C18.6953 37.4918 18.6393 37.5 18.5833 37.5ZM21.7158 32.5288C21.3938 32.5288 21.0718 32.6513 20.8268 32.8963C20.4955 33.2277 19.9262 34.6883 19.4805 36.0195C20.8117 35.5738 22.2735 35.0045 22.6037 34.6743C23.0937 34.1843 23.0937 33.3863 22.6037 32.8975C22.3587 32.6513 22.0367 32.5288 21.7158 32.5288Z" fill="#4A45D8"/>
</g>
<defs>
<clipPath id="clip0">
<rect width="28" height="28" fill="white" transform="translate(18 20)"/>
</clipPath>
</defs>
</svg>
