<svg width="29" height="29" viewBox="0 0 29 29" fill="none" xmlns="http://www.w3.org/2000/svg">
<path d="M16.2224 3.85698C16.2992 3.78049 16.3601 3.6896 16.4017 3.58951C16.4433 3.48943 16.4647 3.38212 16.4647 3.27375C16.4647 3.16538 16.4433 3.05807 16.4017 2.95799C16.3601 2.8579 16.2992 2.76701 16.2224 2.69052L13.961 0.438982C13.8067 0.2855 13.5978 0.199341 13.3801 0.199341C13.1624 0.199341 12.9536 0.2855 12.7992 0.438982L10.6792 2.54925L14.1016 5.96872L16.2224 3.85698Z" fill="#F41F45"/>
<path d="M28.5593 15.3151C28.5593 15.2069 28.5379 15.0996 28.4963 14.9996C28.4548 14.8996 28.394 14.8088 28.3173 14.7323L26.056 12.4807C25.9016 12.3272 25.6928 12.2411 25.4751 12.2411C25.2574 12.2411 25.0485 12.3272 24.8942 12.4807L22.7534 14.6124L26.1751 18.0312L28.3173 15.8987C28.3941 15.8222 28.4551 15.7312 28.4966 15.6311C28.5381 15.5309 28.5594 15.4235 28.5593 15.3151Z" fill="#F41F45"/>
<path d="M15.7665 21.5675C15.2032 22.1508 14.5295 22.6164 13.7846 22.937C13.0396 23.2577 12.2383 23.4271 11.4273 23.4353C10.6162 23.4435 9.81166 23.2904 9.06037 22.9849C8.30908 22.6794 7.62608 22.2275 7.05111 21.6557C6.47614 21.0839 6.02069 20.4035 5.71126 19.654C5.40183 18.9046 5.2446 18.1012 5.24873 17.2904C5.25285 16.4797 5.41823 15.6779 5.73527 14.9317C6.0523 14.1854 6.51464 13.5097 7.09539 12.9437L12.9346 7.12992L9.51291 3.71118L3.67151 9.5257C2.14177 11.0565 1.10082 13.0065 0.680436 15.1289C0.260049 17.2514 0.47913 19.4508 1.30994 21.4487C2.14076 23.4466 3.54595 25.1532 5.34761 26.3524C7.14927 27.5516 9.26639 28.1894 11.4309 28.1853C14.3394 28.1887 17.1301 27.0375 19.1896 24.9847L25.0081 19.1917L21.5864 15.7737L15.7665 21.5675Z" fill="#F41F45"/>
</svg>
