<svg width="69" height="69" viewBox="0 0 69 69" fill="none" xmlns="http://www.w3.org/2000/svg">
<rect width="69" height="69" rx="34.5" fill="#F41F45" fill-opacity="0.1"/>
<path d="M34.5 49.3866C34.0871 49.3866 33.6891 49.237 33.3789 48.9653C32.2074 47.9409 31.0779 46.9782 30.0813 46.1291L30.0763 46.1247C27.1546 43.6349 24.6317 41.4848 22.8763 39.3667C20.914 36.9989 20 34.7539 20 32.3013C20 29.9184 20.8171 27.72 22.3006 26.1109C23.8018 24.4827 25.8616 23.5859 28.1014 23.5859C29.7754 23.5859 31.3084 24.1152 32.6578 25.1588C33.3388 25.6856 33.9561 26.3303 34.5 27.0824C35.044 26.3303 35.6611 25.6856 36.3423 25.1588C37.6918 24.1152 39.2248 23.5859 40.8988 23.5859C43.1383 23.5859 45.1984 24.4827 46.6996 26.1109C48.1831 27.72 48.9999 29.9184 48.9999 32.3013C48.9999 34.7539 48.0862 36.9989 46.1239 39.3665C44.3685 41.4848 41.8458 43.6347 38.9246 46.1242C37.9263 46.9747 36.795 47.9389 35.6208 48.9658C35.3109 49.237 34.9126 49.3866 34.5 49.3866ZM28.1014 25.2847C26.3417 25.2847 24.7253 25.987 23.5493 27.2623C22.3559 28.5568 21.6986 30.3463 21.6986 32.3013C21.6986 34.364 22.4652 36.2088 24.1841 38.2828C25.8455 40.2876 28.3166 42.3935 31.1779 44.8319L31.1832 44.8363C32.1835 45.6888 33.3174 46.6552 34.4975 47.6871C35.6848 46.6532 36.8205 45.6853 37.8227 44.8314C40.6837 42.393 43.1547 40.2876 44.8161 38.2828C46.5348 36.2088 47.3014 34.364 47.3014 32.3013C47.3014 30.3463 46.6441 28.5568 45.4506 27.2623C44.2749 25.987 42.6582 25.2847 40.8988 25.2847C39.6098 25.2847 38.4263 25.6945 37.3813 26.5025C36.4501 27.2229 35.8014 28.1336 35.421 28.7708C35.2255 29.0984 34.8812 29.294 34.5 29.294C34.1188 29.294 33.7745 29.0984 33.5789 28.7708C33.1988 28.1336 32.5501 27.2229 31.6186 26.5025C30.5736 25.6945 29.3902 25.2847 28.1014 25.2847Z" fill="#F41F45"/>
</svg>
