<svg width="69" height="69" viewBox="0 0 69 69" fill="none" xmlns="http://www.w3.org/2000/svg">
<rect width="69" height="69" rx="34.5" fill="#4A45D8" fill-opacity="0.1"/>
<path fill-rule="evenodd" clip-rule="evenodd" d="M34.7523 40.5603C34.8513 40.659 34.9298 40.7763 34.9833 40.9053C35.0369 41.0344 35.0645 41.1728 35.0645 41.3126C35.0645 41.4523 35.0369 41.5907 34.9833 41.7198C34.9298 41.8489 34.8513 41.9661 34.7523 42.0648L28.3773 48.4398C28.2786 48.5388 28.1614 48.6173 28.0323 48.6708C27.9032 48.7244 27.7648 48.752 27.6251 48.752C27.4853 48.752 27.3469 48.7244 27.2178 48.6708C27.0887 48.6173 26.9715 48.5388 26.8728 48.4398L20.4978 42.0648C20.2983 41.8653 20.1862 41.5947 20.1862 41.3126C20.1862 41.0304 20.2983 40.7598 20.4978 40.5603C20.6973 40.3608 20.9679 40.2487 21.2501 40.2487C21.5322 40.2487 21.8028 40.3608 22.0023 40.5603L27.6251 46.1852L33.2478 40.5603C33.3465 40.4614 33.4638 40.3829 33.5928 40.3293C33.7219 40.2757 33.8603 40.2482 34.0001 40.2482C34.1398 40.2482 34.2782 40.2757 34.4073 40.3293C34.5364 40.3829 34.6536 40.4614 34.7523 40.5603Z" fill="#4A45D8"/>
<path fill-rule="evenodd" clip-rule="evenodd" d="M27.6251 23.2501C27.9068 23.2501 28.1771 23.362 28.3764 23.5613C28.5756 23.7605 28.6876 24.0308 28.6876 24.3126L28.6876 46.6251C28.6876 46.9069 28.5756 47.1771 28.3764 47.3764C28.1771 47.5756 27.9068 47.6876 27.6251 47.6876C27.3433 47.6876 27.073 47.5756 26.8738 47.3764C26.6745 47.1771 26.5626 46.9069 26.5626 46.6251L26.5626 24.3126C26.5626 24.0308 26.6745 23.7605 26.8738 23.5613C27.073 23.362 27.3433 23.2501 27.6251 23.2501ZM47.5023 31.4398C47.4036 31.5388 47.2864 31.6173 47.1573 31.6708C47.0282 31.7244 46.8898 31.752 46.7501 31.752C46.6103 31.752 46.4719 31.7244 46.3428 31.6708C46.2137 31.6173 46.0965 31.5388 45.9978 31.4398L40.3751 25.8149L34.7523 31.4398C34.6535 31.5386 34.5362 31.617 34.4072 31.6704C34.2781 31.7239 34.1398 31.7514 34.0001 31.7514C33.8603 31.7514 33.722 31.7239 33.5929 31.6704C33.4639 31.617 33.3466 31.5386 33.2478 31.4398C33.149 31.341 33.0707 31.2238 33.0172 31.0947C32.9637 30.9656 32.9362 30.8273 32.9362 30.6876C32.9362 30.5479 32.9637 30.4095 33.0172 30.2805C33.0707 30.1514 33.149 30.0341 33.2478 29.9353L39.6228 23.5603C39.7215 23.4614 39.8387 23.3829 39.9678 23.3293C40.0969 23.2757 40.2353 23.2482 40.3751 23.2482C40.5148 23.2482 40.6532 23.2757 40.7823 23.3293C40.9114 23.3829 41.0286 23.4614 41.1273 23.5603L47.5023 29.9353C47.6013 30.034 47.6798 30.1513 47.7333 30.2803C47.7869 30.4094 47.8145 30.5478 47.8145 30.6876C47.8145 30.8273 47.7869 30.9657 47.7333 31.0948C47.6798 31.2239 47.6013 31.3411 47.5023 31.4398Z" fill="#4A45D8"/>
<path fill-rule="evenodd" clip-rule="evenodd" d="M40.375 24.3125C40.6568 24.3125 40.927 24.4244 41.1263 24.6237C41.3256 24.823 41.4375 25.0932 41.4375 25.375L41.4375 47.6875C41.4375 47.9693 41.3256 48.2395 41.1263 48.4388C40.927 48.6381 40.6568 48.75 40.375 48.75C40.0932 48.75 39.823 48.6381 39.6237 48.4388C39.4244 48.2395 39.3125 47.9693 39.3125 47.6875L39.3125 25.375C39.3125 25.0932 39.4244 24.823 39.6237 24.6237C39.823 24.4244 40.0932 24.3125 40.375 24.3125Z" fill="#4A45D8"/>
</svg>
