<svg width="69" height="69" viewBox="0 0 69 69" fill="none" xmlns="http://www.w3.org/2000/svg">
<rect width="69" height="69" rx="34.5" fill="#F41F45" fill-opacity="0.1"/>
<path d="M36.2188 26.4375H25.3438C24.8435 26.4375 24.4375 26.8435 24.4375 27.3438C24.4375 27.844 24.8435 28.25 25.3438 28.25H36.2188C36.719 28.25 37.125 27.844 37.125 27.3438C37.125 26.8435 36.719 26.4375 36.2188 26.4375Z" fill="#F41F45"/>
<path d="M32.5938 30.0625H25.3438C24.8435 30.0625 24.4375 30.4685 24.4375 30.9688C24.4375 31.469 24.8435 31.875 25.3438 31.875H32.5938C33.094 31.875 33.5 31.469 33.5 30.9688C33.5 30.4685 33.094 30.0625 32.5938 30.0625Z" fill="#F41F45"/>
<path d="M38.9375 21H22.625C20.6258 21 19 22.6258 19 24.625V42.75C19 43.1016 19.203 43.4224 19.522 43.5711C19.6434 43.6273 19.7757 43.6562 19.9062 43.6562C20.1147 43.6562 20.3213 43.5837 20.4863 43.446L25.6718 39.125H38.9375C40.9367 39.125 42.5625 37.4992 42.5625 35.5V24.625C42.5625 22.6258 40.9367 21 38.9375 21ZM40.75 35.5C40.75 36.4987 39.938 37.3125 38.9375 37.3125H25.3438C25.1317 37.3125 24.9269 37.3868 24.7638 37.5228L20.8125 40.8161V24.625C20.8125 23.6263 21.6245 22.8125 22.625 22.8125H38.9375C39.938 22.8125 40.75 23.6263 40.75 24.625V35.5Z" fill="#F41F45"/>
<path d="M44.375 28.25C43.8748 28.25 43.4688 28.656 43.4688 29.1562C43.4688 29.6565 43.8748 30.0625 44.375 30.0625C45.3755 30.0625 46.1875 30.8763 46.1875 31.875V47.2069L43.128 44.7601C42.9685 44.6332 42.7673 44.5625 42.5625 44.5625H29.875C28.8745 44.5625 28.0625 43.7487 28.0625 42.75V41.8438C28.0625 41.3435 27.6565 40.9375 27.1562 40.9375C26.656 40.9375 26.25 41.3435 26.25 41.8438V42.75C26.25 44.7492 27.8758 46.375 29.875 46.375H42.2435L46.5264 49.8024C46.6914 49.9329 46.8926 50 47.0938 50C47.2261 50 47.3602 49.971 47.4871 49.9112C47.8006 49.7589 48 49.4417 48 49.0938V31.875C48 29.8758 46.3742 28.25 44.375 28.25Z" fill="#F41F45"/>
</svg>
