<svg width="33" height="33" viewBox="0 0 33 33" fill="none" xmlns="http://www.w3.org/2000/svg">
<path d="M31.9 16.6847C31.9 20.3301 25.0052 23.2847 16.5 23.2847C7.99478 23.2847 1.09998 20.3301 1.09998 16.6847C1.09998 13.0393 7.99478 10.0847 16.5 10.0847C25.0052 10.0847 31.9 13.0393 31.9 16.6847Z" stroke="#4A45D8" stroke-width="1.5"/>
<path d="M9.16504 30.2258C12.3704 31.9638 18.251 27.3064 22.3034 19.8286C26.3536 12.3486 27.04 4.87959 23.8346 3.14379C20.6292 1.40579 14.7486 6.06319 10.6962 13.541C6.64604 21.021 5.95964 28.49 9.16504 30.2258V30.2258Z" stroke="#4A45D8" stroke-width="1.5"/>
<path d="M23.8346 30.2258C20.6292 31.9638 14.7486 27.3064 10.6962 19.8286C6.64604 12.3486 5.95964 4.87959 9.16504 3.14379C12.3704 1.40579 18.251 6.06319 22.3034 13.541C26.3536 21.021 27.04 28.49 23.8346 30.2258Z" stroke="#4A45D8" stroke-width="1.5"/>
<path d="M14.2999 16.6847C14.2999 17.2682 14.5317 17.8278 14.9443 18.2404C15.3569 18.653 15.9165 18.8847 16.4999 18.8847C17.0834 18.8847 17.643 18.653 18.0556 18.2404C18.4681 17.8278 18.6999 17.2682 18.6999 16.6847C18.6999 16.1013 18.4681 15.5417 18.0556 15.1291C17.643 14.7165 17.0834 14.4847 16.4999 14.4847C15.9165 14.4847 15.3569 14.7165 14.9443 15.1291C14.5317 15.5417 14.2999 16.1013 14.2999 16.6847Z" stroke="#4A45D8" stroke-width="1.5"/>
</svg>
