<svg width="69" height="69" viewBox="0 0 69 69" fill="none" xmlns="http://www.w3.org/2000/svg">
<rect width="69" height="69" rx="34.5" fill="#4A45D8" fill-opacity="0.1"/>
<path d="M48.8112 24.0532L42.9459 18.1888C42.8251 18.0679 42.6612 18 42.4902 18H23.3477C22.2815 18 21.4141 18.8674 21.4141 19.9336V21.1623C18.2478 22.4043 16 25.4904 16 29.0918C16 29.4477 16.2886 29.7363 16.6445 29.7363H24.5137C24.8696 29.7363 25.1582 29.4477 25.1582 29.0918V21.2227C25.1582 20.8667 24.8696 20.5781 24.5137 20.5781C23.8925 20.5781 23.2869 20.6456 22.7031 20.7726V19.9336C22.7031 19.5782 22.9923 19.2891 23.3477 19.2891H41.8457V23.2207C41.8457 24.2869 42.7131 25.1543 43.7793 25.1543H47.7109V49.0664C47.7109 49.4218 47.4218 49.7109 47.0664 49.7109H23.3477C22.9923 49.7109 22.7031 49.4218 22.7031 49.0664V43.5449C22.7031 43.189 22.4145 42.9004 22.0586 42.9004C21.7027 42.9004 21.4141 43.189 21.4141 43.5449V49.0664C21.4141 50.1326 22.2815 51 23.3477 51H47.0664C48.1326 51 49 50.1326 49 49.0664V24.5089C49 24.338 48.9321 24.174 48.8112 24.0532ZM23.8691 21.8957V28.4473H17.3176C17.6257 24.9766 20.3985 22.2039 23.8691 21.8957ZM43.7793 23.8652C43.4239 23.8652 43.1348 23.5761 43.1348 23.2207V20.2004L46.8001 23.8652H43.7793Z" fill="#4A45D8"/>
<path d="M22.5142 40.7474C22.3944 40.6275 22.2281 40.5586 22.0586 40.5586C21.8891 40.5586 21.7228 40.6275 21.6029 40.7474C21.483 40.8673 21.4141 41.0336 21.4141 41.2031C21.4141 41.3726 21.483 41.5389 21.6029 41.6587C21.7228 41.7787 21.8891 41.8477 22.0586 41.8477C22.2281 41.8477 22.3944 41.7787 22.5142 41.6587C22.6342 41.5389 22.7031 41.3726 22.7031 41.2031C22.7031 41.0336 22.6342 40.8673 22.5142 40.7474Z" fill="#4A45D8"/>
<path d="M26.8222 22.8867C26.4663 22.8867 26.1777 23.1753 26.1777 23.5312V30.7558H18.9531C18.5972 30.7558 18.3086 31.0444 18.3086 31.4003C18.3086 36.0948 22.1278 39.914 26.8222 39.914C31.5167 39.914 35.3359 36.0948 35.3359 31.4003C35.3359 26.7059 31.5167 22.8867 26.8222 22.8867ZM27.4667 24.2043C28.9756 24.3383 30.3524 24.9383 31.4523 25.8588L27.4667 29.8443V24.2043ZM26.8222 38.6249C23.0558 38.6249 19.9532 35.7278 19.6262 32.0449H26.8222C27.0001 32.0449 27.1611 31.9728 27.2778 31.8563C27.2778 31.8562 27.2779 31.8562 27.278 31.8561L32.364 26.7702C33.414 28.0249 34.0468 29.6401 34.0468 31.4003C34.0468 35.384 30.8059 38.6249 26.8222 38.6249Z" fill="#4A45D8"/>
<path d="M44.2352 38.3417C43.169 38.3417 42.3016 39.2091 42.3016 40.2753C42.3016 40.5425 42.3561 40.7971 42.4545 41.0289L38.7412 44.7422C38.486 44.6179 38.1996 44.5479 37.8972 44.5479C37.6019 44.5479 37.3221 44.6147 37.0716 44.7335L34.6057 42.2676C34.6912 42.0495 34.7386 41.8124 34.7386 41.5643C34.7386 40.4981 33.8712 39.6307 32.805 39.6307C31.7388 39.6307 30.8714 40.4981 30.8714 41.5643C30.8714 41.8531 30.9355 42.1272 31.0496 42.3736L28.6845 44.7387C28.4326 44.6182 28.1507 44.5506 27.8533 44.5506C26.7871 44.5506 25.9197 45.418 25.9197 46.4842C25.9197 47.5504 26.7871 48.4178 27.8533 48.4178C28.9195 48.4178 29.7869 47.5504 29.7869 46.4842C29.7869 46.1853 29.7187 45.9021 29.5971 45.6492L31.949 43.2973C32.2073 43.4255 32.4978 43.4979 32.8051 43.4979C33.1522 43.4979 33.4779 43.4055 33.7598 43.2448L36.1561 45.6411C36.0328 45.8953 35.9636 46.1805 35.9636 46.4815C35.9636 47.5477 36.831 48.4151 37.8972 48.4151C38.9634 48.4151 39.8308 47.5477 39.8308 46.4815C39.8308 46.1877 39.7647 45.9092 39.6469 45.6596L43.3256 41.981C43.5968 42.1262 43.9065 42.2089 44.2352 42.2089C45.3014 42.2089 46.1688 41.3415 46.1688 40.2753C46.1688 39.2091 45.3014 38.3417 44.2352 38.3417ZM27.8532 47.1288C27.4978 47.1288 27.2087 46.8396 27.2087 46.4842C27.2087 46.1288 27.4978 45.8397 27.8532 45.8397C28.0263 45.8397 28.1832 45.9086 28.2991 46.02C28.3017 46.0227 28.3039 46.0256 28.3066 46.0282C28.3097 46.0313 28.313 46.0339 28.3162 46.0369C28.4283 46.1529 28.4977 46.3105 28.4977 46.4842C28.4977 46.8396 28.2086 47.1288 27.8532 47.1288ZM32.805 42.2088C32.4496 42.2088 32.1605 41.9197 32.1605 41.5643C32.1605 41.2089 32.4496 40.9197 32.805 40.9197C33.1604 40.9197 33.4495 41.2089 33.4495 41.5643C33.4495 41.9197 33.1604 42.2088 32.805 42.2088ZM37.8971 47.1261C37.5417 47.1261 37.2525 46.8369 37.2525 46.4815C37.2525 46.1261 37.5417 45.837 37.8971 45.837C38.2525 45.837 38.5416 46.1261 38.5416 46.4815C38.5416 46.8369 38.2525 47.1261 37.8971 47.1261ZM44.2351 40.9197C43.8797 40.9197 43.5905 40.6306 43.5905 40.2752C43.5905 39.9198 43.8797 39.6307 44.2351 39.6307C44.5905 39.6307 44.8796 39.9198 44.8796 40.2752C44.8796 40.6306 44.5905 40.9197 44.2351 40.9197Z" fill="#4A45D8"/>
<path d="M41.0136 33.1465H37.6118C37.2559 33.1465 36.9673 33.4351 36.9673 33.791C36.9673 34.1469 37.2558 34.4355 37.6118 34.4355H41.0136C41.3695 34.4355 41.6581 34.1469 41.6581 33.791C41.6581 33.4351 41.3695 33.1465 41.0136 33.1465Z" fill="#4A45D8"/>
<path d="M44.4039 33.3353C44.284 33.2154 44.1178 33.1465 43.9482 33.1465C43.7787 33.1465 43.6124 33.2154 43.4926 33.3353C43.3727 33.4552 43.3037 33.6215 43.3037 33.791C43.3037 33.9605 43.3726 34.1268 43.4926 34.2466C43.6124 34.3665 43.7781 34.4355 43.9482 34.4355C44.1178 34.4355 44.284 34.3666 44.4039 34.2466C44.5237 34.1268 44.5928 33.9605 44.5928 33.791C44.5928 33.6215 44.5238 33.4552 44.4039 33.3353Z" fill="#4A45D8"/>
<path d="M45.485 26.959H37.6118C37.2559 26.959 36.9673 27.2476 36.9673 27.6035C36.9673 27.9594 37.2558 28.248 37.6118 28.248H45.485C45.8409 28.248 46.1296 27.9594 46.1296 27.6035C46.1296 27.2476 45.8409 26.959 45.485 26.959Z" fill="#4A45D8"/>
<path d="M45.485 30.0527H37.6118C37.2559 30.0527 36.9673 30.3414 36.9673 30.6973C36.9673 31.0532 37.2558 31.3418 37.6118 31.3418H45.485C45.8409 31.3418 46.1296 31.0532 46.1296 30.6973C46.1296 30.3414 45.8409 30.0527 45.485 30.0527Z" fill="#4A45D8"/>
</svg>
