<svg width="69" height="69" viewBox="0 0 69 69" fill="none" xmlns="http://www.w3.org/2000/svg">
<rect width="69" height="69" rx="34.5" fill="#F41F45" fill-opacity="0.1"/>
<path d="M49 43.7891V20.9375H19V43.7891H30.4258V47.3047H28.668V49.0625H39.332V47.3047H37.5742V43.7891H49ZM20.7578 42.0312V39.6875H38.4531V37.9297H27.3328L32.0371 33.2254L34.6738 35.8621L41.9688 28.5672V30.7227H43.7266V25.4492H38.4531V27.207H40.843L34.6738 33.3762L32.0371 30.7395L24.8469 37.9297H20.7578V22.6953H47.2422V42.0312C46.5401 42.0312 21.4646 42.0312 20.7578 42.0312ZM35.8164 47.3047H32.1836V43.7891H35.8164V47.3047Z" fill="#F41F45"/>
<path d="M40.2109 37.9297H41.9688V39.6875H40.2109V37.9297Z" fill="#F41F45"/>
<path d="M43.7266 37.9297H45.4844V39.6875H43.7266V37.9297Z" fill="#F41F45"/>
</svg>
