<svg width="69" height="69" viewBox="0 0 69 69" fill="none" xmlns="http://www.w3.org/2000/svg">
<rect width="69" height="69" rx="34.5" fill="#4A45D8" fill-opacity="0.1"/>
<path d="M46.9541 46.8107C48.0822 46.8107 49 45.8929 49 44.7647V23.9297C49 22.3143 47.6857 21 46.0703 21H21.9297C20.3143 21 19 22.3143 19 23.9297V44.7647C19 45.8929 19.9178 46.8107 21.0459 46.8107H21.6953V49.8281H19.5859C19.2623 49.8281 19 50.0905 19 50.4141C19 50.7376 19.2623 51 19.5859 51H48.4141C48.7377 51 49 50.7376 49 50.4141C49 50.0905 48.7377 49.8281 48.4141 49.8281H46.3047V46.8107H46.9541ZM20.1719 23.9297C20.1719 22.9604 20.9604 22.1719 21.9297 22.1719H46.0703C47.0396 22.1719 47.8281 22.9604 47.8281 23.9297V25.2188H20.2307C20.2108 25.2188 20.1912 25.2198 20.1719 25.2217V23.9297ZM25.4453 49.8281H22.8672V44.5547H25.4453V49.8281ZM32.0078 49.8281H29.4297V38.0761H32.0078V49.8281ZM38.5703 49.8281H35.9922V43.0312H38.5703V49.8281ZM45.7188 36.0293H41.9688C41.6451 36.0293 41.3828 36.2917 41.3828 36.6152V39.5742C41.3828 39.8977 41.6451 40.1601 41.9688 40.1601C42.2924 40.1601 42.5547 39.8977 42.5547 39.5742V37.2012H45.1328V49.8281H42.5547V43.5146C42.5547 43.1911 42.2924 42.9287 41.9688 42.9287C41.6451 42.9287 41.3828 43.1911 41.3828 43.5146V49.8281H39.7422V42.4453C39.7422 42.1218 39.4799 41.8594 39.1562 41.8594H35.4062C35.0826 41.8594 34.8203 42.1218 34.8203 42.4453V49.8281H33.1797V37.4902C33.1797 37.1666 32.9174 36.9042 32.5938 36.9042H28.8438C28.5201 36.9042 28.2578 37.1666 28.2578 37.4902V49.8281H26.6172V43.9688C26.6172 43.6452 26.3549 43.3828 26.0312 43.3828H22.2812C21.9576 43.3828 21.6953 43.6452 21.6953 43.9688V45.6388H21.0459C20.5639 45.6388 20.1719 45.2467 20.1719 44.7647V26.3876C20.1912 26.3896 20.2108 26.3906 20.2307 26.3906H47.8281V44.7647C47.8281 45.2467 47.436 45.6388 46.9541 45.6388H46.3047V36.6152C46.3047 36.2917 46.0424 36.0293 45.7188 36.0293Z" fill="#4A45D8"/>
<path d="M45.25 23.1094H32.0116C31.688 23.1094 31.4257 23.3718 31.4257 23.6953C31.4257 24.0189 31.688 24.2812 32.0116 24.2812H45.25C45.5736 24.2812 45.8359 24.0189 45.8359 23.6953C45.8359 23.3718 45.5736 23.1094 45.25 23.1094Z" fill="#4A45D8"/>
<path d="M25.508 23.2811C25.399 23.1721 25.2479 23.1094 25.0938 23.1094C24.9396 23.1094 24.7885 23.172 24.6795 23.2811C24.5705 23.39 24.5078 23.5412 24.5078 23.6953C24.5078 23.8494 24.5705 24.0006 24.6795 24.1095C24.7885 24.2186 24.9396 24.2812 25.0938 24.2812C25.2479 24.2812 25.399 24.2186 25.508 24.1095C25.617 24.0006 25.6797 23.8494 25.6797 23.6953C25.6797 23.5412 25.617 23.39 25.508 23.2811Z" fill="#4A45D8"/>
<path d="M23.1643 23.2811C23.0553 23.1721 22.9041 23.1094 22.75 23.1094C22.5959 23.1094 22.4447 23.172 22.3357 23.2811C22.2268 23.39 22.1641 23.5412 22.1641 23.6953C22.1641 23.8494 22.2268 24.0006 22.3357 24.1095C22.4447 24.2186 22.5959 24.2812 22.75 24.2812C22.9041 24.2812 23.0553 24.2186 23.1643 24.1095C23.2732 24.0006 23.3359 23.8494 23.3359 23.6953C23.3359 23.5412 23.2732 23.39 23.1643 23.2811Z" fill="#4A45D8"/>
<path d="M27.8518 23.2811C27.7428 23.1721 27.5922 23.1094 27.4375 23.1094C27.2834 23.1094 27.1322 23.172 27.0232 23.2811C26.9143 23.39 26.8516 23.5412 26.8516 23.6953C26.8516 23.8494 26.9143 24.0006 27.0232 24.1095C27.1322 24.2186 27.2834 24.2812 27.4375 24.2812C27.5916 24.2812 27.7428 24.2186 27.8518 24.1095C27.9607 24.0006 28.0234 23.8494 28.0234 23.6953C28.0234 23.5412 27.9607 23.39 27.8518 23.2811Z" fill="#4A45D8"/>
<path d="M42.383 41.2482C42.274 41.1386 42.1229 41.0765 41.9688 41.0765C41.8146 41.0765 41.6635 41.1387 41.5545 41.2482C41.4455 41.3572 41.3828 41.5084 41.3828 41.6625C41.3828 41.8166 41.4455 41.9677 41.5545 42.0767C41.6635 42.1857 41.8146 42.2484 41.9688 42.2484C42.1229 42.2484 42.274 42.1857 42.383 42.0767C42.492 41.9677 42.5547 41.8166 42.5547 41.6625C42.5547 41.5078 42.492 41.3572 42.383 41.2482Z" fill="#4A45D8"/>
<path d="M43.8437 28.9652C42.6806 28.9652 41.7343 29.9114 41.7343 31.0746C41.7343 31.5366 41.884 31.9641 42.1369 32.312L38.2449 36.2041C37.9428 36.0369 37.5958 35.9414 37.2268 35.9414C36.8943 35.9414 36.5796 36.019 36.2996 36.1567L32.2356 32.0927C32.4028 31.7906 32.4983 31.4436 32.4983 31.0746C32.4983 29.9114 31.552 28.9652 30.3889 28.9652C29.2257 28.9652 28.2795 29.9114 28.2795 31.0746C28.2795 31.4811 28.3954 31.8609 28.5955 32.1833L25.1353 35.6434C24.8333 35.4762 24.4863 35.3807 24.1173 35.3807C22.9542 35.3807 22.0079 36.3269 22.0079 37.4901C22.0079 38.6532 22.9542 39.5994 24.1173 39.5994C25.2805 39.5994 26.2267 38.6532 26.2267 37.4901C26.2267 37.1211 26.1312 36.7741 25.964 36.472L29.4655 32.9706C29.7445 33.107 30.0579 33.1839 30.3889 33.1839C30.7579 33.1839 31.1048 33.0884 31.4069 32.9212L35.4311 36.9454C35.2324 37.2671 35.1174 37.6456 35.1174 38.0506C35.1174 39.2138 36.0636 40.16 37.2268 40.16C38.3899 40.16 39.3362 39.2138 39.3362 38.0506C39.3362 37.6816 39.2407 37.3346 39.0735 37.0326L43.0699 33.0362C43.3097 33.1312 43.5706 33.184 43.8437 33.184C45.0069 33.184 45.9531 32.2377 45.9531 31.0746C45.9531 29.9114 45.0069 28.9652 43.8437 28.9652ZM24.1174 38.4277C23.6005 38.4277 23.1799 38.0071 23.1799 37.4902C23.1799 36.9733 23.6005 36.5527 24.1174 36.5527C24.6343 36.5527 25.0549 36.9733 25.0549 37.4902C25.0549 38.0071 24.6343 38.4277 24.1174 38.4277ZM30.389 32.0121C29.872 32.0121 29.4514 31.5915 29.4514 31.0746C29.4514 30.5577 29.872 30.1371 30.389 30.1371C30.9059 30.1371 31.3265 30.5577 31.3265 31.0746C31.3265 31.5915 30.9059 32.0121 30.389 32.0121ZM37.2268 38.9883C36.7099 38.9883 36.2893 38.5677 36.2893 38.0508C36.2893 37.5338 36.7099 37.1133 37.2268 37.1133C37.7438 37.1133 38.1643 37.5338 38.1643 38.0508C38.1643 38.5677 37.7438 38.9883 37.2268 38.9883ZM43.8437 32.0121C43.3268 32.0121 42.9062 31.5915 42.9062 31.0746C42.9062 30.5577 43.3268 30.1371 43.8437 30.1371C44.3606 30.1371 44.7812 30.5577 44.7812 31.0746C44.7812 31.5915 44.3606 32.0121 43.8437 32.0121Z" fill="#4A45D8"/>
<path d="M27.6912 28.5558C27.5817 28.4468 27.4311 28.384 27.277 28.384C27.1223 28.384 26.9711 28.4467 26.8621 28.5558C26.7531 28.6647 26.691 28.8159 26.691 28.97C26.691 29.1241 26.7531 29.2752 26.8621 29.3842C26.9717 29.4932 27.1223 29.5559 27.277 29.5559C27.4311 29.5559 27.5817 29.4933 27.6912 29.3842C27.8002 29.2752 27.8629 29.1241 27.8629 28.97C27.8629 28.8159 27.8002 28.6647 27.6912 28.5558Z" fill="#4A45D8"/>
<path d="M25.0938 28.384H22.2812C21.9576 28.384 21.6953 28.6464 21.6953 28.97C21.6953 29.2935 21.9576 29.5559 22.2812 29.5559H25.0938C25.4174 29.5559 25.6797 29.2935 25.6797 28.97C25.6797 28.6464 25.4174 28.384 25.0938 28.384Z" fill="#4A45D8"/>
<path d="M25.0938 31.1965H22.2812C21.9576 31.1965 21.6953 31.4589 21.6953 31.7825C21.6953 32.106 21.9576 32.3684 22.2812 32.3684H25.0938C25.4174 32.3684 25.6797 32.106 25.6797 31.7825C25.6797 31.4589 25.4174 31.1965 25.0938 31.1965Z" fill="#4A45D8"/>
</svg>

