<svg width="29" height="30" viewBox="0 0 29 30" fill="none" xmlns="http://www.w3.org/2000/svg">
<path d="M26.3903 7.52823C25.1679 5.29316 23.4109 3.4368 21.2956 2.14516C19.1653 0.826778 16.7374 0.141411 14.2687 0.16159C11.799 0.140846 9.36996 0.826233 7.23887 2.14516C5.12448 3.43709 3.36856 5.29345 2.14705 7.52823C0.898854 9.77886 0.249923 12.3442 0.268981 14.9527C0.249495 17.5622 0.898164 20.1286 2.14631 22.3804C3.36909 24.6146 5.126 26.4701 7.24109 27.7611C9.37221 29.0799 11.8012 29.7653 14.2709 29.7447C16.7406 29.7653 19.1696 29.0799 21.3007 27.7611C23.4143 26.4688 25.1694 24.6125 26.3903 22.378C27.6385 20.1263 28.2872 17.5598 28.2677 14.9504C28.2862 12.3428 27.6375 9.7784 26.3903 7.52823ZM22.854 20.2107C21.9876 21.7938 20.7432 23.1089 19.2451 24.0246C17.7368 24.9594 16.0173 25.4456 14.2687 25.4319C12.5201 25.4456 10.8006 24.9594 9.29232 24.0246C7.79421 23.1089 6.5498 21.7938 5.68343 20.2107C4.79873 18.6171 4.33849 16.8002 4.35146 14.9527C4.33849 13.1052 4.79873 11.2884 5.68343 9.69475C6.54971 8.11182 7.79416 6.79694 9.29232 5.88165C10.8006 4.94689 12.5201 4.4606 14.2687 4.47431C16.0173 4.4606 17.7368 4.94689 19.2451 5.88165C20.7432 6.79697 21.9877 8.11184 22.854 9.69475C23.7387 11.2884 24.1989 13.1052 24.1859 14.9527C24.1989 16.8002 23.7387 18.6171 22.854 20.2107Z" fill="#F41F45"/>
<path d="M14.269 10.0226C13.189 10.0224 12.1424 10.4179 11.3075 11.1417C10.4726 11.8655 9.90111 12.8728 9.69035 13.992C9.47958 15.1111 9.64261 16.2729 10.1517 17.2793C10.6607 18.2856 11.4843 19.0744 12.4821 19.511C13.4798 19.9477 14.59 20.0053 15.6235 19.6741C16.6569 19.3428 17.5497 18.6431 18.1496 17.6943C18.7496 16.7455 19.0196 15.6062 18.9136 14.4706C18.8077 13.335 18.3323 12.2734 17.5686 11.4666C17.1411 11.0006 16.6278 10.632 16.0603 10.3837C15.4928 10.1353 14.8832 10.0124 14.269 10.0226Z" fill="#F41F45"/>
</svg>
