<svg width="24" height="24" viewBox="0 0 24 24" fill="none" xmlns="http://www.w3.org/2000/svg">
<path d="M12 0C8.74 0 8.333 0.015 7.053 0.072C6.05752 0.092789 5.07269 0.281438 4.14 0.63C3.33902 0.931032 2.61344 1.40337 2.014 2.014C1.40284 2.61301 0.930423 3.33871 0.63 4.14C0.280956 5.07256 0.0922912 6.05747 0.072 7.053C0.012 8.333 0 8.74 0 12C0 15.26 0.015 15.667 0.072 16.947C0.0928844 17.9425 0.281531 18.9273 0.63 19.86C0.931292 20.6609 1.4036 21.3864 2.014 21.986C2.61328 22.5968 3.3389 23.0692 4.14 23.37C5.07275 23.7184 6.05754 23.907 7.053 23.928C8.333 23.988 8.74 24 12 24C15.26 24 15.667 23.985 16.947 23.928C17.9424 23.9066 18.9271 23.718 19.86 23.37C20.6574 23.0619 21.3815 22.5904 21.986 21.986C22.5904 21.3815 23.0619 20.6574 23.37 19.86C23.7185 18.9273 23.9071 17.9425 23.928 16.947C23.988 15.667 24 15.26 24 12C24 8.74 23.985 8.333 23.928 7.053C23.9067 6.05757 23.7181 5.07282 23.37 4.14C23.0686 3.33922 22.5963 2.61373 21.986 2.014C21.3872 1.40264 20.6614 0.93019 19.86 0.63C18.9274 0.281049 17.9425 0.0923872 16.947 0.072C15.667 0.012 15.26 0 12 0ZM12 2.16C15.2 2.16 15.585 2.176 16.85 2.231C17.6107 2.24017 18.3641 2.38056 19.077 2.646C19.5954 2.84416 20.0662 3.14936 20.4587 3.5417C20.8512 3.93404 21.1566 4.4047 21.355 4.923C21.6195 5.63612 21.7592 6.38946 21.768 7.15C21.825 8.416 21.838 8.796 21.838 12C21.838 15.204 21.823 15.585 21.764 16.85C21.7501 17.6108 21.6078 18.3637 21.343 19.077C21.1475 19.5979 20.8403 20.0696 20.443 20.459C20.0555 20.8577 19.5841 21.1652 19.063 21.359C18.3471 21.6234 17.5911 21.7631 16.828 21.772C15.554 21.829 15.179 21.842 11.969 21.842C8.759 21.842 8.383 21.827 7.11 21.768C6.34631 21.7542 5.5904 21.6119 4.874 21.347C4.35281 21.1539 3.88157 20.8464 3.495 20.447C3.09358 20.0617 2.78571 19.5897 2.595 19.067C2.33072 18.3508 2.18874 17.5953 2.175 16.832C2.13 15.572 2.114 15.183 2.114 11.988C2.114 8.793 2.13 8.402 2.175 7.127C2.18993 6.36275 2.33361 5.60648 2.6 4.89C2.78773 4.36555 3.096 3.89251 3.5 3.509C3.88275 3.10503 4.35513 2.79674 4.879 2.609C5.58996 2.34347 6.34117 2.20175 7.1 2.19C8.375 2.145 8.75 2.13 11.959 2.13L12 2.16ZM12 5.838C10.7813 5.838 9.58991 6.1994 8.57658 6.87648C7.56324 7.55357 6.77344 8.51595 6.30705 9.6419C5.84067 10.7679 5.71864 12.0068 5.9564 13.2021C6.19416 14.3975 6.78104 15.4954 7.64281 16.3572C8.50458 17.219 9.60254 17.8058 10.7979 18.0436C11.9932 18.2814 13.2321 18.1593 14.3581 17.6929C15.4841 17.2266 16.4464 16.4368 17.1235 15.4234C17.8006 14.4101 18.162 13.2187 18.162 12C18.162 10.3657 17.5128 8.79841 16.3572 7.64281C15.2016 6.48721 13.6343 5.838 12 5.838ZM12 16C11.2089 16 10.4355 15.7654 9.77772 15.3259C9.11992 14.8864 8.60723 14.2616 8.30448 13.5307C8.00173 12.7998 7.92252 11.9956 8.07686 11.2196C8.2312 10.4437 8.61216 9.73098 9.17157 9.17157C9.73098 8.61216 10.4437 8.2312 11.2196 8.07686C11.9956 7.92252 12.7998 8.00173 13.5307 8.30448C14.2616 8.60723 14.8864 9.11992 15.3259 9.77772C15.7654 10.4355 16 11.2089 16 12C16 13.0609 15.5786 14.0783 14.8284 14.8284C14.0783 15.5786 13.0609 16 12 16ZM19.846 5.6C19.8462 5.88485 19.7619 6.16335 19.6038 6.40029C19.4457 6.63723 19.2209 6.82196 18.9578 6.9311C18.6947 7.04024 18.4051 7.0689 18.1257 7.01345C17.8463 6.958 17.5896 6.82094 17.3881 6.61959C17.1866 6.41824 17.0494 6.16166 16.9937 5.8823C16.9381 5.60294 16.9666 5.31335 17.0755 5.05017C17.1845 4.78698 17.369 4.56203 17.6059 4.40375C17.8427 4.24548 18.1212 4.161 18.406 4.161C18.7877 4.16126 19.1536 4.31293 19.4236 4.58271C19.6936 4.85248 19.8455 5.21834 19.846 5.6Z" fill="white"/>
</svg>
