<svg width="24" height="24" viewBox="0 0 24 24" fill="none" xmlns="http://www.w3.org/2000/svg">
<path d="M20.447 20.4521H16.893V14.8831C16.893 13.5551 16.866 11.8461 15.041 11.8461C13.188 11.8461 12.905 13.2911 12.905 14.7851V20.4521H9.351V9.00014H12.765V10.5611H12.811C13.1531 9.97699 13.6471 9.49648 14.2405 9.17072C14.8339 8.84496 15.5045 8.68614 16.181 8.71114C19.781 8.71114 20.448 11.0811 20.448 14.1661V20.4521H20.447ZM5.337 7.43314C4.92878 7.43334 4.52967 7.31248 4.19013 7.08585C3.8506 6.85922 3.5859 6.53699 3.4295 6.15992C3.27309 5.78285 3.23202 5.36787 3.31146 4.96746C3.39091 4.56704 3.58731 4.19918 3.87582 3.91038C4.16434 3.62158 4.53201 3.42483 4.93235 3.345C5.33269 3.26516 5.74771 3.30583 6.12493 3.46187C6.50216 3.61791 6.82464 3.8823 7.0516 4.22161C7.27856 4.56093 7.3998 4.95992 7.4 5.36814C7.40039 5.63926 7.34732 5.9078 7.24381 6.15839C7.14029 6.40897 6.98838 6.63668 6.79676 6.82849C6.60514 7.02029 6.37758 7.17243 6.12709 7.27618C5.87661 7.37994 5.60812 7.43327 5.337 7.43314ZM7.119 20.4521H3.555V9.00014H7.119V20.4521ZM22.225 0.000140588H1.771C1.54118 -0.00263377 1.31307 0.0398892 1.09969 0.125281C0.886304 0.210673 0.691832 0.337261 0.527376 0.497817C0.36292 0.658373 0.231701 0.849751 0.141214 1.06102C0.0507259 1.2723 0.00274127 1.49932 0 1.72914L0 22.2711C0.00261023 22.501 0.0505059 22.7281 0.140948 22.9394C0.23139 23.1507 0.362604 23.3422 0.527086 23.5028C0.691569 23.6633 0.886093 23.7899 1.09953 23.8753C1.31298 23.9606 1.54115 24.003 1.771 24.0001H22.222C22.6869 24.006 23.1351 23.8273 23.4684 23.5032C23.8017 23.1791 23.9929 22.736 24 22.2711V1.72914C23.9929 1.26428 23.8017 0.821213 23.4684 0.497095C23.1351 0.172976 22.6869 -0.00573846 22.222 0.000140588H22.225Z" fill="white"/>
</svg>
