<svg width="681" height="232" viewBox="0 0 681 232" fill="none" xmlns="http://www.w3.org/2000/svg">
<path d="M35.5 114.5C55.6588 126.358 101.698 139.956 133.236 131.433C177.111 119.576 346.682 41.3145 387 49.615" stroke="#222137" stroke-width="2" stroke-linecap="round"/>
<path d="M35.5 114.5C73.3576 133.349 170 173.499 288.173 139.442C297.637 135.908 326 134 340.227 78.1833C354.976 20.3199 378.479 10.2486 384 11.0339" stroke="#F41F45" stroke-width="2" stroke-linecap="round"/>
<path d="M406.752 7.2C408.176 6.96 409.184 6.16 409.184 4.56C409.184 2.592 407.92 1.6 405.776 1.6H401.28V12H402.528V7.744H405.472C406.736 7.744 407.776 8.128 407.792 9.408V12H409.024V9.408C409.024 7.744 408.144 7.312 406.752 7.2ZM402.528 2.816H405.776C407.072 2.816 407.952 3.424 407.936 4.56C407.936 5.728 407.056 6.544 405.776 6.544V7.168V6.544H402.528V2.816ZM415.532 12.16C418.332 12.16 420.588 10.064 420.588 6.8C420.588 3.552 418.332 1.44 415.532 1.44C412.732 1.44 410.46 3.552 410.46 6.8C410.46 10.064 412.732 12.16 415.532 12.16ZM415.532 10.96C413.58 10.96 411.708 9.504 411.708 6.8C411.708 4.128 413.58 2.656 415.532 2.656C417.484 2.656 419.356 4.128 419.356 6.8C419.356 9.504 417.484 10.96 415.532 10.96ZM422.531 1.6V12H423.779V1.6H422.531ZM434.472 0.799999V6.144C434.184 4.784 433.464 3.84 431.799 3.84C429.799 3.84 428.359 5.632 428.359 8.016C428.359 10.432 429.879 12.16 431.799 12.16C433.448 12.16 434.184 10.88 434.472 9.552V10.432C434.472 10.944 434.584 12 434.584 12H435.72V0.799999H434.472ZM432.104 10.944C430.648 10.944 429.592 9.744 429.592 8.016C429.592 6.304 430.503 5.056 432.104 5.056C433.688 5.056 434.472 6.256 434.472 8.016C434.472 9.632 433.72 10.944 432.104 10.944ZM443.161 9.44C442.905 10.32 442.105 10.944 441.033 10.944C439.641 10.944 438.521 9.888 438.361 8.336H444.393C444.553 5.44 443.225 3.84 440.937 3.84C438.761 3.84 437.129 5.632 437.129 8.016C437.129 10.432 438.825 12.16 441.033 12.16C442.841 12.16 444.089 10.976 444.345 9.44H443.161ZM440.873 5.072C442.073 5.072 443.001 5.792 443.113 7.136H438.457C438.761 5.888 439.673 5.072 440.873 5.072ZM453.838 4V8.688C453.646 9.424 453.07 10.896 451.39 10.896C450.398 10.896 449.646 10.448 449.646 9.024V4H448.398V9.344C448.398 11.568 449.918 12.16 451.15 12.16C453.038 12.16 453.63 10.384 453.838 9.344V12H455.086V4H453.838ZM465.885 3.84C464.685 3.84 463.677 4.672 463.261 6.016C463.037 4.656 462.061 3.84 460.573 3.84C459.293 3.84 458.237 4.8 457.869 6.288V4H456.621V12H457.869V7.264C458.173 5.984 459.165 5.104 460.349 5.104C461.469 5.104 462.061 5.744 462.061 6.96V12H463.309V6.848C463.709 5.792 464.605 5.104 465.661 5.104C466.781 5.104 467.373 5.744 467.373 6.96V12H468.621V6.64C468.621 4.912 467.597 3.84 465.885 3.84ZM476.94 3.84C475.276 3.84 474.556 4.768 474.268 6.112V5.664L474.22 4H473.02V15.2H474.268V9.584C474.556 10.896 475.292 12.16 476.94 12.16C478.764 12.16 480.38 10.432 480.38 8.016C480.38 5.632 478.828 3.84 476.94 3.84ZM476.636 10.944C475.1 10.944 474.348 9.776 474.268 8.304V7.744C474.364 6.128 475.324 5.056 476.636 5.056C478.22 5.056 479.132 6.304 479.132 8.016C479.132 9.744 478.092 10.944 476.636 10.944ZM482.742 6.176V4H481.494V12H482.742V7.376C482.934 6.672 483.558 5.136 485.286 5.136V3.84C483.622 3.84 482.95 5.28 482.742 6.176ZM489.516 12.16C491.516 12.16 493.356 10.592 493.356 8.016C493.356 5.472 491.516 3.84 489.516 3.84C487.484 3.84 485.644 5.472 485.644 8.016C485.644 10.592 487.484 12.16 489.516 12.16ZM489.516 10.944C488.204 10.944 486.876 9.904 486.876 8.016C486.876 6.144 488.204 5.072 489.516 5.072C490.812 5.072 492.108 6.16 492.108 8.016C492.108 9.904 490.796 10.944 489.516 10.944ZM501.511 4L498.311 4.016C497.991 3.904 497.655 3.84 497.319 3.84C495.591 3.84 494.055 5.2 494.055 7.328C494.055 8.96 494.967 10.08 496.135 10.528C495.239 10.496 494.279 10.816 494.279 11.872C494.279 12.736 494.935 13.232 496.327 13.232H497.895C499.063 13.232 499.655 13.728 499.655 14.848V15.2H500.903V14.544C500.903 12.624 499.511 12.016 497.863 12.016L496.247 12C495.767 12 495.527 11.792 495.527 11.456C495.527 10.928 496.167 10.8 497.319 10.736C499.031 10.736 500.567 9.472 500.567 7.328C500.567 6.256 500.167 5.376 499.319 4.768C499.943 5.072 500.743 5.376 501.511 5.376V4ZM497.319 9.552C496.263 9.552 495.303 8.768 495.303 7.328C495.303 5.888 496.279 5.072 497.319 5.072C498.359 5.072 499.319 5.904 499.319 7.328C499.319 8.768 498.343 9.552 497.319 9.552ZM503.739 6.176V4H502.491V12H503.739V7.376C503.931 6.672 504.555 5.136 506.283 5.136V3.84C504.619 3.84 503.947 5.28 503.739 6.176ZM512.754 4V6.128C512.482 4.784 511.794 3.84 510.242 3.84C508.21 3.84 506.642 5.632 506.642 8.016C506.642 10.432 508.21 12.16 510.082 12.16C511.73 12.16 512.466 10.88 512.754 9.552V10.432C512.754 10.944 512.866 12 512.866 12H514.002V4H512.754ZM510.386 10.944C508.93 10.944 507.874 9.744 507.874 8.016C507.874 6.304 508.786 5.072 510.386 5.072C511.97 5.072 512.754 6.256 512.754 8.016C512.754 9.632 512.002 10.944 510.386 10.944ZM524.811 3.84C523.611 3.84 522.603 4.672 522.187 6.016C521.963 4.656 520.987 3.84 519.499 3.84C518.219 3.84 517.163 4.8 516.795 6.288V4H515.547V12H516.795V7.264C517.099 5.984 518.091 5.104 519.275 5.104C520.395 5.104 520.987 5.744 520.987 6.96V12H522.235V6.848C522.635 5.792 523.531 5.104 524.587 5.104C525.707 5.104 526.299 5.744 526.299 6.96V12H527.547V6.64C527.547 4.912 526.523 3.84 524.811 3.84ZM534.778 4V6.128C534.506 4.784 533.818 3.84 532.266 3.84C530.234 3.84 528.666 5.632 528.666 8.016C528.666 10.432 530.234 12.16 532.106 12.16C533.754 12.16 534.49 10.88 534.778 9.552V10.432C534.778 10.944 534.89 12 534.89 12H536.026V4H534.778ZM532.41 10.944C530.954 10.944 529.898 9.744 529.898 8.016C529.898 6.304 530.81 5.072 532.41 5.072C533.994 5.072 534.778 6.256 534.778 8.016C534.778 9.632 534.026 10.944 532.41 10.944ZM546.131 0.799999V6.144C545.843 4.784 545.123 3.84 543.459 3.84C541.459 3.84 540.019 5.632 540.019 8.016C540.019 10.432 541.539 12.16 543.459 12.16C545.107 12.16 545.843 10.88 546.131 9.552V10.432C546.131 10.944 546.243 12 546.243 12H547.379V0.799999H546.131ZM543.763 10.944C542.307 10.944 541.251 9.744 541.251 8.016C541.251 6.304 542.163 5.056 543.763 5.056C545.347 5.056 546.131 6.256 546.131 8.016C546.131 9.632 545.379 10.944 543.763 10.944ZM554.821 9.44C554.565 10.32 553.765 10.944 552.693 10.944C551.301 10.944 550.181 9.888 550.021 8.336H556.053C556.213 5.44 554.885 3.84 552.597 3.84C550.421 3.84 548.789 5.632 548.789 8.016C548.789 10.432 550.485 12.16 552.693 12.16C554.501 12.16 555.749 10.976 556.005 9.44H554.821ZM552.533 5.072C553.733 5.072 554.661 5.792 554.773 7.136H550.117C550.421 5.888 551.333 5.072 552.533 5.072ZM567.193 12H568.537L564.585 1.6H563.273L559.369 12H560.665L561.673 9.28H566.185L567.193 12ZM562.105 8.08L563.929 3.104L565.753 8.08H562.105ZM577.406 9.12C577.406 7.424 576.27 6.912 574.894 6.752C576.206 6.528 577.07 5.888 577.07 4.4C577.07 2.64 575.806 1.6 573.678 1.6H569.662V12H574.158C576.046 11.904 577.406 10.992 577.406 9.12ZM573.822 10.784H570.91V7.488H573.502L573.518 6.224H570.91V2.832H573.678C574.91 2.832 575.838 3.264 575.838 4.432C575.838 5.616 574.958 6.224 573.518 6.224L573.534 6.768L573.502 7.488C574.782 7.488 576.158 7.712 576.158 9.12C576.158 10.32 575.278 10.784 573.822 10.784ZM589.06 1.6L584.612 10.752L580.18 1.6H578.932V12H580.18V4.384L584.004 12H585.236L589.06 4.352V12H590.308V1.6H589.06Z" fill="#F41F45"/>
<path d="M35 114H388" stroke="#D5D5D5"/>
<path d="M35 37V208H387" stroke="#D5D5D5"/>
<path d="M406.752 48.2C408.176 47.96 409.184 47.16 409.184 45.56C409.184 43.592 407.92 42.6 405.776 42.6H401.28V53H402.528V48.744H405.472C406.736 48.744 407.776 49.128 407.792 50.408V53H409.024V50.408C409.024 48.744 408.144 48.312 406.752 48.2ZM402.528 43.816H405.776C407.072 43.816 407.952 44.424 407.936 45.56C407.936 46.728 407.056 47.544 405.776 47.544V48.168V47.544H402.528V43.816ZM415.532 53.16C418.332 53.16 420.588 51.064 420.588 47.8C420.588 44.552 418.332 42.44 415.532 42.44C412.732 42.44 410.46 44.552 410.46 47.8C410.46 51.064 412.732 53.16 415.532 53.16ZM415.532 51.96C413.58 51.96 411.708 50.504 411.708 47.8C411.708 45.128 413.58 43.656 415.532 43.656C417.484 43.656 419.356 45.128 419.356 47.8C419.356 50.504 417.484 51.96 415.532 51.96ZM422.531 42.6V53H423.779V42.6H422.531ZM434.472 41.8V47.144C434.184 45.784 433.464 44.84 431.799 44.84C429.799 44.84 428.359 46.632 428.359 49.016C428.359 51.432 429.879 53.16 431.799 53.16C433.448 53.16 434.184 51.88 434.472 50.552V51.432C434.472 51.944 434.584 53 434.584 53H435.72V41.8H434.472ZM432.104 51.944C430.648 51.944 429.592 50.744 429.592 49.016C429.592 47.304 430.503 46.056 432.104 46.056C433.688 46.056 434.472 47.256 434.472 49.016C434.472 50.632 433.72 51.944 432.104 51.944ZM443.161 50.44C442.905 51.32 442.105 51.944 441.033 51.944C439.641 51.944 438.521 50.888 438.361 49.336H444.393C444.553 46.44 443.225 44.84 440.937 44.84C438.761 44.84 437.129 46.632 437.129 49.016C437.129 51.432 438.825 53.16 441.033 53.16C442.841 53.16 444.089 51.976 444.345 50.44H443.161ZM440.873 46.072C442.073 46.072 443.001 46.792 443.113 48.136H438.457C438.761 46.888 439.673 46.072 440.873 46.072ZM453.838 45V49.688C453.646 50.424 453.07 51.896 451.39 51.896C450.398 51.896 449.646 51.448 449.646 50.024V45H448.398V50.344C448.398 52.568 449.918 53.16 451.15 53.16C453.038 53.16 453.63 51.384 453.838 50.344V53H455.086V45H453.838ZM465.885 44.84C464.685 44.84 463.677 45.672 463.261 47.016C463.037 45.656 462.061 44.84 460.573 44.84C459.293 44.84 458.237 45.8 457.869 47.288V45H456.621V53H457.869V48.264C458.173 46.984 459.165 46.104 460.349 46.104C461.469 46.104 462.061 46.744 462.061 47.96V53H463.309V47.848C463.709 46.792 464.605 46.104 465.661 46.104C466.781 46.104 467.373 46.744 467.373 47.96V53H468.621V47.64C468.621 45.912 467.597 44.84 465.885 44.84ZM475.853 45V47.128C475.581 45.784 474.893 44.84 473.341 44.84C471.309 44.84 469.741 46.632 469.741 49.016C469.741 51.432 471.309 53.16 473.181 53.16C474.829 53.16 475.565 51.88 475.853 50.552V51.432C475.853 51.944 475.965 53 475.965 53H477.101V45H475.853ZM473.485 51.944C472.029 51.944 470.973 50.744 470.973 49.016C470.973 47.304 471.885 46.072 473.485 46.072C475.069 46.072 475.853 47.256 475.853 49.016C475.853 50.632 475.101 51.944 473.485 51.944ZM488.549 50.008H487.413C487.061 51.256 486.165 51.944 484.965 51.944C483.637 51.944 482.325 50.904 482.325 49.016C482.325 47.144 483.653 46.056 484.965 46.056C485.989 46.056 487.029 46.76 487.413 47.992H488.533C488.277 46.04 486.725 44.84 484.965 44.84C482.933 44.84 481.093 46.472 481.093 49.016C481.093 51.592 482.933 53.16 484.965 53.16C486.741 53.16 488.309 51.992 488.549 50.008ZM495.381 45V47.128C495.109 45.784 494.421 44.84 492.869 44.84C490.837 44.84 489.269 46.632 489.269 49.016C489.269 51.432 490.837 53.16 492.709 53.16C494.357 53.16 495.093 51.88 495.381 50.552V51.432C495.381 51.944 495.493 53 495.493 53H496.629V45H495.381ZM493.013 51.944C491.557 51.944 490.501 50.744 490.501 49.016C490.501 47.304 491.413 46.072 493.013 46.072C494.597 46.072 495.381 47.256 495.381 49.016C495.381 50.632 494.629 51.944 493.013 51.944ZM507.438 44.84C506.238 44.84 505.23 45.672 504.814 47.016C504.59 45.656 503.614 44.84 502.126 44.84C500.846 44.84 499.79 45.8 499.422 47.288V45H498.174V53H499.422V48.264C499.726 46.984 500.718 46.104 501.902 46.104C503.022 46.104 503.614 46.744 503.614 47.96V53H504.862V47.848C505.262 46.792 506.158 46.104 507.214 46.104C508.334 46.104 508.926 46.744 508.926 47.96V53H510.174V47.64C510.174 45.912 509.15 44.84 507.438 44.84ZM515.63 44.84C513.966 44.84 513.246 45.768 512.958 47.112V46.664L512.91 45H511.71V56.2H512.958V50.584C513.246 51.896 513.982 53.16 515.63 53.16C517.454 53.16 519.07 51.432 519.07 49.016C519.07 46.632 517.518 44.84 515.63 44.84ZM515.326 51.944C513.79 51.944 513.038 50.776 512.958 49.304V48.744C513.054 47.128 514.014 46.056 515.326 46.056C516.91 46.056 517.822 47.304 517.822 49.016C517.822 50.744 516.782 51.944 515.326 51.944ZM525.879 45V47.128C525.607 45.784 524.919 44.84 523.367 44.84C521.335 44.84 519.767 46.632 519.767 49.016C519.767 51.432 521.335 53.16 523.207 53.16C524.855 53.16 525.591 51.88 525.879 50.552V51.432C525.879 51.944 525.991 53 525.991 53H527.127V45H525.879ZM523.511 51.944C522.055 51.944 520.999 50.744 520.999 49.016C520.999 47.304 521.911 46.072 523.511 46.072C525.095 46.072 525.879 47.256 525.879 49.016C525.879 50.632 525.127 51.944 523.511 51.944ZM532.624 44.84C531.344 44.84 530.288 45.8 529.92 47.288V45H528.672V53H529.92V48.264C530.224 46.984 531.216 46.104 532.4 46.104C533.52 46.104 534.112 46.744 534.112 47.96V53H535.36V47.64C535.36 45.912 534.336 44.84 532.624 44.84ZM541.039 44.84C539.759 44.84 538.703 45.8 538.335 47.288V41.816H537.087V53H538.335V48.264C538.639 46.984 539.631 46.104 540.815 46.104C541.935 46.104 542.527 46.728 542.527 47.96V53H543.775V47.656C543.775 45.912 542.751 44.84 541.039 44.84ZM551.002 45V47.128C550.73 45.784 550.042 44.84 548.49 44.84C546.458 44.84 544.89 46.632 544.89 49.016C544.89 51.432 546.458 53.16 548.33 53.16C549.978 53.16 550.714 51.88 551.002 50.552V51.432C551.002 51.944 551.114 53 551.114 53H552.25V45H551.002ZM548.634 51.944C547.178 51.944 546.122 50.744 546.122 49.016C546.122 47.304 547.034 46.072 548.634 46.072C550.218 46.072 551.002 47.256 551.002 49.016C551.002 50.632 550.25 51.944 548.634 51.944ZM560.69 45H558.994V42.936H557.746V45H556.05V46.184H557.746V53H558.994V46.184H560.69V45ZM563.007 41.816H561.375V43.368H563.007V41.816ZM561.567 45V53H562.815V45H561.567ZM568.227 44.84C566.563 44.84 565.843 45.768 565.555 47.112V46.664L565.507 45H564.307V56.2H565.555V50.584C565.843 51.896 566.579 53.16 568.227 53.16C570.051 53.16 571.667 51.432 571.667 49.016C571.667 46.632 570.115 44.84 568.227 44.84ZM567.923 51.944C566.387 51.944 565.635 50.776 565.555 49.304V48.744C565.651 47.128 566.611 46.056 567.923 46.056C569.507 46.056 570.419 47.304 570.419 49.016C570.419 50.744 569.379 51.944 567.923 51.944ZM574.365 41.816H572.733V43.368H574.365V41.816ZM572.925 45V53H574.173V45H572.925ZM582.887 50.008H581.751C581.399 51.256 580.503 51.944 579.303 51.944C577.975 51.944 576.663 50.904 576.663 49.016C576.663 47.144 577.991 46.056 579.303 46.056C580.327 46.056 581.367 46.76 581.751 47.992H582.871C582.615 46.04 581.063 44.84 579.303 44.84C577.271 44.84 575.431 46.472 575.431 49.016C575.431 51.592 577.271 53.16 579.303 53.16C581.079 53.16 582.647 51.992 582.887 50.008ZM589.72 45V47.128C589.448 45.784 588.76 44.84 587.208 44.84C585.176 44.84 583.608 46.632 583.608 49.016C583.608 51.432 585.176 53.16 587.048 53.16C588.696 53.16 589.432 51.88 589.72 50.552V51.432C589.72 51.944 589.832 53 589.832 53H590.968V45H589.72ZM587.352 51.944C585.896 51.944 584.84 50.744 584.84 49.016C584.84 47.304 585.752 46.072 587.352 46.072C588.936 46.072 589.72 47.256 589.72 49.016C589.72 50.632 588.968 51.944 587.352 51.944ZM601.072 41.8V47.144C600.784 45.784 600.064 44.84 598.4 44.84C596.4 44.84 594.96 46.632 594.96 49.016C594.96 51.432 596.48 53.16 598.4 53.16C600.048 53.16 600.784 51.88 601.072 50.552V51.432C601.072 51.944 601.184 53 601.184 53H602.32V41.8H601.072ZM598.704 51.944C597.248 51.944 596.192 50.744 596.192 49.016C596.192 47.304 597.104 46.056 598.704 46.056C600.288 46.056 601.072 47.256 601.072 49.016C601.072 50.632 600.32 51.944 598.704 51.944ZM609.762 50.44C609.506 51.32 608.706 51.944 607.634 51.944C606.242 51.944 605.122 50.888 604.962 49.336H610.994C611.154 46.44 609.826 44.84 607.538 44.84C605.362 44.84 603.73 46.632 603.73 49.016C603.73 51.432 605.426 53.16 607.634 53.16C609.442 53.16 610.69 51.976 610.946 50.44H609.762ZM607.474 46.072C608.674 46.072 609.602 46.792 609.714 48.136H605.058C605.362 46.888 606.274 46.072 607.474 46.072ZM625.399 42.6L620.951 51.752L616.519 42.6H615.271V53H616.519V45.384L620.343 53H621.575L625.399 45.352V53H626.647V42.6H625.399ZM634.152 45V47.128C633.88 45.784 633.192 44.84 631.64 44.84C629.608 44.84 628.04 46.632 628.04 49.016C628.04 51.432 629.608 53.16 631.48 53.16C633.128 53.16 633.864 51.88 634.152 50.552V51.432C634.152 51.944 634.264 53 634.264 53H635.4V45H634.152ZM631.784 51.944C630.328 51.944 629.272 50.744 629.272 49.016C629.272 47.304 630.184 46.072 631.784 46.072C633.368 46.072 634.152 47.256 634.152 49.016C634.152 50.632 633.4 51.944 631.784 51.944ZM638.193 47.176V45H636.945V53H638.193V48.376C638.385 47.672 639.009 46.136 640.737 46.136V44.84C639.073 44.84 638.401 46.28 638.193 47.176ZM641.704 53H642.952V41.8H641.704V53ZM644.664 48.552L648.232 45H646.456L642.984 48.552L646.92 53H648.504L644.664 48.552ZM654.507 50.44C654.251 51.32 653.451 51.944 652.379 51.944C650.987 51.944 649.867 50.888 649.707 49.336H655.739C655.899 46.44 654.571 44.84 652.283 44.84C650.107 44.84 648.475 46.632 648.475 49.016C648.475 51.432 650.171 53.16 652.379 53.16C654.187 53.16 655.435 51.976 655.691 50.44H654.507ZM652.219 46.072C653.419 46.072 654.347 46.792 654.459 48.136H649.803C650.107 46.888 651.019 46.072 652.219 46.072ZM660.756 45H659.06V42.936H657.812V45H656.116V46.184H657.812V53H659.06V46.184H660.756V45ZM663.265 41.816H661.633V43.368H663.265V41.816ZM661.825 45V53H663.073V45H661.825ZM668.7 44.84C667.42 44.84 666.364 45.8 665.996 47.288V45H664.748V53H665.996V48.264C666.3 46.984 667.292 46.104 668.476 46.104C669.596 46.104 670.188 46.744 670.188 47.96V53H671.436V47.64C671.436 45.912 670.412 44.84 668.7 44.84ZM680.011 45L676.811 45.016C676.491 44.904 676.155 44.84 675.819 44.84C674.091 44.84 672.555 46.2 672.555 48.328C672.555 49.96 673.467 51.08 674.635 51.528C673.739 51.496 672.779 51.816 672.779 52.872C672.779 53.736 673.435 54.232 674.827 54.232H676.395C677.563 54.232 678.155 54.728 678.155 55.848V56.2H679.403V55.544C679.403 53.624 678.011 53.016 676.363 53.016L674.747 53C674.267 53 674.027 52.792 674.027 52.456C674.027 51.928 674.667 51.8 675.819 51.736C677.531 51.736 679.067 50.472 679.067 48.328C679.067 47.256 678.667 46.376 677.819 45.768C678.443 46.072 679.243 46.376 680.011 46.376V45ZM675.819 50.552C674.763 50.552 673.803 49.768 673.803 48.328C673.803 46.888 674.779 46.072 675.819 46.072C676.859 46.072 677.819 46.904 677.819 48.328C677.819 49.768 676.843 50.552 675.819 50.552Z" fill="#222137"/>
<path d="M405.44 107.6H401.248V118H402.496V114.32H405.44C407.344 114.32 408.848 113.072 408.848 110.96C408.848 108.848 407.344 107.6 405.44 107.6ZM405.44 113.104H402.496V108.816H405.44C406.72 108.816 407.616 109.616 407.616 110.96C407.616 112.24 406.72 113.104 405.44 113.104ZM413.25 118.16C415.25 118.16 417.09 116.592 417.09 114.016C417.09 111.472 415.25 109.84 413.25 109.84C411.218 109.84 409.378 111.472 409.378 114.016C409.378 116.592 411.218 118.16 413.25 118.16ZM413.25 116.944C411.938 116.944 410.61 115.904 410.61 114.016C410.61 112.144 411.938 111.072 413.25 111.072C414.546 111.072 415.842 112.16 415.842 114.016C415.842 115.904 414.53 116.944 413.25 116.944ZM422.156 109.84C420.876 109.84 419.82 110.8 419.452 112.288V110H418.204V118H419.452V113.264C419.756 111.984 420.748 111.104 421.932 111.104C423.052 111.104 423.644 111.744 423.644 112.96V118H424.892V112.64C424.892 110.912 423.868 109.84 422.156 109.84ZM430.459 110H428.763V107.936H427.515V110H425.819V111.184H427.515V118H428.763V111.184H430.459V110ZM434.685 118.16C436.685 118.16 438.525 116.592 438.525 114.016C438.525 111.472 436.685 109.84 434.685 109.84C432.653 109.84 430.813 111.472 430.813 114.016C430.813 116.592 432.653 118.16 434.685 118.16ZM434.685 116.944C433.373 116.944 432.045 115.904 432.045 114.016C432.045 112.144 433.373 111.072 434.685 111.072C435.981 111.072 437.277 112.16 437.277 114.016C437.277 115.904 435.965 116.944 434.685 116.944ZM448.199 106.8V112.144C447.911 110.784 447.191 109.84 445.527 109.84C443.527 109.84 442.087 111.632 442.087 114.016C442.087 116.432 443.607 118.16 445.527 118.16C447.175 118.16 447.911 116.88 448.199 115.552V116.432C448.199 116.944 448.311 118 448.311 118H449.447V106.8H448.199ZM445.831 116.944C444.375 116.944 443.319 115.744 443.319 114.016C443.319 112.304 444.231 111.056 445.831 111.056C447.415 111.056 448.199 112.256 448.199 114.016C448.199 115.632 447.447 116.944 445.831 116.944ZM456.889 115.44C456.633 116.32 455.833 116.944 454.761 116.944C453.369 116.944 452.249 115.888 452.089 114.336H458.121C458.281 111.44 456.953 109.84 454.665 109.84C452.489 109.84 450.857 111.632 450.857 114.016C450.857 116.432 452.553 118.16 454.761 118.16C456.569 118.16 457.817 116.976 458.073 115.44H456.889ZM454.601 111.072C455.801 111.072 456.729 111.792 456.841 113.136H452.185C452.489 111.888 453.401 111.072 454.601 111.072ZM467.742 115.44C467.486 116.32 466.686 116.944 465.614 116.944C464.222 116.944 463.102 115.888 462.942 114.336H468.974C469.134 111.44 467.806 109.84 465.518 109.84C463.342 109.84 461.71 111.632 461.71 114.016C461.71 116.432 463.406 118.16 465.614 118.16C467.422 118.16 468.67 116.976 468.926 115.44H467.742ZM465.454 111.072C466.654 111.072 467.582 111.792 467.694 113.136H463.038C463.342 111.888 464.254 111.072 465.454 111.072ZM475.81 110V111.472V112.144C475.522 110.784 474.802 109.84 473.138 109.84C471.266 109.84 469.698 111.632 469.698 114.016C469.698 116.432 471.266 118.16 473.138 118.16C474.786 118.16 475.522 116.88 475.81 115.552V121.2H477.058V110H475.81ZM473.442 116.944C471.986 116.944 470.93 115.744 470.93 114.016C470.93 112.304 471.842 111.056 473.442 111.056C475.026 111.056 475.81 112.256 475.81 114.016C475.81 115.632 475.058 116.944 473.442 116.944ZM484.324 110V114.688C484.132 115.424 483.556 116.896 481.876 116.896C480.884 116.896 480.132 116.448 480.132 115.024V110H478.884V115.344C478.884 117.568 480.404 118.16 481.636 118.16C483.524 118.16 484.116 116.384 484.324 115.344V118H485.572V110H484.324ZM488.691 106.816H487.059V108.368H488.691V106.816ZM487.251 110V118H488.499V110H487.251ZM490.366 106.8V118H491.614V106.8H490.366ZM494.727 106.816H493.095V108.368H494.727V106.816ZM493.287 110V118H494.535V110H493.287ZM500.219 109.84C498.539 109.84 497.819 110.784 497.547 112.144V106.8H496.299V118H497.435C497.435 118 497.547 116.944 497.547 116.432V115.552C497.819 116.88 498.571 118.16 500.219 118.16C502.139 118.16 503.659 116.432 503.659 114.016C503.659 111.632 502.219 109.84 500.219 109.84ZM499.915 116.944C498.299 116.944 497.547 115.632 497.547 114.016C497.547 112.256 498.315 111.056 499.915 111.056C501.499 111.056 502.411 112.304 502.411 114.016C502.411 115.744 501.355 116.944 499.915 116.944ZM506.045 112.176V110H504.797V118H506.045V113.376C506.237 112.672 506.861 111.136 508.589 111.136V109.84C506.925 109.84 506.253 111.28 506.045 112.176ZM510.948 106.816H509.316V108.368H510.948V106.816ZM509.508 110V118H510.756V110H509.508ZM515.887 118.16C517.887 118.16 519.727 116.592 519.727 114.016C519.727 111.472 517.887 109.84 515.887 109.84C513.855 109.84 512.015 111.472 512.015 114.016C512.015 116.592 513.855 118.16 515.887 118.16ZM515.887 116.944C514.575 116.944 513.247 115.904 513.247 114.016C513.247 112.144 514.575 111.072 515.887 111.072C517.183 111.072 518.479 112.16 518.479 114.016C518.479 115.904 517.167 116.944 515.887 116.944Z" fill="#222137" fill-opacity="0.5"/>
<path d="M217.448 217.6H209.224V218.784H212.712V228H213.96V218.784H217.448V217.6ZM222.394 225.44C222.138 226.32 221.338 226.944 220.266 226.944C218.874 226.944 217.754 225.888 217.594 224.336H223.626C223.786 221.44 222.458 219.84 220.17 219.84C217.994 219.84 216.362 221.632 216.362 224.016C216.362 226.432 218.058 228.16 220.266 228.16C222.074 228.16 223.322 226.976 223.578 225.44H222.394ZM220.106 221.072C221.306 221.072 222.234 221.792 222.346 223.136H217.69C217.994 221.888 218.906 221.072 220.106 221.072ZM234.031 219.84C232.831 219.84 231.823 220.672 231.407 222.016C231.183 220.656 230.207 219.84 228.719 219.84C227.439 219.84 226.383 220.8 226.015 222.288V220H224.767V228H226.015V223.264C226.319 221.984 227.311 221.104 228.495 221.104C229.615 221.104 230.207 221.744 230.207 222.96V228H231.455V222.848C231.855 221.792 232.751 221.104 233.807 221.104C234.927 221.104 235.519 221.744 235.519 222.96V228H236.767V222.64C236.767 220.912 235.743 219.84 234.031 219.84ZM242.222 219.84C240.558 219.84 239.838 220.768 239.55 222.112V221.664L239.502 220H238.302V231.2H239.55V225.584C239.838 226.896 240.574 228.16 242.222 228.16C244.046 228.16 245.662 226.432 245.662 224.016C245.662 221.632 244.11 219.84 242.222 219.84ZM241.918 226.944C240.382 226.944 239.63 225.776 239.55 224.304V223.744C239.646 222.128 240.606 221.056 241.918 221.056C243.502 221.056 244.414 222.304 244.414 224.016C244.414 225.744 243.374 226.944 241.918 226.944ZM250.232 228.16C252.232 228.16 254.072 226.592 254.072 224.016C254.072 221.472 252.232 219.84 250.232 219.84C248.2 219.84 246.36 221.472 246.36 224.016C246.36 226.592 248.2 228.16 250.232 228.16ZM250.232 226.944C248.92 226.944 247.592 225.904 247.592 224.016C247.592 222.144 248.92 221.072 250.232 221.072C251.528 221.072 252.824 222.16 252.824 224.016C252.824 225.904 251.512 226.944 250.232 226.944Z" fill="#222137"/>
<path d="M36.672 228.16C38.672 228.16 40.512 226.592 40.512 224.016C40.512 221.472 38.672 219.84 36.672 219.84C34.64 219.84 32.784 221.472 32.784 224.016C32.784 226.592 34.64 228.16 36.672 228.16ZM36.672 226.944C35.344 226.944 34.032 225.904 34.032 224.016C34.032 222.144 35.36 221.072 36.672 221.072C37.968 221.072 39.264 222.16 39.264 224.016C39.264 225.904 37.952 226.944 36.672 226.944Z" fill="#222137"/>
<path d="M5.752 114.2C7.176 113.96 8.184 113.16 8.184 111.56C8.184 109.592 6.92 108.6 4.776 108.6H0.28V119H1.528V114.744H4.472C5.736 114.744 6.776 115.128 6.792 116.408V119H8.024V116.408C8.024 114.744 7.144 114.312 5.752 114.2ZM1.528 109.816H4.776C6.072 109.816 6.952 110.424 6.936 111.56C6.936 112.728 6.056 113.544 4.776 113.544V114.168V113.544H1.528V109.816ZM14.5323 119.16C17.3323 119.16 19.5883 117.064 19.5883 113.8C19.5883 110.552 17.3323 108.44 14.5323 108.44C11.7323 108.44 9.46025 110.552 9.46025 113.8C9.46025 117.064 11.7323 119.16 14.5323 119.16ZM14.5323 117.96C12.5803 117.96 10.7083 116.504 10.7083 113.8C10.7083 111.128 12.5803 109.656 14.5323 109.656C16.4843 109.656 18.3563 111.128 18.3563 113.8C18.3563 116.504 16.4843 117.96 14.5323 117.96ZM21.5306 108.6V119H22.7786V108.6H21.5306Z" fill="#222137"/>
</svg>
