<svg width="159" height="69" viewBox="0 0 159 69" fill="none" xmlns="http://www.w3.org/2000/svg">
<path d="M49.6281 41.3754C48.5246 39.3935 47.513 38.3948 45.4592 37.2886L45.3979 37.2579C44.3251 36.674 43.1142 36.0287 43.1142 34.5077C43.1142 33.002 44.3251 32.3721 45.3826 31.8036L45.4439 31.7729C47.4824 30.6974 48.5093 29.7141 49.6128 27.7014C51.7739 20.4496 47.8349 12.2759 42.961 7.40548C38.2863 2.70408 31.8031 0 25.1819 0C18.5607 0 12.2614 2.65798 7.44882 7.46693C2.65153 12.2912 0 18.6059 0 25.2432V43.7568C0 50.3941 2.65153 56.7088 7.44882 61.5331C12.2614 66.3574 18.5454 69 25.1819 69C31.8031 69 38.2863 66.2959 42.9763 61.5945C47.8502 56.7088 51.7892 48.5658 49.6281 41.3754ZM41.2444 59.8584C37.0142 64.0989 31.1593 66.5418 25.1819 66.5418C19.2504 66.5418 13.3956 64.0528 9.08878 59.7201C4.78196 55.3721 2.42163 49.7027 2.45228 43.7568V25.2432C2.42163 19.2973 4.78196 13.6279 9.08878 9.27989C13.3956 4.94723 19.2504 2.45825 25.1819 2.45825C31.1593 2.45825 37.0142 4.90114 41.2444 9.14162C45.6432 13.5511 49.1683 20.8644 47.1605 27.2558L47.1452 27.2866C45.965 29.4683 44.6316 30.5438 42.869 31.8343C41.8574 32.5718 41.0298 33.2786 41.0298 34.4923C41.0298 35.8904 42.1333 36.6587 43.1909 37.4115L43.2982 37.4883C45.0607 38.7328 46.1796 39.9773 47.1452 41.7442L47.1605 41.7749C49.1836 48.151 45.6432 55.4489 41.2444 59.8584Z" fill="white"/>
<path d="M43.7579 42.5277C42.7924 40.6533 41.5969 39.3473 40.4474 38.2258C39.5124 37.3039 38.3476 36.167 38.3476 34.5077C38.3476 33.0634 39.2059 32.0801 40.0795 31.1737L40.2328 31.02C41.6888 29.5297 42.823 28.362 43.7733 26.503C45.3519 21.2946 42.3939 15.2872 38.7614 11.6459C35.1903 8.06611 30.2397 6.00732 25.1972 6.00732C20.216 6.00732 15.2808 8.1122 11.633 11.7996C7.96992 15.4869 5.97744 20.2652 6.02342 25.2431V43.7568C5.99277 48.7194 8.06188 53.6666 11.6943 57.3079C15.3268 60.9492 20.262 63.0234 25.2125 62.9926C25.2432 62.9926 25.2892 62.9926 25.3198 62.9926C30.2857 62.9926 35.1903 60.9338 38.7614 57.354C42.3785 53.7127 45.3366 47.7208 43.7579 42.5277ZM37.0142 55.6179C33.9182 58.7214 29.6113 60.519 25.1819 60.5344C25.1512 60.5344 25.1206 60.5344 25.0899 60.5344C20.7831 60.5344 16.6755 58.8136 13.5182 55.664C10.3149 52.4836 8.47571 48.1509 8.44505 43.7568V25.2431C8.46038 20.8336 10.3149 16.4703 13.5335 13.2899C16.6909 10.171 20.7678 8.45021 25.0593 8.45021C25.1053 8.45021 25.1512 8.45021 25.1972 8.45021C29.6113 8.46557 33.9182 10.2632 37.0295 13.3667C41.6275 17.9759 42.2559 23.0768 41.413 26.0421L41.3823 26.0882C40.9072 27.1175 40.1408 28.0855 39.3438 29.1302C38.0257 30.8203 36.677 32.5564 36.677 34.5077C36.677 36.4435 38.0411 38.2104 39.3592 39.9158C40.1562 40.9452 40.9072 41.9285 41.3823 42.9272L41.3976 42.9579C42.2406 45.9078 41.6122 51.0087 37.0142 55.6179Z" fill="white"/>
<path d="M37.9185 43.68C37.4893 42.7274 36.8916 41.7748 36.2478 40.7762C34.991 38.7942 33.6883 36.7508 33.6883 34.5076C33.6883 32.2645 34.991 30.2057 36.2478 28.2391C36.8916 27.2251 37.4893 26.2879 37.9185 25.3199C38.7154 23.2458 37.9951 19.4048 34.5006 15.9018C32.033 13.4281 28.6458 12.0146 25.1666 12.0146C21.6874 12.0146 18.3921 13.4128 15.8632 15.9325C13.3496 18.4522 11.9549 21.7708 11.9549 25.2585V43.7722C11.9549 47.2598 13.3496 50.5631 15.8632 53.0982C18.3768 55.6179 21.6874 57.016 25.1512 57.016C28.6151 57.016 32.0176 55.6025 34.4853 53.1289C36.9682 50.6553 39.0833 46.6606 37.9185 43.68ZM32.784 51.3774C30.7915 53.3593 27.9867 54.5424 25.2432 54.5424C25.2279 54.5424 25.1972 54.5424 25.1819 54.5424C22.3465 54.527 19.5416 53.3132 17.4879 51.2084C15.4801 49.1496 14.3919 46.507 14.4225 43.7568V25.2431C14.3919 22.4622 15.4801 19.8042 17.5185 17.7454C19.5723 15.6713 22.3618 14.4729 25.1819 14.4729C27.9561 14.4422 30.7302 15.5945 32.784 17.6379C35.7574 20.6032 36.0639 23.6299 35.4355 25.3199C35.037 26.2879 34.5006 27.2404 33.9182 28.2545C32.7687 30.2825 31.5885 32.372 31.5885 34.5076C31.5885 36.6432 32.7687 38.7328 33.9028 40.7454C34.4853 41.7595 35.0217 42.7274 35.4202 43.6953C36.0639 45.3854 35.7574 48.4121 32.784 51.3774Z" fill="white"/>
<path d="M32.0789 43.803C31.803 42.8197 31.4199 41.8056 31.052 40.8223C30.2857 38.7789 29.4887 36.674 29.4887 34.4924C29.4887 32.3107 30.2857 30.2058 31.052 28.1624C31.4199 27.1791 31.803 26.165 32.0789 25.1817C32.5387 23.3688 31.7877 21.8938 31.0827 20.9873C29.7186 19.2358 27.297 18.0067 25.1819 18.0067C23.2813 18.0067 21.4728 18.7596 20.0934 20.1423C18.714 21.5251 17.963 23.338 17.963 25.2432V43.7569C17.963 45.662 18.714 47.475 20.0934 48.8577C21.4728 50.2405 23.2813 50.9934 25.1665 50.9934C27.2816 50.9934 29.7033 49.7642 31.0673 48.0127C31.803 47.0909 32.5387 45.6159 32.0789 43.803ZM28.9369 46.6914C28.0326 47.7669 26.5613 48.489 25.1819 48.5197C25.1512 48.5197 25.1206 48.5197 25.0746 48.5197C23.9251 48.5197 22.8215 48.0588 21.9479 47.2138C20.9977 46.2919 20.4306 45.0321 20.4152 43.7415V25.2432C20.4306 23.9526 20.9977 22.6774 21.9632 21.7555C22.8675 20.8952 24.0017 20.4342 25.1819 20.465C26.5766 20.4957 28.0173 21.1871 28.9216 22.2779C29.6726 23.169 29.9791 24.1984 29.8106 25.2586C29.6726 26.3033 29.4734 27.3481 29.2894 28.3621C28.9216 30.3594 28.5384 32.4182 28.5384 34.4924C28.5384 36.5511 28.9216 38.6253 29.2894 40.6226C29.4734 41.6366 29.6726 42.6968 29.8106 43.7262C29.9945 44.7863 29.6879 45.8003 28.9369 46.6914Z" fill="white"/>
<path d="M26.2241 43.7569C26.1168 37.5344 26.1168 31.4656 26.2241 25.2432C26.2241 24.9052 26.1015 24.5825 25.8716 24.352C25.657 24.137 25.3811 24.014 25.0746 24.014C24.4462 24.014 23.9404 24.5671 23.9404 25.2432V43.7569C23.9404 44.4329 24.4462 44.986 25.0746 44.986C25.3658 44.986 25.657 44.8631 25.8716 44.648C26.1015 44.4175 26.2241 44.0949 26.2241 43.7569Z" fill="white"/>
<path d="M69.6909 45.8156C67.7904 45.8156 66.1044 45.4162 64.6484 44.6019C63.1924 43.8029 62.0429 42.6353 61.2305 41.1296C60.4182 39.6239 60.0044 37.8417 60.0044 35.7983V19.5431H64.2039V29.499H64.2346C64.6178 28.8383 65.1389 28.2699 65.7673 27.7782C66.3957 27.2866 67.1007 26.9178 67.8824 26.6413C68.664 26.3801 69.4917 26.2418 70.3653 26.2418C72.1432 26.2418 73.7065 26.6413 75.0706 27.4402C76.4194 28.2391 77.4922 29.3454 78.2586 30.7589C79.0249 32.1723 79.4081 33.8317 79.4081 35.7522C79.4081 37.2425 79.1782 38.6099 78.7337 39.839C78.2892 41.0681 77.6302 42.1436 76.8025 43.0501C75.9596 43.9566 74.948 44.648 73.7525 45.1243C72.557 45.5698 71.2083 45.8156 69.6909 45.8156ZM69.6909 42.2204C70.7638 42.2204 71.7141 41.9593 72.5417 41.4369C73.3693 40.9145 74.0131 40.1924 74.4729 39.2552C74.9327 38.3333 75.1626 37.2579 75.1626 36.0287C75.1626 34.8303 74.9327 33.7702 74.4729 32.833C74.0131 31.9112 73.3693 31.1737 72.557 30.6359C71.7447 30.0982 70.7944 29.837 69.7216 29.837C68.6487 29.837 67.6984 30.0982 66.8708 30.6206C66.0431 31.143 65.3994 31.8804 64.9396 32.8023C64.4798 33.7241 64.2499 34.7996 64.2499 36.0287C64.2499 37.2579 64.4798 38.3333 64.9396 39.2552C65.3994 40.177 66.0431 40.9145 66.8708 41.4369C67.6984 41.9593 68.6487 42.2204 69.6909 42.2204Z" fill="white"/>
<path d="M92.2519 45.8156C90.3513 45.8156 88.6501 45.3854 87.1634 44.5097C85.6767 43.6493 84.4965 42.4663 83.6382 40.9913C82.7799 39.5164 82.3354 37.8571 82.3354 36.0287C82.3354 34.2004 82.7646 32.5411 83.6382 31.0661C84.4965 29.5912 85.6767 28.4082 87.1634 27.5478C88.6501 26.6874 90.3513 26.2418 92.2519 26.2418C94.183 26.2418 95.8843 26.672 97.371 27.5478C98.8577 28.4082 100.038 29.5912 100.896 31.0661C101.754 32.5411 102.199 34.2004 102.199 36.0287C102.199 37.8571 101.77 39.5164 100.896 40.9913C100.038 42.4663 98.8577 43.6493 97.371 44.5097C95.8843 45.3854 94.183 45.8156 92.2519 45.8156ZM92.2519 42.2204C93.4167 42.2204 94.4283 41.9439 95.2866 41.3908C96.1449 40.8377 96.8039 40.1002 97.2637 39.1476C97.7235 38.2104 97.9534 37.1657 97.9534 36.0134C97.9534 34.8611 97.7235 33.8163 97.2637 32.8791C96.8039 31.9419 96.1449 31.189 95.2866 30.6359C94.4283 30.0828 93.4167 29.8063 92.2519 29.8063C91.1024 29.8063 90.1061 30.0828 89.2785 30.6359C88.4355 31.189 87.7765 31.9265 87.3013 32.8484C86.8262 33.7702 86.581 34.8303 86.581 35.998C86.581 37.1503 86.8262 38.1951 87.3013 39.1323C87.7765 40.0695 88.4355 40.8223 89.2785 41.3754C90.1215 41.9439 91.1177 42.2204 92.2519 42.2204Z" fill="white"/>
<path d="M112.774 45.8156C111.548 45.8156 110.445 45.5698 109.449 45.0935C108.452 44.6172 107.655 43.8798 107.073 42.8965C106.49 41.9132 106.199 40.6379 106.199 39.1015V26.672H110.399V39.7622C110.399 40.2538 110.506 40.684 110.736 41.0681C110.951 41.4522 111.242 41.7288 111.594 41.9285C111.947 42.1282 112.345 42.2204 112.79 42.2204C113.204 42.2204 113.602 42.1282 113.955 41.9285C114.322 41.7288 114.614 41.4522 114.828 41.0681C115.043 40.684 115.165 40.2538 115.165 39.7622V32.8637C115.165 31.4195 115.441 30.2057 115.993 29.2224C116.545 28.2391 117.311 27.4863 118.292 26.9793C119.273 26.4723 120.407 26.2264 121.679 26.2264C122.967 26.2264 124.101 26.4723 125.082 26.9793C126.063 27.4863 126.829 28.2238 127.381 29.2224C127.948 30.2057 128.224 31.4349 128.224 32.8637V39.7622C128.224 40.2538 128.331 40.684 128.561 41.0681C128.776 41.4522 129.067 41.7288 129.435 41.9285C129.803 42.1282 130.201 42.2204 130.645 42.2204C131.059 42.2204 131.442 42.1282 131.795 41.9285C132.148 41.7288 132.439 41.4522 132.653 41.0681C132.868 40.684 132.975 40.2538 132.975 39.7622V26.672H137.175V39.1015C137.175 40.6379 136.883 41.9132 136.301 42.8965C135.719 43.8798 134.922 44.6172 133.925 45.0935C132.929 45.5698 131.826 45.8156 130.63 45.8156C129.435 45.8156 128.331 45.5698 127.335 45.0935C126.339 44.6172 125.526 43.8798 124.929 42.8965C124.316 41.9132 124.009 40.6379 124.009 39.1015V32.2799C124.009 31.7421 123.902 31.2966 123.702 30.9432C123.488 30.5898 123.212 30.3133 122.859 30.1135C122.507 29.9138 122.108 29.8216 121.664 29.8216C121.281 29.8216 120.898 29.9138 120.53 30.1135C120.162 30.3133 119.871 30.5898 119.656 30.9432C119.442 31.2966 119.334 31.7421 119.334 32.2799V39.1015C119.334 40.6379 119.028 41.9132 118.43 42.8965C117.832 43.8798 117.035 44.6172 116.054 45.0935C115.058 45.5698 113.97 45.8156 112.774 45.8156Z" fill="white"/>
<path d="M151.659 45.3701C149.559 45.3701 147.72 44.9706 146.156 44.1717C144.578 43.3727 143.351 42.2819 142.478 40.8684C141.604 39.4703 141.16 37.8417 141.16 36.0134C141.16 34.0775 141.543 32.3874 142.325 30.9125C143.106 29.4375 144.179 28.3006 145.543 27.4709C146.907 26.6413 148.486 26.2264 150.264 26.2264C152.256 26.2264 153.912 26.6566 155.199 27.517C156.486 28.3774 157.452 29.5143 158.065 30.9586C158.693 32.4028 159 34.016 159 35.7983C159 36.0441 158.985 36.3206 158.969 36.6433C158.939 36.9659 158.908 37.2117 158.862 37.3808H145.62C145.773 38.3641 146.126 39.1783 146.677 39.8236C147.244 40.4689 147.949 40.9606 148.792 41.2832C149.651 41.6059 150.601 41.7749 151.643 41.7749H156.655V45.3701H151.659ZM145.589 34.523H154.8C154.77 34.0621 154.709 33.6012 154.601 33.1249C154.494 32.664 154.325 32.2184 154.095 31.8036C153.866 31.3888 153.574 31.0354 153.222 30.7281C152.869 30.4208 152.44 30.175 151.965 29.9906C151.475 29.8063 150.923 29.7141 150.279 29.7141C149.543 29.7141 148.9 29.8524 148.348 30.1289C147.781 30.4055 147.306 30.7742 146.923 31.2351C146.539 31.6807 146.233 32.2031 146.034 32.7715C145.804 33.3554 145.65 33.9392 145.589 34.523Z" fill="white"/>
<path d="M59.9584 61.2104V57.2311C59.9584 56.7241 60.081 56.2478 60.3109 55.833C60.5408 55.4028 60.878 55.0801 61.3225 54.8189C61.7669 54.5731 62.288 54.4502 62.9164 54.4502C63.223 54.4502 63.5142 54.4963 63.8207 54.5731C64.1273 54.6499 64.4031 54.7882 64.6637 54.9879C64.9243 55.1877 65.1235 55.4489 65.2921 55.7715H65.3074C65.476 55.4489 65.6906 55.1877 65.9511 54.9879C66.2117 54.7882 66.4876 54.6499 66.7941 54.5731C67.1007 54.4963 67.4072 54.4502 67.7137 54.4502C68.3268 54.4502 68.8479 54.5731 69.2924 54.8189C69.7369 55.0648 70.0741 55.4028 70.304 55.833C70.5339 56.2478 70.6565 56.7241 70.6565 57.2311V61.2104H69.4303V57.2311C69.4303 56.9084 69.3537 56.6012 69.2004 56.34C69.0472 56.0788 68.8326 55.8637 68.572 55.71C68.3115 55.5564 68.0049 55.4796 67.6678 55.4796C67.3459 55.4796 67.0394 55.5564 66.7635 55.71C66.4876 55.8637 66.273 56.0788 66.1044 56.34C65.9512 56.6012 65.8592 56.8931 65.8592 57.2311V61.2104H64.6637V57.2311C64.6637 56.9084 64.5871 56.6012 64.4185 56.34C64.2652 56.0788 64.0506 55.8637 63.7747 55.71C63.4989 55.5564 63.1923 55.4796 62.8705 55.4796C62.5486 55.4796 62.2421 55.5564 61.9815 55.71C61.721 55.8637 61.5064 56.0788 61.3531 56.34C61.1998 56.6012 61.1232 56.9084 61.1232 57.2311V61.2104H59.9584Z" fill="white"/>
<path d="M75.1165 61.364C74.4728 61.364 73.9211 61.2104 73.4613 60.9031C73.0015 60.5958 72.6336 60.181 72.3884 59.6586C72.1431 59.1362 72.0205 58.5524 72.0205 57.9071C72.0205 57.2618 72.1585 56.678 72.4344 56.1556C72.7102 55.6332 73.1087 55.2184 73.6299 54.9111C74.151 54.6038 74.764 54.4502 75.4844 54.4502C76.1894 54.4502 76.7872 54.6038 77.2776 54.8958C77.7834 55.203 78.1666 55.6025 78.4425 56.1249C78.7184 56.6473 78.8563 57.2157 78.8563 57.861V61.2104H77.6608V59.8583H77.6301C77.5075 60.1042 77.3236 60.35 77.109 60.5805C76.8945 60.8109 76.6186 60.9953 76.2814 61.1489C75.9442 61.2872 75.561 61.364 75.1165 61.364ZM75.4384 60.35C75.8676 60.35 76.2507 60.2424 76.5879 60.0273C76.9251 59.8123 77.1857 59.5203 77.3696 59.1516C77.5535 58.7829 77.6455 58.3527 77.6455 57.8917C77.6455 57.4308 77.5535 57.016 77.3849 56.6626C77.2163 56.2939 76.9558 56.0173 76.6339 55.8022C76.312 55.5871 75.9289 55.4796 75.4844 55.4796C75.0246 55.4796 74.6261 55.5871 74.2889 55.8022C73.9517 56.0173 73.7065 56.3092 73.5226 56.678C73.3386 57.0467 73.262 57.4616 73.262 57.9225C73.262 58.368 73.354 58.7829 73.5226 59.1516C73.6912 59.5203 73.9517 59.8123 74.2736 60.0273C74.5648 60.2271 74.9633 60.35 75.4384 60.35Z" fill="white"/>
<path d="M80.5576 61.2103V56.4782C80.5576 55.8943 80.7262 55.4334 81.0481 55.0954C81.3853 54.7574 81.8451 54.6038 82.4275 54.6038H83.7916V55.6331H82.6574C82.3662 55.6331 82.1516 55.71 81.9983 55.879C81.8451 56.048 81.7531 56.2784 81.7531 56.5704V61.2257H80.5576V61.2103Z" fill="white"/>
<path d="M84.2666 55.6332V54.6038H88.8493V55.6332H84.2666ZM87.2707 61.2103C86.6883 61.2103 86.2285 61.0413 85.8913 60.7033C85.5541 60.3653 85.4008 59.9044 85.4008 59.3359V52.9445H86.5963V59.2591C86.5963 59.551 86.6729 59.7661 86.8415 59.9351C86.9948 60.1041 87.2247 60.1809 87.5006 60.1809H88.834V61.2103H87.2707Z" fill="white"/>
<path d="M93.2941 61.2104C92.5738 61.2104 91.93 61.0721 91.3629 60.7956C90.7958 60.519 90.3667 60.1349 90.0448 59.6432C89.723 59.1516 89.5697 58.5678 89.5697 57.9071C89.5697 57.2465 89.7076 56.6626 89.9682 56.1402C90.2288 55.6179 90.6119 55.203 91.0871 54.8958C91.5622 54.5885 92.1139 54.4502 92.7423 54.4502C93.4167 54.4502 93.9838 54.6038 94.4436 54.8958C94.8881 55.1877 95.2406 55.5871 95.4552 56.0788C95.6851 56.5704 95.7924 57.1235 95.7924 57.7381C95.7924 57.8303 95.7924 57.9378 95.7924 58.03C95.7924 58.1376 95.7771 58.2298 95.7617 58.3066H90.8418C90.8878 58.706 91.0257 59.0594 91.2403 59.336C91.4702 59.6125 91.7461 59.8276 92.0986 59.9659C92.4511 60.1042 92.8343 60.181 93.2635 60.181H94.9801V61.2104H93.2941ZM90.8418 57.4616H94.5969C94.5969 57.2926 94.5816 57.1235 94.5509 56.9392C94.5203 56.7548 94.459 56.5704 94.367 56.4014C94.275 56.2324 94.1677 56.0634 94.0298 55.9251C93.8919 55.7869 93.7079 55.664 93.4934 55.5871C93.2788 55.495 93.0336 55.4642 92.7577 55.4642C92.4511 55.4642 92.1906 55.5257 91.9607 55.6332C91.7308 55.7561 91.5315 55.9098 91.3783 56.0941C91.2097 56.2939 91.0871 56.509 91.0104 56.7548C90.9185 56.9853 90.8572 57.2157 90.8418 57.4616Z" fill="white"/>
<path d="M100.375 61.2103C99.7007 61.2103 99.0877 61.072 98.5512 60.7647C98.0148 60.4728 97.601 60.0734 97.2791 59.5817C96.9726 59.0901 96.8193 58.5216 96.8193 57.907C96.8193 57.2925 96.9726 56.724 97.2791 56.2323C97.5856 55.7407 98.0148 55.3412 98.5512 55.0493C99.0877 54.7574 99.7007 54.6038 100.375 54.6038H101.157V55.6331H100.344C99.9 55.6331 99.5168 55.7407 99.1643 55.9404C98.8118 56.1402 98.5359 56.4167 98.3367 56.7701C98.1374 57.1081 98.0301 57.5076 98.0301 57.9224C98.0301 58.3526 98.1374 58.7367 98.3367 59.0747C98.5359 59.4127 98.8118 59.6893 99.1643 59.9044C99.5168 60.1041 99.9153 60.2116 100.344 60.2116H101.157V61.241H100.375V61.2103Z" fill="white"/>
<path d="M102.383 61.2104V51.7461H103.578V55.4488C103.839 55.1108 104.176 54.8496 104.559 54.6806C104.943 54.5116 105.341 54.4348 105.755 54.4348C106.337 54.4348 106.843 54.5577 107.288 54.8035C107.717 55.0494 108.054 55.3874 108.299 55.8329C108.544 56.2785 108.667 56.7855 108.667 57.3693V61.195H107.471V57.3847C107.471 56.9852 107.379 56.6472 107.196 56.3553C107.012 56.0634 106.782 55.8483 106.475 55.6947C106.184 55.541 105.862 55.4642 105.525 55.4642C105.188 55.4642 104.881 55.541 104.575 55.6947C104.283 55.8483 104.038 56.0634 103.854 56.3553C103.67 56.6319 103.578 56.9852 103.578 57.3847V61.2257H102.383V61.2104Z" fill="white"/>
<path d="M125.956 61.2103V60.1809H129.113C129.312 60.1809 129.496 60.1348 129.649 60.0426C129.803 59.9505 129.91 59.8275 129.986 59.6893C130.063 59.5356 130.109 59.382 130.109 59.2283C130.109 59.0747 130.078 58.9211 130.002 58.7981C129.925 58.6599 129.833 58.5523 129.68 58.4755C129.542 58.3987 129.373 58.3526 129.174 58.3526H127.841C127.412 58.3526 127.044 58.2758 126.737 58.1375C126.431 57.9992 126.17 57.7841 126.001 57.5076C125.818 57.231 125.741 56.893 125.741 56.4935C125.741 56.1555 125.818 55.8482 125.986 55.5563C126.155 55.2644 126.385 55.034 126.676 54.8649C126.967 54.6806 127.304 54.6038 127.687 54.6038H130.722V55.6331H127.795C127.534 55.6331 127.32 55.71 127.166 55.879C127.013 56.048 126.936 56.2323 126.936 56.4628C126.936 56.6779 127.013 56.8623 127.182 57.0313C127.335 57.1849 127.565 57.2771 127.856 57.2771H129.128C129.603 57.2771 130.002 57.3539 130.324 57.5076C130.646 57.6612 130.891 57.8763 131.059 58.1682C131.228 58.4448 131.305 58.7981 131.305 59.213C131.305 59.5664 131.213 59.889 131.044 60.1963C130.875 60.5036 130.63 60.7494 130.324 60.9338C130.017 61.1181 129.665 61.2257 129.251 61.2257H125.956V61.2103Z" fill="white"/>
<path d="M135.473 61.364C134.83 61.364 134.278 61.2104 133.818 60.9031C133.358 60.5958 132.99 60.181 132.745 59.6586C132.5 59.1362 132.377 58.5524 132.377 57.9071C132.377 57.2618 132.515 56.678 132.791 56.1556C133.067 55.6332 133.466 55.2184 133.987 54.9111C134.508 54.6038 135.121 54.4502 135.841 54.4502C136.546 54.4502 137.144 54.6038 137.635 54.8958C138.14 55.203 138.523 55.6025 138.799 56.1249C139.075 56.6473 139.213 57.2157 139.213 57.861V61.2104H138.018V59.8583H137.987C137.864 60.1042 137.68 60.35 137.466 60.5805C137.251 60.8109 136.975 60.9953 136.638 61.1489C136.286 61.2872 135.903 61.364 135.473 61.364ZM135.78 60.35C136.209 60.35 136.592 60.2424 136.929 60.0273C137.267 59.8123 137.527 59.5203 137.711 59.1516C137.895 58.7829 137.987 58.3527 137.987 57.8917C137.987 57.4308 137.895 57.016 137.726 56.6626C137.558 56.2939 137.297 56.0173 136.975 55.8022C136.654 55.5871 136.27 55.4796 135.826 55.4796C135.366 55.4796 134.968 55.5871 134.63 55.8022C134.293 56.0173 134.048 56.3092 133.864 56.678C133.68 57.0467 133.604 57.4616 133.604 57.9225C133.604 58.368 133.696 58.7829 133.864 59.1516C134.033 59.5203 134.293 59.8123 134.615 60.0273C134.922 60.2271 135.305 60.35 135.78 60.35Z" fill="white"/>
<path d="M140.945 61.2104V51.7461H142.141V61.2104H140.945Z" fill="white"/>
<path d="M147.244 61.2104C146.524 61.2104 145.88 61.0721 145.313 60.7956C144.746 60.519 144.317 60.1349 143.995 59.6432C143.673 59.1516 143.52 58.5678 143.52 57.9071C143.52 57.2465 143.658 56.6626 143.918 56.1402C144.179 55.6179 144.562 55.203 145.037 54.8958C145.512 54.5885 146.064 54.4502 146.693 54.4502C147.367 54.4502 147.934 54.6038 148.394 54.8958C148.838 55.1877 149.191 55.5871 149.405 56.0788C149.635 56.5704 149.743 57.1235 149.743 57.7381C149.743 57.8303 149.743 57.9378 149.743 58.03C149.743 58.1376 149.727 58.2298 149.712 58.3066H144.792C144.838 58.706 144.976 59.0594 145.191 59.336C145.421 59.6125 145.696 59.8276 146.049 59.9659C146.401 60.1042 146.785 60.181 147.214 60.181H148.93V61.2104H147.244ZM144.792 57.4616H148.547C148.547 57.2926 148.532 57.1235 148.501 56.9392C148.471 56.7548 148.409 56.5704 148.317 56.4014C148.225 56.2324 148.118 56.0634 147.98 55.9251C147.842 55.7869 147.658 55.664 147.444 55.5871C147.229 55.495 146.984 55.4642 146.708 55.4642C146.401 55.4642 146.141 55.5257 145.911 55.6332C145.681 55.7561 145.482 55.9098 145.329 56.0941C145.16 56.2939 145.037 56.509 144.961 56.7548C144.853 56.9853 144.807 57.2157 144.792 57.4616Z" fill="white"/>
<path d="M151.045 61.2103V60.1809H154.203C154.402 60.1809 154.586 60.1348 154.739 60.0426C154.892 59.9505 155 59.8275 155.076 59.6893C155.153 59.5356 155.199 59.382 155.199 59.2283C155.199 59.0747 155.168 58.9211 155.092 58.7981C155.015 58.6599 154.923 58.5523 154.77 58.4755C154.632 58.3987 154.463 58.3526 154.264 58.3526H152.931C152.501 58.3526 152.134 58.2758 151.827 58.1375C151.521 57.9992 151.26 57.7841 151.091 57.5076C150.908 57.231 150.831 56.893 150.831 56.4935C150.831 56.1555 150.907 55.8482 151.076 55.5563C151.245 55.2644 151.475 55.034 151.766 54.8649C152.057 54.6806 152.394 54.6038 152.777 54.6038H155.812V55.6331H152.885C152.624 55.6331 152.41 55.71 152.256 55.879C152.103 56.048 152.026 56.2323 152.026 56.4628C152.026 56.6779 152.103 56.8623 152.272 57.0313C152.425 57.1849 152.655 57.2771 152.946 57.2771H154.218C154.693 57.2771 155.092 57.3539 155.414 57.5076C155.735 57.6612 155.981 57.8763 156.149 58.1682C156.318 58.4448 156.394 58.7981 156.394 59.213C156.394 59.5664 156.303 59.889 156.134 60.1963C155.965 60.5036 155.72 60.7494 155.414 60.9338C155.107 61.1181 154.755 61.2257 154.341 61.2257H151.045V61.2103Z" fill="white"/>
<path d="M122.032 60.2424L119.549 58.199L119.595 58.0761C119.779 57.6459 119.947 57.3079 120.07 57.0313C120.193 56.7547 120.331 56.5397 120.438 56.386C120.56 56.2324 120.683 56.1248 120.836 56.0634C120.974 56.0019 121.158 55.9712 121.373 55.9712H121.955V55.0032H121.327C121.005 55.0032 120.729 55.034 120.499 55.1108C120.269 55.1876 120.055 55.3105 119.871 55.4949C119.687 55.6793 119.518 55.9251 119.334 56.2324C119.166 56.5397 118.966 56.9238 118.767 57.4L118.706 57.523L118.476 57.3232L116.254 55.5103C116.652 55.3259 116.974 55.0801 117.204 54.7728C117.434 54.4809 117.541 54.1429 117.541 53.7741C117.541 53.4054 117.464 53.0981 117.296 52.8216C117.127 52.545 116.913 52.3299 116.621 52.1763C116.33 52.0226 115.993 51.9458 115.595 51.9458C115.211 51.9458 114.874 52.0226 114.583 52.1916C114.292 52.3606 114.047 52.5911 113.878 52.8676C113.709 53.1442 113.617 53.4515 113.617 53.7741C113.617 53.9739 113.663 54.1736 113.74 54.3733C113.817 54.5577 113.924 54.7421 114.062 54.8957C114.185 55.0493 114.322 55.203 114.445 55.3105C113.985 55.5103 113.602 55.7715 113.28 56.0787C112.974 56.386 112.728 56.7394 112.56 57.1235C112.391 57.5076 112.315 57.8917 112.315 58.2912C112.315 58.8904 112.453 59.4281 112.728 59.8737C113.004 60.3192 113.388 60.688 113.878 60.9338C114.368 61.195 114.936 61.3179 115.595 61.3179C116.131 61.3179 116.606 61.2411 117.035 61.0721C117.464 60.903 117.848 60.6572 118.2 60.3346C118.537 60.0119 118.844 59.6125 119.104 59.1515L121.373 61.0106L122.032 60.2424ZM114.813 53.3439C114.874 53.221 114.982 53.1135 115.119 53.0213C115.257 52.9291 115.411 52.8984 115.595 52.8984C115.886 52.8984 116.1 52.9752 116.254 53.1442C116.407 53.3132 116.499 53.5129 116.499 53.7434C116.499 53.9124 116.453 54.0507 116.376 54.189C116.284 54.3272 116.177 54.4501 116.024 54.5577C115.87 54.6652 115.717 54.7728 115.533 54.8496C115.411 54.7574 115.288 54.6499 115.165 54.5423C115.043 54.4348 114.936 54.3119 114.844 54.1736C114.767 54.0353 114.721 53.897 114.721 53.728C114.706 53.6205 114.736 53.4822 114.813 53.3439ZM117.556 59.5049C117.296 59.7661 117.02 59.9658 116.713 60.0888C116.407 60.2117 116.07 60.2731 115.687 60.2731C115.257 60.2731 114.89 60.1809 114.568 59.9966C114.246 59.8122 113.985 59.5664 113.817 59.2437C113.633 58.9365 113.541 58.5831 113.541 58.199C113.541 57.8763 113.602 57.5844 113.74 57.3079C113.878 57.0313 114.062 56.7701 114.322 56.5397C114.583 56.3092 114.874 56.1095 115.227 55.9558L117.848 58.1068L118.307 58.4755C118.062 58.9057 117.817 59.2437 117.556 59.5049Z" fill="white"/>
</svg>
