<svg width="1118" height="811" viewBox="0 0 1118 811" fill="none" xmlns="http://www.w3.org/2000/svg">
<g clip-path="url(#clip0)">
<g filter="url(#filter0_d)">
<path d="M95.8096 621.952V40L545.329 262.175L994.035 40V621.952L545.329 398.006L95.8096 621.952Z" fill="white"/>
</g>
<path opacity="0.355" d="M310.178 146.088L310.178 514.621" stroke="#C9C9C9" stroke-width="2"/>
<path opacity="0.355" d="M544.758 260.972V398.674" stroke="#C9C9C9" stroke-width="2"/>
<path opacity="0.355" d="M779.338 146.31V514.885" stroke="#C9C9C9" stroke-width="2"/>
<path d="M126.976 204.017L126.93 199.466H122.354V200.714L124.87 200.682C124.334 201.802 123.164 202.531 121.264 202.531C118.6 202.531 117.137 201.259 117.137 199.26C117.137 197.261 118.607 195.988 121.192 195.988C123.203 195.988 124.3 196.778 124.69 197.917H126.585C126.397 195.672 124.417 194.258 121.192 194.258C117.566 194.258 115.116 196.028 115.116 199.26C115.116 202.477 117.547 204.216 120.972 204.216C123.352 204.216 124.894 203.171 125.486 201.395C125.343 202.262 125.257 203.138 125.23 204.017H126.976ZM135.07 201.571C134.83 202.259 133.96 202.73 132.735 202.73C131.072 202.73 130.092 201.854 129.952 200.639H136.965C137.089 197.843 135.607 196.497 132.731 196.497C129.883 196.497 128.011 197.946 128.011 200.358C128.011 202.799 129.96 204.19 132.781 204.19C135.281 204.19 136.674 203.091 136.925 201.573L135.07 201.571ZM132.634 197.959C134.078 197.959 134.944 198.582 135.057 199.586H130.041C130.297 198.658 131.218 197.959 132.634 197.959ZM139.837 198.873V196.667H137.913V204.017H139.837V200.003C140.088 199.47 140.488 199.021 140.988 198.711C141.489 198.401 142.069 198.242 142.658 198.255V196.496C141.993 196.532 141.358 196.783 140.849 197.212C140.34 197.641 139.984 198.224 139.836 198.872L139.837 198.873ZM150.378 196.667V198.84C150.194 198.115 149.756 197.479 149.143 197.049C148.531 196.619 147.784 196.422 147.039 196.494C146.516 196.46 145.991 196.535 145.497 196.715C145.004 196.894 144.554 197.174 144.175 197.536C143.795 197.899 143.496 198.336 143.294 198.821C143.093 199.305 142.994 199.826 143.004 200.35C142.993 200.865 143.088 201.376 143.283 201.853C143.478 202.329 143.769 202.761 144.138 203.12C144.506 203.48 144.945 203.76 145.427 203.943C145.908 204.126 146.422 204.208 146.936 204.184C147.712 204.218 148.476 203.987 149.102 203.527C149.728 203.068 150.178 202.409 150.377 201.659V202.122C150.387 202.756 150.433 203.389 150.513 204.017H152.301V196.667H150.378ZM147.556 202.698C146.003 202.698 144.967 201.769 144.967 200.352C144.967 198.936 145.907 197.997 147.556 197.997C149.282 197.997 150.377 198.841 150.377 200.352C150.377 201.758 149.299 202.698 147.556 202.698ZM162.324 201.117H160.57C160.369 201.625 160.007 202.053 159.539 202.335C159.071 202.618 158.523 202.739 157.98 202.679C156.46 202.679 155.191 201.903 155.191 200.357C155.191 198.811 156.479 198.005 157.98 198.005C158.518 197.961 159.055 198.088 159.517 198.367C159.979 198.645 160.342 199.062 160.554 199.558H162.311C162.139 197.65 160.565 196.499 157.981 196.499C155.235 196.499 153.245 197.855 153.245 200.361C153.245 202.866 155.235 204.192 157.981 204.192C160.571 204.192 162.172 203.056 162.324 201.121V201.117ZM159.077 205.427H156.845V207.118H159.077V205.427ZM168.623 193.411H166.391V195.102H168.623V193.411ZM170.325 196.666V198.84C170.141 198.115 169.702 197.479 169.09 197.049C168.478 196.619 167.731 196.422 166.986 196.494C166.462 196.46 165.937 196.535 165.444 196.715C164.951 196.894 164.501 197.174 164.122 197.536C163.742 197.899 163.442 198.336 163.241 198.821C163.039 199.305 162.941 199.826 162.951 200.35C162.94 200.865 163.035 201.377 163.23 201.853C163.425 202.33 163.716 202.761 164.085 203.121C164.454 203.48 164.893 203.76 165.374 203.943C165.856 204.126 166.37 204.208 166.885 204.184C167.66 204.218 168.425 203.987 169.05 203.527C169.676 203.068 170.126 202.409 170.326 201.659V202.122C170.336 202.756 170.382 203.389 170.463 204.017H172.251V196.667L170.325 196.666ZM167.506 202.698C165.952 202.698 164.916 201.769 164.916 200.352C164.916 198.936 165.857 197.997 167.506 197.997C169.232 197.997 170.327 198.841 170.327 200.352C170.327 201.758 169.249 202.698 167.506 202.698ZM177.885 204.188C180.648 204.188 182.535 202.857 182.535 200.357C182.535 197.875 180.648 196.496 177.885 196.496C175.102 196.496 173.195 197.875 173.195 200.357C173.195 202.855 175.099 204.188 177.885 204.188ZM177.885 202.709C176.342 202.709 175.142 201.877 175.142 200.354C175.142 198.831 176.361 197.969 177.885 197.969C179.408 197.969 180.588 198.846 180.588 200.354C180.588 201.88 179.39 202.712 177.885 202.712V202.709ZM193.666 193.702V198.845C193.264 197.449 192.205 196.493 190.225 196.493C189.707 196.463 189.189 196.541 188.703 196.723C188.217 196.906 187.775 197.187 187.404 197.551C187.034 197.914 186.744 198.35 186.552 198.832C186.361 199.314 186.272 199.831 186.292 200.349C186.279 200.865 186.372 201.378 186.566 201.856C186.76 202.333 187.051 202.766 187.42 203.126C187.79 203.486 188.229 203.766 188.712 203.948C189.195 204.13 189.71 204.21 190.225 204.184C191.001 204.218 191.765 203.987 192.391 203.527C193.017 203.068 193.467 202.409 193.666 201.659V202.122C193.676 202.756 193.721 203.389 193.802 204.017H195.59V193.705L193.666 193.702ZM190.845 202.698C189.291 202.698 188.255 201.769 188.255 200.352C188.255 198.936 189.196 197.985 190.845 197.985C192.571 197.985 193.666 198.84 193.666 200.352C193.666 201.758 192.587 202.698 190.845 202.698ZM203.933 201.571C203.693 202.259 202.82 202.73 201.598 202.73C199.935 202.73 198.955 201.854 198.814 200.639H205.828C205.951 197.843 204.47 196.497 201.594 196.497C198.745 196.497 196.874 197.946 196.874 200.358C196.874 202.799 198.823 204.19 201.644 204.19C204.144 204.19 205.536 203.091 205.788 201.573L203.933 201.571ZM201.497 197.959C202.941 197.959 203.806 198.582 203.92 199.586H198.904C199.16 198.658 200.08 197.959 201.497 197.959ZM215.664 194.448H210.188V204.017H215.664C219.779 204.017 221.273 201.739 221.273 199.202C221.273 196.666 219.974 194.448 215.664 194.448ZM215.617 202.31H212.157V196.156H215.617C218.447 196.156 219.268 197.582 219.268 199.202C219.268 200.823 218.447 202.31 215.617 202.31ZM229.21 201.57C228.971 202.257 228.1 202.729 226.876 202.729C225.212 202.729 224.233 201.852 224.092 200.638H231.106C231.229 197.842 229.748 196.496 226.871 196.496C224.023 196.496 222.152 197.944 222.152 200.357C222.152 202.798 224.101 204.188 226.922 204.188C229.421 204.188 230.814 203.09 231.066 201.571L229.21 201.57ZM226.774 197.959C228.219 197.959 229.084 198.582 229.198 199.586H224.182C224.438 198.658 225.357 197.959 226.774 197.959ZM243.843 196.496C243.131 196.478 242.431 196.673 241.83 197.055C241.23 197.437 240.757 197.989 240.472 198.641C240.135 197.17 238.923 196.496 237.391 196.496C236.652 196.462 235.921 196.666 235.307 197.077C234.692 197.489 234.226 198.087 233.976 198.783V196.667H232.052V204.017H233.976V199.653C234.231 199.153 234.625 198.736 235.11 198.452C235.596 198.168 236.152 198.029 236.714 198.052C238.072 198.052 238.645 198.625 238.645 199.87V204.017H240.569V199.525C240.569 199.475 240.569 199.426 240.569 199.377C240.857 198.956 241.245 198.613 241.699 198.381C242.153 198.148 242.658 198.033 243.168 198.045C244.527 198.045 245.099 198.619 245.099 199.863V204.017H247.023V199.525C247.023 197.441 245.658 196.492 243.849 196.492L243.843 196.496ZM255.335 196.667V198.84C255.151 198.115 254.713 197.479 254.101 197.049C253.488 196.619 252.742 196.422 251.997 196.494C251.473 196.46 250.948 196.535 250.455 196.715C249.962 196.894 249.511 197.174 249.132 197.536C248.753 197.899 248.453 198.336 248.251 198.821C248.05 199.305 247.951 199.826 247.962 200.35C247.951 200.865 248.046 201.377 248.241 201.853C248.436 202.33 248.727 202.761 249.096 203.121C249.464 203.48 249.903 203.76 250.385 203.943C250.867 204.126 251.381 204.208 251.895 204.184C252.671 204.218 253.435 203.987 254.061 203.527C254.687 203.068 255.137 202.409 255.336 201.659V202.122C255.346 202.756 255.391 203.389 255.472 204.017H257.26V196.667L255.335 196.667ZM252.515 202.698C250.961 202.698 249.925 201.769 249.925 200.352C249.925 198.936 250.866 197.997 252.515 197.997C254.241 197.997 255.336 198.841 255.336 200.352C255.336 201.758 254.258 202.698 252.515 202.698ZM263.853 196.496C263.114 196.462 262.384 196.666 261.769 197.077C261.154 197.489 260.688 198.087 260.438 198.783V196.667H258.514V204.017H260.438V199.653C260.693 199.153 261.087 198.737 261.571 198.453C262.056 198.169 262.611 198.03 263.173 198.052C264.531 198.052 265.104 198.625 265.104 199.87V204.017H267.028V199.525C267.028 197.442 265.663 196.496 263.853 196.496ZM275.345 193.705V198.848C274.943 197.452 273.885 196.496 271.904 196.496C271.386 196.466 270.868 196.544 270.382 196.726C269.896 196.909 269.454 197.19 269.083 197.553C268.713 197.917 268.423 198.353 268.231 198.835C268.04 199.317 267.951 199.834 267.971 200.352C267.958 200.868 268.052 201.38 268.246 201.858C268.44 202.335 268.731 202.767 269.1 203.127C269.47 203.487 269.909 203.766 270.392 203.948C270.874 204.13 271.389 204.21 271.904 204.184C272.68 204.218 273.444 203.987 274.07 203.527C274.696 203.068 275.146 202.409 275.345 201.659V202.122C275.355 202.756 275.401 203.389 275.481 204.017H277.269V193.705H275.345ZM272.524 202.698C270.97 202.698 269.935 201.769 269.935 200.352C269.935 198.936 270.875 197.985 272.524 197.985C274.25 197.985 275.345 198.84 275.345 200.352C275.345 201.758 274.267 202.698 272.524 202.698ZM285.927 196.667V198.84C285.743 198.115 285.304 197.479 284.692 197.049C284.08 196.619 283.333 196.422 282.588 196.494C282.065 196.46 281.54 196.535 281.046 196.715C280.553 196.894 280.103 197.174 279.724 197.536C279.344 197.899 279.044 198.336 278.843 198.821C278.641 199.305 278.543 199.826 278.553 200.35C278.542 200.865 278.638 201.376 278.833 201.852C279.028 202.329 279.319 202.76 279.688 203.119C280.056 203.478 280.495 203.758 280.977 203.941C281.458 204.124 281.972 204.206 282.486 204.182C283.262 204.216 284.026 203.984 284.652 203.525C285.278 203.066 285.728 202.407 285.927 201.656V202.12C285.937 202.755 285.982 203.388 286.063 204.017H287.851V196.667L285.927 196.667ZM283.106 202.698C281.552 202.698 280.516 201.769 280.516 200.352C280.516 198.936 281.457 197.997 283.106 197.997C284.832 197.997 285.927 198.841 285.927 200.352C285.927 201.758 284.849 202.698 283.106 202.698ZM138.497 222.315C137.246 220.754 136.59 218.799 136.647 216.799C136.59 214.799 137.245 212.843 138.497 211.281L137.522 210.606C136.148 212.374 135.426 214.561 135.478 216.799C135.426 219.036 136.148 221.223 137.522 222.99L138.497 222.315ZM140.278 211.414V221.03H141.429V211.414H140.278ZM147.067 213.485C146.451 213.514 145.865 213.754 145.407 214.166C144.949 214.578 144.649 215.136 144.556 215.744V213.633H143.401V221.03H144.556V216.638C144.655 216.096 144.936 215.603 145.353 215.242C145.77 214.881 146.298 214.673 146.85 214.653C147.899 214.653 148.435 215.232 148.435 216.365V221.03H149.589V216.074C149.624 215.731 149.583 215.385 149.469 215.06C149.356 214.734 149.172 214.438 148.932 214.191C148.691 213.944 148.4 213.753 148.077 213.631C147.755 213.509 147.41 213.459 147.066 213.485H147.067ZM154.89 213.485C154.281 213.441 153.678 213.639 153.214 214.037C152.749 214.435 152.461 215 152.411 215.609V210.668H151.257V221.03H152.307C152.307 221.03 152.409 220.04 152.409 219.567V218.76C152.677 219.985 153.36 221.178 154.89 221.178C156.666 221.178 158.072 219.578 158.072 217.346C158.072 215.132 156.74 213.485 154.89 213.485H154.89ZM154.607 220.053C153.107 220.053 152.411 218.829 152.411 217.346C152.411 215.715 153.132 214.609 154.607 214.609C156.083 214.609 156.92 215.756 156.92 217.346C156.92 218.937 155.945 220.052 154.606 220.052L154.607 220.053ZM162.314 221.178C162.803 221.172 163.285 221.066 163.732 220.868C164.179 220.669 164.58 220.382 164.913 220.024C165.245 219.666 165.501 219.243 165.664 218.783C165.828 218.323 165.897 217.834 165.866 217.346C165.896 216.857 165.827 216.367 165.663 215.906C165.499 215.444 165.244 215.02 164.912 214.66C164.58 214.299 164.179 214.01 163.733 213.808C163.286 213.606 162.804 213.496 162.314 213.485C161.822 213.494 161.337 213.602 160.888 213.802C160.438 214.003 160.034 214.292 159.7 214.653C159.365 215.013 159.106 215.438 158.94 215.901C158.773 216.364 158.702 216.855 158.73 217.346C158.701 217.836 158.772 218.327 158.939 218.788C159.105 219.25 159.364 219.673 159.699 220.031C160.034 220.389 160.439 220.676 160.889 220.873C161.338 221.07 161.823 221.174 162.314 221.178ZM162.314 220.052C161.974 220.043 161.639 219.964 161.33 219.821C161.021 219.678 160.745 219.474 160.517 219.221C160.29 218.968 160.116 218.671 160.008 218.349C159.899 218.026 159.857 217.685 159.884 217.346C159.857 217.006 159.9 216.663 160.009 216.34C160.118 216.016 160.291 215.717 160.517 215.462C160.744 215.207 161.02 214.999 161.329 214.853C161.638 214.706 161.973 214.624 162.314 214.609C162.653 214.626 162.986 214.71 163.292 214.858C163.598 215.005 163.871 215.213 164.095 215.469C164.319 215.724 164.49 216.022 164.596 216.344C164.702 216.667 164.743 217.008 164.714 217.346C164.742 217.683 164.701 218.022 164.594 218.342C164.488 218.663 164.317 218.959 164.092 219.211C163.868 219.464 163.595 219.669 163.289 219.813C162.983 219.958 162.652 220.039 162.314 220.051V220.052ZM171.934 213.632V217.962C171.852 218.513 171.582 219.017 171.17 219.391C170.757 219.764 170.228 219.982 169.672 220.009C168.752 220.009 168.057 219.595 168.057 218.267V213.633H166.903V218.563C166.866 218.909 166.905 219.26 167.019 219.589C167.133 219.919 167.318 220.219 167.562 220.468C167.805 220.718 168.1 220.911 168.426 221.034C168.753 221.156 169.102 221.205 169.45 221.178C171.203 221.178 171.747 219.533 171.934 218.569V221.03H173.088V213.633L171.934 213.632ZM178.175 213.484C177.559 213.513 176.973 213.753 176.515 214.165C176.058 214.577 175.757 215.135 175.664 215.743V213.633H174.507V221.03H175.661V216.638C175.76 216.096 176.041 215.603 176.458 215.242C176.876 214.881 177.403 214.673 177.955 214.653C179.004 214.653 179.54 215.232 179.54 216.365V221.03H180.694V216.074C180.729 215.732 180.688 215.386 180.575 215.061C180.461 214.736 180.278 214.439 180.038 214.193C179.798 213.946 179.507 213.755 179.185 213.633C178.863 213.51 178.518 213.46 178.175 213.485V213.484ZM187.39 210.668V215.608C187.341 214.999 187.053 214.434 186.588 214.036C186.124 213.638 185.521 213.44 184.911 213.484C183.062 213.484 181.73 215.131 181.73 217.345C181.73 219.577 183.136 221.177 184.911 221.177C186.441 221.177 187.125 219.985 187.39 218.76V219.567C187.39 220.04 187.493 221.03 187.493 221.03H188.545V210.668H187.39ZM185.195 220.052C183.856 220.052 182.882 218.935 182.882 217.345C182.882 215.756 183.722 214.609 185.195 214.609C186.668 214.609 187.39 215.713 187.39 217.345C187.39 218.828 186.695 220.052 185.195 220.052ZM198.081 218.655C197.951 219.074 197.686 219.437 197.328 219.689C196.97 219.941 196.538 220.068 196.101 220.05C195.46 220.04 194.848 219.784 194.39 219.336C193.933 218.888 193.664 218.282 193.64 217.642H199.209C199.365 214.957 198.136 213.484 196.024 213.484C193.998 213.484 192.487 215.135 192.487 217.345C192.46 217.837 192.533 218.33 192.702 218.792C192.871 219.255 193.132 219.679 193.47 220.037C193.808 220.396 194.215 220.682 194.667 220.878C195.119 221.074 195.606 221.176 196.099 221.178C196.832 221.207 197.549 220.967 198.116 220.501C198.683 220.036 199.058 219.379 199.172 218.655H198.081ZM195.951 214.61C196.215 214.594 196.48 214.631 196.73 214.72C196.979 214.809 197.208 214.948 197.402 215.128C197.596 215.307 197.752 215.524 197.86 215.766C197.968 216.008 198.026 216.269 198.031 216.533H193.718C193.809 216.004 194.082 215.522 194.489 215.171C194.896 214.82 195.413 214.622 195.95 214.61H195.951ZM207.396 221.178C209.986 221.178 212.079 219.237 212.079 216.222C212.079 213.207 209.983 211.266 207.396 211.266C204.809 211.266 202.712 213.207 202.712 216.222C202.712 219.237 204.81 221.178 207.396 221.178ZM207.396 220.062C205.591 220.062 203.863 218.719 203.863 216.223C203.822 215.735 203.882 215.242 204.041 214.778C204.2 214.314 204.454 213.888 204.786 213.527C205.118 213.165 205.521 212.877 205.971 212.68C206.42 212.482 206.906 212.381 207.397 212.381C207.887 212.381 208.373 212.482 208.822 212.68C209.272 212.877 209.675 213.165 210.007 213.527C210.339 213.888 210.593 214.314 210.752 214.778C210.911 215.242 210.971 215.735 210.93 216.223C210.93 218.717 209.201 220.059 207.396 220.059V220.062ZM218.345 213.633V217.963C218.264 218.513 217.994 219.018 217.581 219.391C217.169 219.765 216.64 219.983 216.084 220.01C215.163 220.01 214.469 219.596 214.469 218.268V213.633H213.314V218.563C213.277 218.909 213.317 219.26 213.431 219.589C213.545 219.919 213.73 220.219 213.973 220.468C214.216 220.718 214.512 220.911 214.838 221.034C215.164 221.156 215.514 221.205 215.861 221.178C217.614 221.178 218.159 219.533 218.345 218.569V221.03H219.497V213.633H218.345ZM224.653 213.633H223.082V211.71H221.928V213.633H220.357V214.729H221.928V221.03H223.082V214.727H224.653V213.633ZM229.389 213.485C228.779 213.441 228.176 213.639 227.712 214.037C227.248 214.435 226.959 215 226.91 215.609V210.668H225.758V221.03H226.81C226.81 221.03 226.912 220.04 226.912 219.567V218.76C227.178 219.985 227.861 221.177 229.391 221.177C231.167 221.177 232.573 219.577 232.573 217.345C232.573 215.131 231.241 213.484 229.391 213.484L229.389 213.485ZM229.105 220.053C227.605 220.053 226.91 218.829 226.91 217.346C226.91 215.715 227.63 214.609 229.105 214.609C230.581 214.609 231.419 215.756 231.419 217.346C231.419 218.937 230.449 220.052 229.108 220.052L229.105 220.053ZM236.813 221.178C237.302 221.172 237.784 221.066 238.231 220.868C238.678 220.669 239.079 220.382 239.412 220.024C239.744 219.666 240 219.243 240.164 218.783C240.327 218.323 240.396 217.834 240.365 217.346C240.404 216.854 240.34 216.359 240.179 215.893C240.017 215.426 239.76 214.998 239.425 214.636C239.09 214.273 238.683 213.984 238.231 213.786C237.778 213.588 237.29 213.486 236.796 213.486C236.302 213.486 235.814 213.588 235.361 213.786C234.909 213.984 234.502 214.273 234.167 214.636C233.832 214.998 233.575 215.426 233.413 215.893C233.252 216.359 233.188 216.854 233.227 217.346C233.198 217.836 233.269 218.327 233.436 218.789C233.602 219.25 233.861 219.673 234.197 220.032C234.532 220.39 234.937 220.677 235.387 220.874C235.837 221.071 236.322 221.174 236.813 221.178ZM236.813 220.052C236.473 220.043 236.138 219.964 235.829 219.821C235.52 219.678 235.244 219.474 235.016 219.221C234.789 218.968 234.616 218.671 234.507 218.349C234.398 218.026 234.356 217.685 234.383 217.346C234.34 217.004 234.371 216.657 234.473 216.328C234.575 215.998 234.746 215.694 234.974 215.436C235.203 215.178 235.483 214.971 235.798 214.829C236.112 214.687 236.453 214.614 236.798 214.614C237.143 214.614 237.484 214.687 237.798 214.829C238.113 214.971 238.394 215.178 238.622 215.436C238.85 215.694 239.021 215.998 239.123 216.328C239.225 216.657 239.256 217.004 239.213 217.346C239.241 217.683 239.2 218.022 239.093 218.342C238.987 218.663 238.816 218.959 238.591 219.211C238.367 219.464 238.094 219.669 237.788 219.813C237.483 219.958 237.151 220.039 236.813 220.051V220.052ZM246.433 213.633V217.963C246.351 218.513 246.081 219.018 245.669 219.391C245.256 219.765 244.727 219.983 244.171 220.01C243.251 220.01 242.556 219.596 242.556 218.268V213.633H241.401V218.563C241.364 218.91 241.404 219.26 241.518 219.59C241.632 219.92 241.817 220.22 242.061 220.47C242.304 220.719 242.6 220.912 242.927 221.035C243.253 221.157 243.603 221.206 243.951 221.178C245.704 221.178 246.248 219.533 246.435 218.569V221.03H247.589V213.633H246.433ZM252.674 213.485C252.059 213.514 251.472 213.754 251.014 214.166C250.557 214.578 250.256 215.136 250.163 215.744V213.633H249.009V221.03H250.163V216.638C250.262 216.096 250.543 215.603 250.96 215.242C251.378 214.881 251.906 214.673 252.457 214.653C253.506 214.653 254.042 215.232 254.042 216.365V221.03H255.196V216.074C255.231 215.731 255.19 215.386 255.077 215.06C254.963 214.735 254.78 214.439 254.54 214.192C254.3 213.946 254.008 213.754 253.686 213.632C253.364 213.51 253.019 213.46 252.676 213.485H252.674ZM261.892 210.668V215.608C261.842 214.999 261.554 214.434 261.09 214.036C260.625 213.638 260.023 213.44 259.413 213.484C257.563 213.484 256.231 215.131 256.231 217.345C256.231 219.577 257.637 221.177 259.413 221.177C260.942 221.177 261.626 219.985 261.892 218.76V219.567C261.892 220.04 261.994 221.03 261.994 221.03H263.046V210.668H261.892ZM259.696 220.052C258.358 220.052 257.383 218.935 257.383 217.345C257.383 215.756 258.223 214.609 259.696 214.609C261.169 214.609 261.892 215.713 261.892 217.345C261.892 218.828 261.196 220.052 259.696 220.052ZM264.53 222.315L265.506 222.99C266.88 221.223 267.602 219.036 267.55 216.799C267.602 214.561 266.88 212.374 265.506 210.606L264.53 211.281C265.782 212.843 266.438 214.799 266.38 216.799C266.437 218.799 265.781 220.754 264.53 222.315Z" fill="black"/>
<path d="M784.852 670.007H785.842L782.919 662.314H781.957L779.058 670.007H780.024L780.764 667.984H784.108L784.852 670.007ZM781.092 667.095L782.438 663.424L783.784 667.092L781.092 667.095ZM789.403 663.97C788.911 663.993 788.442 664.186 788.076 664.515C787.71 664.845 787.469 665.291 787.394 665.777V664.089H786.471V670.007H787.394V666.494C787.473 666.06 787.697 665.665 788.031 665.376C788.364 665.087 788.786 664.92 789.227 664.903C790.066 664.903 790.496 665.366 790.496 666.273V670.007H791.419V666.04C791.447 665.766 791.414 665.489 791.323 665.229C791.232 664.969 791.085 664.733 790.893 664.535C790.701 664.338 790.468 664.185 790.211 664.088C789.953 663.99 789.677 663.95 789.403 663.97ZM796.775 664.089V665.655C796.748 665.186 796.537 664.747 796.188 664.432C795.84 664.117 795.381 663.952 794.912 663.972C793.409 663.972 792.248 665.289 792.248 667.061C792.248 668.845 793.411 670.126 794.794 670.126C796.018 670.126 796.565 669.172 796.777 668.192V668.837C796.777 669.215 796.859 670.007 796.859 670.007H797.701V664.089H796.775ZM795.018 669.226C794.752 669.214 794.49 669.147 794.25 669.03C794.01 668.912 793.797 668.747 793.624 668.544C793.45 668.341 793.32 668.105 793.242 667.85C793.164 667.594 793.139 667.326 793.168 667.061C793.168 665.789 793.84 664.884 795.018 664.884C796.196 664.884 796.775 665.755 796.775 667.061C796.775 668.245 796.219 669.224 795.018 669.224V669.226ZM798.985 661.722V670.007H799.908V661.722H798.985ZM805.135 664.089L803.404 668.78L801.659 664.089H800.678L802.934 669.925L801.868 672.374H802.847L806.116 664.089H805.135ZM809.737 664.089H808.479V662.554H807.56V664.089H806.302V664.966H807.56V670.007H808.484V664.964H809.742L809.737 664.089ZM811.592 661.722H810.385V662.871H811.592V661.722ZM810.527 664.089V670.007H811.45V664.089H810.527ZM817.908 667.788H817.073C816.984 668.203 816.754 668.574 816.421 668.837C816.088 669.1 815.674 669.239 815.25 669.23C814.978 669.222 814.71 669.159 814.463 669.045C814.216 668.931 813.995 668.767 813.813 668.564C813.632 668.362 813.493 668.124 813.406 667.866C813.319 667.608 813.286 667.336 813.308 667.064C813.286 666.792 813.32 666.518 813.407 666.259C813.494 666 813.632 665.762 813.814 665.557C813.995 665.353 814.216 665.187 814.462 665.07C814.709 664.953 814.977 664.886 815.25 664.875C815.666 664.886 816.068 665.032 816.394 665.29C816.721 665.548 816.956 665.905 817.063 666.307H817.901C817.83 665.658 817.519 665.058 817.028 664.627C816.538 664.195 815.903 663.963 815.25 663.975C814.857 663.982 814.469 664.069 814.11 664.229C813.752 664.389 813.429 664.62 813.161 664.908C812.894 665.196 812.687 665.535 812.554 665.904C812.42 666.274 812.363 666.667 812.385 667.059C812.361 667.451 812.418 667.843 812.551 668.213C812.684 668.582 812.891 668.92 813.159 669.207C813.427 669.494 813.751 669.723 814.11 669.881C814.47 670.038 814.857 670.121 815.25 670.124C815.907 670.142 816.547 669.911 817.04 669.476C817.533 669.042 817.844 668.437 817.908 667.783V667.788ZM818.473 668.111C818.494 668.399 818.571 668.681 818.702 668.939C818.832 669.197 819.012 669.427 819.232 669.615C819.452 669.802 819.707 669.945 819.982 670.033C820.258 670.121 820.548 670.154 820.836 670.129C821.066 670.15 821.297 670.122 821.516 670.048C821.734 669.974 821.935 669.855 822.104 669.698C822.274 669.542 822.409 669.352 822.501 669.141C822.593 668.929 822.64 668.701 822.638 668.47C822.638 667.26 821.687 666.961 820.776 666.591C820.131 666.325 819.503 666.2 819.503 665.643C819.503 665.205 819.893 664.894 820.453 664.894C820.595 664.88 820.738 664.894 820.874 664.935C821.011 664.977 821.138 665.045 821.248 665.135C821.358 665.226 821.449 665.337 821.515 665.463C821.582 665.589 821.624 665.726 821.637 665.868H822.439C822.449 665.612 822.404 665.356 822.309 665.118C822.213 664.879 822.069 664.664 821.884 664.485C821.7 664.306 821.481 664.168 821.24 664.079C820.999 663.99 820.742 663.953 820.485 663.97C820.246 663.947 820.004 663.974 819.775 664.05C819.546 664.126 819.336 664.248 819.156 664.409C818.977 664.57 818.833 664.766 818.734 664.985C818.634 665.204 818.581 665.442 818.578 665.683C818.578 666.826 819.694 667.172 820.595 667.516C821.232 667.759 821.713 667.87 821.713 668.477C821.713 668.921 821.379 669.242 820.761 669.234C820.428 669.244 820.101 669.136 819.839 668.93C819.576 668.724 819.395 668.432 819.326 668.106L818.473 668.111ZM830.73 661.479L827.347 670.766L828.166 671.062L831.549 661.77L830.73 661.479ZM842.461 667.866C842.461 666.615 841.624 666.233 840.611 666.12C840.832 666.115 841.05 666.065 841.252 665.974C841.453 665.882 841.634 665.751 841.784 665.588C841.934 665.425 842.049 665.234 842.123 665.025C842.196 664.816 842.227 664.595 842.214 664.374C842.214 663.081 841.274 662.314 839.704 662.314H836.729V670.007H840.059V670.001C841.459 669.933 842.461 669.254 842.461 667.866ZM839.816 669.1H837.651V666.659H839.575L839.583 665.734H837.651V663.219H839.703C840.611 663.219 841.307 663.534 841.307 664.398C841.307 665.279 840.651 665.729 839.583 665.729L839.595 666.127L839.577 666.654C840.526 666.654 841.541 666.831 841.541 667.869C841.541 668.751 840.885 669.096 839.817 669.096L839.816 669.1ZM844.552 661.725H843.346V662.873H844.554L844.552 661.725ZM843.488 664.089V670.007H844.411V664.089H843.488ZM850.87 664.08L848.503 664.089C848.266 664.01 848.018 663.97 847.769 663.97C847.438 663.972 847.112 664.042 846.809 664.174C846.506 664.306 846.233 664.498 846.007 664.738C845.78 664.979 845.605 665.263 845.492 665.573C845.378 665.883 845.329 666.213 845.347 666.543C845.324 667.05 845.461 667.551 845.739 667.976C846.017 668.4 846.421 668.727 846.895 668.91C846.229 668.889 845.513 669.132 845.513 669.905C845.513 670.544 845.999 670.911 847.037 670.911H848.189C849.055 670.911 849.491 671.28 849.491 672.115V672.374H850.415V671.877C850.415 670.456 849.394 670.007 848.176 670.007H846.979C846.616 670.007 846.436 669.844 846.436 669.599C846.436 669.204 846.921 669.116 847.768 669.066C848.095 669.069 848.419 669.005 848.72 668.878C849.022 668.75 849.293 668.562 849.519 668.325C849.744 668.088 849.918 667.808 850.03 667.5C850.142 667.193 850.19 666.866 850.17 666.54C850.186 666.173 850.11 665.808 849.95 665.478C849.789 665.147 849.548 664.863 849.248 664.649C849.748 664.919 850.301 665.074 850.868 665.103L850.87 664.08ZM847.768 668.188C847.559 668.186 847.353 668.142 847.162 668.056C846.971 667.971 846.8 667.847 846.66 667.693C846.519 667.538 846.412 667.356 846.345 667.158C846.279 666.96 846.254 666.751 846.272 666.543C846.254 666.334 846.28 666.124 846.346 665.925C846.413 665.726 846.52 665.543 846.66 665.387C846.8 665.231 846.97 665.106 847.161 665.018C847.352 664.931 847.558 664.883 847.768 664.879C847.976 664.884 848.182 664.933 848.371 665.021C848.56 665.109 848.73 665.234 848.868 665.39C849.007 665.546 849.112 665.729 849.177 665.927C849.243 666.126 849.267 666.335 849.248 666.543C849.267 666.75 849.242 666.958 849.177 667.155C849.111 667.352 849.006 667.534 848.867 667.688C848.728 667.843 848.559 667.967 848.369 668.053C848.18 668.139 847.976 668.185 847.768 668.188ZM856.331 662.314H853.908V670.007H856.331C859.277 670.007 860.412 668.172 860.412 666.123C860.412 664.075 859.394 662.314 856.331 662.314ZM856.331 669.115H854.83V663.205H856.332C858.828 663.205 859.503 664.661 859.503 666.123C859.503 667.586 858.828 669.114 856.332 669.114L856.331 669.115ZM865.611 664.089V665.655C865.584 665.186 865.373 664.747 865.024 664.432C864.676 664.117 864.217 663.952 863.748 663.972C862.245 663.972 861.084 665.289 861.084 667.061C861.084 668.845 862.247 670.126 863.63 670.126C864.854 670.126 865.401 669.172 865.613 668.192V668.837C865.613 669.215 865.695 670.007 865.695 670.007H866.537V664.089H865.611ZM863.854 669.224C863.587 669.212 863.326 669.145 863.086 669.028C862.846 668.911 862.633 668.746 862.46 668.543C862.286 668.34 862.156 668.103 862.078 667.848C862 667.593 861.975 667.324 862.004 667.059C862.004 665.788 862.676 664.882 863.854 664.882C865.032 664.882 865.611 665.754 865.611 667.059C865.611 668.245 865.057 669.224 863.854 669.224ZM870.664 664.089H869.406V662.554H868.484V664.089H867.226V664.966H868.484V670.007H869.408V664.964H870.666L870.664 664.089ZM875.45 664.089V665.655C875.422 665.186 875.212 664.747 874.863 664.432C874.514 664.117 874.056 663.952 873.586 663.972C872.084 663.972 870.923 665.289 870.923 667.061C870.923 668.845 872.086 670.126 873.469 670.126C874.693 670.126 875.24 669.172 875.452 668.192V668.837C875.452 669.215 875.534 670.007 875.534 670.007H876.375V664.089H875.45ZM873.693 669.224C873.426 669.212 873.165 669.145 872.925 669.028C872.685 668.911 872.472 668.746 872.298 668.543C872.125 668.34 871.995 668.103 871.917 667.848C871.838 667.593 871.813 667.324 871.843 667.059C871.843 665.788 872.515 664.882 873.693 664.882C874.871 664.882 875.45 665.754 875.45 667.059C875.45 668.245 874.893 669.224 873.693 669.224ZM884.74 661.474L881.36 670.766L882.178 671.062L885.562 661.772L884.74 661.474ZM896.473 667.866C896.473 666.615 895.636 666.233 894.623 666.12C894.845 666.115 895.063 666.066 895.265 665.974C895.466 665.883 895.647 665.752 895.797 665.588C895.947 665.425 896.062 665.234 896.136 665.025C896.21 664.816 896.241 664.595 896.227 664.374C896.227 663.081 895.288 662.313 893.718 662.313H890.741V670.007H894.071V670.001C895.47 669.933 896.473 669.254 896.473 667.866ZM893.829 669.1H891.663V666.659H893.587L893.593 665.735H891.663V663.22H893.715C894.623 663.22 895.32 663.535 895.32 664.399C895.32 665.281 894.664 665.731 893.596 665.731L893.607 666.129L893.59 666.655C894.538 666.655 895.554 666.832 895.554 667.871C895.554 668.753 894.898 669.098 893.829 669.098L893.829 669.1ZM897.838 662.314V670.007H898.76V662.314H897.838Z" fill="black"/>
<path d="M830.975 194.448V199.788C830.975 202.024 829.507 202.495 827.584 202.495C825.603 202.495 824.158 202.024 824.158 199.788V194.448H822.188V199.996C822.188 203.176 824.581 204.212 827.584 204.212C830.478 204.212 832.945 203.176 832.945 199.996V194.448H830.975ZM839.855 196.501C837.882 196.501 836.825 197.448 836.419 198.833V198.611L836.323 196.667H834.496V206.976H836.42V201.678C836.622 202.424 837.072 203.079 837.696 203.535C838.32 203.992 839.081 204.222 839.854 204.188C840.369 204.213 840.883 204.132 841.365 203.949C841.848 203.766 842.287 203.486 842.656 203.126C843.025 202.766 843.316 202.334 843.51 201.857C843.705 201.38 843.799 200.867 843.787 200.352C843.798 199.837 843.703 199.324 843.509 198.846C843.314 198.369 843.023 197.936 842.655 197.575C842.286 197.214 841.847 196.933 841.366 196.748C840.884 196.563 840.369 196.479 839.854 196.501H839.855ZM839.231 202.698C837.558 202.698 836.494 201.835 836.415 200.518V200.187C836.502 198.781 837.697 197.986 839.231 197.986C840.878 197.986 841.821 198.936 841.821 200.353C841.821 201.77 840.799 202.698 839.231 202.698V202.698ZM844.485 201.569C844.405 202.283 845.123 204.193 848.333 204.193C850.326 204.193 851.663 203.409 851.663 202.025C851.663 200.403 850.118 200.133 848.609 199.82C847.214 199.594 846.523 199.428 846.523 198.814C846.523 198.296 847.046 197.993 848.008 197.993C849.01 197.993 849.539 198.275 849.71 199.013H851.412C851.396 197.541 850.222 196.499 848.039 196.499C846.042 196.499 844.553 197.305 844.553 198.736C844.553 200.201 846.054 200.592 847.735 200.881C849.003 201.088 849.692 201.228 849.692 201.896C849.692 202.374 849.333 202.721 848.271 202.714C847.111 202.705 846.469 202.241 846.261 201.57L844.485 201.569ZM859.389 201.569C859.15 202.256 858.279 202.728 857.055 202.728C855.391 202.728 854.411 201.852 854.271 200.637H861.283C861.406 197.841 859.925 196.495 857.049 196.495C854.201 196.495 852.329 197.943 852.329 200.356C852.329 202.797 854.278 204.187 857.099 204.187C859.599 204.187 860.991 203.089 861.243 201.57L859.389 201.569ZM856.953 197.956C858.398 197.956 859.263 198.58 859.377 199.584H854.357C854.613 198.658 855.533 197.959 856.95 197.959L856.953 197.956ZM862.423 193.706V204.017H864.347V193.709L862.423 193.706ZM865.99 193.706V204.017H867.914V193.709L865.99 193.706ZM876.674 192.875L872.172 205.238L873.715 205.799L878.216 193.44L876.674 192.875ZM893.743 200.569H891.788C891.385 201.798 890.248 202.548 888.292 202.548C885.857 202.548 884.237 201.417 884.237 199.256C884.237 197.111 885.857 195.965 888.292 195.965C890.249 195.965 891.39 196.728 891.79 197.962H893.75C893.496 195.627 891.522 194.254 888.292 194.254C884.696 194.254 882.216 195.961 882.216 199.256C882.216 202.551 884.699 204.212 888.292 204.212C891.512 204.212 893.481 202.892 893.741 200.569H893.743ZM896.859 198.872V196.667H894.935V204.017H896.859V200.002C897.11 199.47 897.51 199.021 898.011 198.711C898.511 198.401 899.091 198.242 899.68 198.255V196.496C899.016 196.532 898.381 196.783 897.872 197.212C897.363 197.641 897.007 198.223 896.859 198.872ZM904.72 204.188C907.484 204.188 909.371 202.857 909.371 200.357C909.371 197.874 907.484 196.496 904.72 196.496C901.937 196.496 900.03 197.874 900.03 200.357C900.026 202.855 901.933 204.188 904.72 204.188ZM904.72 202.709C903.177 202.709 901.977 201.877 901.977 200.354C901.977 198.831 903.192 197.973 904.72 197.973C906.247 197.973 907.424 198.849 907.424 200.357C907.42 201.88 906.22 202.712 904.72 202.712V202.709ZM910.062 201.566C909.982 202.28 910.7 204.19 913.91 204.19C915.903 204.19 917.24 203.406 917.24 202.022C917.24 200.4 915.695 200.13 914.186 199.817C912.791 199.591 912.1 199.425 912.1 198.811C912.1 198.293 912.623 197.99 913.585 197.99C914.587 197.99 915.116 198.272 915.287 199.011H916.989C916.973 197.538 915.799 196.496 913.617 196.496C911.619 196.496 910.131 197.302 910.131 198.733C910.131 200.198 911.631 200.589 913.312 200.878C914.58 201.085 915.269 201.225 915.269 201.893C915.269 202.371 914.91 202.718 913.848 202.711C912.685 202.704 912.046 202.242 911.834 201.569L910.062 201.566ZM917.965 201.566C917.885 202.28 918.603 204.19 921.813 204.19C923.806 204.19 925.143 203.406 925.143 202.022C925.143 200.4 923.598 200.13 922.089 199.817C920.694 199.591 920.003 199.425 920.003 198.811C920.003 198.293 920.526 197.99 921.488 197.99C922.49 197.99 923.019 198.272 923.19 199.011H924.892C924.876 197.538 923.702 196.496 921.52 196.496C919.522 196.496 918.033 197.302 918.033 198.733C918.033 200.198 919.534 200.589 921.215 200.878C922.483 201.085 923.172 201.225 923.172 201.893C923.172 202.371 922.813 202.718 921.751 202.711C920.591 202.702 919.949 202.238 919.741 201.567L917.965 201.566ZM929.004 200.789C928.871 202.038 930.373 204.218 933.888 204.218C936.769 204.218 938.072 203.124 938.072 201.318C938.072 199.479 936.388 198.958 934.235 198.63C932.078 198.26 931.106 198.093 931.106 197.135C931.106 196.26 932.016 195.911 933.326 195.911C934.694 195.911 935.688 196.403 935.752 197.556H937.68C937.705 195.516 936.167 194.253 933.412 194.253C930.606 194.253 929.12 195.389 929.12 197.092C929.12 198.883 930.889 199.499 933.132 199.863C935.13 200.142 936.133 200.361 936.133 201.253C936.133 202.067 935.413 202.573 933.952 202.564C932.365 202.553 931.124 201.834 931.008 200.789H929.004ZM945.815 201.571C945.576 202.258 944.705 202.73 943.481 202.73C941.817 202.73 940.837 201.854 940.697 200.639H947.713C947.836 197.843 946.355 196.497 943.478 196.497C940.63 196.497 938.759 197.945 938.759 200.358C938.759 202.799 940.708 204.19 943.529 204.19C946.028 204.19 947.421 203.091 947.673 201.573L945.815 201.571ZM943.379 197.959C944.824 197.959 945.689 198.582 945.803 199.586H940.786C941.042 198.658 941.962 197.959 943.379 197.959ZM948.849 193.709V204.017H950.773V193.709H948.849ZM952.416 193.709V204.017H954.34V193.709H952.416Z" fill="black"/>
<path d="M368.262 309.79L368.215 305.238H363.64V306.486L366.156 306.454C365.619 307.574 364.449 308.303 362.55 308.303C359.886 308.303 358.422 307.031 358.422 305.032C358.422 303.033 359.893 301.761 362.477 301.761C364.489 301.761 365.585 302.551 365.975 303.689H367.87C367.682 301.444 365.702 300.03 362.477 300.03C358.851 300.03 356.401 301.801 356.401 305.032C356.401 308.25 358.832 309.988 362.258 309.988C364.637 309.988 366.179 308.943 366.771 307.167C366.628 308.034 366.543 308.911 366.515 309.79H368.262ZM376.356 307.344C376.116 308.031 375.246 308.503 374.021 308.503C372.358 308.503 371.378 307.626 371.237 306.412H378.251C378.374 303.616 376.893 302.269 374.017 302.269C371.168 302.269 369.297 303.718 369.297 306.131C369.297 308.571 371.246 309.962 374.067 309.962C376.567 309.962 377.959 308.864 378.211 307.345L376.356 307.344ZM373.92 303.731C375.364 303.731 376.229 304.355 376.343 305.358H371.327C371.583 304.43 372.503 303.731 373.92 303.731ZM378.946 307.341C378.865 308.055 379.583 309.965 382.794 309.965C384.786 309.965 386.123 309.182 386.123 307.797C386.123 306.175 384.578 305.906 383.07 305.592C381.675 305.366 380.983 305.2 380.983 304.586C380.983 304.068 381.506 303.765 382.468 303.765C383.47 303.765 384 304.047 384.17 304.786H385.872C385.856 303.313 384.682 302.271 382.5 302.271C380.502 302.271 379.014 303.077 379.014 304.508C379.014 305.973 380.514 306.364 382.196 306.653C383.463 306.861 384.152 307 384.152 307.668C384.152 308.146 383.793 308.494 382.731 308.486C381.571 308.477 380.93 308.014 380.721 307.342L378.946 307.341ZM392.31 302.439H390.417V300.423H388.493V302.439H386.599V303.895H388.493V309.79H390.417V303.895H392.31V302.439ZM398.321 299.184H396.089V300.875H398.321V299.184ZM400.022 302.439V304.612C399.838 303.887 399.4 303.251 398.788 302.821C398.175 302.391 397.429 302.194 396.684 302.266C396.16 302.233 395.635 302.308 395.143 302.488C394.65 302.668 394.2 302.948 393.821 303.311C393.442 303.674 393.143 304.111 392.942 304.595C392.741 305.08 392.642 305.6 392.653 306.125C392.642 306.639 392.737 307.15 392.933 307.626C393.128 308.102 393.418 308.533 393.787 308.893C394.155 309.252 394.594 309.532 395.075 309.715C395.556 309.897 396.07 309.98 396.584 309.956C397.359 309.991 398.124 309.759 398.749 309.3C399.375 308.84 399.825 308.181 400.025 307.431V307.895C400.035 308.528 400.08 309.161 400.161 309.79H401.949V302.44L400.022 302.439ZM397.204 308.47C395.65 308.47 394.614 307.541 394.614 306.125C394.614 304.708 395.554 303.769 397.204 303.769C398.93 303.769 400.025 304.613 400.025 306.125C400.025 307.53 398.943 308.47 397.204 308.47ZM407.582 309.961C410.346 309.961 412.233 308.629 412.233 306.129C412.233 303.647 410.346 302.268 407.582 302.268C404.799 302.268 402.892 303.647 402.892 306.129C402.892 308.627 404.799 309.961 407.582 309.961ZM407.582 308.481C406.039 308.481 404.84 307.649 404.84 306.126C404.84 304.603 406.059 303.741 407.582 303.741C409.106 303.741 410.286 304.618 410.286 306.126C410.286 307.652 409.086 308.484 407.582 308.484V308.481ZM423.362 299.477V304.62C422.96 303.224 421.902 302.268 419.921 302.268C419.403 302.238 418.885 302.316 418.399 302.499C417.913 302.681 417.471 302.962 417.1 303.326C416.73 303.689 416.44 304.126 416.248 304.608C416.057 305.09 415.968 305.606 415.988 306.125C415.975 306.64 416.069 307.153 416.263 307.63C416.457 308.108 416.748 308.54 417.118 308.9C417.487 309.26 417.927 309.539 418.41 309.721C418.893 309.903 419.408 309.983 419.923 309.956C420.698 309.99 421.462 309.758 422.088 309.299C422.713 308.84 423.163 308.181 423.362 307.431V307.895C423.373 308.528 423.419 309.161 423.5 309.79H425.286V299.477H423.362ZM420.543 308.47C418.989 308.47 417.953 307.541 417.953 306.125C417.953 304.708 418.893 303.758 420.543 303.758C422.269 303.758 423.362 304.612 423.362 306.125C423.362 307.53 422.283 308.47 420.541 308.47H420.543ZM433.63 307.344C433.39 308.031 432.52 308.503 431.296 308.503C429.632 308.503 428.652 307.626 428.512 306.412H435.525C435.649 303.616 434.167 302.269 431.291 302.269C428.443 302.269 426.572 303.718 426.572 306.131C426.572 308.571 428.521 309.962 431.341 309.962C433.841 309.962 435.234 308.864 435.485 307.345L433.63 307.344ZM431.194 303.731C432.639 303.731 433.504 304.355 433.618 305.358H428.601C428.857 304.43 429.777 303.731 431.194 303.731ZM447.782 300.221L444.501 308.072L441.222 300.221H439.042L443.268 309.79H445.732L449.92 300.221H447.782ZM456.394 307.344C456.154 308.031 455.284 308.503 454.06 308.503C452.396 308.503 451.416 307.626 451.276 306.412H458.289C458.413 303.616 456.931 302.269 454.055 302.269C451.207 302.269 449.336 303.718 449.336 306.131C449.336 308.571 451.285 309.962 454.105 309.962C456.605 309.962 457.998 308.864 458.249 307.345L456.394 307.344ZM453.956 303.731C455.4 303.731 456.265 304.355 456.379 305.358H451.363C451.619 304.43 452.539 303.731 453.956 303.731ZM464.574 302.268C463.835 302.234 463.104 302.438 462.49 302.849C461.875 303.261 461.409 303.859 461.159 304.555V302.44H459.235V309.79H461.159V305.426C461.414 304.925 461.808 304.508 462.293 304.224C462.779 303.94 463.335 303.802 463.897 303.824C465.255 303.824 465.828 304.397 465.828 305.642V309.79H467.752V305.297C467.748 303.214 466.383 302.268 464.573 302.268H464.574ZM476.066 299.477V304.62C475.663 303.224 474.605 302.268 472.625 302.268C472.107 302.238 471.588 302.316 471.103 302.499C470.617 302.681 470.174 302.962 469.804 303.326C469.434 303.689 469.143 304.126 468.952 304.608C468.76 305.09 468.672 305.606 468.692 306.125C468.679 306.64 468.772 307.152 468.966 307.63C469.161 308.107 469.452 308.539 469.821 308.899C470.19 309.259 470.63 309.538 471.112 309.72C471.594 309.902 472.109 309.982 472.624 309.956C473.4 309.991 474.164 309.759 474.79 309.3C475.416 308.84 475.866 308.181 476.065 307.431V307.895C476.075 308.528 476.12 309.161 476.201 309.79H477.989V299.477H476.066ZM473.244 308.47C471.69 308.47 470.654 307.541 470.654 306.125C470.654 304.708 471.595 303.758 473.244 303.758C474.97 303.758 476.065 304.612 476.065 306.125C476.065 307.53 474.987 308.47 473.244 308.47ZM486.647 302.44V304.612C486.462 303.887 486.024 303.251 485.412 302.821C484.8 302.391 484.053 302.194 483.308 302.266C482.784 302.232 482.259 302.307 481.766 302.487C481.273 302.666 480.823 302.946 480.443 303.309C480.064 303.671 479.764 304.108 479.563 304.593C479.361 305.077 479.263 305.598 479.273 306.122C479.262 306.637 479.357 307.149 479.552 307.625C479.747 308.102 480.038 308.533 480.407 308.893C480.776 309.252 481.214 309.532 481.696 309.715C482.177 309.898 482.691 309.98 483.206 309.956C483.982 309.991 484.746 309.759 485.372 309.3C485.997 308.84 486.447 308.181 486.647 307.431V307.895C486.657 308.528 486.702 309.161 486.783 309.79H488.571V302.44H486.647ZM483.826 308.47C482.272 308.47 481.236 307.541 481.236 306.125C481.236 304.708 482.177 303.769 483.826 303.769C485.552 303.769 486.647 304.613 486.647 306.125C486.647 307.53 485.569 308.47 483.826 308.47ZM489.572 307.341C489.491 308.055 490.21 309.965 493.42 309.965C495.413 309.965 496.75 309.182 496.75 307.797C496.75 306.175 495.205 305.906 493.696 305.592C492.301 305.366 491.609 305.2 491.609 304.586C491.609 304.068 492.132 303.765 493.094 303.765C494.096 303.765 494.626 304.047 494.796 304.786H496.498C496.483 303.313 495.308 302.271 493.126 302.271C491.128 302.271 489.64 303.077 489.64 304.508C489.64 305.973 491.141 306.364 492.822 306.653C494.09 306.861 494.779 307 494.779 307.668C494.779 308.146 494.42 308.494 493.358 308.486C492.197 308.477 491.556 308.014 491.347 307.342L489.572 307.341Z" fill="black"/>
<path d="M143.817 680.362H145.963L141.429 670.793H139.283L134.79 680.362H136.916L137.905 678.184H142.824L143.817 680.362ZM138.572 676.717L140.361 672.777L142.156 676.717H138.572ZM151.962 672.841C151.222 672.806 150.492 673.01 149.877 673.422C149.263 673.834 148.796 674.431 148.547 675.128V673.012H146.623V680.362H148.547V675.998C148.802 675.498 149.195 675.081 149.679 674.798C150.164 674.514 150.72 674.375 151.281 674.397C152.639 674.397 153.212 674.97 153.212 676.215V680.362H155.136V675.869C155.135 673.787 153.771 672.841 151.961 672.841H151.962ZM161.749 669.756H159.517V671.447H161.749V669.756ZM163.45 673.011V675.185C163.266 674.459 162.828 673.824 162.216 673.394C161.603 672.963 160.857 672.766 160.112 672.838C159.588 672.805 159.063 672.881 158.571 673.061C158.078 673.241 157.628 673.521 157.249 673.884C156.87 674.246 156.571 674.684 156.37 675.168C156.169 675.652 156.07 676.173 156.081 676.697C156.07 677.212 156.165 677.723 156.361 678.199C156.556 678.675 156.846 679.106 157.215 679.465C157.583 679.824 158.022 680.104 158.503 680.287C158.984 680.47 159.498 680.552 160.012 680.529C160.787 680.563 161.552 680.331 162.177 679.872C162.803 679.413 163.253 678.753 163.453 678.003V678.467C163.463 679.101 163.508 679.734 163.589 680.362H165.377V673.012L163.45 673.011ZM160.632 679.043C159.078 679.043 158.042 678.114 158.042 676.697C158.042 675.281 158.982 674.341 160.632 674.341C162.358 674.341 163.453 675.185 163.453 676.697C163.453 678.102 162.371 679.043 160.632 679.043ZM166.823 670.053V680.362H168.747V670.053L166.823 670.053ZM172.446 669.783H170.215V671.474H172.446V669.783ZM170.369 673.011V680.362H172.293V673.012L170.369 673.011ZM173.471 677.914C173.39 678.628 174.108 680.537 177.318 680.537C179.311 680.537 180.648 679.754 180.648 678.37C180.648 676.747 179.103 676.478 177.594 676.165C176.2 675.939 175.508 675.773 175.508 675.159C175.508 674.641 176.031 674.338 176.993 674.338C177.995 674.338 178.525 674.619 178.695 675.358H180.397C180.381 673.886 179.207 672.843 177.025 672.843C175.027 672.843 173.539 673.65 173.539 675.081C173.539 676.545 175.039 676.937 176.721 677.226C177.988 677.433 178.677 677.573 178.677 678.241C178.677 678.719 178.318 679.066 177.256 679.059C176.096 679.05 175.454 678.586 175.246 677.915L173.471 677.914ZM188.375 677.914C188.135 678.601 187.265 679.073 186.04 679.073C184.376 679.073 183.397 678.196 183.256 676.982H190.268C190.392 674.186 188.91 672.84 186.034 672.84C183.186 672.84 181.314 674.288 181.314 676.701C181.314 679.142 183.263 680.532 186.084 680.532C188.584 680.532 189.977 679.434 190.228 677.915L188.375 677.914ZM185.938 674.301C187.383 674.301 188.248 674.925 188.362 675.929H183.342C183.598 675.003 184.518 674.304 185.935 674.304L185.938 674.301ZM201.404 670.048V675.19C201.002 673.795 199.943 672.838 197.963 672.838C197.445 672.808 196.927 672.887 196.441 673.069C195.955 673.251 195.513 673.533 195.142 673.896C194.772 674.259 194.482 674.696 194.29 675.178C194.099 675.66 194.01 676.177 194.03 676.695C194.017 677.21 194.11 677.722 194.304 678.2C194.497 678.677 194.788 679.109 195.157 679.469C195.525 679.829 195.965 680.109 196.447 680.291C196.929 680.474 197.443 680.554 197.958 680.529C198.734 680.563 199.498 680.331 200.124 679.872C200.75 679.413 201.2 678.753 201.399 678.003V678.467C201.409 679.101 201.454 679.734 201.535 680.362H203.323V670.05L201.404 670.048ZM198.578 679.043C197.024 679.043 195.988 678.114 195.988 676.697C195.988 675.281 196.929 674.33 198.578 674.33C200.304 674.33 201.399 675.185 201.399 676.697C201.399 678.102 200.32 679.043 198.578 679.043ZM211.665 677.916C211.426 678.603 210.555 679.075 209.331 679.075C207.667 679.075 206.688 678.199 206.548 676.984H213.561C213.685 674.188 212.203 672.842 209.327 672.842C206.479 672.842 204.607 674.29 204.607 676.703C204.607 679.144 206.557 680.535 209.377 680.535C211.877 680.535 213.27 679.436 213.521 677.918L211.665 677.916ZM209.229 674.304C210.674 674.304 211.539 674.927 211.653 675.931H206.636C206.893 675.003 207.812 674.304 209.229 674.304ZM223.396 670.793H217.92V680.362H223.396C227.512 680.362 229.007 678.083 229.007 675.547C229.007 673.011 227.707 670.793 223.396 670.793ZM223.35 678.654H219.89V672.5H223.35C226.18 672.5 227.001 673.926 227.001 675.547C227.001 677.168 226.18 678.654 223.35 678.654ZM237.257 673.012V675.185C237.072 674.459 236.634 673.824 236.022 673.394C235.41 672.963 234.663 672.766 233.918 672.838C233.394 672.805 232.869 672.88 232.376 673.059C231.883 673.239 231.433 673.519 231.054 673.881C230.674 674.244 230.374 674.681 230.173 675.165C229.971 675.65 229.873 676.17 229.883 676.695C229.872 677.21 229.967 677.722 230.162 678.198C230.357 678.675 230.648 679.106 231.017 679.466C231.386 679.825 231.825 680.105 232.307 680.288C232.789 680.471 233.303 680.553 233.817 680.529C234.593 680.563 235.357 680.331 235.982 679.872C236.608 679.412 237.058 678.753 237.257 678.003V678.467C237.267 679.101 237.313 679.734 237.395 680.362H239.181V673.012H237.257ZM234.438 679.043C232.884 679.043 231.848 678.114 231.848 676.697C231.848 675.281 232.788 674.341 234.438 674.341C236.163 674.341 237.257 675.185 237.257 676.697C237.257 678.102 236.18 679.043 234.438 679.043ZM247.5 670.05V675.193C247.097 673.797 246.039 672.841 244.059 672.841C243.541 672.81 243.022 672.889 242.536 673.071C242.051 673.253 241.608 673.535 241.238 673.898C240.867 674.261 240.577 674.698 240.386 675.18C240.194 675.662 240.106 676.179 240.126 676.697C240.113 677.212 240.206 677.725 240.4 678.202C240.595 678.68 240.886 679.112 241.255 679.472C241.624 679.832 242.064 680.111 242.546 680.293C243.029 680.475 243.544 680.555 244.059 680.529C244.834 680.563 245.599 680.331 246.224 679.872C246.85 679.413 247.3 678.753 247.5 678.003V678.467C247.51 679.101 247.555 679.734 247.636 680.362H249.424V670.05H247.5ZM244.679 679.043C243.125 679.043 242.089 678.114 242.089 676.697C242.089 675.281 243.029 674.33 244.679 674.33C246.405 674.33 247.5 675.185 247.5 676.697C247.5 678.102 246.422 679.043 244.679 679.043ZM255.398 680.533C258.161 680.533 260.048 679.202 260.048 676.702C260.048 674.219 258.161 672.841 255.398 672.841C252.614 672.841 250.708 674.219 250.708 676.702C250.708 679.199 252.614 680.533 255.398 680.533ZM255.398 679.054C253.855 679.054 252.655 678.222 252.655 676.699C252.655 675.176 253.874 674.314 255.398 674.314C256.921 674.314 258.101 675.19 258.101 676.699C258.101 678.225 256.901 679.057 255.398 679.057V679.054ZM260.74 677.911C260.66 678.625 261.378 680.535 264.588 680.535C266.581 680.535 267.918 679.751 267.918 678.367C267.918 676.744 266.373 676.475 264.864 676.162C263.469 675.936 262.777 675.77 262.777 675.156C262.777 674.638 263.301 674.335 264.262 674.335C265.264 674.335 265.794 674.616 265.964 675.355H267.666C267.651 673.883 266.477 672.841 264.294 672.841C262.296 672.841 260.808 673.647 260.808 675.078C260.808 676.543 262.309 676.934 263.99 677.223C265.258 677.43 265.947 677.57 265.947 678.238C265.947 678.716 265.588 679.063 264.526 679.056C263.366 679.047 262.724 678.583 262.515 677.912L260.74 677.911Z" fill="black"/>
<path d="M160.392 760.293V769.862H162.363V760.293H160.392ZM169.52 762.341C168.781 762.307 168.051 762.511 167.436 762.922C166.822 763.334 166.355 763.932 166.105 764.628V762.512H164.182V769.862H166.105V765.498C166.361 764.997 166.755 764.58 167.24 764.296C167.725 764.012 168.282 763.874 168.843 763.896C170.202 763.896 170.775 764.47 170.775 765.714V769.862H172.699V765.369C172.695 763.286 171.33 762.34 169.52 762.34V762.341ZM179.158 762.512H177.264V760.496H175.34V762.512H173.447V763.968H175.34V769.862H177.264V763.967H179.158V762.512ZM186.558 767.416C186.318 768.103 185.448 768.575 184.223 768.575C182.56 768.575 181.58 767.698 181.439 766.484H188.453C188.576 763.688 187.095 762.342 184.219 762.342C181.371 762.342 179.499 763.79 179.499 766.203C179.499 768.643 181.448 770.034 184.269 770.034C186.769 770.034 188.161 768.936 188.413 767.417L186.558 767.416ZM184.122 763.803C185.566 763.803 186.431 764.427 186.545 765.43H181.529C181.785 764.502 182.705 763.803 184.122 763.803ZM194.116 762.441C193.785 762.374 193.449 762.34 193.111 762.34C190.641 762.34 189.089 763.608 189.089 765.581C189.075 766.291 189.319 766.983 189.774 767.529C190.229 768.075 190.865 768.439 191.567 768.555C190.282 768.565 189.325 768.909 189.325 769.924C189.325 770.723 189.87 771.325 191.655 771.325H193.957C194.959 771.325 195.585 771.633 195.585 772.542V772.89H197.509V772.199C197.51 770.424 196.348 769.862 194.374 769.862H191.957C191.505 769.862 191.271 769.687 191.271 769.386C191.271 768.894 191.863 768.777 193.113 768.734C195.566 768.734 197.104 767.612 197.104 765.673C197.104 764.495 196.148 763.717 195.13 763.217C196.069 763.646 197.086 763.878 198.119 763.901V762.429L194.116 762.441ZM194.453 762.924V762.903C194.521 762.938 194.601 762.977 194.681 763.015C194.607 762.984 194.529 762.953 194.453 762.925L194.453 762.924ZM193.11 767.351C191.81 767.351 190.955 766.71 190.955 765.596C190.955 764.482 191.825 763.828 193.11 763.828C194.396 763.828 195.233 764.493 195.233 765.596C195.233 766.71 194.379 767.351 193.11 767.351ZM200.806 764.717V762.512H198.882V769.862H200.806V765.847C201.057 765.313 201.458 764.864 201.96 764.554C202.461 764.244 203.042 764.086 203.632 764.099V762.34C202.967 762.376 202.332 762.627 201.823 763.056C201.314 763.485 200.959 764.068 200.811 764.717H200.806ZM211.352 762.512V764.684C211.167 763.959 210.728 763.324 210.116 762.895C209.504 762.465 208.758 762.268 208.013 762.34C207.489 762.306 206.964 762.381 206.471 762.561C205.978 762.741 205.528 763.02 205.148 763.383C204.769 763.745 204.469 764.183 204.268 764.667C204.066 765.151 203.967 765.672 203.978 766.197C203.967 766.711 204.062 767.223 204.257 767.699C204.453 768.175 204.744 768.606 205.112 768.966C205.481 769.325 205.92 769.605 206.401 769.787C206.883 769.97 207.396 770.052 207.911 770.028C208.686 770.063 209.451 769.831 210.076 769.372C210.702 768.912 211.152 768.253 211.352 767.503V767.967C211.361 768.6 211.407 769.233 211.488 769.862H213.276V762.512H211.352ZM208.531 768.542C206.977 768.542 205.941 767.613 205.941 766.197C205.941 764.78 206.884 763.841 208.531 763.841C210.256 763.841 211.352 764.685 211.352 766.197C211.352 767.602 210.273 768.542 208.531 768.542ZM223.298 766.961H221.544C221.343 767.469 220.981 767.898 220.513 768.18C220.045 768.462 219.497 768.583 218.954 768.524C217.434 768.524 216.165 767.747 216.165 766.201C216.165 764.655 217.453 763.849 218.954 763.849C219.492 763.806 220.03 763.932 220.491 764.211C220.953 764.49 221.316 764.906 221.528 765.402H223.286C223.114 763.495 221.54 762.344 218.956 762.344C216.21 762.344 214.22 763.7 214.22 766.205C214.22 768.71 216.21 770.036 218.956 770.036C221.546 770.036 223.147 768.9 223.299 766.965L223.298 766.961ZM220.052 771.272H217.82V772.962H220.052V771.272ZM229.597 759.256H227.365V760.946H229.597L229.597 759.256ZM231.299 762.51V764.684C231.115 763.959 230.677 763.324 230.064 762.893C229.452 762.463 228.706 762.266 227.96 762.338C227.437 762.304 226.912 762.379 226.419 762.559C225.926 762.738 225.475 763.018 225.096 763.381C224.717 763.743 224.417 764.18 224.215 764.665C224.014 765.149 223.915 765.67 223.925 766.194C223.914 766.709 224.009 767.221 224.204 767.698C224.4 768.174 224.691 768.606 225.059 768.965C225.428 769.325 225.867 769.604 226.349 769.787C226.83 769.97 227.344 770.052 227.859 770.028C228.635 770.063 229.399 769.831 230.025 769.372C230.651 768.912 231.101 768.253 231.3 767.503V767.967C231.31 768.6 231.356 769.233 231.438 769.862H233.225V762.512L231.299 762.51ZM228.481 768.542C226.927 768.542 225.891 767.613 225.891 766.197C225.891 764.78 226.831 763.841 228.481 763.841C230.206 763.841 231.301 764.685 231.301 766.197C231.301 767.602 230.223 768.542 228.481 768.542ZM238.859 770.033C241.623 770.033 243.51 768.701 243.51 766.201C243.51 763.719 241.623 762.34 238.859 762.34C236.076 762.34 234.169 763.719 234.169 766.201C234.169 768.699 236.073 770.033 238.859 770.033ZM238.859 768.553C237.316 768.553 236.117 767.721 236.117 766.198C236.117 764.675 237.335 763.813 238.859 763.813C240.383 763.813 241.563 764.69 241.563 766.198C241.563 767.724 240.365 768.556 238.859 768.556V768.553Z" fill="black"/>
<path d="M586.687 305.623C588.058 305.396 589.101 304.736 589.101 303.119C589.101 301.105 587.639 300.22 585.429 300.22H578.934V309.79H580.904V306.262H584.523C586.077 306.262 586.921 306.558 586.924 307.648L586.931 309.793H588.894V307.509C588.894 306.155 588.179 305.743 586.687 305.623ZM580.904 304.707V301.928H585.429C586.436 301.928 587.139 302.36 587.131 303.234C587.128 303.446 587.08 303.656 586.99 303.849C586.901 304.041 586.771 304.213 586.61 304.352C586.45 304.491 586.261 304.594 586.058 304.656C585.854 304.717 585.64 304.734 585.429 304.707L580.904 304.707ZM597.129 307.344C596.889 308.031 596.019 308.503 594.794 308.503C593.131 308.503 592.151 307.626 592.011 306.412H599.024C599.148 303.616 597.666 302.269 594.79 302.269C591.942 302.269 590.07 303.718 590.07 306.131C590.07 308.571 592.019 309.962 594.84 309.962C597.34 309.962 598.733 308.864 598.984 307.345L597.129 307.344ZM594.693 303.731C596.137 303.731 597.002 304.355 597.116 305.358H592.101C592.356 304.43 593.276 303.731 594.693 303.731ZM605.076 302.44H603.183V300.424H601.259V302.44H599.365V303.896H601.259V309.79H603.183V303.895H605.076V302.44ZM612.476 307.344C612.236 308.031 611.366 308.503 610.142 308.503C608.478 308.503 607.498 307.626 607.358 306.412H614.371C614.495 303.616 613.013 302.269 610.137 302.269C607.289 302.269 605.418 303.718 605.418 306.131C605.418 308.571 607.367 309.962 610.187 309.962C612.687 309.962 614.08 308.864 614.331 307.345L612.476 307.344ZM610.04 303.731C611.485 303.731 612.35 304.355 612.464 305.358H607.447C607.703 304.43 608.623 303.731 610.04 303.731ZM620.658 302.268C619.919 302.234 619.189 302.438 618.574 302.849C617.959 303.261 617.493 303.859 617.243 304.555V302.44H615.319V309.79H617.243V305.426C617.498 304.925 617.89 304.508 618.374 304.224C618.859 303.94 619.414 303.8 619.975 303.821C621.334 303.821 621.907 304.395 621.907 305.639V309.79H623.83V305.297C623.832 303.214 622.467 302.268 620.657 302.268H620.658ZM633.855 306.889H632.101C631.9 307.397 631.538 307.825 631.07 308.108C630.602 308.39 630.055 308.511 629.511 308.452C627.991 308.452 626.722 307.675 626.722 306.129C626.722 304.583 628.011 303.777 629.511 303.777C630.049 303.734 630.587 303.86 631.049 304.139C631.51 304.418 631.873 304.834 632.085 305.33H633.842C633.671 303.423 632.096 302.272 629.512 302.272C626.766 302.272 624.776 303.628 624.776 306.133C624.776 308.638 626.766 309.964 629.512 309.964C632.102 309.964 633.703 308.828 633.855 306.893V306.889ZM630.609 311.199H628.377V312.89H630.609V311.199ZM640.154 299.184H637.923V300.874H640.154V299.184ZM641.856 302.438V304.612C641.672 303.887 641.234 303.251 640.621 302.821C640.009 302.391 639.263 302.194 638.518 302.266C637.994 302.232 637.469 302.307 636.976 302.487C636.483 302.666 636.032 302.946 635.653 303.309C635.274 303.671 634.974 304.108 634.772 304.593C634.571 305.077 634.472 305.598 634.482 306.122C634.471 306.637 634.566 307.149 634.762 307.626C634.957 308.102 635.248 308.534 635.617 308.893C635.986 309.253 636.425 309.533 636.906 309.716C637.388 309.898 637.902 309.98 638.417 309.956C639.193 309.991 639.957 309.759 640.583 309.3C641.208 308.84 641.658 308.181 641.858 307.431V307.895C641.868 308.528 641.913 309.161 641.994 309.79H643.782V302.44L641.856 302.438ZM639.037 308.47C637.483 308.47 636.447 307.541 636.447 306.125C636.447 304.708 637.388 303.769 639.037 303.769C640.763 303.769 641.858 304.613 641.858 306.125C641.858 307.53 640.78 308.47 639.037 308.47ZM649.415 309.961C652.179 309.961 654.066 308.629 654.066 306.129C654.066 303.647 652.179 302.268 649.415 302.268C646.632 302.268 644.725 303.647 644.725 306.129C644.725 308.627 646.632 309.961 649.415 309.961ZM649.415 308.481C647.872 308.481 646.673 307.649 646.673 306.126C646.673 304.603 647.892 303.741 649.415 303.741C650.939 303.741 652.119 304.618 652.119 306.126C652.119 307.652 650.919 308.484 649.415 308.484V308.481ZM664.881 307.341C664.641 308.028 663.771 308.5 662.546 308.5C660.883 308.5 659.903 307.623 659.762 306.409H666.776C666.9 303.613 665.418 302.267 662.542 302.267C659.694 302.267 657.822 303.715 657.822 306.128C657.822 308.568 659.771 309.959 662.592 309.959C665.092 309.959 666.484 308.861 666.736 307.342L664.881 307.341ZM662.446 303.731C663.89 303.731 664.755 304.355 664.869 305.358H659.853C660.109 304.43 661.029 303.731 662.446 303.731ZM680.478 301.882V300.221H671.135V309.79H673.106V305.99H679.137V304.42H673.106V301.882H680.478ZM683.614 299.212H681.385V300.903H683.614V299.212ZM681.542 302.44V309.79H683.466V302.44H681.542ZM691.958 299.481V304.624C691.555 303.228 690.497 302.272 688.517 302.272C687.999 302.242 687.48 302.32 686.994 302.502C686.508 302.684 686.066 302.966 685.696 303.329C685.325 303.693 685.035 304.129 684.844 304.611C684.652 305.093 684.563 305.61 684.584 306.128C684.571 306.643 684.665 307.155 684.859 307.632C685.053 308.108 685.344 308.54 685.713 308.899C686.082 309.259 686.521 309.538 687.003 309.72C687.485 309.902 687.999 309.982 688.514 309.956C689.289 309.991 690.053 309.759 690.679 309.3C691.305 308.84 691.755 308.181 691.955 307.431V307.895C691.964 308.528 692.01 309.161 692.091 309.79H693.879V299.477L691.958 299.481ZM689.134 308.47C687.58 308.47 686.544 307.541 686.544 306.125C686.544 304.708 687.484 303.758 689.134 303.758C690.859 303.758 691.955 304.612 691.955 306.125C691.955 307.53 690.876 308.47 689.134 308.47ZM702.221 307.344C701.981 308.031 701.111 308.503 699.886 308.503C698.223 308.503 697.243 307.626 697.103 306.412H704.116C704.24 303.616 702.758 302.269 699.882 302.269C697.034 302.269 695.162 303.718 695.162 306.131C695.162 308.571 697.112 309.962 699.932 309.962C702.432 309.962 703.825 308.864 704.076 307.345L702.221 307.344ZM699.785 303.731C701.23 303.731 702.095 304.355 702.209 305.358H697.192C697.451 304.43 698.368 303.731 699.785 303.731ZM705.255 299.481V309.79H707.179V299.481H705.255ZM710.879 299.212H708.646V300.903H710.878L710.879 299.212ZM708.8 302.44V309.79H710.724V302.44H708.8ZM714.323 308.333L719.618 303.895V302.44H712.141V303.896H717.446L712.141 308.334V309.79H719.677V308.333H714.323ZM727.873 302.44V304.612C727.688 303.887 727.25 303.252 726.638 302.822C726.025 302.393 725.279 302.196 724.534 302.268C724.011 302.234 723.486 302.309 722.993 302.489C722.5 302.668 722.049 302.948 721.67 303.311C721.291 303.673 720.991 304.111 720.789 304.595C720.588 305.079 720.489 305.6 720.499 306.125C720.489 306.639 720.584 307.151 720.779 307.627C720.974 308.103 721.265 308.534 721.634 308.894C722.003 309.253 722.441 309.532 722.923 309.715C723.404 309.898 723.918 309.98 724.432 309.956C725.208 309.991 725.972 309.759 726.598 309.3C727.224 308.84 727.674 308.181 727.873 307.431V307.895C727.884 308.528 727.931 309.161 728.012 309.79H729.8V302.44H727.873ZM725.052 308.47C723.499 308.47 722.463 307.541 722.463 306.125C722.463 304.708 723.406 303.769 725.052 303.769C726.778 303.769 727.873 304.613 727.873 306.125C727.873 307.53 726.795 308.47 725.052 308.47ZM739.82 306.889H738.066C737.865 307.397 737.503 307.825 737.035 308.108C736.567 308.39 736.019 308.511 735.476 308.452C733.956 308.452 732.687 307.675 732.687 306.129C732.687 304.583 733.975 303.777 735.476 303.777C736.014 303.734 736.551 303.86 737.013 304.139C737.475 304.418 737.838 304.834 738.049 305.33H739.808C739.636 303.423 738.061 302.272 735.477 302.272C732.731 302.272 730.741 303.628 730.741 306.133C730.741 308.638 732.731 309.964 735.477 309.964C738.067 309.964 739.669 308.828 739.82 306.893L739.82 306.889ZM736.573 311.199H734.341V312.89H736.573V311.199ZM746.119 299.184H743.887V300.874H746.119V299.184ZM747.821 302.438V304.612C747.637 303.887 747.198 303.251 746.586 302.821C745.974 302.391 745.227 302.194 744.482 302.266C743.958 302.232 743.433 302.307 742.94 302.487C742.447 302.666 741.997 302.946 741.618 303.309C741.238 303.671 740.938 304.108 740.737 304.593C740.535 305.077 740.437 305.598 740.447 306.122C740.436 306.637 740.532 307.148 740.727 307.625C740.922 308.101 741.213 308.532 741.582 308.891C741.95 309.251 742.389 309.53 742.87 309.713C743.352 309.896 743.866 309.978 744.38 309.954C745.156 309.988 745.92 309.757 746.546 309.297C747.172 308.838 747.622 308.179 747.821 307.429V307.892C747.831 308.527 747.878 309.16 747.959 309.79H749.747V302.44L747.821 302.438ZM745.002 308.47C743.448 308.47 742.412 307.541 742.412 306.125C742.412 304.708 743.353 303.769 745.002 303.769C746.728 303.769 747.823 304.613 747.823 306.125C747.823 307.53 746.745 308.47 745.002 308.47ZM755.381 309.961C758.144 309.961 760.031 308.629 760.031 306.129C760.031 303.647 758.144 302.268 755.381 302.268C752.598 302.268 750.691 303.647 750.691 306.129C750.691 308.627 752.598 309.961 755.381 309.961ZM755.381 308.481C753.838 308.481 752.638 307.649 752.638 306.126C752.638 304.603 753.857 303.741 755.381 303.741C756.904 303.741 758.084 304.618 758.084 306.126C758.084 307.652 756.884 308.484 755.381 308.484V308.481Z" fill="black"/>
<path d="M203.222 158.857C203.299 158.78 203.36 158.69 203.402 158.59C203.443 158.489 203.465 158.382 203.465 158.274C203.465 158.165 203.443 158.058 203.402 157.958C203.36 157.858 203.299 157.767 203.222 157.691L200.961 155.439C200.807 155.286 200.598 155.199 200.38 155.199C200.162 155.199 199.954 155.286 199.799 155.439L197.679 157.549L201.102 160.969L203.222 158.857Z" fill="#F41F45"/>
<path d="M215.559 170.315C215.559 170.207 215.538 170.1 215.496 170C215.455 169.9 215.394 169.809 215.317 169.732L213.056 167.481C212.902 167.327 212.693 167.241 212.475 167.241C212.257 167.241 212.049 167.327 211.894 167.481L209.753 169.612L213.175 173.031L215.317 170.899C215.394 170.822 215.455 170.731 215.497 170.631C215.538 170.531 215.559 170.424 215.559 170.315Z" fill="#F41F45"/>
<path d="M202.766 176.567C202.203 177.151 201.53 177.616 200.785 177.937C200.04 178.258 199.238 178.427 198.427 178.435C197.616 178.443 196.812 178.29 196.06 177.985C195.309 177.679 194.626 177.228 194.051 176.656C193.476 176.084 193.021 175.403 192.711 174.654C192.402 173.905 192.245 173.101 192.249 172.29C192.253 171.48 192.418 170.678 192.735 169.932C193.052 169.185 193.515 168.51 194.095 167.944L199.935 162.13L196.513 158.711L190.672 164.526C189.142 166.056 188.101 168.006 187.68 170.129C187.26 172.251 187.479 174.451 188.31 176.449C189.141 178.447 190.546 180.153 192.348 181.352C194.149 182.552 196.266 183.189 198.431 183.185C201.339 183.189 204.13 182.038 206.19 179.985L212.008 174.192L208.586 170.774L202.766 176.567Z" fill="#F41F45"/>
<path d="M437.792 267.941C436.569 265.826 434.812 264.07 432.697 262.848C430.567 261.601 428.139 260.953 425.67 260.972C423.2 260.952 420.771 261.6 418.64 262.848C416.526 264.07 414.77 265.827 413.548 267.941C412.3 270.07 411.651 272.497 411.67 274.965C411.651 277.433 412.3 279.861 413.548 281.991C414.77 284.105 416.527 285.861 418.642 287.082C420.774 288.33 423.203 288.978 425.672 288.958C428.142 288.978 430.571 288.33 432.702 287.082C434.816 285.859 436.571 284.103 437.792 281.989C439.04 279.859 439.689 277.431 439.669 274.962C439.688 272.496 439.039 270.07 437.792 267.941ZM434.255 279.939C433.389 281.437 432.145 282.681 430.646 283.547C429.138 284.431 427.419 284.891 425.67 284.878C423.921 284.891 422.202 284.431 420.694 283.547C419.196 282.681 417.951 281.437 417.085 279.939C416.2 278.431 415.74 276.712 415.753 274.965C415.74 273.217 416.2 271.498 417.085 269.99C417.951 268.493 419.196 267.249 420.694 266.383C422.202 265.499 423.921 265.039 425.67 265.052C427.419 265.039 429.138 265.499 430.646 266.383C432.145 267.249 433.389 268.493 434.255 269.99C435.14 271.498 435.6 273.217 435.587 274.965C435.6 276.712 435.14 278.431 434.255 279.939Z" fill="#F41F45"/>
<path d="M425.67 270.3C424.59 270.3 423.543 270.674 422.708 271.359C421.874 272.044 421.302 272.997 421.091 274.055C420.88 275.114 421.043 276.213 421.553 277.165C422.062 278.117 422.885 278.864 423.883 279.277C424.881 279.69 425.991 279.744 427.024 279.431C428.058 279.118 428.951 278.456 429.551 277.558C430.15 276.66 430.42 275.583 430.315 274.508C430.209 273.434 429.733 272.43 428.969 271.666C428.542 271.225 428.029 270.877 427.461 270.642C426.894 270.407 426.284 270.291 425.67 270.3Z" fill="#F41F45"/>
<path d="M682.834 271.543C682.685 271.179 682.436 270.865 682.115 270.637C681.795 270.41 681.416 270.278 681.024 270.257L673.448 269.157L670.06 262.296C669.919 261.929 669.677 261.61 669.361 261.375C669.046 261.14 668.67 261 668.277 260.972C667.885 261 667.509 261.14 667.194 261.375C666.878 261.61 666.635 261.929 666.495 262.296L663.108 269.157L655.533 270.257C655.139 270.277 654.76 270.408 654.438 270.636C654.117 270.864 653.867 271.178 653.718 271.543C653.625 271.925 653.642 272.325 653.767 272.698C653.893 273.07 654.122 273.399 654.428 273.646L659.909 278.987L658.615 286.531C658.534 286.85 658.527 287.182 658.593 287.504C658.66 287.826 658.798 288.128 658.997 288.389C659.155 288.573 659.352 288.72 659.573 288.819C659.794 288.918 660.035 288.967 660.277 288.962C660.706 288.951 661.125 288.836 661.499 288.626L668.274 285.066L675.049 288.626C675.423 288.836 675.842 288.951 676.271 288.962C676.513 288.967 676.754 288.918 676.975 288.819C677.197 288.72 677.393 288.573 677.551 288.389C677.75 288.128 677.888 287.825 677.954 287.504C678.021 287.182 678.013 286.85 677.933 286.531L676.638 278.987L682.12 273.646C682.426 273.4 682.656 273.071 682.783 272.698C682.909 272.326 682.927 271.925 682.834 271.543Z" fill="#F41F45"/>
<path d="M898.06 159.298C895.434 156.673 891.873 155.199 888.159 155.199C884.446 155.199 880.884 156.673 878.259 159.298C875.633 161.922 874.158 165.482 874.158 169.194C874.158 172.906 875.633 176.466 878.259 179.091C880.884 181.715 884.446 183.19 888.159 183.19C891.873 183.19 895.434 181.715 898.06 179.091C900.686 176.466 902.161 172.906 902.161 169.194C902.161 165.482 900.686 161.922 898.06 159.298ZM889.04 175.282H888.981V177.093C888.975 177.307 888.885 177.509 888.732 177.657C888.579 177.806 888.374 177.889 888.161 177.889C887.947 177.889 887.742 177.806 887.589 177.657C887.436 177.509 887.347 177.307 887.341 177.093V175.282H885.522C885.413 175.285 885.303 175.267 885.201 175.227C885.098 175.187 885.005 175.127 884.926 175.051C884.847 174.974 884.785 174.883 884.742 174.782C884.699 174.681 884.677 174.572 884.677 174.462C884.677 174.352 884.699 174.244 884.742 174.142C884.785 174.041 884.847 173.95 884.926 173.873C885.005 173.797 885.098 173.737 885.201 173.697C885.303 173.658 885.413 173.639 885.522 173.642H889.037C889.518 173.642 889.98 173.451 890.32 173.111C890.661 172.77 890.852 172.309 890.852 171.827C890.852 171.346 890.661 170.884 890.32 170.544C889.98 170.204 889.518 170.013 889.037 170.013H887.279C886.362 170.013 885.483 169.649 884.835 169.001C884.187 168.353 883.823 167.474 883.823 166.558C883.823 165.642 884.187 164.763 884.835 164.115C885.483 163.467 886.362 163.103 887.279 163.103H887.338V161.289C887.344 161.076 887.433 160.873 887.586 160.725C887.739 160.576 887.944 160.493 888.158 160.493C888.371 160.493 888.576 160.576 888.729 160.725C888.882 160.873 888.972 161.076 888.978 161.289V163.103H890.794C891.007 163.11 891.21 163.199 891.358 163.352C891.507 163.505 891.59 163.71 891.59 163.923C891.59 164.137 891.507 164.342 891.358 164.495C891.21 164.648 891.007 164.737 890.794 164.743H887.279C886.798 164.743 886.336 164.934 885.995 165.275C885.655 165.615 885.464 166.077 885.464 166.558C885.464 167.039 885.655 167.501 885.995 167.841C886.336 168.182 886.798 168.373 887.279 168.373H889.037C889.953 168.373 890.832 168.737 891.48 169.385C892.129 170.032 892.493 170.911 892.493 171.827C892.493 172.744 892.129 173.622 891.48 174.27C890.832 174.918 889.953 175.282 889.037 175.282H889.04Z" fill="#F41F45"/>
<path d="M92 691.208V714.613" stroke="#707070" stroke-width="3" stroke-linecap="round"/>
<path d="M994.037 691.208V714.613" stroke="#707070" stroke-width="3" stroke-linecap="round"/>
<path d="M994.064 702.913L92.0273 702.913" stroke="#707070" stroke-width="3" stroke-linecap="round"/>
<path d="M216.686 646.512C215.357 645.198 213.563 644.459 211.693 644.457C210.694 644.451 209.705 644.666 208.798 645.086C207.886 645.498 207.071 646.098 206.407 646.847C206.314 646.955 206.2 647.043 206.073 647.106C205.946 647.169 205.807 647.206 205.666 647.215C205.524 647.224 205.382 647.205 205.247 647.159C205.113 647.112 204.99 647.04 204.884 646.945C204.778 646.85 204.692 646.735 204.631 646.607C204.57 646.479 204.535 646.34 204.528 646.198C204.522 646.056 204.543 645.914 204.592 645.781C204.641 645.648 204.715 645.525 204.812 645.421C205.674 644.442 206.733 643.656 207.92 643.115C208.164 642.998 208.417 642.899 208.675 642.819C207.973 641.449 206.933 640.28 205.655 639.422C204.329 638.492 202.787 637.916 201.175 637.75C199.564 637.583 197.937 637.831 196.449 638.47C194.96 639.109 193.66 640.118 192.671 641.401C191.683 642.684 191.039 644.198 190.8 645.799C190.779 645.95 190.728 646.095 190.648 646.225C190.569 646.355 190.463 646.467 190.339 646.554H190.296C190.157 646.64 189.997 646.683 189.834 646.68C188.264 646.679 186.756 647.297 185.638 648.4C185.088 648.95 184.652 649.604 184.357 650.323C184.061 651.043 183.912 651.815 183.919 652.593C183.917 654.163 184.535 655.671 185.639 656.788C186.152 657.356 186.78 657.808 187.482 658.111C188.185 658.415 188.944 658.565 189.709 658.549H211.694C212.62 658.552 213.538 658.372 214.395 658.019C215.252 657.666 216.03 657.147 216.686 656.492C218.001 655.164 218.739 653.371 218.741 651.502C218.744 650.576 218.564 649.658 218.211 648.802C217.859 647.946 217.34 647.168 216.686 646.512Z" fill="#F41F45"/>
<path d="M205.198 730.677V740.257H195.614V748.327H213.271V730.677H205.198Z" fill="#F41F45"/>
<path d="M205.198 730.677V722.608H187.542V740.258H195.614V730.677H205.198Z" fill="#F41F45"/>
<path d="M200.776 535.388C206.906 535.388 211.876 530.42 211.876 524.293C211.876 518.165 206.906 513.198 200.776 513.198C194.646 513.198 189.676 518.165 189.676 524.293C189.676 530.42 194.646 535.388 200.776 535.388Z" fill="#CECECE"/>
<path d="M200.776 527.991V520.595" stroke="white" stroke-width="2" stroke-linecap="round"/>
<path d="M197.076 524.292H204.476" stroke="white" stroke-width="2" stroke-linecap="round"/>
<path d="M934.837 675.924C940.967 675.924 945.937 670.957 945.937 664.829C945.937 658.702 940.967 653.734 934.837 653.734C928.707 653.734 923.737 658.702 923.737 664.829C923.737 670.957 928.707 675.924 934.837 675.924Z" fill="#CECECE"/>
<path d="M934.837 668.528V661.131" stroke="white" stroke-width="2" stroke-linecap="round"/>
<path d="M931.137 664.829H938.537" stroke="white" stroke-width="2" stroke-linecap="round"/>
<path d="M934.837 756.548C940.967 756.548 945.937 751.58 945.937 745.453C945.937 739.325 940.967 734.358 934.837 734.358C928.707 734.358 923.737 739.325 923.737 745.453C923.737 751.58 928.707 756.548 934.837 756.548Z" fill="#CECECE"/>
<path d="M934.837 749.151V741.755" stroke="white" stroke-width="2" stroke-linecap="round"/>
<path d="M931.137 745.453H938.537" stroke="white" stroke-width="2" stroke-linecap="round"/>
<path d="M888.958 535.388C895.088 535.388 900.058 530.42 900.058 524.293C900.058 518.165 895.088 513.198 888.958 513.198C882.828 513.198 877.858 518.165 877.858 524.293C877.858 530.42 882.828 535.388 888.958 535.388Z" fill="#CECECE"/>
<path d="M888.958 527.991V520.595" stroke="white" stroke-width="2" stroke-linecap="round"/>
<path d="M885.258 524.292H892.658" stroke="white" stroke-width="2" stroke-linecap="round"/>
<path d="M433.579 422.667C437.913 418.334 437.913 411.309 433.579 406.976C429.244 402.643 422.216 402.643 417.881 406.976C413.547 411.309 413.547 418.334 417.881 422.667C422.216 427 429.244 427 433.579 422.667Z" fill="#CECECE"/>
<path d="M425.73 418.52V411.124" stroke="white" stroke-width="2" stroke-linecap="round"/>
<path d="M422.03 414.821H429.43" stroke="white" stroke-width="2" stroke-linecap="round"/>
<path d="M668.443 425.917C674.574 425.917 679.543 420.95 679.543 414.822C679.543 408.694 674.574 403.727 668.443 403.727C662.313 403.727 657.344 408.694 657.344 414.822C657.344 420.95 662.313 425.917 668.443 425.917Z" fill="#CECECE"/>
<path d="M668.444 418.521V411.124" stroke="white" stroke-width="2" stroke-linecap="round"/>
<path d="M664.744 414.822H672.144" stroke="white" stroke-width="2" stroke-linecap="round"/>
</g>
<defs>
<filter id="filter0_d" x="-3.19043" y="-16" width="1096.23" height="779.952" filterUnits="userSpaceOnUse" color-interpolation-filters="sRGB">
<feFlood flood-opacity="0" result="BackgroundImageFix"/>
<feColorMatrix in="SourceAlpha" type="matrix" values="0 0 0 0 0 0 0 0 0 0 0 0 0 0 0 0 0 0 127 0"/>
<feOffset dy="43"/>
<feGaussianBlur stdDeviation="49.5"/>
<feColorMatrix type="matrix" values="0 0 0 0 0 0 0 0 0 0 0 0 0 0 0 0 0 0 0.102 0"/>
<feBlend mode="normal" in2="BackgroundImageFix" result="effect1_dropShadow"/>
<feBlend mode="normal" in="SourceGraphic" in2="effect1_dropShadow" result="shape"/>
</filter>
<clipPath id="clip0">
<rect width="1118" height="811" fill="white"/>
</clipPath>
</defs>
</svg>
