<svg width="27" height="21" viewBox="0 0 27 21" fill="none" xmlns="http://www.w3.org/2000/svg">
<path d="M24.281 2.56633L26.386 0.552328V0.111328H19.093L13.893 13.0493L7.981 0.111328H0.333V0.552328L2.793 3.51133C2.91154 3.61914 3.00334 3.75307 3.06114 3.90252C3.11894 4.05196 3.14115 4.21281 3.126 4.37233V16.0113C3.1623 16.218 3.14906 16.4304 3.08735 16.631C3.02563 16.8316 2.91722 17.0148 2.771 17.1653L0 20.5213V20.9563H7.855V20.5113L5.085 17.1633C4.93645 17.0139 4.82442 16.8322 4.75763 16.6324C4.69085 16.4326 4.67113 16.22 4.7 16.0113V5.94533L11.6 20.9623H12.4L18.33 5.94533V17.9113C18.33 18.2273 18.33 18.2913 18.123 18.4983L15.99 20.5583V21.0003H26.338V20.5593L24.282 18.5463C24.1931 18.4791 24.1242 18.389 24.0828 18.2855C24.0414 18.1821 24.029 18.0693 24.047 17.9593V3.15333C24.0286 3.04344 24.0406 2.9306 24.0819 2.8271C24.1232 2.7236 24.192 2.6334 24.281 2.56633Z" fill="white"/>
</svg>
