<svg width="160" height="69" viewBox="0 0 160 69" fill="none" xmlns="http://www.w3.org/2000/svg">
<path d="M49.9402 41.3754C48.8298 39.3935 47.8118 38.3948 45.7451 37.2886L45.6834 37.2579C44.6038 36.674 43.3854 36.0287 43.3854 34.5077C43.3854 33.002 44.6038 32.3721 45.668 31.8036L45.7297 31.7729C47.781 30.6974 48.8143 29.7141 49.9248 27.7014C52.0995 20.4496 48.1357 12.2759 43.2312 7.40548C38.5271 2.70408 32.0031 0 25.3403 0C18.6775 0 12.3385 2.65798 7.49566 7.46693C2.66821 12.2912 0 18.6059 0 25.2432V43.7568C0 50.3941 2.66821 56.7088 7.49566 61.5331C12.3385 66.3574 18.662 69 25.3403 69C32.0031 69 38.5271 66.2959 43.2466 61.5945C48.1511 56.7088 52.1149 48.5658 49.9402 41.3754ZM41.5038 59.8584C37.247 64.0989 31.3553 66.5418 25.3403 66.5418C19.3715 66.5418 13.4799 64.0528 9.14594 59.7201C4.81203 55.3721 2.43686 49.7027 2.46771 43.7568V25.2432C2.43686 19.2973 4.81203 13.6279 9.14594 9.27989C13.4799 4.94723 19.3715 2.45825 25.3403 2.45825C31.3553 2.45825 37.247 4.90114 41.5038 9.14162C45.9302 13.5511 49.4775 20.8644 47.4571 27.2558L47.4417 27.2866C46.2541 29.4683 44.9123 30.5438 43.1386 31.8343C42.1207 32.5718 41.2878 33.2786 41.2878 34.4923C41.2878 35.8904 42.3983 36.6587 43.4625 37.4115L43.5705 37.4883C45.3441 38.7328 46.47 39.9773 47.4417 41.7442L47.4571 41.7749C49.493 48.151 45.9302 55.4489 41.5038 59.8584Z" fill="white"/>
<path d="M44.0332 42.5277C43.0615 40.6533 41.8585 39.3473 40.7018 38.2258C39.761 37.3039 38.5888 36.167 38.5888 34.5077C38.5888 33.0634 39.4525 32.0801 40.3316 31.1737L40.4859 31.02C41.9511 29.5297 43.0924 28.362 44.0486 26.503C45.6372 21.2946 42.6605 15.2872 39.0052 11.6459C35.4116 8.06611 30.4299 6.00732 25.3557 6.00732C20.3432 6.00732 15.3769 8.1122 11.7062 11.7996C8.02007 15.4869 6.01506 20.2652 6.06133 25.2431V43.7568C6.03048 48.7194 8.11261 53.6666 11.7679 57.3079C15.4232 60.9492 20.3895 63.0234 25.3711 62.9926C25.402 62.9926 25.4483 62.9926 25.4791 62.9926C30.4762 62.9926 35.4116 60.9338 39.0052 57.354C42.6451 53.7127 45.6218 47.7208 44.0332 42.5277ZM37.247 55.6179C34.1315 58.7214 29.7976 60.519 25.3403 60.5344C25.3095 60.5344 25.2786 60.5344 25.2478 60.5344C20.9138 60.5344 16.7804 58.8136 13.6033 55.664C10.3798 52.4836 8.52904 48.1509 8.49819 43.7568V25.2431C8.51362 20.8336 10.3798 16.4703 13.6187 13.2899C16.7959 10.171 20.8984 8.45021 25.2169 8.45021C25.2632 8.45021 25.3095 8.45021 25.3557 8.45021C29.7976 8.46557 34.1315 10.2632 37.2624 13.3667C41.8894 17.9759 42.5217 23.0768 41.6734 26.0421L41.6426 26.0882C41.1645 27.1175 40.3933 28.0855 39.5913 29.1302C38.2649 30.8203 36.9077 32.5564 36.9077 34.5077C36.9077 36.4435 38.2803 38.2104 39.6067 39.9158C40.4087 40.9452 41.1645 41.9285 41.6426 42.9272L41.658 42.9579C42.5063 45.9078 41.8739 51.0087 37.247 55.6179Z" fill="white"/>
<path d="M38.1569 43.68C37.725 42.7274 37.1235 41.7748 36.4758 40.7762C35.2111 38.7942 33.9001 36.7508 33.9001 34.5076C33.9001 32.2645 35.2111 30.2057 36.4758 28.2391C37.1235 27.2251 37.725 26.2879 38.1569 25.3199C38.9589 23.2458 38.234 19.4048 34.7175 15.9018C32.2344 13.4281 28.8259 12.0146 25.3248 12.0146C21.8237 12.0146 18.5078 13.4128 15.9629 15.9325C13.4335 18.4522 12.03 21.7708 12.03 25.2585V43.7722C12.03 47.2598 13.4335 50.5631 15.9629 53.0981C18.4923 55.6179 21.8237 57.016 25.3094 57.016C28.795 57.016 32.219 55.6025 34.7021 53.1289C37.2006 50.6553 39.329 46.6606 38.1569 43.68ZM32.9901 51.3774C30.9851 53.3593 28.1627 54.5424 25.4019 54.5424C25.3865 54.5424 25.3557 54.5424 25.3402 54.5424C22.4869 54.527 19.6645 53.3132 17.5978 51.2084C15.5774 49.1496 14.4823 46.507 14.5132 43.7568V25.2431C14.4823 22.4622 15.5774 19.8042 17.6286 17.7454C19.6953 15.6713 22.5024 14.4729 25.3402 14.4729C28.1318 14.4422 30.9234 15.5945 32.9901 17.6379C35.9822 20.6032 36.2907 23.6299 35.6583 25.3199C35.2573 26.2879 34.7175 27.2404 34.1314 28.2545C32.9747 30.2825 31.7871 32.372 31.7871 34.5076C31.7871 36.6432 32.9747 38.7327 34.116 40.7454C34.7021 41.7595 35.2419 42.7274 35.6429 43.6953C36.2907 45.3854 35.9822 48.4121 32.9901 51.3774Z" fill="white"/>
<path d="M32.2807 43.8029C32.0031 42.8196 31.6175 41.8055 31.2473 40.8222C30.4762 38.7788 29.6742 36.6739 29.6742 34.4922C29.6742 32.3105 30.4762 30.2057 31.2473 28.1622C31.6175 27.1789 32.0031 26.1649 32.2807 25.1816C32.7434 23.3686 31.9876 21.8937 31.2782 20.9872C29.9055 19.2357 27.4686 18.0066 25.3402 18.0066C23.4278 18.0066 21.6078 18.7594 20.2197 20.1422C18.8317 21.525 18.0759 23.3379 18.0759 25.2431V43.7568C18.0759 45.6619 18.8317 47.4749 20.2197 48.8576C21.6078 50.2404 23.4278 50.9932 25.3248 50.9932C27.4532 50.9932 29.8901 49.7641 31.2627 48.0126C32.0031 47.0908 32.7434 45.6158 32.2807 43.8029ZM29.1189 46.6913C28.209 47.7668 26.7283 48.4889 25.3402 48.5196C25.3094 48.5196 25.2786 48.5196 25.2323 48.5196C24.0755 48.5196 22.9651 48.0587 22.086 47.2137C21.1297 46.2918 20.5591 45.032 20.5436 43.7414V25.2431C20.5591 23.9525 21.1297 22.6773 22.1014 21.7554C23.0113 20.895 24.1527 20.4341 25.3402 20.4648C26.7438 20.4956 28.1935 21.187 29.1035 22.2778C29.8592 23.1689 30.1677 24.1983 29.998 25.2584C29.8592 26.3032 29.6587 27.3479 29.4737 28.362C29.1035 30.3593 28.7179 32.4181 28.7179 34.4922C28.7179 36.551 29.1035 38.6252 29.4737 40.6225C29.6587 41.6365 29.8592 42.6966 29.998 43.726C30.1831 44.7861 29.8747 45.8002 29.1189 46.6913Z" fill="white"/>
<path d="M26.389 43.7567C26.281 37.5343 26.281 31.4655 26.389 25.243C26.389 24.905 26.2656 24.5824 26.0343 24.3519C25.8183 24.1368 25.5407 24.0139 25.2323 24.0139C24.5999 24.0139 24.0909 24.567 24.0909 25.243V43.7567C24.0909 44.4328 24.5999 44.9859 25.2323 44.9859C25.5253 44.9859 25.8183 44.8629 26.0343 44.6479C26.2656 44.4174 26.389 44.0947 26.389 43.7567Z" fill="white"/>
<path d="M70.1292 45.9078C68.2167 45.9078 66.5201 45.5083 65.0549 44.694C63.5897 43.8951 62.433 42.7274 61.6156 41.2218C60.7981 39.7161 60.3817 37.9339 60.3817 35.8904V19.6353H64.6077V29.5912H64.6385C65.0241 28.9305 65.5485 28.362 66.1808 27.8704C66.8132 27.3787 67.5226 27.01 68.3092 26.7334C69.0958 26.4723 69.9287 26.334 70.8078 26.334C72.5969 26.334 74.17 26.7335 75.5427 27.5324C76.8999 28.3313 77.9796 29.4375 78.7507 30.851C79.5219 32.2645 79.9075 33.9238 79.9075 35.8443C79.9075 37.3347 79.6761 38.7021 79.2288 39.9312C78.7816 41.1603 78.1184 42.2358 77.2855 43.1423C76.4372 44.0487 75.4193 44.7401 74.2163 45.2164C73.0133 45.662 71.6561 45.9078 70.1292 45.9078ZM70.1292 42.3126C71.2088 42.3126 72.165 42.0514 72.9979 41.529C73.8307 41.0067 74.4785 40.2846 74.9412 39.3473C75.4039 38.4255 75.6352 37.35 75.6352 36.1209C75.6352 34.9225 75.4039 33.8624 74.9412 32.9252C74.4785 32.0033 73.8307 31.2658 73.0133 30.7281C72.1959 30.1904 71.2396 29.9292 70.16 29.9292C69.0804 29.9292 68.1241 30.1904 67.2913 30.7127C66.4584 31.2351 65.8107 31.9726 65.348 32.8944C64.8853 33.8163 64.6539 34.8918 64.6539 36.1209C64.6539 37.35 64.8853 38.4255 65.348 39.3473C65.8107 40.2692 66.4584 41.0067 67.2913 41.529C68.1241 42.0514 69.0804 42.3126 70.1292 42.3126Z" fill="white"/>
<path d="M92.8321 45.9078C90.9196 45.9078 89.2076 45.4776 87.7116 44.6019C86.2155 43.7415 85.0279 42.5584 84.1642 41.0835C83.3005 39.6085 82.8533 37.9492 82.8533 36.1209C82.8533 34.2926 83.2851 32.6333 84.1642 31.1583C85.0279 29.6834 86.2155 28.5003 87.7116 27.6399C89.2076 26.7795 90.9196 26.334 92.8321 26.334C94.7754 26.334 96.4874 26.7642 97.9834 27.6399C99.4795 28.5003 100.667 29.6834 101.531 31.1583C102.394 32.6333 102.842 34.2926 102.842 36.1209C102.842 37.9492 102.41 39.6085 101.531 41.0835C100.667 42.5584 99.4795 43.7415 97.9834 44.6019C96.4874 45.4776 94.7754 45.9078 92.8321 45.9078ZM92.8321 42.3126C94.0042 42.3126 95.0222 42.0361 95.8858 41.483C96.7495 40.9298 97.4127 40.1924 97.8754 39.2398C98.3381 38.3026 98.5695 37.2578 98.5695 36.1055C98.5695 34.9532 98.3381 33.9085 97.8754 32.9713C97.4127 32.0341 96.7495 31.2812 95.8858 30.7281C95.0222 30.175 94.0042 29.8984 92.8321 29.8984C91.6753 29.8984 90.6728 30.175 89.84 30.7281C88.9917 31.2812 88.3285 32.0187 87.8504 32.9405C87.3723 33.8624 87.1255 34.9225 87.1255 36.0902C87.1255 37.2425 87.3723 38.2872 87.8504 39.2244C88.3285 40.1616 88.9917 40.9145 89.84 41.4676C90.6882 42.0207 91.6907 42.3126 92.8321 42.3126Z" fill="white"/>
<path d="M113.484 45.9078C112.25 45.9078 111.139 45.662 110.137 45.1857C109.134 44.7094 108.332 43.9719 107.746 42.9886C107.16 42.0053 106.867 40.7301 106.867 39.1937V26.7642H111.093V39.8543C111.093 40.346 111.201 40.7762 111.432 41.1603C111.648 41.5444 111.941 41.8209 112.296 42.0207C112.651 42.2204 113.052 42.3126 113.499 42.3126C113.916 42.3126 114.317 42.2204 114.671 42.0207C115.041 41.8209 115.335 41.5444 115.55 41.1603C115.766 40.7762 115.89 40.346 115.89 39.8543V32.9559C115.89 31.5117 116.167 30.2979 116.723 29.3146C117.278 28.3313 118.049 27.5785 119.036 27.0714C120.023 26.5644 121.164 26.3186 122.445 26.3186C123.74 26.3186 124.881 26.5644 125.869 27.0714C126.856 27.5785 127.627 28.3159 128.182 29.3146C128.753 30.2979 129.03 31.527 129.03 32.9559V39.8543C129.03 40.346 129.138 40.7762 129.37 41.1603C129.586 41.5444 129.879 41.8209 130.249 42.0207C130.619 42.2204 131.02 42.3126 131.467 42.3126C131.884 42.3126 132.269 42.2204 132.624 42.0207C132.979 41.8209 133.272 41.5444 133.488 41.1603C133.704 40.7762 133.811 40.346 133.811 39.8543V26.7642H138.037V39.1937C138.037 40.7301 137.744 42.0053 137.158 42.9886C136.572 43.9719 135.77 44.7094 134.768 45.1857C133.765 45.662 132.655 45.9078 131.452 45.9078C130.249 45.9078 129.138 45.662 128.136 45.1857C127.133 44.7094 126.316 43.9719 125.714 42.9886C125.097 42.0053 124.789 40.7301 124.789 39.1937V32.372C124.789 31.8343 124.681 31.3887 124.48 31.0354C124.265 30.682 123.987 30.4054 123.632 30.2057C123.277 30.006 122.876 29.9138 122.429 29.9138C122.044 29.9138 121.658 30.006 121.288 30.2057C120.918 30.4054 120.625 30.682 120.409 31.0354C120.193 31.3887 120.085 31.8343 120.085 32.372V39.1937C120.085 40.7301 119.776 42.0053 119.175 42.9886C118.573 43.9719 117.771 44.7094 116.784 45.1857C115.782 45.662 114.687 45.9078 113.484 45.9078Z" fill="white"/>
<path d="M152.612 45.4622C150.499 45.4622 148.648 45.0628 147.075 44.2638C145.487 43.4649 144.253 42.374 143.374 40.9606C142.495 39.5624 142.047 37.9338 142.047 36.1055C142.047 34.1696 142.433 32.4796 143.22 31.0046C144.006 29.5451 145.086 28.3928 146.458 27.5631C147.831 26.7334 149.42 26.3186 151.209 26.3186C153.214 26.3186 154.879 26.7488 156.175 27.6092C157.471 28.4696 158.442 29.6065 159.059 31.0507C159.691 32.495 160 34.1082 160 35.8904C160 36.1362 159.985 36.4128 159.969 36.7354C159.938 37.0581 159.907 37.3039 159.861 37.4729H146.536C146.69 38.4562 147.044 39.2705 147.6 39.9158C148.17 40.5611 148.88 41.0527 149.728 41.3754C150.592 41.698 151.548 41.867 152.597 41.867H157.64V45.4622H152.612ZM146.505 34.6152H155.774C155.743 34.1543 155.681 33.6934 155.573 33.2171C155.466 32.7561 155.296 32.3106 155.065 31.8958C154.833 31.4809 154.54 31.1276 154.185 30.8203C153.831 30.513 153.399 30.2672 152.921 30.0828C152.427 29.8984 151.872 29.8062 151.224 29.8062C150.484 29.8062 149.836 29.9445 149.281 30.2211C148.71 30.4976 148.232 30.8664 147.846 31.3273C147.461 31.7728 147.152 32.2952 146.952 32.8637C146.721 33.4475 146.582 34.0314 146.505 34.6152Z" fill="white"/>
<path d="M60.3817 61.3181V57.3388C60.3817 56.8317 60.5051 56.3555 60.7364 55.9406C60.9678 55.5104 61.3071 55.1878 61.7544 54.9266C62.2016 54.6808 62.726 54.5579 63.3584 54.5579C63.6669 54.5579 63.9599 54.604 64.2684 54.6808C64.5768 54.7576 64.8544 54.8959 65.1166 55.0956C65.3788 55.2953 65.5793 55.5565 65.749 55.8792H65.7644C65.9341 55.5565 66.15 55.2953 66.4122 55.0956C66.6744 54.8959 66.952 54.7576 67.2605 54.6808C67.5689 54.604 67.8774 54.5579 68.1858 54.5579C68.8028 54.5579 69.3272 54.6808 69.7744 54.9266C70.2217 55.1724 70.561 55.5104 70.7924 55.9406C71.0237 56.3555 71.1471 56.8317 71.1471 57.3388V61.3181H69.9441V57.3388C69.9441 57.0161 69.867 56.7088 69.7127 56.4476C69.5585 56.1865 69.3426 55.9714 69.0804 55.8177C68.8182 55.6641 68.5097 55.5873 68.1704 55.5873C67.8465 55.5873 67.5381 55.6641 67.2605 55.8177C66.9828 55.9714 66.7669 56.1865 66.5973 56.4476C66.443 56.7088 66.3505 57.0007 66.3505 57.3388V61.3181H65.1475V57.3388C65.1475 57.0161 65.0704 56.7088 64.9007 56.4476C64.7465 56.1865 64.5305 55.9714 64.2529 55.8177C63.9753 55.6641 63.6668 55.5873 63.343 55.5873C63.0191 55.5873 62.7106 55.6641 62.4484 55.8177C62.1862 55.9714 61.9703 56.1865 61.8161 56.4476C61.6618 56.7088 61.5847 57.0161 61.5847 57.3388V61.3181H60.3817Z" fill="white"/>
<path d="M76.0054 61.4717C75.3268 61.4717 74.7252 61.318 74.2163 61.0108C73.6919 60.7035 73.2909 60.2887 72.9824 59.7663C72.674 59.2439 72.5352 58.6601 72.5352 58.0148C72.5352 57.3695 72.6894 56.7857 72.9824 56.2633C73.2909 55.7409 73.6919 55.3261 74.2163 55.0188C74.7407 54.7115 75.3422 54.5579 76.0054 54.5579C76.684 54.5579 77.2855 54.7115 77.8099 55.0188C78.3343 55.3261 78.7507 55.7409 79.0437 56.2633C79.3368 56.7857 79.491 57.3695 79.491 58.0148C79.491 58.6601 79.3368 59.2439 79.0437 59.7663C78.7507 60.2887 78.3343 60.7035 77.8099 61.0108C77.2701 61.318 76.6686 61.4717 76.0054 61.4717ZM76.0054 60.4577C76.4526 60.4577 76.8536 60.3501 77.193 60.135C77.5323 59.9199 77.7945 59.628 77.9795 59.2593C78.1646 58.8905 78.2726 58.4757 78.2726 58.0148C78.2726 57.5539 78.18 57.139 77.9795 56.7703C77.7945 56.4016 77.5168 56.1096 77.193 55.8945C76.8536 55.6794 76.4526 55.5719 76.0054 55.5719C75.5427 55.5719 75.1417 55.6794 74.8024 55.8945C74.4631 56.1096 74.2009 56.4016 74.0004 56.7703C73.8153 57.139 73.7073 57.5539 73.7073 58.0148C73.7073 58.4757 73.7999 58.8905 74.0004 59.2593C74.2009 59.628 74.4631 59.9199 74.8024 60.135C75.1571 60.3501 75.5581 60.4577 76.0054 60.4577Z" fill="white"/>
<path d="M84.2414 61.4717C83.5936 61.4717 83.0229 61.3334 82.514 61.0568C82.005 60.7803 81.604 60.3808 81.2955 59.8584C81.0025 59.3361 80.8483 58.7061 80.8483 57.9687V51.8538H82.0513V55.8791H82.0821C82.2364 55.618 82.4214 55.3721 82.6682 55.1724C82.8995 54.9727 83.1772 54.819 83.4856 54.7115C83.7941 54.6039 84.118 54.5425 84.4573 54.5425C85.0742 54.5425 85.6295 54.6807 86.1076 54.9573C86.5857 55.2339 86.9713 55.618 87.2643 56.125C87.5419 56.632 87.6807 57.2312 87.6807 57.9226C87.6807 58.4603 87.6036 58.952 87.434 59.3975C87.2643 59.8277 87.033 60.2118 86.7245 60.5191C86.416 60.8264 86.0613 61.0722 85.6449 61.2258C85.2284 61.3795 84.7503 61.4717 84.2414 61.4717ZM84.2414 60.4576C84.6424 60.4576 85.0125 60.3654 85.3518 60.1657C85.6911 59.966 85.9533 59.6894 86.1538 59.3207C86.3543 58.952 86.4469 58.5218 86.4469 58.0301C86.4469 57.5538 86.3543 57.1236 86.1538 56.7549C85.9533 56.3862 85.6911 56.1096 85.3673 55.8945C85.0434 55.6948 84.6578 55.5872 84.2414 55.5872C83.8404 55.5872 83.4702 55.6794 83.1309 55.8791C82.7916 56.0789 82.5294 56.3554 82.3443 56.7242C82.1438 57.0929 82.0513 57.5231 82.0513 58.0301C82.0513 58.5218 82.1438 58.952 82.3443 59.3053C82.5448 59.6741 82.807 59.9506 83.1309 60.1504C83.4856 60.3501 83.8404 60.4576 84.2414 60.4576Z" fill="white"/>
<path d="M89.6857 53.6667C89.4698 53.6667 89.2847 53.5899 89.1151 53.4209C88.9608 53.2672 88.8683 53.0675 88.8683 52.8524C88.8683 52.6373 88.9454 52.4529 89.1151 52.2839C89.2693 52.1303 89.4698 52.0381 89.6857 52.0381C89.9016 52.0381 90.0867 52.1149 90.2564 52.2839C90.4106 52.4376 90.5032 52.6373 90.5032 52.8524C90.5032 53.0675 90.426 53.2518 90.2564 53.4209C90.0867 53.5899 89.9016 53.6667 89.6857 53.6667ZM89.0688 61.318V54.7114H90.2718V61.318H89.0688Z" fill="white"/>
<path d="M92.0455 61.318V51.8538H93.2485V61.318H92.0455Z" fill="white"/>
<path d="M98.369 61.3181C97.6442 61.3181 96.9964 61.1798 96.4257 60.9032C95.8551 60.6267 95.4232 60.2426 95.0993 59.7509C94.7754 59.2593 94.6212 58.6754 94.6212 58.0148C94.6212 57.3541 94.76 56.7703 95.0222 56.2479C95.2844 55.7255 95.67 55.3107 96.1481 55.0034C96.6262 54.6961 97.1815 54.5579 97.8138 54.5579C98.4924 54.5579 99.0631 54.7115 99.5258 55.0034C99.9731 55.2953 100.328 55.6948 100.544 56.1865C100.775 56.6781 100.883 57.2312 100.883 57.8458C100.883 57.938 100.883 58.0455 100.883 58.1377C100.883 58.2452 100.868 58.3374 100.852 58.4142H95.9013C95.9476 58.8137 96.0864 59.1671 96.3023 59.4436C96.5337 59.7202 96.8113 59.9353 97.166 60.0736C97.5208 60.2118 97.9063 60.2887 98.3382 60.2887H100.066V61.3181H98.369ZM95.9013 57.5692H99.68C99.68 57.4002 99.6646 57.2312 99.6337 57.0468C99.6029 56.8625 99.5412 56.6781 99.4487 56.5091C99.3561 56.3401 99.2482 56.1711 99.1094 56.0328C98.9706 55.8945 98.7855 55.7716 98.5695 55.6948C98.3536 55.6026 98.1069 55.5719 97.8292 55.5719C97.5208 55.5719 97.2586 55.6333 97.0272 55.7409C96.7959 55.8638 96.5954 56.0175 96.4411 56.2018C96.2715 56.4016 96.1481 56.6166 96.071 56.8625C95.9785 57.0929 95.9168 57.3388 95.9013 57.5692Z" fill="white"/>
<path d="M117.262 55.741V54.7116H121.874V55.741H117.262ZM120.301 61.3181C119.715 61.3181 119.252 61.1491 118.913 60.8111C118.573 60.4731 118.419 60.0122 118.419 59.4437V53.0522H119.622V59.3669C119.622 59.6588 119.699 59.8739 119.869 60.0429C120.023 60.2119 120.254 60.2887 120.532 60.2887H121.874V61.3181H120.301Z" fill="white"/>
<path d="M126.362 61.3181C125.637 61.3181 124.989 61.1798 124.419 60.9032C123.848 60.6267 123.416 60.2426 123.092 59.7509C122.768 59.2593 122.614 58.6754 122.614 58.0148C122.614 57.3541 122.753 56.7703 123.015 56.2479C123.277 55.7255 123.663 55.3107 124.141 55.0034C124.619 54.6961 125.175 54.5579 125.807 54.5579C126.485 54.5579 127.056 54.7115 127.519 55.0034C127.966 55.2953 128.321 55.6948 128.537 56.1865C128.768 56.6781 128.876 57.2312 128.876 57.8458C128.876 57.938 128.876 58.0455 128.876 58.1377C128.876 58.2452 128.861 58.3374 128.845 58.4142H123.894C123.941 58.8137 124.079 59.1671 124.295 59.4436C124.527 59.7202 124.804 59.9353 125.159 60.0736C125.514 60.2118 125.899 60.2887 126.331 60.2887H128.059V61.3181H126.362ZM123.879 57.5692H127.658C127.658 57.4002 127.642 57.2312 127.611 57.0468C127.581 56.8625 127.519 56.6781 127.426 56.5091C127.334 56.3401 127.226 56.1711 127.087 56.0328C126.948 55.8945 126.763 55.7716 126.547 55.6948C126.331 55.6026 126.084 55.5719 125.807 55.5719C125.498 55.5719 125.236 55.6333 125.005 55.7409C124.774 55.8638 124.573 56.0175 124.419 56.2018C124.249 56.4016 124.126 56.6166 124.049 56.8625C123.956 57.0929 123.894 57.3388 123.879 57.5692Z" fill="white"/>
<path d="M133.488 61.318C132.809 61.318 132.192 61.1797 131.652 60.8724C131.112 60.5805 130.696 60.181 130.372 59.6894C130.064 59.1977 129.909 58.6293 129.909 58.0147C129.909 57.4001 130.064 56.8317 130.372 56.34C130.681 55.8484 131.112 55.4489 131.652 55.157C132.192 54.8651 132.809 54.7114 133.488 54.7114H134.274V55.7408H133.457C133.009 55.7408 132.624 55.8484 132.269 56.0481C131.914 56.2478 131.637 56.5244 131.436 56.8778C131.236 57.2158 131.128 57.6152 131.128 58.0301C131.128 58.4603 131.236 58.8444 131.436 59.1824C131.637 59.5204 131.914 59.7969 132.269 60.012C132.624 60.2118 133.025 60.3193 133.457 60.3193H134.274V61.3487H133.488V61.318Z" fill="white"/>
<path d="M135.508 61.318V51.8538H136.711V55.5565C136.973 55.2185 137.312 54.9573 137.698 54.7883C138.084 54.6193 138.485 54.5425 138.901 54.5425C139.487 54.5425 139.996 54.6654 140.443 54.9112C140.875 55.157 141.215 55.495 141.461 55.9406C141.708 56.3862 141.831 56.8932 141.831 57.477V61.3027H140.628V57.4924C140.628 57.0929 140.536 56.7549 140.351 56.463C140.166 56.1711 139.934 55.956 139.626 55.8023C139.333 55.6487 139.009 55.5719 138.67 55.5719C138.33 55.5719 138.022 55.6487 137.713 55.8023C137.405 55.956 137.174 56.1711 136.989 56.463C136.803 56.7395 136.711 57.0929 136.711 57.4924V61.3334H135.508V61.318Z" fill="white"/>
<path d="M114.054 60.3501L111.556 58.3067L111.602 58.1837C111.787 57.7535 111.957 57.4155 112.08 57.139C112.204 56.8624 112.342 56.6473 112.45 56.4937C112.574 56.3401 112.697 56.2325 112.851 56.1711C112.99 56.1096 113.175 56.0789 113.391 56.0789H113.977V55.1263H113.345C113.021 55.1263 112.743 55.157 112.512 55.2338C112.281 55.3107 112.065 55.4336 111.88 55.6179C111.695 55.8023 111.525 56.0481 111.34 56.3554C111.17 56.6627 110.97 57.0468 110.769 57.5231L110.708 57.646L110.476 57.4463L108.24 55.6333C108.641 55.4489 108.965 55.2031 109.196 54.8958C109.427 54.6039 109.535 54.2659 109.535 53.8972C109.535 53.5284 109.458 53.2212 109.289 52.9446C109.119 52.668 108.903 52.453 108.61 52.2993C108.317 52.1457 107.978 52.0688 107.577 52.0688C107.191 52.0688 106.852 52.1457 106.559 52.3147C106.266 52.4837 106.019 52.7141 105.849 52.9907C105.68 53.2672 105.587 53.5745 105.587 53.8972C105.587 54.0969 105.633 54.2966 105.71 54.4964C105.788 54.6807 105.896 54.8651 106.034 55.0187C106.158 55.1724 106.297 55.326 106.42 55.4336C105.957 55.6333 105.572 55.8945 105.248 56.2018C104.939 56.5091 104.693 56.8624 104.523 57.2465C104.353 57.6306 104.276 58.0147 104.276 58.4142C104.276 59.0134 104.415 59.5511 104.693 59.9967C104.97 60.4423 105.356 60.811 105.849 61.0568C106.343 61.318 106.913 61.4409 107.577 61.4409C108.116 61.4409 108.595 61.3641 109.026 61.1951C109.458 61.0261 109.844 60.7803 110.199 60.4576C110.538 60.135 110.846 59.7355 111.109 59.2746L113.391 61.1336L114.054 60.3501ZM106.775 53.4516C106.836 53.3287 106.944 53.2212 107.083 53.129C107.222 53.0522 107.376 53.0061 107.561 53.0061C107.854 53.0061 108.07 53.0829 108.224 53.2519C108.379 53.4209 108.471 53.6206 108.471 53.8511C108.471 54.0201 108.425 54.1584 108.348 54.2966C108.255 54.4349 108.147 54.5578 107.993 54.6654C107.839 54.7729 107.685 54.8805 107.5 54.9573C107.376 54.8651 107.253 54.7576 107.129 54.65C107.006 54.5425 106.898 54.4196 106.806 54.2813C106.728 54.143 106.682 54.0047 106.682 53.8357C106.667 53.7282 106.713 53.5899 106.775 53.4516ZM109.551 59.628C109.289 59.8892 109.011 60.0889 108.703 60.2118C108.394 60.3347 108.055 60.3962 107.669 60.3962C107.237 60.3962 106.867 60.304 106.543 60.1196C106.219 59.9352 105.957 59.6894 105.788 59.3668C105.603 59.0595 105.51 58.7061 105.51 58.322C105.51 57.9994 105.572 57.7075 105.71 57.4309C105.834 57.1544 106.034 56.8932 106.297 56.6627C106.559 56.4322 106.852 56.2325 107.207 56.0789L109.844 58.2298L110.307 58.5986C110.06 59.0134 109.813 59.3514 109.551 59.628Z" fill="white"/>
</svg>
