<svg width="20" height="20" viewBox="0 0 20 20" fill="none" xmlns="http://www.w3.org/2000/svg">
<path d="M7.2511 14.9028V18.7468C7.25087 18.8779 7.2921 19.0056 7.36888 19.1118C7.44566 19.218 7.55406 19.2971 7.67856 19.338C7.80307 19.3788 7.9373 19.3792 8.06205 19.3391C8.1868 19.2991 8.29568 19.2205 8.3731 19.1148L10.6211 16.0548L7.2511 14.9028Z" fill="white"/>
<path d="M19.628 0.422919C19.5347 0.356438 19.4247 0.317053 19.3104 0.309112C19.196 0.301171 19.0817 0.324983 18.98 0.377919L0.334049 10.1159C0.226449 10.1723 0.137714 10.259 0.0787947 10.3652C0.0198757 10.4714 -0.00664774 10.5926 0.00249821 10.7137C0.0116442 10.8348 0.0560591 10.9506 0.130261 11.0468C0.204463 11.143 0.305204 11.2153 0.420049 11.2549L5.60005 13.0269L16.643 3.58792L8.10005 13.8799L16.7871 16.8489C16.8515 16.8705 16.919 16.8817 16.987 16.8819C17.1361 16.8821 17.2802 16.8286 17.3932 16.7313C17.5061 16.634 17.5802 16.4994 17.602 16.3519L19.882 1.02192C19.8992 0.908209 19.8846 0.791967 19.8397 0.686068C19.7949 0.580168 19.7216 0.488744 19.628 0.421919V0.422919Z" fill="white"/>
</svg>
