<svg xmlns="http://www.w3.org/2000/svg" xmlns:xlink="http://www.w3.org/1999/xlink" width="426" height="720" viewBox="0 0 426 720">
  <defs>
    <clipPath id="clip-path">
      <rect id="Retângulo_9" data-name="Retângulo 9" width="426" height="720" transform="translate(1459 169)" fill="none"/>
    </clipPath>
    <linearGradient id="linear-gradient" x1="-0.862" y1="3.196" x2="0.131" y2="3.196" gradientUnits="objectBoundingBox">
      <stop offset="0" stop-color="#fff"/>
      <stop offset="0.106" stop-color="#cdcdcd"/>
      <stop offset="0.237" stop-color="#979797"/>
      <stop offset="0.369" stop-color="#696969"/>
      <stop offset="0.5" stop-color="#434343"/>
      <stop offset="0.629" stop-color="#252525"/>
      <stop offset="0.756" stop-color="#101010"/>
      <stop offset="0.881" stop-color="#040404"/>
      <stop offset="1"/>
    </linearGradient>
    <linearGradient id="linear-gradient-2" x1="-0.052" y1="2.626" x2="0.339" y2="3.176" xlink:href="#linear-gradient"/>
    <linearGradient id="linear-gradient-3" x1="-0.542" y1="4.802" x2="0.165" y2="5.509" xlink:href="#linear-gradient"/>
    <linearGradient id="linear-gradient-4" x1="-0.098" y1="1.621" x2="0.922" y2="1.621" xlink:href="#linear-gradient"/>
  </defs>
  <g id="Grupo_de_máscara_3" data-name="Grupo de máscara 3" transform="translate(-1459 -169)" clip-path="url(#clip-path)">
    <g id="Illustration" transform="translate(1753.197 183.207)" opacity="0.47" style="mix-blend-mode: multiply;isolation: isolate">
      <g id="Grupo_24" data-name="Grupo 24" transform="translate(-276.385 -7.457)">
        <g id="Grupo_18" data-name="Grupo 18" transform="translate(135.328 151.668)">
          <path id="Caminho_286" data-name="Caminho 286" d="M-189.52,54.761l60.983,25.505a18.968,18.968,0,0,1,10.152,24.746l-11.29,27a18.969,18.969,0,0,1-24.746,10.149l-37.087-15.511-21.579,17.568-2.651-27.744a18.947,18.947,0,0,1-9.817-24.564l11.29-27A18.97,18.97,0,0,1-189.52,54.761Z" transform="translate(227.01 -53.304)" fill="#494949"/>
          <g id="Grupo_17" data-name="Grupo 17" transform="translate(19.449 16.227)">
            <path id="Caminho_287" data-name="Caminho 287" d="M-212.607,66.821l52.329,21.606a3.244,3.244,0,0,0,4.231-1.735l.335-.8a3.244,3.244,0,0,0-1.735-4.231l-52.331-21.606a3.244,3.244,0,0,0-4.231,1.735l-.335.8A3.243,3.243,0,0,0-212.607,66.821Z" transform="translate(226.138 -59.805)" fill="#727272"/>
            <path id="Caminho_288" data-name="Caminho 288" d="M-214.922,72.72l52.328,21.606a3.244,3.244,0,0,0,4.231-1.735l.334-.8a3.246,3.246,0,0,0-1.735-4.233l-52.329-21.6a3.244,3.244,0,0,0-4.231,1.735l-.334.8A3.244,3.244,0,0,0-214.922,72.72Z" transform="translate(222.679 -50.98)" fill="#727272"/>
            <path id="Caminho_289" data-name="Caminho 289" d="M-217.235,78.621l52.331,21.6a3.242,3.242,0,0,0,4.231-1.735l.335-.8a3.244,3.244,0,0,0-1.735-4.231L-214.4,71.851a3.243,3.243,0,0,0-4.231,1.737l-.334.8A3.246,3.246,0,0,0-217.235,78.621Z" transform="translate(219.219 -42.155)" fill="#727272"/>
          </g>
        </g>
        <path id="Caminho_290" data-name="Caminho 290" d="M-182.839-6.932a44.949,44.949,0,0,0-37.616,51.24c3.762,24.539,56.235,70.188,56.235,70.188s36.383-59.275,32.622-83.812A44.948,44.948,0,0,0-182.839-6.932Zm28.775,50.6A22.824,22.824,0,0,1-182.23,59.437,22.822,22.822,0,0,1-198,31.271,22.824,22.824,0,0,1-169.831,15.5,22.826,22.826,0,0,1-154.063,43.669Z" transform="translate(371.36 7.457)" fill="url(#linear-gradient)"/>
        <g id="Grupo_19" data-name="Grupo 19" transform="translate(243.656 158.901)">
          <path id="Caminho_291" data-name="Caminho 291" d="M-39.455,116.7s-59.255,66.087-80.934,89.833a12.08,12.08,0,0,1-16.789,1.011l-41.443-37.4a15.061,15.061,0,0,1-1.228-21.16l77.941-87.738a15,15,0,0,1,21.17-1.273l40.01,35.555A15.025,15.025,0,0,1-39.455,116.7Z" transform="translate(183.611 -56.202)" fill="#727272"/>
          <path id="Caminho_292" data-name="Caminho 292" d="M-60.044,98.007-98.03,64.265a7.689,7.689,0,0,0-10.823.642l-68.057,76.621a7.685,7.685,0,0,0,.639,10.821l37.988,33.742a7.686,7.686,0,0,0,10.821-.641l58.9-66.309,9.158-10.309A7.689,7.689,0,0,0-60.044,98.007Z" transform="translate(190.757 -47.019)" fill="url(#linear-gradient-2)"/>
          <path id="Caminho_293" data-name="Caminho 293" d="M-124.858,81.451-140.112,67.9a2.186,2.186,0,0,1-.182-3.073,2.181,2.181,0,0,1,3.073-.182L-121.968,78.2a2.183,2.183,0,0,1,.182,3.073A2.185,2.185,0,0,1-124.858,81.451Z" transform="translate(247.603 -44.386)" fill="#b6b6b7"/>
        </g>
        <g id="Grupo_21" data-name="Grupo 21" transform="translate(0 114.905)">
          <g id="Grupo_20" data-name="Grupo 20" transform="translate(0 0)">
            <rect id="Retângulo_3" data-name="Retângulo 3" width="10.478" height="55.684" transform="translate(42.216 62.335) rotate(-21.303)" fill="#494949"/>
            <path id="Caminho_294" data-name="Caminho 294" d="M-206.727,63.138a38.562,38.562,0,0,1-21.916,49.937A38.563,38.563,0,0,1-278.58,91.157a38.56,38.56,0,0,1,21.918-49.935A38.559,38.559,0,0,1-206.727,63.138Z" transform="translate(281.226 -38.576)" fill="url(#linear-gradient-3)"/>
            <path id="Caminho_295" data-name="Caminho 295" d="M-226.41,60.1a25.705,25.705,0,0,1-14.61,33.291,25.706,25.706,0,0,1-33.291-14.61A25.7,25.7,0,0,1-259.7,45.491,25.7,25.7,0,0,1-226.41,60.1Z" transform="translate(288.932 -30.869)" fill="#dadaec"/>
          </g>
          <path id="Caminho_296" data-name="Caminho 296" d="M-225.586,143.99l-.2.1A8.587,8.587,0,0,1-237.7,139.6l-23.009-58.414A3.967,3.967,0,0,1-258.455,76l8.385-3.27a4,4,0,0,1,5.187,2.257l23.341,58.167A8.588,8.588,0,0,1-225.586,143.99Z" transform="translate(311.499 12.105)" fill="#303030"/>
        </g>
        <g id="Grupo_22" data-name="Grupo 22" transform="translate(250.78 109.431)">
          <path id="Caminho_297" data-name="Caminho 297" d="M-173.695,44.285l31.414-7.641a9.277,9.277,0,0,1,11.175,6.8l3.385,13.906a9.278,9.278,0,0,1-6.8,11.175l-19.105,4.65-3.4,13.177-9.091-10.159a9.264,9.264,0,0,1-10.99-6.827L-180.5,55.461A9.281,9.281,0,0,1-173.695,44.285Z" transform="translate(180.757 -36.383)" fill="#494949"/>
          <path id="Caminho_298" data-name="Caminho 298" d="M-169.052,49.309a4.154,4.154,0,0,1-4.887,3.265,4.155,4.155,0,0,1-3.265-4.885,4.155,4.155,0,0,1,4.887-3.265A4.154,4.154,0,0,1-169.052,49.309Z" transform="translate(185.954 -24.475)" fill="#727272"/>
          <path id="Caminho_299" data-name="Caminho 299" d="M-163.371,47.871a4.153,4.153,0,0,1-4.885,3.265,4.154,4.154,0,0,1-3.265-4.887,4.157,4.157,0,0,1,4.885-3.265A4.155,4.155,0,0,1-163.371,47.871Z" transform="translate(194.456 -26.629)" fill="#727272"/>
          <path id="Caminho_300" data-name="Caminho 300" d="M-157.686,46.432a4.159,4.159,0,0,1-4.887,3.265,4.155,4.155,0,0,1-3.265-4.887,4.154,4.154,0,0,1,4.887-3.265A4.156,4.156,0,0,1-157.686,46.432Z" transform="translate(202.957 -28.782)" fill="#727272"/>
        </g>
        <g id="Grupo_23" data-name="Grupo 23" transform="translate(92.162 87.887)">
          <path id="Caminho_301" data-name="Caminho 301" d="M-186.208,58.918l-26.8-27.8a11.08,11.08,0,0,0-15.621-.287L-240.935,42.7a11.077,11.077,0,0,0-.287,15.621l16.3,16.909-5,15.468,15.666-4.433A11.069,11.069,0,0,0-198.8,86.4l12.306-11.862A11.083,11.083,0,0,0-186.208,58.918Z" transform="translate(244.303 -27.752)" fill="#494949"/>
          <path id="Caminho_302" data-name="Caminho 302" d="M-229.142,46.462a4.964,4.964,0,0,0,2.841,6.42,4.963,4.963,0,0,0,6.417-2.843,4.961,4.961,0,0,0-2.841-6.418A4.962,4.962,0,0,0-229.142,46.462Z" transform="translate(266.485 -4.51)" fill="#727272"/>
          <path id="Caminho_303" data-name="Caminho 303" d="M-233.955,41.376a4.968,4.968,0,0,0,2.841,6.42,4.966,4.966,0,0,0,6.42-2.843,4.963,4.963,0,0,0-2.841-6.418A4.965,4.965,0,0,0-233.955,41.376Z" transform="translate(259.286 -12.119)" fill="#727272"/>
          <path id="Caminho_304" data-name="Caminho 304" d="M-238.765,36.29a4.966,4.966,0,0,0,2.841,6.42,4.966,4.966,0,0,0,6.42-2.843,4.963,4.963,0,0,0-2.841-6.417A4.965,4.965,0,0,0-238.765,36.29Z" transform="translate(252.088 -19.729)" fill="#727272"/>
        </g>
      </g>
      <g id="Grupo_28" data-name="Grupo 28" transform="translate(-284.461 212.283)">
        <g id="Grupo_27" data-name="Grupo 27">
          <path id="Caminho_305" data-name="Caminho 305" d="M76.67,161.16-120.948,398.5l-65.959-13.12-91.748-294.9Z" transform="translate(293.149 -65.756)" fill="url(#linear-gradient-4)"/>
          <path id="Caminho_306" data-name="Caminho 306" d="M78.789,188.5-268.69,119.381a19.589,19.589,0,0,1-15.391-23.034,19.591,19.591,0,0,1,23.037-15.391L86.432,150.073A19.589,19.589,0,1,1,78.789,188.5Z" transform="translate(284.461 -80.576)" fill="#303030"/>
          <g id="Grupo_25" data-name="Grupo 25" transform="translate(88.621 319.627)">
            <rect id="Retângulo_4" data-name="Retângulo 4" width="34.42" height="67.251" transform="translate(10.906 33.759) rotate(-78.75)" fill="#303030"/>
            <rect id="Retângulo_5" data-name="Retângulo 5" width="14.941" height="86.88" rx="2.111" transform="translate(0 39.206) rotate(-78.75)" fill="#303030"/>
          </g>
          <g id="Grupo_26" data-name="Grupo 26" transform="translate(18.277 39.324)">
            <path id="Caminho_307" data-name="Caminho 307" d="M-201.082,360.077l8.735,1.738L-216.03,117.967l-42.4-8.434Z" transform="translate(305.13 -76.576)" fill="#fff"/>
            <path id="Caminho_308" data-name="Caminho 308" d="M15.074,154.454l-258.39-51.4,4.676,24.6,235.278,46.8Z" transform="translate(327.741 -86.264)" fill="#303030"/>
            <path id="Caminho_309" data-name="Caminho 309" d="M-277.139,96.33l8.785,25.415,41.775,8.31-5.294-24.721Z" transform="translate(277.139 -96.33)" fill="#303030"/>
            <path id="Caminho_310" data-name="Caminho 310" d="M-260.55,99.629l5.294,24.721,42.4,8.434-2.091-24.084Z" transform="translate(301.957 -91.393)" fill="#494949"/>
          </g>
        </g>
        <path id="Caminho_311" data-name="Caminho 311" d="M-232.8,104.691l-40.747-8.1a6.447,6.447,0,0,1-5.065-7.581,6.448,6.448,0,0,1,7.581-5.065l40.747,8.1a6.448,6.448,0,0,1,5.065,7.581A6.448,6.448,0,0,1-232.8,104.691Z" transform="translate(293.028 -75.728)" fill="#727272"/>
        <path id="Caminho_312" data-name="Caminho 312" d="M-180.311,115.13l-67.41-13.407a6.448,6.448,0,0,1-5.065-7.581,6.446,6.446,0,0,1,7.581-5.065l67.41,13.407a6.448,6.448,0,0,1,5.065,7.581A6.445,6.445,0,0,1-180.311,115.13Z" transform="translate(331.664 -68.042)" fill="#727272"/>
        <rect id="Retângulo_6" data-name="Retângulo 6" width="26.95" height="8.906" transform="translate(117.068 349.258) rotate(-78.75)" fill="#494949"/>
      </g>
      <g id="Grupo_32" data-name="Grupo 32" transform="translate(-223.977 588.537)">
        <g id="Grupo_31" data-name="Grupo 31" transform="translate(0 0)">
          <circle id="Elipse_12" data-name="Elipse 12" cx="48.74" cy="48.74" r="48.74" transform="translate(0 46.585) rotate(-28.548)"/>
          <g id="Grupo_30" data-name="Grupo 30" transform="translate(13.491 8.564)">
            <path id="Caminho_313" data-name="Caminho 313" d="M-163.447,259.533a48.8,48.8,0,0,0-35.055-24.21,48.72,48.72,0,0,0-5.536-.539,48.557,48.557,0,0,0-16.32,2.117c-1.44.444-2.873.931-4.291,1.52a48.857,48.857,0,0,0-26.444,63.836c.589,1.42,1.256,2.778,1.96,4.109A48.538,48.538,0,0,0-239.089,319.4a49.449,49.449,0,0,0,4.3,3.535,48.8,48.8,0,0,0,41.907,7.668,49.349,49.349,0,0,0,5.631-1.907,48.857,48.857,0,0,0,26.441-63.836A48.934,48.934,0,0,0-163.447,259.533Z" transform="translate(254.825 -234.743)" fill="#303030"/>
            <g id="Grupo_29" data-name="Grupo 29" transform="translate(11.599 11.544)">
              <path id="Caminho_314" data-name="Caminho 314" d="M-227.166,242.215A37.261,37.261,0,0,0-247.332,290.9c.26.629.574,1.216.864,1.82.232.487.567.886.819,1.355a37.153,37.153,0,0,1,21.222-45.252,37.152,37.152,0,0,1,47,16.991c-.155-.509-.2-1.028-.379-1.538-.225-.631-.417-1.268-.676-1.895A37.262,37.262,0,0,0-227.166,242.215Z" transform="translate(250.178 -239.367)" fill="#494949"/>
              <path id="Caminho_315" data-name="Caminho 315" d="M-200.378,307.1a37.152,37.152,0,0,0,21.222-45.255,37.152,37.152,0,0,0-47-16.991A37.153,37.153,0,0,0-247.383,290.1,37.15,37.15,0,0,0-200.378,307.1Z" transform="translate(251.911 -235.395)" fill="#727272"/>
            </g>
          </g>
        </g>
        <path id="Caminho_316" data-name="Caminho 316" d="M-205.921,268.572a9.316,9.316,0,0,0-2.222-3.287c-6.777-6.418-20.92,3.09-22.533-.8-.811-1.962,2.361-3.277,3.345-3.684,1.558-.644,4.256-1.153,5.317,1.248l10.678-4.423c-2.653-6.408-9.63-6.762-16.252-4.628l-1.652-4.755a3.343,3.343,0,0,0-4.438-1.989,3.342,3.342,0,0,0-1.74,4.523l2.082,4.383.115.24c-.095.047-.182.1-.275.15-6.243,3.322-10.351,8.155-7.526,14.982a10.32,10.32,0,0,0,.749,1.373,7.779,7.779,0,0,0,3.6,3.22c7.209,3.12,18.97-3.981,20.481-.337.886,2.137-2.244,3.567-3.859,4.236-1.675.694-5.2,1.48-6.48-1.44l-.1-.23-10.678,4.423c2.776,6.695,10.242,7.254,17.166,5.2l1.717,4.82A3.34,3.34,0,0,0-214,293.76a3.342,3.342,0,0,0,1.73-4.545l-2.192-4.528C-207.518,281.2-202.836,276.018-205.921,268.572Z" transform="translate(287.608 -209.338)" fill="#fff"/>
      </g>
    </g>
  </g>
</svg>
