<svg width="103" height="37" viewBox="0 0 103 37" fill="none" xmlns="http://www.w3.org/2000/svg">
<path d="M0.142456 0.854614H48.1829V9.58467H0.142456V0.854614ZM19.773 15.7802V36.427H28.5524V15.7802H19.773ZM102.439 18.6408C102.439 16.5954 102.007 14.6686 101.202 12.9196C100.65 11.7042 99.9348 10.5777 99.0703 9.58467C98.802 9.27341 94.7477 4.97508 94.7477 4.97508C92.2287 2.3368 88.7259 0.854614 85.074 0.854614H54.4134V9.58467H84.135C85.9982 9.58467 87.7868 10.3406 89.0836 11.6894L91.9902 14.713C92.8994 15.7654 93.4509 17.129 93.4509 18.626C93.4509 20.1082 92.8994 21.4718 92.0051 22.5241L89.0836 25.5774C87.7868 26.9262 85.9982 27.6821 84.135 27.6821H54.4134V36.4122H85.089C88.7408 36.4122 92.2436 34.93 94.7626 32.2917C94.7626 32.2917 98.8169 28.0082 99.0852 27.6821C99.9497 26.689 100.665 25.5626 101.217 24.3472C102.007 22.6279 102.439 20.6862 102.439 18.6408Z" fill="black"/>
</svg>
