<svg width="700" height="699" viewBox="0 0 700 699" fill="none" xmlns="http://www.w3.org/2000/svg">
<path d="M360.213 10.6337C360.19 11.508 360.038 12.2909 359.758 12.9823C359.478 13.6737 359.094 14.2582 358.606 14.736C358.118 15.2137 357.541 15.5743 356.872 15.8177C356.204 16.0612 355.468 16.1721 354.663 16.1504L350.536 16.0394L350.841 4.72349L354.967 4.83451C355.772 4.85616 356.502 5.00651 357.156 5.28553C357.81 5.56455 358.368 5.95569 358.829 6.45895C359.29 6.9622 359.642 7.56655 359.884 8.27199C360.127 8.97744 360.236 9.76467 360.213 10.6337ZM359.365 10.6109C359.387 9.82183 359.296 9.11515 359.094 8.49082C358.892 7.8665 358.597 7.3357 358.209 6.89843C357.826 6.46131 357.357 6.12325 356.804 5.88427C356.25 5.64529 355.632 5.51663 354.949 5.49827L351.646 5.40941L351.378 15.3978L354.681 15.4867C355.363 15.505 355.987 15.4098 356.553 15.2009C357.119 14.992 357.605 14.6797 358.011 14.2638C358.422 13.848 358.745 13.3339 358.98 12.7213C359.216 12.1087 359.344 11.4053 359.365 10.6109Z" fill="black"/>
<path d="M295.24 683.416C295.183 683.736 295.069 684.027 294.898 684.289C294.727 684.551 294.517 684.769 294.27 684.941C294.021 685.119 293.747 685.244 293.448 685.315C293.148 685.386 292.84 685.394 292.525 685.338C292.205 685.281 291.914 685.167 291.652 684.995C291.39 684.824 291.173 684.612 291.001 684.359C290.828 684.112 290.707 683.836 290.637 683.531C290.566 683.226 290.56 682.913 290.617 682.593C290.673 682.278 290.786 681.992 290.956 681.735C291.126 681.484 291.334 681.271 291.582 681.099C291.829 680.926 292.105 680.805 292.41 680.734C292.715 680.664 293.028 680.657 293.348 680.714C293.663 680.771 293.949 680.884 294.206 681.054C294.463 681.224 294.678 681.433 294.85 681.681C295.023 681.928 295.145 682.199 295.217 682.494C295.289 682.793 295.296 683.101 295.24 683.416Z" fill="black"/>
<path d="M246.266 671.433L247.718 667.11L248.492 667.37L244.887 678.101L242.119 677.171C240.86 676.748 240.005 676.154 239.553 675.389C239.096 674.622 239.039 673.728 239.382 672.707C239.54 672.236 239.774 671.834 240.083 671.499C240.387 671.162 240.752 670.905 241.178 670.728C241.602 670.555 242.076 670.467 242.6 670.463C243.123 670.464 243.68 670.564 244.272 670.763L246.266 671.433ZM246.057 672.055L244.063 671.385C243.588 671.225 243.141 671.148 242.723 671.154C242.304 671.159 241.927 671.235 241.591 671.381C241.25 671.525 240.959 671.731 240.717 671.999C240.468 672.27 240.281 672.592 240.156 672.967C239.879 673.791 239.921 674.511 240.282 675.127C240.638 675.742 241.319 676.218 242.325 676.556L244.32 677.227L246.057 672.055Z" fill="black"/>
<path d="M224.636 664.289L226.599 659.561L227.353 659.874L223.011 670.328L220.344 669.221C219.138 668.719 218.333 668.111 217.932 667.396C217.528 666.685 217.513 665.879 217.888 664.978C218.053 664.579 218.274 664.243 218.549 663.97C218.824 663.698 219.144 663.49 219.509 663.347C219.867 663.207 220.263 663.132 220.695 663.121C221.125 663.114 221.579 663.182 222.057 663.323C221.97 663.2 221.905 663.057 221.862 662.895L220.142 656.879L220.8 657.152C220.878 657.185 220.941 657.229 220.988 657.283C221.03 657.335 221.064 657.406 221.089 657.498L222.675 663.129C222.714 663.272 222.773 663.386 222.853 663.471C222.928 663.554 223.067 663.638 223.269 663.722L224.636 664.289ZM224.403 664.851L222.585 664.096C222.122 663.904 221.686 663.786 221.276 663.743C220.86 663.703 220.483 663.734 220.146 663.837C219.804 663.937 219.506 664.105 219.252 664.341C218.999 664.576 218.796 664.876 218.645 665.24C218.336 665.984 218.351 666.637 218.689 667.199C219.027 667.761 219.662 668.236 220.593 668.622L222.506 669.417L224.403 664.851Z" fill="black"/>
<path d="M194.048 650.931C194.444 650.151 194.92 649.502 195.477 648.983C196.031 648.469 196.634 648.093 197.287 647.856C197.937 647.624 198.62 647.534 199.335 647.586C200.048 647.643 200.763 647.854 201.481 648.219C202.19 648.578 202.778 649.029 203.244 649.571C203.708 650.118 204.038 650.722 204.235 651.384C204.429 652.051 204.484 652.761 204.4 653.514C204.31 654.269 204.067 655.037 203.671 655.817C203.277 656.592 202.803 657.237 202.249 657.751C201.688 658.267 201.082 658.642 200.432 658.874C199.779 659.111 199.095 659.203 198.38 659.151C197.665 659.099 196.953 658.893 196.244 658.533C195.526 658.169 194.935 657.713 194.471 657.166C194.004 656.624 193.674 656.02 193.48 655.353C193.287 654.687 193.235 653.976 193.325 653.22C193.414 652.469 193.654 651.706 194.048 650.931ZM194.804 651.315C194.447 652.019 194.223 652.701 194.133 653.361C194.043 654.021 194.078 654.637 194.236 655.208C194.39 655.776 194.665 656.29 195.06 656.748C195.453 657.21 195.954 657.596 196.563 657.905C197.162 658.21 197.765 658.384 198.37 658.428C198.969 658.475 199.547 658.395 200.107 658.188C200.661 657.98 201.181 657.645 201.666 657.186C202.146 656.723 202.564 656.14 202.922 655.437C203.281 654.728 203.506 654.044 203.596 653.384C203.679 652.726 203.641 652.111 203.482 651.54C203.319 650.967 203.042 650.452 202.651 649.997C202.256 649.539 201.758 649.158 201.159 648.853C200.55 648.544 199.944 648.365 199.341 648.316C198.738 648.267 198.162 648.348 197.612 648.56C197.057 648.768 196.541 649.102 196.064 649.559C195.584 650.021 195.164 650.607 194.804 651.315Z" fill="black"/>
<path d="M181.86 637.856L175.982 647.53L173.199 645.84C172.648 645.505 172.205 645.16 171.87 644.807C171.531 644.451 171.294 644.086 171.16 643.711C171.023 643.341 170.984 642.964 171.042 642.581C171.095 642.196 171.239 641.809 171.475 641.422C171.63 641.166 171.825 640.948 172.06 640.766C172.291 640.582 172.551 640.441 172.842 640.343C173.132 640.245 173.446 640.195 173.784 640.194C174.114 640.195 174.46 640.253 174.822 640.366C174.13 639.79 173.698 639.181 173.526 638.54C173.354 637.898 173.463 637.256 173.853 636.614C174.103 636.204 174.4 635.879 174.745 635.639C175.09 635.4 175.471 635.25 175.888 635.191C176.304 635.133 176.753 635.165 177.233 635.288C177.711 635.416 178.207 635.637 178.722 635.95L181.86 637.856ZM178.346 642.068L180.822 637.993L178.395 636.519C177.543 636.001 176.79 635.792 176.135 635.894C175.478 636 174.947 636.386 174.542 637.051C174.357 637.357 174.25 637.666 174.222 637.98C174.186 638.295 174.226 638.603 174.343 638.905C174.456 639.211 174.645 639.507 174.908 639.792C175.172 640.077 175.507 640.343 175.912 640.589L178.346 642.068ZM178.035 642.581L175.936 641.305C175.489 641.034 175.074 640.86 174.69 640.783C174.302 640.703 173.951 640.695 173.637 640.76C173.318 640.822 173.039 640.943 172.799 641.122C172.559 641.301 172.363 641.515 172.211 641.766C171.815 642.418 171.723 643.036 171.936 643.621C172.141 644.207 172.674 644.762 173.536 645.286L175.621 646.553L178.035 642.581Z" fill="black"/>
<path d="M160.591 625.19L156.201 622.1L156.602 621.531L161.659 625.09L155.143 634.348L154.476 633.878L160.591 625.19Z" fill="black"/>
<path d="M132.349 617.329L132.775 616.799L137.416 620.539L140.287 616.976L136.425 613.864L136.842 613.347L140.704 616.459L143.666 612.783L139.025 609.044L139.451 608.514L144.734 612.771L137.631 621.585L132.349 617.329Z" fill="black"/>
<path d="M121.205 597.114C121.249 596.95 121.308 596.786 121.383 596.622C121.301 596.662 121.221 596.7 121.143 596.736C121.057 596.773 120.973 596.803 120.891 596.828L112.258 599.492C112.179 599.514 112.119 599.515 112.077 599.498C112.035 599.48 111.987 599.446 111.932 599.394L111.519 599.004L119.291 590.774L119.814 591.268L113.191 598.283C113.096 598.384 112.989 598.485 112.871 598.586L121.543 595.893C121.693 595.843 121.818 595.866 121.919 595.961L122.012 596.049C122.109 596.141 122.138 596.264 122.101 596.42L119.991 605.32C120.086 605.197 120.182 605.083 120.281 604.978L126.905 597.963L127.423 598.452L119.651 606.683L119.244 606.298C119.19 606.247 119.153 606.201 119.132 606.16C119.109 606.115 119.105 606.053 119.121 605.973L121.205 597.114Z" fill="black"/>
<path d="M86.0012 569.733C86.1016 569.712 86.1809 569.736 86.2391 569.805C86.2836 569.858 86.3051 569.959 86.3034 570.106C86.2943 570.253 86.3047 570.436 86.3347 570.654C86.3605 570.876 86.4254 571.128 86.5293 571.409C86.6298 571.687 86.8119 571.983 87.0757 572.298C87.3395 572.613 87.6174 572.853 87.9095 573.019C88.1981 573.181 88.4886 573.278 88.7809 573.311C89.0699 573.341 89.3525 573.313 89.6288 573.227C89.9017 573.138 90.1506 572.999 90.3754 572.81C90.6697 572.564 90.8615 572.298 90.9509 572.015C91.0368 571.727 91.0616 571.424 91.0252 571.107C90.9888 570.79 90.9097 570.463 90.7879 570.126C90.6586 569.789 90.5241 569.446 90.3845 569.097C90.2449 568.748 90.1224 568.398 90.0169 568.048C89.904 567.698 89.8436 567.351 89.8358 567.01C89.828 566.669 89.8934 566.336 90.0318 566.011C90.1626 565.685 90.4059 565.374 90.7615 565.076C91.1253 564.771 91.5218 564.546 91.9509 564.402C92.3725 564.258 92.8012 564.205 93.237 564.243C93.6728 564.282 94.104 564.414 94.5308 564.641C94.9534 564.871 95.3498 565.207 95.7197 565.649C96.1993 566.221 96.512 566.798 96.6577 567.378C96.7993 567.962 96.8245 568.557 96.7333 569.162L96.3197 569.217C96.2172 569.219 96.1386 569.188 96.0838 569.122C96.053 569.085 96.0381 569.018 96.0392 568.92C96.0403 568.821 96.0434 568.7 96.0484 568.557C96.0494 568.417 96.0449 568.254 96.0348 568.067C96.0206 567.884 95.9869 567.686 95.9338 567.473C95.8765 567.264 95.7902 567.041 95.6748 566.803C95.5594 566.566 95.3972 566.323 95.1883 566.073C94.9005 565.73 94.5925 565.466 94.2642 565.282C93.9318 565.101 93.5986 564.994 93.2646 564.961C92.9272 564.924 92.5947 564.959 92.2672 565.066C91.9357 565.177 91.6289 565.351 91.3468 565.587C91.0402 565.844 90.8419 566.118 90.7519 566.409C90.6544 566.7 90.6259 567.002 90.6664 567.316C90.7028 567.634 90.7856 567.961 90.9149 568.298C91.0408 568.631 91.1756 568.97 91.3193 569.316C91.463 569.662 91.5913 570.01 91.7043 570.36C91.8138 570.707 91.8725 571.051 91.8803 571.392C91.8839 571.737 91.8163 572.076 91.6772 572.408C91.5306 572.74 91.2713 573.061 90.8994 573.373C90.6091 573.616 90.2829 573.796 89.9206 573.912C89.5583 574.027 89.1859 574.064 88.8034 574.023C88.4168 573.985 88.032 573.863 87.649 573.655C87.2585 573.446 86.8954 573.142 86.5597 572.741C86.1829 572.291 85.9169 571.829 85.762 571.353C85.6036 570.874 85.5482 570.363 85.5959 569.822L86.0012 569.733Z" fill="black"/>
<path d="M73.3926 546.425C74.1015 545.913 74.8221 545.554 75.5545 545.347C76.2825 545.143 76.9908 545.085 77.6795 545.173C78.3639 545.264 79.0121 545.496 79.6243 545.87C80.2321 546.247 80.7719 546.761 81.2436 547.414C81.7091 548.058 82.0253 548.728 82.1922 549.423C82.3548 550.122 82.372 550.81 82.2437 551.488C82.111 552.17 81.8354 552.826 81.4167 553.458C80.9905 554.089 80.423 554.66 79.714 555.172C79.0094 555.681 78.2932 556.038 77.5652 556.242C76.8297 556.444 76.1198 556.5 75.4355 556.409C74.7468 556.321 74.0963 556.09 73.4842 555.716C72.872 555.343 72.3332 554.834 71.8677 554.19C71.396 553.537 71.0788 552.862 70.9162 552.163C70.7493 551.468 70.7322 550.779 70.8648 550.098C70.9974 549.417 71.2768 548.761 71.703 548.13C72.1248 547.503 72.688 546.935 73.3926 546.425ZM73.8893 547.113C73.2496 547.575 72.7387 548.079 72.3567 548.625C71.9747 549.171 71.7236 549.734 71.6035 550.314C71.4802 550.89 71.4896 551.472 71.6318 552.061C71.7696 552.652 72.0385 553.224 72.4383 553.778C72.832 554.322 73.2879 554.753 73.8061 555.069C74.3169 555.384 74.8682 555.578 75.4601 555.651C76.0488 555.719 76.6639 555.659 77.3051 555.472C77.9433 555.281 78.5823 554.954 79.222 554.491C79.8661 554.026 80.3791 553.52 80.7611 552.974C81.1357 552.427 81.383 551.864 81.5032 551.283C81.6202 550.699 81.6092 550.114 81.4702 549.53C81.328 548.942 81.0602 548.376 80.6665 547.831C80.2667 547.278 79.8098 546.841 79.2959 546.522C78.782 546.202 78.2322 546.011 77.6466 545.947C77.0578 545.879 76.4465 545.939 75.8127 546.127C75.1745 546.319 74.5334 546.647 73.8893 547.113Z" fill="black"/>
<path d="M67.5458 528.896L64.7214 524.331L65.3133 523.965L68.567 529.224L58.9406 535.18L58.5113 534.486L67.5458 528.896Z" fill="black"/>
<path d="M48.5469 517.923L48.2438 517.35C48.2089 517.284 48.199 517.22 48.2143 517.157C48.2248 517.098 48.2521 517.041 48.2962 516.987L54.7931 509.186C54.9625 508.981 55.1548 508.786 55.37 508.6C55.088 508.682 54.8209 508.736 54.5686 508.761L44.4675 509.754C44.4032 509.758 44.341 509.749 44.2808 509.726C44.2181 509.699 44.1693 509.653 44.1344 509.587L43.835 509.021L56.0255 507.854L56.3661 508.498L48.5469 517.923Z" fill="black"/>
<path d="M33.9022 488.318L34.5239 488.043L36.9397 493.491L41.1229 491.636L39.1124 487.102L39.7194 486.833L41.7299 491.367L46.0448 489.454L43.629 484.005L44.2506 483.73L47.0004 489.932L36.652 494.52L33.9022 488.318Z" fill="black"/>
<path d="M33.0632 470.039L37.8766 468.294L38.1548 469.061L27.5128 472.919L26.5283 470.204C26.0828 468.976 25.9883 467.972 26.2446 467.193C26.4959 466.415 27.0803 465.86 27.9979 465.527C28.404 465.38 28.8005 465.316 29.1873 465.334C29.5742 465.353 29.9436 465.449 30.2957 465.622C30.6409 465.792 30.9635 466.032 31.2635 466.343C31.5585 466.656 31.8156 467.036 32.0349 467.484C32.0664 467.337 32.1276 467.193 32.2184 467.052L35.4931 461.72L35.7358 462.39C35.7649 462.47 35.7753 462.546 35.767 462.617C35.7569 462.683 35.7268 462.756 35.6766 462.837L32.595 467.809C32.5156 467.934 32.4715 468.055 32.4628 468.172C32.4522 468.283 32.4842 468.442 32.5587 468.648L33.0632 470.039ZM32.4917 470.246L31.8208 468.396C31.6499 467.925 31.442 467.524 31.1972 467.193C30.9455 466.858 30.668 466.602 30.3647 466.422C30.0596 466.238 29.7345 466.132 29.3896 466.103C29.0447 466.075 28.6868 466.129 28.3157 466.263C27.5586 466.538 27.0871 466.989 26.901 467.619C26.715 468.248 26.7938 469.036 27.1374 469.984L27.8438 471.931L32.4917 470.246Z" fill="black"/>
<path d="M19.4155 444.178C19.5159 444.199 19.5787 444.253 19.6038 444.34C19.623 444.406 19.602 444.507 19.5407 444.641C19.4729 444.772 19.4085 444.943 19.3474 445.155C19.2813 445.368 19.2386 445.625 19.2196 445.924C19.199 446.219 19.2456 446.563 19.3593 446.958C19.473 447.353 19.6299 447.685 19.8298 447.955C20.0282 448.219 20.2543 448.426 20.5081 448.575C20.7605 448.719 21.0303 448.808 21.3175 448.841C21.6033 448.87 21.8871 448.844 22.169 448.762C22.5379 448.656 22.8207 448.491 23.0173 448.268C23.2123 448.04 23.3575 447.773 23.4528 447.468C23.548 447.163 23.6081 446.832 23.6329 446.476C23.6511 446.115 23.6671 445.747 23.6809 445.371C23.6946 444.995 23.7242 444.626 23.7695 444.263C23.8082 443.897 23.8931 443.556 24.0243 443.241C24.1554 442.925 24.35 442.647 24.608 442.406C24.8595 442.162 25.2081 441.975 25.654 441.847C26.1101 441.715 26.5634 441.671 27.0141 441.713C27.4581 441.751 27.8716 441.876 28.2545 442.088C28.6374 442.3 28.978 442.595 29.2763 442.976C29.5695 443.357 29.7959 443.825 29.9554 444.378C30.1622 445.096 30.2146 445.75 30.1127 446.34C30.0057 446.931 29.7879 447.485 29.4594 448.002L29.0592 447.884C28.9646 447.844 28.9055 447.784 28.8818 447.702C28.8685 447.656 28.8823 447.588 28.9231 447.498C28.9639 447.409 29.0157 447.3 29.0784 447.171C29.136 447.043 29.1979 446.892 29.2641 446.717C29.3253 446.544 29.3746 446.35 29.4122 446.134C29.4447 445.919 29.4562 445.68 29.4468 445.416C29.4374 445.152 29.3877 444.864 29.2976 444.551C29.1735 444.121 28.9987 443.755 28.7731 443.454C28.5423 443.154 28.281 442.921 27.989 442.756C27.6956 442.585 27.3774 442.482 27.0345 442.448C26.6864 442.415 26.3356 442.45 25.982 442.551C25.5976 442.662 25.3053 442.832 25.1051 443.062C24.8984 443.288 24.7499 443.553 24.6597 443.857C24.5645 444.162 24.5077 444.494 24.4895 444.855C24.4699 445.21 24.4557 445.575 24.447 445.949C24.4384 446.324 24.4147 446.694 24.376 447.061C24.3358 447.422 24.2501 447.76 24.119 448.075C23.9827 448.392 23.7838 448.674 23.5221 448.922C23.2538 449.166 22.8865 449.355 22.4201 449.489C22.0563 449.594 21.6853 449.626 21.3072 449.585C20.929 449.544 20.5735 449.428 20.2404 449.235C19.9022 449.044 19.6002 448.776 19.3342 448.43C19.0616 448.082 18.8529 447.656 18.7081 447.154C18.5456 446.59 18.4898 446.06 18.5407 445.562C18.5901 445.059 18.7461 444.57 19.0087 444.095L19.4155 444.178Z" fill="black"/>
<path d="M4.7976 343.396L5.49355 343.405L5.44183 347.381L16.0649 347.519L16.0543 348.335L5.43122 348.197L5.37919 352.197L4.68325 352.188L4.7976 343.396Z" fill="black"/>
<path d="M17.397 319.793L17.3255 320.614L11.922 320.143L11.3063 327.204L16.7098 327.675L16.6382 328.496L5.36098 327.513L5.43256 326.692L10.6926 327.15L11.3083 320.089L6.04826 319.631L6.11984 318.81L17.397 319.793Z" fill="black"/>
<path d="M19.6635 300.706L19.5406 301.521L8.34723 299.833L8.47015 299.018L19.6635 300.706Z" fill="black"/>
<path d="M10.9123 284.214C10.9281 284.141 10.9509 284.085 10.9807 284.048C11.0054 284.01 11.054 283.974 11.1267 283.941L22.2597 278.846C22.0999 278.828 21.947 278.803 21.801 278.771L12.5186 276.769L12.6704 276.065L23.7359 278.452L23.6532 278.836C23.6273 278.955 23.5544 279.041 23.4344 279.091L12.279 284.214C12.4388 284.232 12.5891 284.256 12.7298 284.286L22.0436 286.296L21.8934 286.992L10.828 284.605L10.9123 284.214Z" fill="black"/>
<path d="M22.486 258.067L22.6773 257.422C22.7062 257.325 22.7287 257.24 22.7448 257.167C22.7558 257.092 22.7595 257.024 22.7557 256.962C22.7484 256.893 22.7344 256.827 22.7138 256.766C22.6932 256.704 22.6631 256.637 22.6236 256.564L19.4225 250.848C19.365 250.742 19.3308 250.651 19.3198 250.575C19.3053 250.493 19.3132 250.401 19.3436 250.298L19.5326 249.662L22.9948 255.848C23.0682 255.975 23.1216 256.086 23.1551 256.179C23.1901 256.267 23.2118 256.363 23.2203 256.465C23.2828 256.367 23.3595 256.287 23.4502 256.225C23.5374 256.156 23.645 256.094 23.7731 256.037L30.473 252.586L30.2839 253.222C30.2445 253.355 30.1985 253.444 30.146 253.49C30.0884 253.534 30.0198 253.578 29.9402 253.621L23.8825 256.821C23.8096 256.86 23.7458 256.897 23.6913 256.931C23.6367 256.965 23.5875 257.008 23.5437 257.062C23.4963 257.109 23.4554 257.172 23.4209 257.251C23.3812 257.328 23.3432 257.428 23.3068 257.551L23.0995 258.249L28.3297 259.802L28.0974 260.584L17.2305 257.357L17.4628 256.575L22.486 258.067Z" fill="black"/>
<path d="M32.9268 216.558C32.9919 216.637 33.007 216.719 32.972 216.802C32.9452 216.866 32.8659 216.931 32.7341 216.998C32.5995 217.057 32.442 217.15 32.2617 217.277C32.0765 217.402 31.8826 217.575 31.68 217.797C31.4795 218.013 31.3 218.311 31.1415 218.69C30.983 219.069 30.8971 219.426 30.8839 219.762C30.8727 220.092 30.9195 220.395 31.0241 220.67C31.1307 220.94 31.2855 221.178 31.4882 221.385C31.6931 221.586 31.9308 221.743 32.2014 221.856C32.5556 222.005 32.8792 222.053 33.1722 222.003C33.4673 221.947 33.7474 221.83 34.0127 221.652C34.278 221.474 34.5321 221.253 34.7749 220.991C35.0149 220.721 35.258 220.444 35.5042 220.16C35.7503 219.876 36.0047 219.606 36.2672 219.352C36.5269 219.09 36.8066 218.878 37.1063 218.714C37.406 218.551 37.7319 218.456 38.084 218.43C38.4331 218.396 38.8217 218.469 39.2498 218.649C39.6877 218.832 40.069 219.081 40.3939 219.396C40.7159 219.704 40.9599 220.061 41.1258 220.466C41.2918 220.87 41.3719 221.314 41.3663 221.798C41.3557 222.279 41.2393 222.785 41.017 223.317C40.7288 224.005 40.3602 224.548 39.9112 224.944C39.4572 225.338 38.9405 225.633 38.3609 225.83L38.1227 225.488C38.0736 225.398 38.0655 225.313 38.0984 225.235C38.117 225.19 38.1702 225.146 38.258 225.102C38.3459 225.058 38.4547 225.005 38.5844 224.944C38.7092 224.88 38.8521 224.801 39.0131 224.707C39.1691 224.61 39.3295 224.489 39.4942 224.344C39.654 224.197 39.8129 224.018 39.9707 223.807C40.1286 223.595 40.2703 223.339 40.3958 223.039C40.5688 222.626 40.6617 222.231 40.6745 221.855C40.6825 221.477 40.6245 221.132 40.5007 220.82C40.3789 220.503 40.1951 220.224 39.9493 219.982C39.6986 219.738 39.4035 219.545 39.064 219.403C38.695 219.249 38.3606 219.199 38.0606 219.252C37.7577 219.299 37.4761 219.412 37.2158 219.593C36.9505 219.771 36.6978 219.995 36.4579 220.264C36.2199 220.529 35.9803 220.804 35.7391 221.091C35.4978 221.377 35.2474 221.651 34.9877 221.912C34.7301 222.169 34.4514 222.379 34.1517 222.542C33.8471 222.704 33.5152 222.799 33.1562 222.828C32.7943 222.85 32.3895 222.768 31.9418 222.58C31.5925 222.434 31.2833 222.227 31.0141 221.958C30.745 221.689 30.541 221.376 30.402 221.017C30.2581 220.656 30.1906 220.258 30.1995 219.822C30.2055 219.379 30.3094 218.917 30.5111 218.435C30.7375 217.894 31.0264 217.445 31.3777 217.089C31.7311 216.728 32.159 216.445 32.6614 216.239L32.9268 216.558Z" fill="black"/>
<path d="M48.8825 205.312L48.5241 206.053L38.3314 201.129L38.6899 200.387L48.8825 205.312Z" fill="black"/>
<path d="M54.871 186.478C55.0404 186.483 55.2137 186.502 55.3911 186.535C55.3328 186.465 55.2767 186.396 55.223 186.329C55.1673 186.254 55.1176 186.18 55.0738 186.106L50.4386 178.351C50.3995 178.279 50.3835 178.221 50.3907 178.176C50.3979 178.131 50.4199 178.076 50.4569 178.011L50.7378 177.518L60.5765 183.116L60.2204 183.742L51.8349 178.97C51.7144 178.902 51.5909 178.822 51.4643 178.732L56.1373 186.518C56.2209 186.651 56.2284 186.778 56.1598 186.899L56.0965 187.01C56.0305 187.126 55.9175 187.184 55.7574 187.185L46.6107 187.246C46.753 187.308 46.8868 187.375 47.0119 187.446L55.3974 192.218L55.0453 192.837L45.2066 187.238L45.4835 186.751C45.5205 186.687 45.5564 186.639 45.5914 186.61C45.6291 186.577 45.6886 186.558 45.7699 186.555L54.871 186.478Z" fill="black"/>
<path d="M67.1249 163.751L70.8993 166.31L70.4414 166.985L61.0717 160.633L62.7103 158.216C63.4555 157.117 64.2572 156.452 65.1155 156.222C65.9767 155.988 66.8532 156.173 67.7449 156.777C68.1555 157.055 68.4805 157.389 68.7201 157.777C68.9627 158.16 69.1125 158.581 69.1696 159.038C69.2223 159.493 69.1801 159.973 69.043 160.479C68.9016 160.983 68.6557 161.493 68.3056 162.009L67.1249 163.751ZM66.5819 163.383L67.7626 161.641C68.0439 161.226 68.2379 160.816 68.3446 160.412C68.4513 160.007 68.4794 159.624 68.429 159.261C68.3816 158.894 68.2614 158.558 68.0685 158.253C67.8742 157.941 67.6137 157.674 67.287 157.453C66.5675 156.965 65.8623 156.812 65.1716 156.995C64.4838 157.173 63.8422 157.701 63.2466 158.579L62.066 160.321L66.5819 163.383Z" fill="black"/>
<path d="M83.1477 147.779L86.4422 143.541L86.9917 143.968L83.1964 148.851L74.2592 141.903L74.76 141.259L83.1477 147.779Z" fill="black"/>
<path d="M92.3411 119.942L92.8497 120.394L88.8939 124.852L92.3167 127.889L95.6088 124.179L96.1054 124.619L92.8133 128.329L96.3439 131.462L100.3 127.004L100.808 127.455L96.3056 132.53L87.8383 125.017L92.3411 119.942Z" fill="black"/>
<path d="M128.466 93.535C128.257 93.2855 128.107 93.011 128.016 92.7115C127.925 92.4119 127.893 92.1119 127.92 91.8113C127.943 91.5067 128.023 91.2167 128.161 90.9411C128.299 90.6656 128.491 90.4252 128.736 90.2197C128.986 90.0109 129.26 89.861 129.56 89.7702C129.86 89.6793 130.161 89.6493 130.465 89.68C130.766 89.7066 131.055 89.7909 131.334 89.933C131.613 90.0751 131.857 90.2708 132.066 90.5202C132.272 90.7656 132.418 91.036 132.505 91.3315C132.589 91.6229 132.618 91.9188 132.591 92.2193C132.565 92.5198 132.481 92.8096 132.338 93.0885C132.196 93.3675 132.001 93.6114 131.751 93.8202C131.506 94.0256 131.235 94.1721 130.94 94.2595C130.644 94.3469 130.346 94.3773 130.046 94.3507C129.745 94.3241 129.459 94.2438 129.187 94.1099C128.912 93.972 128.671 93.7803 128.466 93.535Z" fill="black"/>
<path d="M170.464 54.9407L170.819 55.5207L165.735 58.6316L168.22 62.6918L172.621 59.9984L172.976 60.5784L168.575 63.2718L171.289 67.7073L170.586 68.1374L164.677 58.4817L170.464 54.9407Z" fill="black"/>
<path d="M190.87 56.2801L190.145 56.6702L184.786 46.6988L185.512 46.3087L190.87 56.2801Z" fill="black"/>
<path d="M198.826 39.388C198.894 39.3568 198.952 39.342 199 39.3436C199.045 39.3403 199.103 39.3578 199.173 39.3959L209.925 45.2524C209.844 45.1137 209.772 44.9765 209.709 44.8408L205.748 36.2106L206.402 35.9103L211.125 46.1981L210.769 46.3616C210.657 46.4128 210.545 46.4055 210.433 46.3397L199.645 40.482C199.727 40.6207 199.797 40.7555 199.857 40.8864L203.832 49.5456L203.185 49.8426L198.463 39.5548L198.826 39.388Z" fill="black"/>
<path d="M234.83 30.4388C235.13 31.2605 235.277 32.0443 235.271 32.7903C235.264 33.5362 235.122 34.2209 234.845 34.8445C234.567 35.4681 234.162 36.0159 233.63 36.488C233.098 36.9601 232.454 37.3341 231.698 37.61L227.819 39.0242L223.941 28.3891L227.82 26.975C228.576 26.6991 229.31 26.5706 230.021 26.5896C230.732 26.6085 231.394 26.7672 232.008 27.0656C232.622 27.3639 233.172 27.7965 233.656 28.3634C234.141 28.9303 234.533 29.622 234.83 30.4388ZM234.034 30.7293C233.763 29.9877 233.419 29.3638 233.002 28.8574C232.585 28.3511 232.115 27.9661 231.593 27.7022C231.076 27.4366 230.516 27.2945 229.913 27.2759C229.311 27.2573 228.688 27.3649 228.047 27.5988L224.943 28.7307L228.366 38.1181L231.47 36.9862C232.111 36.7523 232.657 36.4342 233.106 36.0319C233.556 35.6296 233.893 35.1605 234.117 34.6244C234.347 34.0865 234.458 33.4895 234.452 32.8334C234.445 32.1772 234.306 31.4759 234.034 30.7293Z" fill="black"/>
<path d="M270.739 13.9244L270.902 14.6012L267.035 15.5283L269.513 25.8594L268.719 26.0497L266.242 15.7186L262.352 16.6513L262.19 15.9745L270.739 13.9244Z" fill="black"/>
<path d="M296.715 20.3347L295.902 20.4671L295.031 15.1136L288.035 16.2525L288.906 21.6061L288.093 21.7385L286.274 10.5656L287.087 10.4331L287.936 15.6445L294.932 14.5056L294.083 9.29424L294.896 9.16184L296.715 20.3347Z" fill="black"/>
<path d="M320.465 6.03451L320.525 6.71192L314.587 7.23225L314.987 11.7908L319.928 11.3578L319.986 12.0192L315.045 12.4522L315.457 17.1542L321.394 16.6339L321.454 17.3113L314.695 17.9036L313.707 6.62679L320.465 6.03451Z" fill="black"/>
<path d="M385.871 18.1162L385.242 18.0512C385.168 18.0435 385.109 18.0186 385.065 17.9766C385.021 17.9292 384.99 17.8723 384.97 17.8059L383.979 14.3978L378.449 13.8256L376.79 16.9594C376.762 17.0156 376.72 17.0621 376.662 17.0991C376.605 17.136 376.539 17.1507 376.465 17.143L375.844 17.0788L381.617 6.29562L382.428 6.3796L385.871 18.1162ZM378.758 13.2463L383.803 13.7684L382.092 7.84076C382.064 7.74673 382.038 7.6421 382.012 7.52685C381.987 7.4063 381.962 7.28044 381.939 7.14928C381.888 7.27275 381.838 7.39093 381.789 7.50379C381.741 7.61136 381.693 7.71096 381.646 7.80261L378.758 13.2463Z" fill="black"/>
<path d="M431.432 26.3496L430.818 26.1981C430.746 26.1802 430.691 26.1474 430.653 26.0996C430.617 26.0467 430.593 25.986 430.583 25.9174L430.074 22.4051L424.676 21.0723L422.598 23.9461C422.564 23.9979 422.515 24.0382 422.453 24.0668C422.391 24.0954 422.324 24.1008 422.251 24.0829L421.646 23.9333L428.856 14.0537L429.649 14.2493L431.432 26.3496ZM425.062 20.5415L429.987 21.7573L429.113 15.6498C429.099 15.5529 429.087 15.4455 429.077 15.3279C429.069 15.205 429.062 15.077 429.057 14.9437C428.99 15.0591 428.924 15.1692 428.86 15.2742C428.797 15.3739 428.736 15.466 428.676 15.5502L425.062 20.5415Z" fill="black"/>
<path d="M474.06 35.0983C474.185 34.7977 474.359 34.5377 474.582 34.3185C474.806 34.0993 475.057 33.9319 475.335 33.8163C475.616 33.6958 475.91 33.6329 476.218 33.6276C476.527 33.6223 476.828 33.6808 477.124 33.8031C477.425 33.9275 477.685 34.1014 477.904 34.3248C478.123 34.5483 478.29 34.8018 478.403 35.0854C478.519 35.3641 478.578 35.6599 478.581 35.973C478.585 36.286 478.524 36.5928 478.4 36.8934C478.277 37.1891 478.106 37.4441 477.884 37.6584C477.665 37.8678 477.416 38.0303 477.137 38.1459C476.858 38.2615 476.562 38.3209 476.249 38.3241C475.936 38.3274 475.63 38.2668 475.329 38.1425C475.033 38.0201 474.778 37.8483 474.564 37.6269C474.35 37.4055 474.185 37.1554 474.069 36.8767C473.954 36.5981 473.892 36.3071 473.885 36.004C473.88 35.6959 473.938 35.394 474.06 35.0983Z" fill="black"/>
<path d="M523.388 65.0605L522.846 64.7343C522.782 64.6957 522.739 64.6481 522.718 64.5913C522.699 64.53 522.694 64.4651 522.704 64.3965L523.257 60.8908L518.495 58.0206L515.661 60.1511C515.612 60.1904 515.554 60.2145 515.486 60.2235C515.419 60.2325 515.353 60.2178 515.289 60.1792L514.754 59.8571L524.565 52.5531L525.264 52.9743L523.388 65.0605ZM519.022 57.6279L523.366 60.2462L524.338 54.1537C524.353 54.0568 524.373 53.9508 524.399 53.8356C524.428 53.7158 524.459 53.5915 524.493 53.4626C524.395 53.5529 524.3 53.6387 524.207 53.7199C524.118 53.7966 524.032 53.8664 523.95 53.9293L519.022 57.6279Z" fill="black"/>
<path d="M537.405 73.2524L541.806 76.3261L541.408 76.8967L536.338 73.3558L542.82 64.0752L543.489 64.5424L537.405 73.2524Z" fill="black"/>
<path d="M559.409 75.8377L559.934 76.2695C560.053 76.3677 560.084 76.486 560.025 76.6243L556.323 85.625C556.28 85.7277 556.228 85.8332 556.166 85.9415C556.109 86.0532 556.048 86.169 555.984 86.289C556.089 86.2029 556.191 86.121 556.29 86.0431C556.388 85.9653 556.486 85.8971 556.582 85.8384L564.963 80.6838C565.017 80.6521 565.078 80.6366 565.146 80.6375C565.214 80.6385 565.277 80.6626 565.335 80.71L565.508 80.8523C565.566 80.8997 565.599 80.9552 565.609 81.0186C565.623 81.0779 565.619 81.1408 565.599 81.2071L562.162 90.4263C562.124 90.5324 562.077 90.6392 562.023 90.7468C561.973 90.8577 561.916 90.9732 561.852 91.0931C561.954 91.0112 562.051 90.9317 562.142 90.8546C562.236 90.7734 562.33 90.7017 562.422 90.6397L570.537 85.2666C570.586 85.2315 570.645 85.2143 570.714 85.2153C570.786 85.2196 570.851 85.2454 570.909 85.2928L571.391 85.6891L561.452 92.1723L560.883 91.7049L564.539 81.9926C564.588 81.8667 564.645 81.7379 564.712 81.6064C564.596 81.6973 564.481 81.7786 564.366 81.8504L555.538 87.3101L554.976 86.8477L559.409 75.8377Z" fill="black"/>
<path d="M583.341 111.874L582.888 111.434C582.835 111.382 582.804 111.326 582.795 111.266C582.79 111.202 582.801 111.137 582.826 111.073L584.16 107.784L580.172 103.909L576.928 105.341C576.872 105.369 576.81 105.379 576.742 105.372C576.674 105.366 576.613 105.337 576.56 105.285L576.112 104.85L587.323 99.9591L587.908 100.528L583.341 111.874ZM580.774 103.646L584.411 107.18L586.739 101.467C586.776 101.376 586.819 101.277 586.871 101.171C586.926 101.06 586.984 100.946 587.047 100.829C586.931 100.894 586.819 100.956 586.71 101.015C586.605 101.069 586.506 101.117 586.412 101.16L580.774 103.646Z" fill="black"/>
<path d="M599.922 122.399L596.442 125.515L595.892 124.902L599.373 121.785L601.535 114.233L602.009 114.764C602.059 114.819 602.084 114.875 602.085 114.932C602.093 114.989 602.088 115.055 602.069 115.13L600.356 121.012C600.314 121.15 600.268 121.277 600.216 121.395C600.168 121.51 600.114 121.622 600.056 121.732C600.171 121.686 600.289 121.645 600.408 121.61C600.531 121.571 600.663 121.539 600.804 121.513L606.834 120.452C606.899 120.437 606.962 120.434 607.021 120.445C607.081 120.456 607.136 120.489 607.186 120.545L607.666 121.081L599.922 122.399Z" fill="black"/>
<path d="M619.953 138.002C619.852 138.02 619.774 137.994 619.718 137.922C619.675 137.868 619.657 137.767 619.663 137.62C619.677 137.473 619.673 137.29 619.65 137.071C619.631 136.848 619.574 136.595 619.48 136.31C619.388 136.029 619.216 135.727 618.962 135.404C618.709 135.081 618.439 134.832 618.152 134.657C617.869 134.486 617.582 134.379 617.29 134.336C617.003 134.297 616.719 134.316 616.44 134.393C616.165 134.474 615.911 134.605 615.681 134.786C615.379 135.023 615.178 135.281 615.08 135.562C614.985 135.847 614.95 136.148 614.976 136.467C615.002 136.785 615.071 137.115 615.182 137.455C615.3 137.796 615.424 138.143 615.552 138.496C615.68 138.85 615.791 139.203 615.885 139.557C615.987 139.911 616.036 140.259 616.033 140.6C616.03 140.942 615.954 141.272 615.805 141.592C615.664 141.913 615.41 142.217 615.045 142.504C614.672 142.797 614.268 143.008 613.835 143.138C613.409 143.269 612.979 143.308 612.544 143.256C612.11 143.203 611.683 143.057 611.264 142.816C610.849 142.572 610.464 142.224 610.108 141.771C609.647 141.183 609.353 140.597 609.226 140.012C609.104 139.424 609.098 138.828 609.208 138.226L609.624 138.185C609.726 138.186 609.804 138.22 609.856 138.287C609.886 138.325 609.899 138.393 609.894 138.492C609.89 138.59 609.883 138.71 609.873 138.854C609.868 138.994 609.867 139.157 609.871 139.343C609.879 139.527 609.907 139.726 609.953 139.94C610.004 140.151 610.083 140.377 610.19 140.618C610.298 140.859 610.452 141.108 610.653 141.364C610.93 141.716 611.229 141.99 611.551 142.184C611.877 142.376 612.207 142.493 612.54 142.537C612.876 142.585 613.209 142.561 613.54 142.464C613.875 142.364 614.187 142.201 614.477 141.973C614.792 141.726 614.999 141.459 615.098 141.171C615.205 140.884 615.243 140.583 615.213 140.267C615.187 139.949 615.114 139.619 614.996 139.278C614.881 138.942 614.757 138.598 614.625 138.248C614.492 137.897 614.375 137.545 614.273 137.191C614.175 136.841 614.128 136.495 614.131 136.154C614.138 135.809 614.217 135.473 614.367 135.145C614.524 134.819 614.793 134.506 615.175 134.206C615.473 133.972 615.805 133.803 616.171 133.699C616.537 133.595 616.91 133.57 617.291 133.624C617.676 133.674 618.057 133.809 618.433 134.03C618.816 134.251 619.17 134.567 619.492 134.978C619.854 135.439 620.105 135.91 620.245 136.391C620.388 136.875 620.426 137.387 620.361 137.926L619.953 138.002Z" fill="black"/>
<path d="M628.991 167.633L638.596 161.642L640.32 164.405C640.661 164.952 640.902 165.459 641.041 165.925C641.184 166.395 641.231 166.828 641.182 167.223C641.137 167.616 641.003 167.97 640.779 168.285C640.558 168.606 640.255 168.886 639.87 169.126C639.617 169.284 639.344 169.391 639.052 169.447C638.763 169.508 638.467 169.517 638.163 169.474C637.86 169.43 637.557 169.333 637.255 169.182C636.961 169.032 636.678 168.825 636.406 168.561C636.765 169.387 636.876 170.126 636.741 170.776C636.606 171.426 636.219 171.95 635.581 172.348C635.174 172.602 634.762 172.758 634.346 172.816C633.93 172.875 633.523 172.836 633.124 172.701C632.726 172.567 632.34 172.336 631.966 172.009C631.598 171.68 631.254 171.26 630.935 170.748L628.991 167.633ZM634.026 165.454L629.98 167.978L631.483 170.387C632.011 171.234 632.59 171.759 633.22 171.963C633.855 172.164 634.502 172.059 635.163 171.647C635.466 171.458 635.701 171.229 635.867 170.962C636.041 170.697 636.144 170.403 636.176 170.081C636.212 169.757 636.177 169.408 636.07 169.035C635.963 168.662 635.784 168.274 635.533 167.871L634.026 165.454ZM634.535 165.137L635.834 167.221C636.111 167.664 636.403 168.007 636.711 168.249C637.022 168.495 637.332 168.66 637.642 168.743C637.954 168.831 638.258 168.849 638.552 168.797C638.847 168.746 639.119 168.642 639.368 168.487C640.015 168.083 640.375 167.572 640.449 166.955C640.529 166.338 640.303 165.603 639.77 164.747L638.478 162.677L634.535 165.137Z" fill="black"/>
<path d="M654.474 188.811L653.874 189.13L651.078 183.866L647.037 186.012L649.363 190.393L648.777 190.704L646.45 186.324L642.282 188.538L645.077 193.801L644.477 194.12L641.295 188.129L651.292 182.819L654.474 188.811Z" fill="black"/>
<path d="M664.835 210.222L664.199 210.506L662.575 206.877L652.878 211.218L652.545 210.474L662.241 206.132L660.607 202.482L661.242 202.197L664.835 210.222Z" fill="black"/>
<path d="M663.253 236.713L663.036 236.12C663.01 236.05 663.006 235.986 663.025 235.928C663.048 235.868 663.086 235.815 663.137 235.768L665.764 233.381L663.85 228.161L660.305 228.046C660.243 228.047 660.182 228.029 660.124 227.994C660.066 227.958 660.024 227.905 659.998 227.835L659.783 227.249L672.006 227.701L672.287 228.467L663.253 236.713ZM664.506 228.185L666.252 232.947L670.826 228.807C670.899 228.741 670.981 228.671 671.073 228.597C671.17 228.522 671.273 228.444 671.38 228.365C671.247 228.374 671.119 228.381 670.996 228.387C670.878 228.39 670.768 228.391 670.665 228.389L664.506 228.185Z" fill="black"/>
<path d="M679.843 276.944C680.162 276.879 680.474 276.878 680.781 276.94C681.088 277.003 681.367 277.117 681.619 277.284C681.876 277.449 682.092 277.658 682.269 277.91C682.446 278.163 682.566 278.446 682.63 278.759C682.695 279.078 682.696 279.391 682.634 279.698C682.571 280.004 682.454 280.284 682.282 280.537C682.116 280.788 681.904 281.003 681.646 281.181C681.389 281.359 681.1 281.48 680.782 281.545C680.468 281.609 680.161 281.609 679.859 281.546C679.563 281.481 679.289 281.365 679.037 281.199C678.786 281.033 678.571 280.821 678.393 280.563C678.215 280.305 678.094 280.017 678.029 279.698C677.965 279.385 677.965 279.077 678.028 278.776C678.092 278.474 678.207 278.198 678.374 277.946C678.54 277.694 678.747 277.481 678.994 277.305C679.246 277.128 679.529 277.008 679.843 276.944Z" fill="black"/>
<path d="M694.165 356.966L693.485 356.954L693.595 350.995L689.02 350.911L688.929 355.87L688.265 355.858L688.356 350.899L683.637 350.812L683.527 356.771L682.847 356.758L682.972 349.976L694.29 350.184L694.165 356.966Z" fill="black"/>
<path d="M679.922 394.242L680.003 393.615C680.013 393.541 680.039 393.482 680.082 393.439C680.131 393.397 680.188 393.367 680.255 393.349L683.687 392.444L684.398 386.93L681.307 385.192C681.251 385.164 681.206 385.12 681.17 385.062C681.135 385.003 681.122 384.937 681.131 384.863L681.211 384.244L691.846 390.286L691.742 391.095L679.922 394.242ZM684.969 387.253L684.321 392.284L690.289 390.722C690.384 390.697 690.489 390.673 690.605 390.65C690.726 390.628 690.853 390.607 690.985 390.586C690.862 390.532 690.746 390.48 690.634 390.428C690.528 390.376 690.429 390.326 690.339 390.277L684.969 387.253Z" fill="black"/>
<path d="M679.051 424.731L674.62 423.656L674.812 422.863L685.813 425.532L685.124 428.37C684.811 429.66 684.293 430.563 683.57 431.079C682.845 431.6 681.959 431.734 680.912 431.48C680.43 431.363 680.009 431.165 679.649 430.885C679.287 430.611 679 430.27 678.786 429.861C678.577 429.454 678.449 428.989 678.4 428.467C678.356 427.946 678.408 427.382 678.555 426.776L679.051 424.731ZM679.688 424.886L679.192 426.93C679.074 427.417 679.036 427.869 679.078 428.285C679.119 428.702 679.227 429.071 679.402 429.393C679.575 429.72 679.805 429.993 680.092 430.211C680.384 430.435 680.721 430.594 681.105 430.687C681.949 430.892 682.663 430.788 683.246 430.375C683.828 429.968 684.244 429.248 684.495 428.217L684.991 426.172L679.688 424.886Z" fill="black"/>
<path d="M666.655 452.458L666.847 451.856C666.869 451.785 666.906 451.732 666.956 451.698C667.011 451.665 667.073 451.645 667.142 451.639L670.68 451.361L672.363 446.062L669.631 443.801C669.582 443.763 669.545 443.712 669.52 443.648C669.496 443.585 669.495 443.517 669.518 443.446L669.706 442.851L679.093 450.693L678.846 451.47L666.655 452.458ZM672.868 446.483L671.332 451.317L677.484 450.844C677.582 450.836 677.689 450.831 677.808 450.83C677.931 450.83 678.059 450.831 678.192 450.834C678.081 450.76 677.976 450.687 677.875 450.616C677.78 450.547 677.692 450.48 677.612 450.415L672.868 446.483Z" fill="black"/>
<path d="M665.985 469.885L661.229 467.99L661.531 467.232L672.047 471.423L670.978 474.105C670.494 475.319 669.897 476.132 669.188 476.544C668.483 476.958 667.677 476.984 666.771 476.623C666.369 476.463 666.03 476.247 665.754 475.976C665.477 475.705 665.265 475.388 665.117 475.025C664.972 474.669 664.89 474.274 664.873 473.843C664.861 473.413 664.921 472.958 665.056 472.477C664.934 472.566 664.792 472.634 664.631 472.678L658.64 474.485L658.904 473.823C658.936 473.744 658.978 473.681 659.032 473.633C659.083 473.591 659.154 473.556 659.245 473.529L664.853 471.862C664.995 471.822 665.109 471.761 665.193 471.679C665.275 471.603 665.356 471.463 665.437 471.26L665.985 469.885ZM666.55 470.11L665.821 471.938C665.636 472.404 665.524 472.842 665.487 473.252C665.453 473.669 665.49 474.045 665.597 474.381C665.703 474.722 665.875 475.017 666.114 475.267C666.353 475.518 666.656 475.716 667.022 475.862C667.77 476.16 668.423 476.136 668.98 475.79C669.537 475.443 670.002 474.802 670.376 473.865L671.143 471.941L666.55 470.11Z" fill="black"/>
<path d="M659.384 500.632L658.757 500.33L660.482 496.748L650.91 492.139L651.264 491.404L660.836 496.013L662.571 492.409L663.198 492.711L659.384 500.632Z" fill="black"/>
<path d="M651.97 515.14C651.933 515.205 651.895 515.25 651.855 515.277C651.82 515.306 651.762 515.325 651.683 515.335L639.526 516.788C639.673 516.854 639.811 516.924 639.94 516.999L648.168 521.739L647.809 522.363L638 516.712L638.196 516.373C638.257 516.266 638.353 516.207 638.482 516.196L650.669 514.723C650.522 514.657 650.387 514.588 650.262 514.516L642.006 509.76L642.362 509.143L652.17 514.794L651.97 515.14Z" fill="black"/>
<path d="M634.074 544.156L633.512 543.774L636.86 538.844L633.075 536.273L630.288 540.376L629.739 540.003L632.526 535.9L628.621 533.247L625.272 538.178L624.71 537.796L628.522 532.184L637.886 538.544L634.074 544.156Z" fill="black"/>
<path d="M618.998 554.528L614.973 551.364L615.477 550.722L624.377 557.718L622.593 559.988C621.785 561.015 620.983 561.626 620.186 561.821C619.393 562.018 618.613 561.815 617.845 561.212C617.506 560.945 617.241 560.643 617.053 560.304C616.864 559.966 616.75 559.602 616.711 559.212C616.673 558.829 616.706 558.428 616.812 558.009C616.922 557.593 617.109 557.174 617.373 556.751C617.231 556.802 617.077 556.826 616.909 556.823L610.652 556.861L611.092 556.301C611.145 556.234 611.204 556.185 611.268 556.155C611.33 556.128 611.408 556.115 611.503 556.115L617.353 556.104C617.501 556.105 617.627 556.078 617.731 556.024C617.831 555.974 617.949 555.863 618.084 555.691L618.998 554.528ZM619.476 554.904L618.26 556.451C617.95 556.845 617.72 557.233 617.568 557.616C617.417 558.006 617.346 558.378 617.354 558.73C617.359 559.087 617.44 559.419 617.599 559.726C617.757 560.034 617.992 560.31 618.302 560.554C618.935 561.051 619.568 561.213 620.2 561.038C620.833 560.864 621.46 560.38 622.083 559.588L623.363 557.959L619.476 554.904Z" fill="black"/>
<path d="M584.847 592.485C585.069 592.722 585.235 592.988 585.343 593.282C585.45 593.575 585.5 593.873 585.49 594.175C585.485 594.48 585.421 594.774 585.299 595.057C585.177 595.34 584.999 595.591 584.766 595.81C584.529 596.033 584.264 596.199 583.97 596.307C583.676 596.414 583.377 596.462 583.071 596.449C582.77 596.439 582.476 596.372 582.189 596.246C581.902 596.12 581.648 595.939 581.425 595.701C581.206 595.468 581.044 595.207 580.94 594.917C580.839 594.631 580.794 594.337 580.803 594.035C580.812 593.734 580.88 593.44 581.006 593.153C581.131 592.866 581.313 592.612 581.55 592.389C581.783 592.17 582.045 592.008 582.335 591.904C582.625 591.8 582.92 591.752 583.222 591.761C583.524 591.771 583.814 591.834 584.093 591.953C584.376 592.074 584.627 592.252 584.847 592.485Z" fill="black"/>
<path d="M555.013 612.197L561.816 621.245L559.213 623.202C558.697 623.59 558.213 623.873 557.761 624.053C557.305 624.236 556.878 624.32 556.48 624.306C556.085 624.296 555.721 624.193 555.387 623.997C555.048 623.804 554.743 623.527 554.471 623.164C554.291 622.925 554.161 622.663 554.079 622.377C553.994 622.095 553.959 621.8 553.976 621.494C553.993 621.188 554.063 620.878 554.188 620.564C554.311 620.258 554.493 619.958 554.732 619.665C553.94 620.093 553.215 620.269 552.555 620.19C551.896 620.112 551.34 619.773 550.889 619.171C550.6 618.788 550.409 618.391 550.314 617.982C550.22 617.572 550.223 617.163 550.323 616.754C550.422 616.346 550.619 615.941 550.912 615.541C551.208 615.145 551.597 614.766 552.078 614.404L555.013 612.197ZM557.62 617.023L554.755 613.212L552.485 614.918C551.688 615.518 551.215 616.14 551.067 616.786C550.921 617.435 551.082 618.071 551.55 618.694C551.765 618.98 552.013 619.194 552.293 619.336C552.573 619.486 552.875 619.563 553.198 619.567C553.524 619.575 553.869 619.51 554.231 619.371C554.594 619.232 554.965 619.02 555.344 618.734L557.62 617.023ZM557.981 617.502L556.018 618.978C555.6 619.292 555.284 619.613 555.07 619.941C554.852 620.272 554.715 620.595 554.658 620.911C554.598 621.23 554.606 621.534 554.684 621.823C554.761 622.112 554.887 622.374 555.064 622.608C555.522 623.218 556.062 623.532 556.684 623.552C557.305 623.579 558.018 623.29 558.824 622.684L560.774 621.218L557.981 617.502Z" fill="black"/>
<path d="M536.128 639.423L535.758 638.853L540.759 635.611L538.27 631.771L534.108 634.469L533.747 633.912L537.909 631.214L535.341 627.253L530.34 630.495L529.97 629.925L535.663 626.234L541.82 635.733L536.128 639.423Z" fill="black"/>
<path d="M497.051 648.563L497.789 648.196L500.201 653.054L506.55 649.902L504.137 645.044L504.875 644.678L509.91 654.817L509.172 655.183L506.823 650.454L500.475 653.606L502.823 658.335L502.085 658.702L497.051 648.563Z" fill="black"/>
<path d="M473.309 665.247C472.984 664.435 472.811 663.649 472.788 662.888C472.768 662.132 472.884 661.431 473.137 660.785C473.391 660.143 473.774 659.571 474.286 659.068C474.799 658.57 475.429 658.171 476.177 657.872C476.915 657.578 477.642 657.434 478.357 657.441C479.074 657.453 479.746 657.604 480.372 657.893C481.001 658.188 481.571 658.615 482.082 659.174C482.59 659.741 483.006 660.43 483.33 661.243C483.653 662.05 483.825 662.831 483.845 663.587C483.863 664.35 483.744 665.052 483.489 665.693C483.237 666.34 482.855 666.915 482.343 667.418C481.832 667.921 481.208 668.32 480.47 668.615C479.722 668.913 478.989 669.057 478.272 669.045C477.557 669.037 476.885 668.887 476.257 668.592C475.628 668.298 475.06 667.867 474.552 667.301C474.046 666.739 473.632 666.054 473.309 665.247ZM474.096 664.933C474.389 665.666 474.754 666.284 475.191 666.787C475.627 667.29 476.112 667.671 476.646 667.928C477.175 668.188 477.742 668.32 478.347 668.326C478.954 668.336 479.575 668.214 480.208 667.961C480.832 667.711 481.361 667.374 481.794 666.948C482.224 666.529 482.546 666.042 482.76 665.485C482.969 664.931 483.061 664.32 483.035 663.652C483.005 662.987 482.843 662.287 482.55 661.554C482.256 660.816 481.89 660.196 481.453 659.693C481.014 659.196 480.527 658.819 479.993 658.562C479.455 658.306 478.885 658.174 478.285 658.167C477.68 658.162 477.065 658.284 476.441 658.534C475.807 658.787 475.273 659.124 474.838 659.545C474.403 659.965 474.084 660.452 473.879 661.005C473.67 661.559 473.58 662.167 473.608 662.827C473.639 663.493 473.802 664.195 474.096 664.933Z" fill="black"/>
<path d="M458.394 676.744C458.322 676.766 458.263 676.773 458.216 676.765C458.171 676.763 458.115 676.738 458.051 676.691L448.155 669.481C448.218 669.629 448.271 669.775 448.315 669.917L451.117 678.991L450.429 679.203L447.089 668.387L447.464 668.271C447.581 668.235 447.691 668.257 447.794 668.337L457.724 675.552C457.662 675.404 457.609 675.261 457.567 675.124L454.756 666.02L455.436 665.81L458.776 676.626L458.394 676.744Z" fill="black"/>
<path d="M425.533 685.82L425.381 685.157L431.19 683.825L430.167 679.365L425.333 680.474L425.184 679.827L430.019 678.718L428.963 674.117L423.154 675.45L423.002 674.787L429.614 673.27L432.146 684.303L425.533 685.82Z" fill="black"/>
<path d="M380.695 692.898L380.629 692.205L384.586 691.826L383.573 681.251L384.386 681.173L385.399 691.748L389.381 691.367L389.447 692.06L380.695 692.898Z" fill="black"/>
<g opacity="0.246">
<path opacity="0.246" d="M354.292 620.316C500.647 620.316 619.292 501.672 619.292 355.316C619.292 208.961 500.647 90.3164 354.292 90.3164C207.936 90.3164 89.2915 208.961 89.2915 355.316C89.2915 501.672 207.936 620.316 354.292 620.316Z" stroke="#707070" stroke-width="2" stroke-dasharray="6 16"/>
</g>
<path d="M292.727 149.554H281.116V151.458H285.791V160.536H288.052V151.458H292.727V149.554ZM299.475 151.9C297.367 151.9 296.007 153.192 295.548 154.518V148.704H293.338V160.536H295.548V155.555C295.922 154.62 297.095 153.821 298.54 153.821C300.257 153.821 300.92 154.535 300.92 155.912V160.536H303.13V155.147C303.13 152.954 301.549 151.9 299.475 151.9ZM312.823 157.731C312.551 158.53 311.548 159.057 310.137 159.057C308.233 159.057 307.094 158.054 306.941 156.66H314.999C315.135 153.447 313.435 151.9 310.137 151.9C306.856 151.9 304.714 153.566 304.714 156.337C304.714 159.142 306.958 160.74 310.188 160.74C313.061 160.74 314.659 159.482 314.948 157.731H312.823ZM310.018 153.583C311.684 153.583 312.67 154.297 312.806 155.453H307.043C307.332 154.382 308.386 153.583 310.018 153.583ZM332.287 157.408C332.287 155.606 330.842 155.13 328.972 154.994C330.757 154.756 331.879 154.093 331.879 152.427C331.879 150.54 330.298 149.554 327.357 149.554H321.016V160.536H327.986C330.536 160.485 332.287 159.516 332.287 157.408ZM327.425 151.441C328.7 151.441 329.516 151.849 329.516 152.852C329.516 153.889 328.734 154.433 327.306 154.433H323.294V151.441H327.425ZM327.765 158.632H323.294V155.725H327.544C328.836 155.725 329.975 155.997 329.975 157.17C329.975 158.19 329.193 158.632 327.765 158.632ZM338.989 160.74C342.168 160.74 344.327 159.21 344.327 156.337C344.327 153.481 342.168 151.9 338.989 151.9C335.793 151.9 333.6 153.481 333.6 156.337C333.6 159.21 335.793 160.74 338.989 160.74ZM338.989 159.04C337.221 159.04 335.827 158.088 335.827 156.337C335.827 154.586 337.238 153.6 338.989 153.6C340.74 153.6 342.083 154.603 342.083 156.337C342.083 158.088 340.706 159.04 338.989 159.04ZM358.719 152.104L356.322 158.071L354.282 152.104H351.732L349.607 158.071L347.295 152.104H344.881L348.502 160.553H350.576L352.99 154.654L355.336 160.553H357.427L361.133 152.104H358.719ZM369.733 157.731C369.461 158.53 368.458 159.057 367.047 159.057C365.143 159.057 364.004 158.054 363.851 156.66H371.909C372.045 153.447 370.345 151.9 367.047 151.9C363.766 151.9 361.624 153.566 361.624 156.337C361.624 159.142 363.868 160.74 367.098 160.74C369.971 160.74 371.569 159.482 371.858 157.731H369.733ZM366.928 153.583C368.594 153.583 369.58 154.297 369.716 155.453H363.953C364.242 154.382 365.296 153.583 366.928 153.583ZM395.929 149.554L392.376 158.36L389.01 149.554H386.392L383.026 158.36L379.473 149.554H376.974L381.598 160.536H384.386L387.701 151.934L391.016 160.536H393.804L398.394 149.554H395.929ZM406.68 152.104V154.603C406.221 153.005 405.031 151.9 402.855 151.9C400.203 151.9 398.214 153.668 398.214 156.337C398.214 158.972 400.203 160.74 402.736 160.74C404.98 160.74 406.221 159.363 406.68 157.833V158.36C406.68 159.38 406.833 160.536 406.833 160.536H408.89V152.104H406.68ZM403.45 159.023C401.648 159.023 400.475 157.952 400.475 156.337C400.475 154.705 401.546 153.617 403.45 153.617C405.422 153.617 406.68 154.603 406.68 156.337C406.68 157.952 405.439 159.023 403.45 159.023ZM418.098 152.104L415.259 158.292L412.471 152.104H410.125L414.171 160.468L412.318 163.936H414.596L420.444 152.104H418.098Z" fill="#3B3943"/>
<path d="M74.976 427.777H63.365V429.681H68.04V438.759H70.301V429.681H74.976V427.777ZM81.7237 430.123C79.6157 430.123 78.2557 431.415 77.7967 432.741V426.927H75.5867V438.759H77.7967V433.778C78.1707 432.843 79.3437 432.044 80.7887 432.044C82.5057 432.044 83.1687 432.758 83.1687 434.135V438.759H85.3787V433.37C85.3787 431.177 83.7977 430.123 81.7237 430.123ZM89.9036 426.604H87.3366V428.559H89.9036V426.604ZM87.5066 430.327V438.759H89.7166V430.327H87.5066ZM98.0054 430.123C95.8974 430.123 94.5204 431.381 94.0784 432.758V430.327H91.8684V438.759H94.0784V433.744C94.4524 432.792 95.6934 431.908 97.2234 431.908C98.7704 431.908 99.4334 432.571 99.4334 433.999V438.759H101.643V433.608C101.643 431.211 100.079 430.123 98.0054 430.123ZM103.793 438.759H106.003V426.927H103.793V438.759ZM108.893 434.05L113.143 430.327H110.117L106.054 434.033L110.712 438.776L113.517 438.759L108.893 434.05ZM118.457 435.954C118.355 436.77 119.188 438.963 122.877 438.963C125.155 438.963 126.702 438.062 126.702 436.481C126.702 434.611 124.917 434.305 123.183 433.948C121.585 433.676 120.786 433.489 120.786 432.792C120.786 432.197 121.398 431.84 122.503 431.84C123.642 431.84 124.254 432.163 124.458 433.013H126.413C126.396 431.33 125.036 430.123 122.537 430.123C120.242 430.123 118.525 431.058 118.525 432.69C118.525 434.373 120.259 434.832 122.18 435.155C123.642 435.393 124.441 435.563 124.441 436.328C124.441 436.872 124.016 437.28 122.809 437.263C121.466 437.263 120.735 436.719 120.497 435.954H118.457ZM130.926 426.604H128.359V428.559H130.926V426.604ZM128.529 430.327V438.759H130.739V430.327H128.529ZM146.44 430.123C144.485 430.123 143.074 431.313 142.564 432.588C142.173 430.905 140.779 430.123 139.028 430.123C136.92 430.123 135.543 431.381 135.101 432.758V430.327H132.891V438.759H135.101V433.744C135.475 432.792 136.716 431.908 138.246 431.908C139.793 431.908 140.456 432.571 140.456 433.999V438.759H142.666V433.608C142.666 433.54 142.666 433.489 142.666 433.438C143.159 432.605 144.298 431.908 145.658 431.908C147.205 431.908 147.868 432.571 147.868 433.999V438.759H150.078V433.608C150.078 431.211 148.514 430.123 146.44 430.123ZM158.186 430.123C155.925 430.123 154.701 431.211 154.242 432.809V432.554L154.123 430.327H152.032V442.159H154.242V436.073C154.718 437.603 155.942 438.963 158.186 438.963C160.685 438.963 162.708 437.229 162.708 434.56C162.708 431.925 160.719 430.123 158.186 430.123ZM157.472 437.246C155.551 437.246 154.327 436.26 154.242 434.747V434.373C154.344 432.758 155.704 431.84 157.472 431.84C159.359 431.84 160.447 432.928 160.447 434.56C160.447 436.192 159.274 437.246 157.472 437.246ZM164.522 426.927V438.759H166.732V426.927H164.522ZM176.668 435.954C176.396 436.753 175.393 437.28 173.982 437.28C172.078 437.28 170.939 436.277 170.786 434.883H178.844C178.98 431.67 177.28 430.123 173.982 430.123C170.701 430.123 168.559 431.789 168.559 434.56C168.559 437.365 170.803 438.963 174.033 438.963C176.906 438.963 178.504 437.705 178.793 435.954H176.668ZM173.863 431.806C175.529 431.806 176.515 432.52 176.651 433.676H170.888C171.177 432.605 172.231 431.806 173.863 431.806ZM75.1249 450.327V452.826C74.6659 451.228 73.4759 450.123 71.2999 450.123C68.6479 450.123 66.6589 451.891 66.6589 454.56C66.6589 457.195 68.6479 458.963 71.1809 458.963C73.4249 458.963 74.6659 457.586 75.1249 456.056V456.583C75.1249 457.603 75.2779 458.759 75.2779 458.759H77.3349V450.327H75.1249ZM71.8949 457.246C70.0929 457.246 68.9199 456.175 68.9199 454.56C68.9199 452.928 69.9909 451.84 71.8949 451.84C73.8669 451.84 75.1249 452.826 75.1249 454.56C75.1249 456.175 73.8839 457.246 71.8949 457.246ZM85.4214 450.123C83.3134 450.123 81.9364 451.381 81.4944 452.758V450.327H79.2844V458.759H81.4944V453.744C81.8684 452.792 83.1094 451.908 84.6394 451.908C86.1864 451.908 86.8494 452.571 86.8494 453.999V458.759H89.0594V453.608C89.0594 451.211 87.4954 450.123 85.4214 450.123ZM99.1307 446.91V452.826C98.6717 451.228 97.4477 450.123 95.1867 450.123C92.5687 450.123 90.6647 451.891 90.6647 454.56C90.6647 457.195 92.6197 458.963 95.1867 458.963C97.4307 458.963 98.6717 457.586 99.1307 456.056V456.583C99.1307 457.603 99.2837 458.759 99.2837 458.759H101.341V446.91H99.1307ZM95.9007 457.246C94.0987 457.246 92.9257 456.175 92.9257 454.56C92.9257 452.928 93.9967 451.84 95.9007 451.84C97.8727 451.84 99.1307 452.826 99.1307 454.56C99.1307 456.175 97.8897 457.246 95.9007 457.246ZM114.334 450.123C112.056 450.123 110.849 451.228 110.39 452.826V446.91H108.18V458.759H110.22C110.22 458.759 110.39 457.603 110.39 456.583V456.056C110.849 457.586 112.09 458.963 114.334 458.963C116.901 458.963 118.856 457.195 118.856 454.56C118.856 451.891 116.952 450.123 114.334 450.123ZM113.62 457.246C111.614 457.246 110.39 456.175 110.39 454.56C110.39 452.826 111.648 451.84 113.62 451.84C115.507 451.84 116.595 452.928 116.595 454.56C116.595 456.175 115.405 457.246 113.62 457.246ZM128.208 455.954C127.936 456.753 126.933 457.28 125.522 457.28C123.618 457.28 122.479 456.277 122.326 454.883H130.384C130.52 451.67 128.82 450.123 125.522 450.123C122.241 450.123 120.099 451.789 120.099 454.56C120.099 457.365 122.343 458.963 125.573 458.963C128.446 458.963 130.044 457.705 130.333 455.954H128.208ZM125.403 451.806C127.069 451.806 128.055 452.52 128.191 453.676H122.428C122.717 452.605 123.771 451.806 125.403 451.806ZM144.187 450.327V452.826C143.728 451.228 142.538 450.123 140.362 450.123C137.71 450.123 135.721 451.891 135.721 454.56C135.721 457.195 137.71 458.963 140.243 458.963C142.487 458.963 143.728 457.586 144.187 456.056V456.583C144.187 457.603 144.34 458.759 144.34 458.759H146.397V450.327H144.187ZM140.957 457.246C139.155 457.246 137.982 456.175 137.982 454.56C137.982 452.928 139.053 451.84 140.957 451.84C142.929 451.84 144.187 452.826 144.187 454.56C144.187 456.175 142.946 457.246 140.957 457.246ZM153.77 450.242C153.396 450.157 153.005 450.123 152.614 450.123C149.775 450.123 147.99 451.585 147.99 453.846C147.99 455.631 149.078 456.821 150.829 457.263C149.367 457.28 148.262 457.671 148.262 458.844C148.262 459.762 148.891 460.442 150.931 460.442H153.583C154.722 460.442 155.453 460.799 155.453 461.853V462.244H157.663V461.462C157.663 459.422 156.32 458.776 154.059 458.776L151.288 458.759C150.761 458.759 150.489 458.572 150.489 458.215C150.489 457.654 151.169 457.518 152.614 457.467C155.436 457.467 157.187 456.175 157.187 453.948C157.187 452.605 156.099 451.704 154.926 451.126C155.844 451.517 157.136 451.942 158.36 451.925V450.225L153.77 450.242ZM154.144 450.803V450.769C154.229 450.803 154.314 450.854 154.416 450.905C154.331 450.871 154.229 450.82 154.144 450.803ZM152.614 455.886C151.118 455.886 150.132 455.138 150.132 453.863C150.132 452.588 151.135 451.84 152.614 451.84C154.076 451.84 155.045 452.605 155.045 453.863C155.045 455.138 154.059 455.886 152.614 455.886ZM162.336 446.604H159.769V448.559H162.336V446.604ZM159.939 450.327V458.759H162.149V450.327H159.939ZM164.522 446.927V458.759H166.732V446.927H164.522ZM176.668 455.954C176.396 456.753 175.393 457.28 173.982 457.28C172.078 457.28 170.939 456.277 170.786 454.883H178.844C178.98 451.67 177.28 450.123 173.982 450.123C170.701 450.123 168.559 451.789 168.559 454.56C168.559 457.365 170.803 458.963 174.033 458.963C176.906 458.963 178.504 457.705 178.793 455.954H176.668ZM173.863 451.806C175.529 451.806 176.515 452.52 176.651 453.676H170.888C171.177 452.605 172.231 451.806 173.863 451.806Z" fill="#3B3943"/>
<path d="M543.01 434.818C543.01 433.016 541.565 432.54 539.695 432.404C541.48 432.166 542.602 431.503 542.602 429.837C542.602 427.95 541.021 426.964 538.08 426.964H531.739V437.946H538.709C541.259 437.895 543.01 436.926 543.01 434.818ZM538.148 428.851C539.423 428.851 540.239 429.259 540.239 430.262C540.239 431.299 539.457 431.843 538.029 431.843H534.017V428.851H538.148ZM538.488 436.042H534.017V433.135H538.267C539.559 433.135 540.698 433.407 540.698 434.58C540.698 435.6 539.916 436.042 538.488 436.042ZM552.245 429.514V434.172C551.956 434.835 551.089 436.365 549.134 436.365C547.723 436.365 546.89 435.889 546.89 434.257V429.514H544.68V434.614C544.68 437.368 546.601 438.15 548.454 438.15C550.868 438.15 551.905 436.195 552.245 435.056V437.946H554.455V429.514H552.245ZM556.129 435.141C556.027 435.957 556.86 438.15 560.549 438.15C562.827 438.15 564.374 437.249 564.374 435.668C564.374 433.798 562.589 433.492 560.855 433.135C559.257 432.863 558.458 432.676 558.458 431.979C558.458 431.384 559.07 431.027 560.175 431.027C561.314 431.027 561.926 431.35 562.13 432.2H564.085C564.068 430.517 562.708 429.31 560.209 429.31C557.914 429.31 556.197 430.245 556.197 431.877C556.197 433.56 557.931 434.019 559.852 434.342C561.314 434.58 562.113 434.75 562.113 435.515C562.113 436.059 561.688 436.467 560.481 436.45C559.138 436.45 558.407 435.906 558.169 435.141H556.129ZM568.597 425.791H566.03V427.746H568.597V425.791ZM566.2 429.514V437.946H568.41V429.514H566.2ZM576.699 429.31C574.591 429.31 573.214 430.568 572.772 431.945V429.514H570.562V437.946H572.772V432.931C573.146 431.979 574.387 431.095 575.917 431.095C577.464 431.095 578.127 431.758 578.127 433.186V437.946H580.337V432.795C580.337 430.398 578.773 429.31 576.699 429.31ZM590.052 435.141C589.78 435.94 588.777 436.467 587.366 436.467C585.462 436.467 584.323 435.464 584.17 434.07H592.228C592.364 430.857 590.664 429.31 587.366 429.31C584.085 429.31 581.943 430.976 581.943 433.747C581.943 436.552 584.187 438.15 587.417 438.15C590.29 438.15 591.888 436.892 592.177 435.141H590.052ZM587.247 430.993C588.913 430.993 589.899 431.707 590.035 432.863H584.272C584.561 431.792 585.615 430.993 587.247 430.993ZM593.532 435.141C593.43 435.957 594.263 438.15 597.952 438.15C600.23 438.15 601.777 437.249 601.777 435.668C601.777 433.798 599.992 433.492 598.258 433.135C596.66 432.863 595.861 432.676 595.861 431.979C595.861 431.384 596.473 431.027 597.578 431.027C598.717 431.027 599.329 431.35 599.533 432.2H601.488C601.471 430.517 600.111 429.31 597.612 429.31C595.317 429.31 593.6 430.245 593.6 431.877C593.6 433.56 595.334 434.019 597.255 434.342C598.717 434.58 599.516 434.75 599.516 435.515C599.516 436.059 599.091 436.467 597.884 436.45C596.541 436.45 595.81 435.906 595.572 435.141H593.532ZM603.128 435.141C603.026 435.957 603.859 438.15 607.548 438.15C609.826 438.15 611.373 437.249 611.373 435.668C611.373 433.798 609.588 433.492 607.854 433.135C606.256 432.863 605.457 432.676 605.457 431.979C605.457 431.384 606.069 431.027 607.174 431.027C608.313 431.027 608.925 431.35 609.129 432.2H611.084C611.067 430.517 609.707 429.31 607.208 429.31C604.913 429.31 603.196 430.245 603.196 431.877C603.196 433.56 604.93 434.019 606.851 434.342C608.313 434.58 609.112 434.75 609.112 435.515C609.112 436.059 608.687 436.467 607.48 436.45C606.137 436.45 605.406 435.906 605.168 435.141H603.128ZM538.029 446.964H531.739V457.946H538.029C542.772 457.946 544.489 455.328 544.489 452.421C544.489 449.514 542.993 446.964 538.029 446.964ZM537.978 455.991H534.017V448.919H537.978C541.242 448.919 542.177 450.551 542.177 452.421C542.177 454.291 541.242 455.991 537.978 455.991ZM554.109 455.141C553.837 455.94 552.834 456.467 551.423 456.467C549.519 456.467 548.38 455.464 548.227 454.07H556.285C556.421 450.857 554.721 449.31 551.423 449.31C548.142 449.31 546 450.976 546 453.747C546 456.552 548.244 458.15 551.474 458.15C554.347 458.15 555.945 456.892 556.234 455.141H554.109ZM551.304 450.993C552.97 450.993 553.956 451.707 554.092 452.863H548.329C548.618 451.792 549.672 450.993 551.304 450.993ZM565.631 455.141C565.359 455.94 564.356 456.467 562.945 456.467C561.041 456.467 559.902 455.464 559.749 454.07H567.807C567.943 450.857 566.243 449.31 562.945 449.31C559.664 449.31 557.522 450.976 557.522 453.747C557.522 456.552 559.766 458.15 562.996 458.15C565.869 458.15 567.467 456.892 567.756 455.141H565.631ZM562.826 450.993C564.492 450.993 565.478 451.707 565.614 452.863H559.851C560.14 451.792 561.194 450.993 562.826 450.993ZM575.554 449.31C573.293 449.31 572.069 450.398 571.61 451.996V451.741L571.491 449.514H569.4V461.346H571.61V455.26C572.086 456.79 573.31 458.15 575.554 458.15C578.053 458.15 580.076 456.416 580.076 453.747C580.076 451.112 578.087 449.31 575.554 449.31ZM574.84 456.433C572.919 456.433 571.695 455.447 571.61 453.934V453.56C571.712 451.945 573.072 451.027 574.84 451.027C576.727 451.027 577.815 452.115 577.815 453.747C577.815 455.379 576.642 456.433 574.84 456.433ZM589.421 455.141C589.149 455.94 588.146 456.467 586.735 456.467C584.831 456.467 583.692 455.464 583.539 454.07H591.597C591.733 450.857 590.033 449.31 586.735 449.31C583.454 449.31 581.312 450.976 581.312 453.747C581.312 456.552 583.556 458.15 586.786 458.15C589.659 458.15 591.257 456.892 591.546 455.141H589.421ZM586.616 450.993C588.282 450.993 589.268 451.707 589.404 452.863H583.641C583.93 451.792 584.984 450.993 586.616 450.993ZM595.4 452.047V449.514H593.19V457.946H595.4V453.339C595.689 452.744 596.59 451.333 598.647 451.333V449.31C596.641 449.31 595.723 451.01 595.4 452.047ZM599.608 455.141C599.506 455.957 600.339 458.15 604.028 458.15C606.306 458.15 607.853 457.249 607.853 455.668C607.853 453.798 606.068 453.492 604.334 453.135C602.736 452.863 601.937 452.676 601.937 451.979C601.937 451.384 602.549 451.027 603.654 451.027C604.793 451.027 605.405 451.35 605.609 452.2H607.564C607.547 450.517 606.187 449.31 603.688 449.31C601.393 449.31 599.676 450.245 599.676 451.877C599.676 453.56 601.41 454.019 603.331 454.342C604.793 454.58 605.592 454.75 605.592 455.515C605.592 456.059 605.167 456.467 603.96 456.45C602.617 456.45 601.886 455.906 601.648 455.141H599.608Z" fill="#3B3943"/>
<path d="M329.431 199.785L204.043 415.561C190.091 439.135 201.331 461.727 229.017 461.727H480.606C508.247 461.727 519.506 439.134 505.535 415.561L380.165 201.492C366.213 177.83 343.384 176.145 329.431 199.785Z" fill="#F41F45"/>
<path d="M348.917 317.468L319.863 367.468C316.63 372.93 319.235 378.168 325.65 378.168H383.95C390.35 378.168 392.965 372.933 389.726 367.468L360.677 317.868C357.44 312.381 352.15 311.992 348.917 317.468Z" fill="white"/>
<path d="M15.8109 401.057C15.4885 401.101 15.1764 401.082 14.8745 400.999C14.5726 400.916 14.3016 400.783 14.0616 400.601C13.8162 400.419 13.6137 400.196 13.4541 399.932C13.2945 399.669 13.1932 399.378 13.1502 399.061C13.1064 398.739 13.1259 398.427 13.2088 398.125C13.2916 397.823 13.427 397.552 13.6149 397.311C13.7976 397.071 14.0234 396.87 14.2923 396.71C14.5612 396.55 14.8568 396.448 15.1792 396.404C15.4963 396.361 15.8031 396.381 16.0997 396.465C16.391 396.549 16.6568 396.683 16.8968 396.865C17.1369 397.048 17.3371 397.274 17.4974 397.543C17.6577 397.811 17.7597 398.107 17.8035 398.429C17.8466 398.747 17.8263 399.053 17.7428 399.35C17.6593 399.647 17.5261 399.915 17.3435 400.155C17.1608 400.395 16.9402 400.595 16.6819 400.753C16.4183 400.913 16.128 401.014 15.8109 401.057Z" fill="black"/>
<path d="M411.107 11.1684L410.988 11.8541L407.071 11.1713L405.246 21.6374L404.442 21.4973L406.267 11.0311L402.326 10.3442L402.446 9.65855L411.107 11.1684Z" fill="black"/>
<path d="M682.91 327.03L694.215 326.452L694.382 329.704C694.414 330.348 694.379 330.908 694.275 331.383C694.172 331.864 694.003 332.265 693.768 332.587C693.539 332.908 693.25 333.153 692.9 333.32C692.551 333.493 692.151 333.591 691.698 333.614C691.4 333.629 691.109 333.591 690.827 333.498C690.545 333.411 690.281 333.275 690.037 333.09C689.792 332.905 689.575 332.673 689.384 332.395C689.2 332.121 689.052 331.803 688.943 331.44C688.855 332.336 688.595 333.036 688.161 333.539C687.728 334.041 687.135 334.312 686.384 334.35C685.905 334.375 685.469 334.312 685.077 334.161C684.685 334.01 684.347 333.779 684.064 333.468C683.781 333.156 683.556 332.768 683.388 332.301C683.225 331.834 683.128 331.299 683.098 330.698L682.91 327.03ZM688.369 327.568L683.607 327.812L683.752 330.648C683.803 331.644 684.054 332.384 684.506 332.868C684.964 333.352 685.581 333.574 686.359 333.535C686.716 333.516 687.032 333.431 687.307 333.278C687.588 333.13 687.82 332.923 688.004 332.657C688.193 332.391 688.332 332.069 688.419 331.691C688.507 331.313 688.538 330.887 688.514 330.412L688.369 327.568ZM688.968 327.538L689.093 329.99C689.12 330.512 689.209 330.954 689.361 331.314C689.513 331.68 689.705 331.975 689.935 332.198C690.166 332.427 690.422 332.59 690.705 332.688C690.988 332.785 691.276 332.827 691.569 332.812C692.33 332.773 692.893 332.501 693.257 331.996C693.627 331.497 693.786 330.744 693.734 329.737L693.61 327.3L688.968 327.538Z" fill="black"/>
<path d="M404.628 689.545C404.661 689.448 404.722 689.392 404.812 689.378C404.88 689.367 404.978 689.4 405.103 689.476C405.225 689.559 405.387 689.644 405.59 689.73C405.794 689.821 406.044 689.894 406.339 689.949C406.629 690.005 406.977 690 407.382 689.934C407.787 689.869 408.136 689.753 408.428 689.587C408.714 689.421 408.947 689.222 409.125 688.987C409.298 688.754 409.418 688.497 409.486 688.216C409.549 687.935 409.557 687.651 409.51 687.361C409.449 686.982 409.319 686.681 409.121 686.46C408.918 686.239 408.67 686.062 408.379 685.931C408.088 685.8 407.766 685.701 407.415 685.634C407.059 685.572 406.696 685.512 406.324 685.454C405.953 685.395 405.59 685.321 405.235 685.233C404.876 685.15 404.548 685.025 404.25 684.857C403.953 684.689 403.7 684.463 403.492 684.178C403.279 683.899 403.136 683.53 403.062 683.072C402.986 682.604 402.996 682.148 403.092 681.706C403.183 681.27 403.357 680.874 403.613 680.519C403.869 680.165 404.203 679.862 404.617 679.611C405.031 679.366 405.522 679.197 406.091 679.105C406.828 678.986 407.483 679.012 408.057 679.184C408.631 679.361 409.155 679.644 409.628 680.032L409.463 680.415C409.413 680.504 409.346 680.556 409.262 680.569C409.214 680.577 409.148 680.555 409.065 680.504C408.981 680.453 408.878 680.388 408.758 680.311C408.638 680.238 408.495 680.159 408.33 680.072C408.166 679.99 407.978 679.918 407.768 679.855C407.559 679.797 407.323 679.757 407.06 679.735C406.797 679.712 406.505 679.727 406.184 679.779C405.741 679.851 405.357 679.98 405.031 680.168C404.706 680.361 404.443 680.593 404.244 680.863C404.039 681.134 403.899 681.438 403.824 681.774C403.75 682.115 403.742 682.468 403.801 682.831C403.865 683.226 403.999 683.537 404.203 683.763C404.403 683.995 404.648 684.174 404.938 684.3C405.23 684.431 405.553 684.528 405.909 684.589C406.259 684.651 406.62 684.709 406.99 684.762C407.361 684.816 407.726 684.884 408.085 684.966C408.439 685.049 408.764 685.175 409.062 685.343C409.36 685.516 409.616 685.747 409.831 686.037C410.04 686.332 410.184 686.72 410.262 687.199C410.322 687.573 410.31 687.945 410.224 688.315C410.138 688.686 409.979 689.025 409.748 689.332C409.518 689.645 409.215 689.913 408.841 690.136C408.462 690.364 408.014 690.521 407.498 690.604C406.919 690.698 406.386 690.69 405.898 690.58C405.405 690.47 404.938 690.257 404.498 689.939L404.628 689.545Z" fill="black"/>
</svg>
